<svg height="512pt" viewBox="0 0 512 512" width="512pt" xmlns="http://www.w3.org/2000/svg">
    <path d="m455.300781 406v106h-390v-106c0-57.898438 47.097657-105 105-105h180c57.898438 0 105 47.101562 105 105zm0 0"
          fill="#ffc850"/>
    <path d="m335.300781 243.699219v57.300781l-75 96.300781-75-96.300781v-57.300781l22.5 13.203125c15.898438 9.296875 34.199219 14.097656 52.5 14.097656s36.597657-4.800781 52.5-14.097656zm0 0"
          fill="#df826a"/>
    <path d="m395.300781 151v15c0 48-25.800781 93-67.5 116.699219-20.699219 12-44.101562 18.300781-67.5 18.300781-23.402343 0-46.800781-6.300781-67.5-18.300781-9.300781-5.101563-18.902343-12.300781-27.902343-21-25.5-26.097657-39.597657-60-39.597657-95.699219v-15l23.398438-30h21.601562c13.5 0 41.398438-5.699219 66.300781-16.5 10.199219-4.199219 18-8.402344 23.699219-12.300781 10.800781-6.898438 15-12.898438 15-16.199219h30c0 16.199219-6 30.300781-10.5 40.800781-.601562 1.199219-1.199219 2.699219-1.800781 4.199219h74.101562zm0 0"
          fill="#e69f8d"/>
    <path d="m355.699219 39.300781c-25.800781-25.203125-59.699219-39.300781-95.398438-39.300781-74.398437 0-135 61.601562-135 136v15h45c20.097657 0 52.199219-7.800781 78-18.898438 4.5-1.800781 8.097657-3.601562 12-5.402343h.300781c-.300781 4.5.597657 9 3.597657 13.5 7.199219 10.800781 21.300781 10.800781 26.101562 10.800781h105v-15c0-35.699219-14.101562-70.601562-39.601562-96.699219zm0 0"
          fill="#53433f"/>
    <path d="m64.101562 236.199219-63.601562 63.601562 211.199219 212.199219h127.199219zm0 0" fill="#53433f"/>
</svg>