<?xml version="1.0" encoding="iso-8859-1"?>
<!-- Generator: Adobe Illustrator 19.0.0, SVG Export Plug-In . SVG Version: 6.00 Build 0)  -->
<svg version="1.1" id="Capa_1" xmlns="http://www.w3.org/2000/svg" xmlns:xlink="http://www.w3.org/1999/xlink" x="0px" y="0px"
	 viewBox="0 0 58 58" style="enable-background:new 0 0 58 58;" xml:space="preserve">
<path style="fill:#ECF0F1;" d="M29,0C13.009,0,0,13.01,0,29s13.009,29,29,29s29-13.01,29-29S44.991,0,29,0z M29,53
	C15.766,53,5,42.234,5,29S15.766,5,29,5s24,10.766,24,24S42.234,53,29,53z"/>
<path style="fill:#BDC3C7;" d="M6.437,20.822c-0.83,2.284-1.319,4.729-1.414,7.273c1.327,0.064,3.471,0.348,6.058,1.523l9.311-12.22
	C13.089,18.113,8.773,19.651,6.437,20.822z"/>
<path style="fill:#546A79;" d="M29.123,16.998c-2.197,0-4.202,0.07-6.054,0.188L12.884,30.552c1.869,1.088,3.902,2.647,5.992,4.907
	c1.821,1.969,2.891,4.259,3.494,6.541h13.503c0.603-2.283,1.674-4.572,3.495-6.541c1.99-2.151,3.977-3.668,5.826-4.748
	L34.722,17.158C32.995,17.058,31.142,16.998,29.123,16.998z"/>
<path style="fill:#BDC3C7;" d="M22.667,52.146C24.686,52.699,26.808,53,29,53c2.277,0,4.478-0.326,6.567-0.921
	c-0.309-1.84-0.606-4.855-0.106-8.079H22.784C23.29,47.264,22.979,50.313,22.667,52.146z"/>
<path style="fill:#BDC3C7;" d="M52.978,28.124c-0.094-2.61-0.603-5.115-1.469-7.449c-2.45-1.174-6.834-2.655-14.11-3.323
	l9.595,12.418C49.528,28.599,51.669,28.233,52.978,28.124z"/>
<path style="fill:#8697CB;" d="M20.392,17.397l-9.311,12.22c0.58,0.263,1.182,0.572,1.803,0.934l10.184-13.367
	C22.137,17.244,21.241,17.314,20.392,17.397z"/>
<path style="fill:#8697CB;" d="M37.399,17.352c-0.848-0.078-1.749-0.14-2.677-0.193l10.473,13.552
	c0.618-0.361,1.219-0.672,1.8-0.941L37.399,17.352z"/>
<path style="fill:#8697CB;" d="M22.784,44h12.676c0.103-0.661,0.235-1.329,0.413-2H22.371C22.548,42.671,22.682,43.339,22.784,44z"
	/>
<g>
</g>
<g>
</g>
<g>
</g>
<g>
</g>
<g>
</g>
<g>
</g>
<g>
</g>
<g>
</g>
<g>
</g>
<g>
</g>
<g>
</g>
<g>
</g>
<g>
</g>
<g>
</g>
<g>
</g>
</svg>
