<?xml version="1.0" encoding="iso-8859-1"?>
<!-- Generator: Adobe Illustrator 19.0.0, SVG Export Plug-In . SVG Version: 6.00 Build 0)  -->
<svg version="1.1" id="Layer_1" xmlns="http://www.w3.org/2000/svg" xmlns:xlink="http://www.w3.org/1999/xlink" x="0px" y="0px"
	 viewBox="0 0 291.764 291.764" style="enable-background:new 0 0 291.764 291.764;" xml:space="preserve">
<g>
	<path style="fill:#26A6D1;" d="M18.235,41.025h255.294c10.066,0,18.235,8.169,18.235,18.244v173.235
		c0,10.066-8.169,18.235-18.235,18.235H18.235C8.16,250.74,0,242.57,0,232.505V59.269C0,49.194,8.169,41.025,18.235,41.025z"/>
	<path style="fill:#FFFFFF;" d="M47.047,113.966l-28.812,63.76h34.492l4.276-10.166h9.774l4.276,10.166h37.966v-7.759l3.383,7.759
		h19.639l3.383-7.923v7.923h78.959l9.601-9.902l8.99,9.902l40.555,0.082l-28.903-31.784l28.903-32.058h-39.926l-9.346,9.719
		l-8.707-9.719h-85.897l-7.376,16.457l-7.549-16.457h-34.42v7.495l-3.829-7.495C76.479,113.966,47.047,113.966,47.047,113.966z
		 M53.721,123.02h16.813l19.111,43.236V123.02h18.418l14.761,31l13.604-31h18.326v45.752h-11.151l-0.091-35.851l-16.257,35.851
		h-9.975l-16.348-35.851v35.851h-22.94l-4.349-10.257H50.147l-4.34,10.248H33.516C33.516,168.763,53.721,123.02,53.721,123.02z
		 M164.956,123.02h45.342L224.166,138l14.315-14.98h13.868l-21.071,22.995l21.071,22.73h-14.497l-13.868-15.154l-14.388,15.154
		h-44.64L164.956,123.02L164.956,123.02z M61.9,130.761l-7.741,18.272h15.473L61.9,130.761z M176.153,132.493v8.352h24.736v9.309
		h-24.736v9.118h27.745l12.892-13.43l-12.345-13.357h-28.292L176.153,132.493z"/>
</g>
<g>
</g>
<g>
</g>
<g>
</g>
<g>
</g>
<g>
</g>
<g>
</g>
<g>
</g>
<g>
</g>
<g>
</g>
<g>
</g>
<g>
</g>
<g>
</g>
<g>
</g>
<g>
</g>
<g>
</g>
</svg>
