<?xml version="1.0" standalone="no"?>
<!DOCTYPE svg PUBLIC "-//W3C//DTD SVG 20010904//EN"
 "http://www.w3.org/TR/2001/REC-SVG-20010904/DTD/svg10.dtd">
<svg version="1.0" xmlns="http://www.w3.org/2000/svg"
 width="36864.000000pt" height="36864.000000pt" viewBox="0 0 36864.000000 36864.000000"
 preserveAspectRatio="xMidYMid meet">
<metadata>
Created by potrace 1.16, written by Peter Selinger 2001-2019
</metadata>
<g transform="translate(0.000000,36864.000000) scale(7.200000,-7.200000)"
fill="#000000" stroke="none">
<path d="M2400 3280 l0 -560 -880 0 -880 0 -2 235 -3 235 -317 -316 -316 -316
319 -320 319 -319 0 241 0 240 880 0 880 0 0 -560 0 -560 160 0 160 0 0 560 0
560 880 0 880 0 2 -240 3 -240 318 318 319 319 -321 322 -321 322 0 -240 0
-241 -880 0 -880 0 0 560 0 560 -160 0 -160 0 0 -560z"/>
</g>
</svg>
