<?xml version="1.0" standalone="no"?>
<!DOCTYPE svg PUBLIC "-//W3C//DTD SVG 20010904//EN"
 "http://www.w3.org/TR/2001/REC-SVG-20010904/DTD/svg10.dtd">
<svg version="1.0" xmlns="http://www.w3.org/2000/svg"
 width="36864.000000pt" height="36864.000000pt" viewBox="0 0 36864.000000 36864.000000"
 preserveAspectRatio="xMidYMid meet">
<metadata>
Created by potrace 1.16, written by Peter Selinger 2001-2019
</metadata>
<g transform="translate(0.000000,36864.000000) scale(7.200000,-7.200000)"
fill="#000000" stroke="none">
<path d="M2197 5106 c-63 -23 -116 -64 -148 -114 -38 -61 -49 -101 -49 -189
l0 -72 -567 -3 -568 -3 -53 -29 c-57 -32 -102 -81 -130 -143 -14 -31 -17 -68
-17 -198 0 -148 2 -164 23 -207 22 -43 76 -101 129 -138 20 -14 22 -28 37
-315 18 -327 22 -395 96 -1660 120 -2036 114 -1952 137 -1983 11 -15 31 -33
44 -39 19 -10 329 -12 1442 -10 l1419 2 28 32 c18 20 31 47 34 75 6 42 165
2730 207 3498 19 360 22 386 41 400 63 47 103 89 126 134 26 49 27 57 27 211
0 130 -3 167 -17 198 -28 62 -73 111 -130 143 l-53 29 -566 3 -567 3 -4 92
c-6 133 -52 212 -152 265 l-51 27 -340 2 c-269 2 -348 0 -378 -11z m677 -232
c11 -11 16 -35 16 -80 l0 -64 -330 0 -330 0 0 64 c0 101 -18 96 330 96 258 0
301 -2 314 -16z m1340 -390 c24 -23 23 -230 -1 -256 -15 -17 -80 -18 -1651
-18 -1508 0 -1637 1 -1654 17 -15 14 -18 32 -18 129 0 89 3 116 16 128 14 14
178 16 1654 16 1476 0 1640 -2 1654 -16z m-168 -636 c-8 -174 -24 -455 -96
-1673 -33 -555 -72 -1220 -87 -1477 l-28 -468 -1275 0 -1275 0 -43 723 c-24
397 -54 907 -67 1132 -50 833 -105 1809 -105 1851 l0 44 1491 0 1492 0 -7
-132z"/>
<path d="M1631 3557 c-13 -6 -34 -25 -45 -40 -26 -35 -28 50 29 -1042 24 -467
56 -1084 71 -1370 17 -341 31 -531 40 -552 17 -42 58 -68 108 -67 32 1 46 8
73 38 20 21 33 46 33 62 0 29 -112 2187 -136 2613 -17 307 -21 329 -74 356
-35 18 -67 19 -99 2z"/>
<path d="M2501 3556 c-53 -29 -50 48 -51 -1529 0 -1463 0 -1469 20 -1498 41
-56 139 -56 180 0 20 29 20 35 20 1496 0 1351 -1 1469 -17 1495 -28 48 -100
65 -152 36z"/>
<path d="M3388 3555 c-54 -30 -57 -46 -78 -457 -11 -211 -38 -729 -60 -1153
-22 -424 -44 -846 -50 -940 -5 -93 -12 -231 -16 -306 l-7 -136 35 -38 c28 -31
41 -38 74 -39 50 -1 91 25 108 67 9 22 30 357 66 1042 28 556 62 1204 75 1440
24 459 24 467 -23 508 -28 25 -90 31 -124 12z"/>
</g>
</svg>
