<?xml version="1.0" standalone="no"?>
<!DOCTYPE svg PUBLIC "-//W3C//DTD SVG 20010904//EN"
 "http://www.w3.org/TR/2001/REC-SVG-20010904/DTD/svg10.dtd">
<svg version="1.0" xmlns="http://www.w3.org/2000/svg"
 width="36864.000000pt" height="36864.000000pt" viewBox="0 0 36864.000000 36864.000000"
 preserveAspectRatio="xMidYMid meet">
<metadata>
Created by potrace 1.15, written by Peter Selinger 2001-2017
</metadata>
<g transform="translate(0.000000,36864.000000) scale(7.200000,-7.200000)"
fill="#000000" stroke="none">
<path d="M2400 3280 l0 -560 -880 0 -880 0 -2 238 -3 237 -317 -317 -318 -318
315 -315 c173 -173 317 -315 320 -315 3 0 5 106 5 235 l0 235 880 0 880 0 0
-560 0 -560 160 0 160 0 0 560 0 560 880 0 880 0 0 -235 c0 -129 2 -235 5
-235 3 0 147 142 320 315 l315 315 -320 320 -320 320 0 -240 0 -240 -880 0
-880 0 0 560 0 560 -160 0 -160 0 0 -560z"/>
</g>
</svg>
