<?xml version="1.0" standalone="no"?>
<!DOCTYPE svg PUBLIC "-//W3C//DTD SVG 20010904//EN"
 "http://www.w3.org/TR/2001/REC-SVG-20010904/DTD/svg10.dtd">
<svg version="1.0" xmlns="http://www.w3.org/2000/svg"
 width="36864.000000pt" height="36864.000000pt" viewBox="0 0 36864.000000 36864.000000"
 preserveAspectRatio="xMidYMid meet">
<metadata>
Created by potrace 1.15, written by Peter Selinger 2001-2017
</metadata>
<g transform="translate(0.000000,36864.000000) scale(7.200000,-7.200000)"
fill="#000000" stroke="none">
<path d="M1102 3667 c-386 -386 -793 -793 -904 -904 l-201 -202 904 -905 904
-906 148 149 148 149 -748 752 c-411 413 -749 755 -751 759 -1 4 330 340 735
747 406 407 743 747 750 755 10 13 -12 39 -135 162 l-147 147 -703 -703z"/>
<path d="M3167 4221 l-149 -148 749 -753 c411 -413 749 -755 751 -759 1 -4
-336 -346 -749 -761 l-751 -753 149 -149 148 -148 458 457 c1015 1015 1342
1344 1344 1351 1 4 -404 413 -900 910 l-902 902 -148 -149z"/>
<path d="M2256 2861 l-298 -299 298 -301 c165 -166 301 -301 305 -301 3 0 41
36 85 80 43 43 177 178 297 299 l219 219 -299 301 c-164 166 -301 301 -303
301 -3 0 -140 -135 -304 -299z"/>
</g>
</svg>
