<?xml version="1.0" standalone="no"?>
<!DOCTYPE svg PUBLIC "-//W3C//DTD SVG 20010904//EN"
 "http://www.w3.org/TR/2001/REC-SVG-20010904/DTD/svg10.dtd">
<svg version="1.0" xmlns="http://www.w3.org/2000/svg"
 width="36864.000000pt" height="36864.000000pt" viewBox="0 0 36864.000000 36864.000000"
 preserveAspectRatio="xMidYMid meet">
<metadata>
Created by potrace 1.15, written by Peter Selinger 2001-2017
</metadata>
<g transform="translate(0.000000,36864.000000) scale(7.200000,-7.200000)"
fill="#000000" stroke="none">
<path d="M2199 5109 c-55 -15 -129 -78 -163 -139 -26 -47 -31 -66 -34 -147
l-4 -93 -547 -1 c-300 0 -557 -2 -570 -5 -43 -8 -122 -57 -150 -93 -61 -78
-65 -95 -65 -286 0 -135 3 -155 23 -196 12 -25 30 -55 40 -65 31 -33 71 -64
81 -64 20 0 29 -40 35 -160 6 -135 12 -230 20 -355 5 -92 14 -254 20 -370 2
-44 7 -120 10 -170 3 -49 8 -128 10 -175 3 -47 8 -121 10 -165 3 -44 7 -120
10 -170 3 -49 7 -124 10 -165 2 -41 7 -120 10 -175 3 -55 8 -131 10 -170 3
-38 7 -115 10 -170 3 -55 7 -129 10 -165 2 -36 7 -114 10 -175 8 -151 14 -238
20 -315 3 -36 7 -114 10 -175 3 -60 7 -139 10 -175 3 -36 7 -112 10 -170 3
-58 8 -130 10 -160 2 -30 7 -106 10 -168 12 -211 18 -232 70 -256 30 -15 176
-16 1448 -14 l1415 3 26 24 c35 33 44 72 51 221 3 69 8 150 10 180 2 30 7 107
10 170 4 63 8 140 10 170 10 162 18 296 30 510 3 52 7 129 10 170 3 41 7 111
10 155 5 80 13 207 20 340 8 144 16 272 20 345 3 41 7 118 10 170 5 108 13
232 20 335 3 39 7 115 10 170 6 120 14 256 20 345 2 36 7 119 10 185 3 66 8
149 10 185 3 36 7 117 10 180 7 139 8 141 43 163 44 26 89 75 113 126 20 40
23 64 25 196 1 123 -2 159 -16 197 -25 67 -70 119 -132 154 l-53 29 -566 3
-567 3 -4 92 c-6 137 -51 212 -159 266 l-60 30 -332 0 c-183 -1 -348 -5 -368
-10z m593 -218 c87 -1 98 -12 98 -97 l0 -64 -330 0 -330 0 -1 28 c-3 88 5 118
37 129 13 4 122 7 242 6 119 -1 247 -2 284 -2z m1385 -390 c45 -2 53 -24 53
-142 0 -96 -2 -111 -20 -129 -20 -20 -33 -20 -1654 -20 l-1635 0 -15 22 c-12
17 -16 48 -16 128 0 112 4 125 37 137 16 6 3099 9 3250 4z m-132 -661 c-3 -80
-8 -163 -9 -185 -2 -22 -6 -101 -10 -175 -4 -74 -9 -160 -11 -190 -2 -30 -7
-104 -10 -165 -3 -60 -8 -141 -10 -180 -2 -38 -7 -115 -10 -170 -3 -55 -7
-136 -10 -180 -3 -44 -7 -125 -10 -180 -3 -55 -8 -131 -10 -170 -3 -38 -7
-110 -10 -160 -3 -49 -7 -121 -10 -160 -3 -38 -7 -115 -10 -170 -3 -55 -7
-129 -9 -165 -3 -36 -8 -114 -11 -175 -3 -60 -8 -135 -10 -165 -2 -30 -7 -111
-11 -180 -3 -69 -8 -147 -10 -175 -5 -86 -17 -278 -19 -320 -14 -247 -20 -328
-24 -345 -1 -4 -2088 -4 -2518 0 -24 0 -32 4 -31 18 1 16 -9 203 -17 327 -2
33 -6 107 -10 165 -3 58 -8 134 -10 170 -2 36 -7 110 -10 165 -3 55 -8 127
-10 160 -2 33 -7 112 -11 175 -3 63 -7 140 -9 170 -3 30 -7 102 -10 160 -3 58
-7 132 -9 165 -3 33 -8 114 -11 180 -4 66 -8 145 -10 175 -2 30 -6 105 -10
165 -3 61 -8 135 -10 165 -2 30 -7 109 -10 175 -4 66 -8 145 -10 175 -2 30 -7
107 -10 170 -3 63 -8 142 -10 175 -3 33 -7 119 -11 190 -3 72 -7 146 -9 165
-2 19 -7 100 -10 180 -4 80 -9 148 -11 152 -2 3 3 8 13 10 9 2 682 3 1496 3
l1479 0 -7 -145z"/>
<path d="M1631 3557 c-13 -6 -33 -24 -45 -40 -22 -30 -24 -66 -12 -267 4 -63
9 -160 12 -215 2 -55 7 -136 9 -180 6 -107 14 -268 20 -390 3 -55 7 -138 10
-185 3 -47 7 -132 10 -190 5 -105 11 -217 20 -385 2 -49 7 -139 10 -200 3 -60
8 -141 10 -180 2 -38 7 -124 10 -190 3 -66 8 -149 10 -185 2 -36 6 -130 10
-210 10 -192 13 -205 59 -235 38 -25 68 -26 112 -4 72 34 71 14 40 579 -4 58
-8 148 -11 200 -2 52 -7 140 -10 195 -3 55 -7 143 -10 195 -3 52 -7 138 -10
190 -3 52 -7 142 -10 200 -3 58 -7 141 -10 185 -2 44 -7 130 -10 190 -3 61 -8
146 -10 190 -2 44 -7 130 -10 190 -3 61 -7 151 -10 200 -3 50 -8 128 -10 175
-14 278 -16 302 -32 326 -31 48 -94 66 -142 41z"/>
<path d="M2510 3563 c-24 -10 -42 -32 -54 -67 -8 -23 -11 -446 -10 -1482 l0
-1451 22 -31 c23 -31 34 -37 83 -46 34 -5 84 19 105 53 17 24 18 115 19 1466
0 792 -3 1457 -8 1478 -8 41 -19 57 -54 75 -23 12 -77 15 -103 5z"/>
<path d="M3388 3555 c-43 -24 -57 -63 -63 -171 -10 -185 -14 -259 -20 -379 -3
-66 -8 -151 -10 -190 -3 -38 -7 -119 -10 -180 -3 -60 -7 -144 -10 -185 -2 -41
-7 -133 -10 -205 -3 -71 -8 -157 -10 -190 -2 -33 -7 -116 -10 -185 -8 -167
-14 -286 -20 -395 -2 -49 -7 -139 -10 -200 -3 -60 -8 -139 -10 -175 -10 -167
-19 -373 -19 -457 -1 -87 0 -93 27 -121 66 -69 175 -33 191 63 3 17 7 84 11
150 3 66 8 158 10 205 2 47 7 137 10 200 3 63 8 144 10 180 2 36 7 124 10 195
3 72 8 157 10 190 2 33 7 116 10 185 3 69 8 157 10 195 2 39 7 122 10 185 3
63 8 153 10 200 11 194 24 458 30 570 3 76 17 339 20 390 2 46 -11 82 -40 110
-30 28 -91 35 -127 15z"/>
</g>
</svg>
