<?xml version="1.0" standalone="no"?>
<!DOCTYPE svg PUBLIC "-//W3C//DTD SVG 20010904//EN"
 "http://www.w3.org/TR/2001/REC-SVG-20010904/DTD/svg10.dtd">
<svg version="1.0" xmlns="http://www.w3.org/2000/svg"
 width="36864.000000pt" height="36864.000000pt" viewBox="0 0 36864.000000 36864.000000"
 preserveAspectRatio="xMidYMid meet">
<metadata>
Created by potrace 1.15, written by Peter Selinger 2001-2017
</metadata>
<g transform="translate(0.000000,36864.000000) scale(7.200000,-7.200000)"
fill="#000000" stroke="none">
<path d="M147 4964 l-147 -145 1132 -1130 1133 -1129 -1128 -1124 c-620 -618
-1127 -1129 -1127 -1135 0 -10 278 -291 288 -291 3 0 511 505 1129 1123 618
617 1128 1122 1133 1122 5 0 515 -505 1133 -1123 618 -617 1126 -1122 1129
-1122 4 0 72 66 152 146 l146 146 -1133 1129 -1132 1129 1133 1129 1133 1130
-147 145 c-81 80 -150 146 -152 146 -3 0 -511 -505 -1129 -1122 -618 -618
-1128 -1123 -1133 -1123 -5 0 -515 505 -1133 1123 -617 617 -1125 1122 -1128
1122 -3 0 -72 -66 -152 -146z"/>
</g>
</svg>
