<?xml version="1.0" standalone="no"?>
<!DOCTYPE svg PUBLIC "-//W3C//DTD SVG 20010904//EN"
 "http://www.w3.org/TR/2001/REC-SVG-20010904/DTD/svg10.dtd">
<svg version="1.0" xmlns="http://www.w3.org/2000/svg"
 width="36864.000000pt" height="36864.000000pt" viewBox="0 0 36864.000000 36864.000000"
 preserveAspectRatio="xMidYMid meet">
<metadata>
Created by potrace 1.15, written by Peter Selinger 2001-2017
</metadata>
<g transform="translate(0.000000,36864.000000) scale(7.200000,-7.200000)"
fill="#000000" stroke="none">
<path d="M894 4234 c-80 -79 -144 -149 -142 -154 2 -5 343 -349 757 -765 l755
-755 -762 -760 -761 -760 145 -146 c80 -80 149 -144 154 -142 5 2 349 343 765
757 l755 755 760 -762 760 -762 149 149 148 148 -760 762 -761 761 762 760
762 760 -146 146 c-79 80 -149 144 -154 142 -5 -2 -349 -343 -765 -758 l-755
-754 -760 762 -760 762 -146 -146z"/>
</g>
</svg>
