<?xml version="1.0" standalone="no"?>
<!DOCTYPE svg PUBLIC "-//W3C//DTD SVG 20010904//EN"
 "http://www.w3.org/TR/2001/REC-SVG-20010904/DTD/svg10.dtd">
<svg version="1.0" xmlns="http://www.w3.org/2000/svg"
 width="36864.000000pt" height="36864.000000pt" viewBox="0 0 36864.000000 36864.000000"
 preserveAspectRatio="xMidYMid meet">
<metadata>
Created by potrace 1.16, written by Peter Selinger 2001-2019
</metadata>
<g transform="translate(0.000000,36864.000000) scale(7.200000,-7.200000)"
fill="#000000" stroke="none">
<path d="M2464 4626 c-95 -31 -177 -117 -203 -211 -6 -22 -11 -83 -11 -135 l0
-95 -105 -33 c-403 -129 -724 -447 -860 -855 -67 -200 -67 -204 -72 -923 l-5
-651 -204 -204 -204 -204 0 -107 0 -108 1760 0 1760 0 0 108 0 107 -205 205
-205 205 0 570 c0 608 -7 753 -44 898 -118 464 -474 840 -916 968 l-78 22 -4
116 c-3 98 -7 124 -27 165 -31 63 -84 116 -146 146 -59 28 -170 36 -231 16z
m178 -721 c89 -10 270 -61 353 -99 111 -51 203 -117 292 -209 175 -180 269
-384 293 -635 5 -59 10 -389 10 -737 l0 -630 80 -80 c44 -44 80 -83 80 -87 0
-5 -535 -8 -1190 -8 -655 0 -1190 3 -1190 8 0 4 36 43 80 87 l80 80 0 643 c0
390 4 681 11 739 41 368 261 680 586 830 105 48 390 118 443 107 8 -1 41 -5
72 -9z"/>
<path d="M2153 839 c7 -80 52 -170 116 -235 168 -166 424 -163 586 7 67 70
105 148 112 230 l6 59 -413 0 -413 0 6 -61z"/>
</g>
</svg>
