<?xml version="1.0" standalone="no"?>
<!DOCTYPE svg PUBLIC "-//W3C//DTD SVG 20010904//EN"
 "http://www.w3.org/TR/2001/REC-SVG-20010904/DTD/svg10.dtd">
<svg version="1.0" xmlns="http://www.w3.org/2000/svg"
 width="36864.000000pt" height="36864.000000pt" viewBox="0 0 36864.000000 36864.000000"
 preserveAspectRatio="xMidYMid meet">
<metadata>
Created by potrace 1.16, written by Peter Selinger 2001-2019
</metadata>
<g transform="translate(0.000000,36864.000000) scale(7.200000,-7.200000)"
fill="#000000" stroke="none">
<path d="M2375 5108 c-177 -20 -351 -80 -483 -167 -231 -153 -381 -404 -428
-717 -42 -283 15 -738 133 -1053 192 -514 514 -773 963 -773 219 -1 388 52
552 174 320 235 537 770 555 1363 10 324 -46 553 -185 756 -217 319 -624 472
-1107 417z"/>
<path d="M3413 2488 c-40 -42 -159 -138 -218 -176 -326 -205 -786 -234 -1133
-71 -136 63 -227 125 -335 228 -53 51 -33 53 -192 -17 -49 -21 -157 -63 -240
-91 -232 -81 -306 -120 -395 -210 -80 -81 -125 -156 -180 -296 -86 -225 -185
-795 -206 -1195 -13 -245 10 -269 351 -379 333 -108 830 -208 1280 -258 217
-24 610 -24 830 0 444 49 948 150 1280 258 268 86 320 118 346 212 33 118 -57
848 -147 1187 -89 341 -217 517 -444 612 -36 15 -137 52 -225 83 -88 31 -201
76 -252 100 l-91 43 -29 -30z"/>
</g>
</svg>
