<?xml version="1.0" standalone="no"?>
<!DOCTYPE svg PUBLIC "-//W3C//DTD SVG 20010904//EN"
 "http://www.w3.org/TR/2001/REC-SVG-20010904/DTD/svg10.dtd">
<svg version="1.0" xmlns="http://www.w3.org/2000/svg"
 width="36864.000000pt" height="36864.000000pt" viewBox="0 0 36864.000000 36864.000000"
 preserveAspectRatio="xMidYMid meet">
<metadata>
Created by potrace 1.15, written by Peter Selinger 2001-2017
</metadata>
<g transform="translate(0.000000,36864.000000) scale(7.200000,-7.200000)"
fill="#000000" stroke="none">
<path d="M640 5015 c0 -77 3 -105 13 -106 6 0 126 -1 266 -2 l254 -2 2 -630
c1 -569 3 -636 19 -694 44 -161 126 -291 281 -446 120 -121 240 -215 410 -322
120 -75 294 -172 393 -218 34 -16 62 -32 62 -35 0 -3 -42 -25 -93 -50 -183
-89 -415 -230 -567 -343 -122 -92 -301 -272 -363 -364 -58 -87 -99 -176 -123
-264 -16 -58 -18 -125 -19 -687 -1 -342 -5 -626 -9 -630 -4 -4 -121 -8 -259
-9 -139 -1 -255 -2 -259 -2 -5 -1 -8 -48 -8 -106 l0 -105 1920 0 1921 0 -3
107 -3 107 -262 0 c-260 -1 -263 0 -264 20 0 12 -2 296 -3 631 -3 684 -1 665
-77 822 -51 104 -120 197 -223 299 -69 69 -111 105 -227 198 -37 30 -250 166
-319 205 -41 22 -82 45 -90 50 -8 6 -63 34 -122 63 -59 29 -107 55 -108 58 0
3 44 27 98 53 118 59 252 132 312 171 25 16 70 45 100 64 177 113 395 307 490
436 59 81 123 210 145 292 17 63 19 126 21 684 1 338 3 622 3 631 1 13 31 15
249 14 136 0 255 1 265 3 15 4 17 17 17 108 l0 104 -1920 0 -1920 0 0 -105z
m3093 -720 c0 -534 -2 -618 -17 -674 -73 -281 -442 -609 -991 -877 -82 -41
-156 -74 -164 -74 -22 0 -297 137 -416 207 -348 206 -580 413 -688 614 -71
132 -69 116 -71 789 -1 333 2 610 6 616 5 7 358 10 1175 10 l1167 -1 -1 -610z
m-1020 -1913 c160 -77 326 -173 467 -270 156 -107 236 -177 381 -332 25 -27
94 -130 116 -175 55 -109 56 -114 57 -750 0 -324 -1 -602 -2 -616 l-4 -25
-1171 0 -1171 1 1 620 c1 593 2 623 21 681 28 86 56 137 119 221 110 147 293
304 508 437 61 38 126 78 145 91 51 32 363 185 378 185 7 0 77 -31 155 -68z"/>
</g>
</svg>
