<?xml version="1.0" standalone="no"?>
<!DOCTYPE svg PUBLIC "-//W3C//DTD SVG 20010904//EN"
 "http://www.w3.org/TR/2001/REC-SVG-20010904/DTD/svg10.dtd">
<svg version="1.0" xmlns="http://www.w3.org/2000/svg"
 width="36864.000000pt" height="36864.000000pt" viewBox="0 0 36864.000000 36864.000000"
 preserveAspectRatio="xMidYMid meet">
<metadata>
Created by potrace 1.16, written by Peter Selinger 2001-2019
</metadata>
<g transform="translate(0.000000,36864.000000) scale(7.200000,-7.200000)"
fill="#000000" stroke="none">
<path d="M354 4600 c-162 -24 -309 -167 -344 -335 -7 -34 -9 -599 -8 -1735 l3
-1685 23 -58 c45 -109 139 -203 252 -249 l55 -23 2215 0 c2063 0 2219 1 2270
17 113 35 225 140 271 255 l24 58 0 1715 0 1715 -24 58 c-44 111 -154 217
-266 255 -47 16 -192 17 -2235 18 -1202 1 -2208 -2 -2236 -6z m4365 -341 c59
-21 61 -35 61 -374 l0 -305 -2217 2 -2218 3 -3 300 c-3 329 0 348 52 371 26
11 403 13 2162 14 1535 0 2140 -3 2163 -11z m61 -2514 c0 -898 3 -862 -61
-884 -45 -16 -4273 -16 -4318 0 -64 22 -61 -14 -61 884 l0 815 2220 0 2220 0
0 -815z"/>
<path d="M684 1527 c-2 -7 -3 -85 -2 -172 l3 -160 340 0 340 0 0 170 0 170
-338 3 c-270 2 -339 0 -343 -11z"/>
<path d="M1710 1366 l0 -173 510 0 510 1 0 173 0 173 -510 0 -510 0 0 -174z"/>
</g>
</svg>
