<?xml version="1.0" standalone="no"?>
<!DOCTYPE svg PUBLIC "-//W3C//DTD SVG 20010904//EN"
 "http://www.w3.org/TR/2001/REC-SVG-20010904/DTD/svg10.dtd">
<svg version="1.0" xmlns="http://www.w3.org/2000/svg"
 width="36864.000000pt" height="36864.000000pt" viewBox="0 0 36864.000000 36864.000000"
 preserveAspectRatio="xMidYMid meet">
<metadata>
Created by potrace 1.15, written by Peter Selinger 2001-2017
</metadata>
<g transform="translate(0.000000,36864.000000) scale(7.200000,-7.200000)"
fill="#000000" stroke="none">
<path d="M2263 4078 c-884 -884 -846 -842 -860 -982 -9 -84 -8 -2388 0 -2456
11 -91 49 -175 111 -247 45 -52 144 -119 199 -135 23 -6 49 -14 57 -16 8 -3
514 -6 1125 -7 1070 -2 1112 -2 1180 17 164 45 247 134 345 365 112 267 472
1117 485 1148 40 90 55 129 55 141 0 8 5 14 10 14 6 0 10 6 10 13 0 14 62 166
82 201 26 47 31 97 34 351 1 149 3 280 3 293 1 13 5 20 11 17 15 -10 2 94 -19
153 -49 134 -150 233 -290 285 -55 20 -73 21 -830 24 -426 1 -776 4 -778 6 -2
2 15 87 37 188 22 101 42 194 45 207 2 12 6 30 9 40 3 9 7 28 10 42 2 14 12
59 21 100 9 41 19 86 21 100 3 14 23 108 46 210 51 232 50 299 -5 415 -35 73
-45 86 -143 175 -27 25 -73 66 -101 93 -29 26 -56 47 -60 47 -4 0 -369 -361
-810 -802z"/>
<path d="M4 3021 c-2 -2 -4 -631 -4 -1397 l0 -1392 465 0 465 1 0 1396 0 1396
-461 0 c-253 0 -462 -2 -465 -4z"/>
</g>
</svg>
