<?xml version="1.0" standalone="no"?>
<!DOCTYPE svg PUBLIC "-//W3C//DTD SVG 20010904//EN"
 "http://www.w3.org/TR/2001/REC-SVG-20010904/DTD/svg10.dtd">
<svg version="1.0" xmlns="http://www.w3.org/2000/svg"
 width="36864.000000pt" height="36864.000000pt" viewBox="0 0 36864.000000 36864.000000"
 preserveAspectRatio="xMidYMid meet">
<metadata>
Created by potrace 1.16, written by Peter Selinger 2001-2019
</metadata>
<g transform="translate(0.000000,36864.000000) scale(7.200000,-7.200000)"
fill="#000000" stroke="none">
<path d="M640 5015 l0 -105 264 0 265 0 4 -637 c3 -573 5 -644 21 -698 48
-160 129 -288 281 -440 120 -121 240 -215 410 -322 129 -81 351 -204 413 -228
23 -10 42 -21 42 -25 0 -4 -24 -18 -52 -30 -76 -32 -275 -143 -403 -223 -171
-108 -290 -201 -410 -322 -153 -153 -233 -280 -281 -440 -16 -54 -18 -125 -21
-697 l-4 -638 -265 0 -264 0 0 -105 0 -105 1920 0 1920 0 0 105 0 105 -264 0
-265 0 -4 638 c-3 572 -5 643 -21 697 -26 86 -68 175 -123 257 -62 94 -242
274 -363 365 -162 121 -430 281 -597 358 -35 16 -63 31 -63 35 0 3 33 21 73
40 166 76 425 233 587 353 121 91 301 271 363 365 55 82 97 171 123 257 16 54
18 125 21 698 l4 637 265 0 264 0 0 105 0 105 -1920 0 -1920 0 0 -105z m3090
-721 c0 -676 0 -680 -61 -794 -96 -181 -313 -386 -593 -560 -142 -89 -287
-168 -410 -225 l-106 -48 -106 48 c-296 136 -599 333 -781 508 -145 140 -228
259 -263 378 -19 63 -20 98 -20 688 l0 621 1170 0 1170 0 0 -616z m-1025
-1908 c225 -107 479 -265 640 -396 139 -114 274 -270 333 -386 51 -100 52
-117 52 -778 l0 -616 -1170 0 -1170 0 0 621 c0 544 2 628 16 677 68 236 321
487 744 737 118 70 385 204 408 205 7 0 73 -29 147 -64z"/>
</g>
</svg>
