<?xml version="1.0" standalone="no"?>
<!DOCTYPE svg PUBLIC "-//W3C//DTD SVG 20010904//EN"
 "http://www.w3.org/TR/2001/REC-SVG-20010904/DTD/svg10.dtd">
<svg version="1.0" xmlns="http://www.w3.org/2000/svg"
 width="36864.000000pt" height="36864.000000pt" viewBox="0 0 36864.000000 36864.000000"
 preserveAspectRatio="xMidYMid meet">
<metadata>
Created by potrace 1.16, written by Peter Selinger 2001-2019
</metadata>
<g transform="translate(0.000000,36864.000000) scale(7.200000,-7.200000)"
fill="#000000" stroke="none">
<path d="M925 4829 c-123 -18 -245 -105 -298 -212 -14 -29 -161 -439 -326
-912 l-301 -861 0 -1160 c0 -1300 -4 -1228 71 -1309 65 -71 117 -87 299 -92
288 -9 385 23 453 151 20 37 22 58 25 229 l4 187 1708 0 1708 0 4 -187 c3
-211 10 -235 84 -307 63 -61 110 -71 344 -71 193 0 208 2 257 24 29 13 70 43
92 66 75 81 71 9 71 1309 l0 1160 -301 861 c-166 473 -312 881 -325 907 -57
113 -188 200 -324 217 -93 12 -3161 11 -3245 0z m3409 -1046 c115 -346 211
-634 214 -640 3 -10 -398 -13 -1987 -13 -1095 0 -1991 1 -1991 3 0 7 419 1257
425 1266 4 8 465 11 1568 11 l1562 0 209 -627z m-3263 -1233 c156 -30 292
-158 334 -315 51 -189 -46 -390 -234 -483 -71 -35 -80 -37 -175 -37 -93 0
-107 3 -168 32 -77 36 -158 107 -195 171 -103 175 -75 372 72 517 102 100 231
141 366 115z m3188 -15 c101 -35 201 -127 250 -228 98 -202 5 -450 -207 -554
-73 -36 -80 -38 -177 -38 -96 0 -104 2 -176 37 -188 93 -285 294 -234 483 41
153 176 283 326 315 56 12 164 4 218 -15z"/>
</g>
</svg>
