<?xml version="1.0" standalone="no"?>
<!DOCTYPE svg PUBLIC "-//W3C//DTD SVG 20010904//EN"
 "http://www.w3.org/TR/2001/REC-SVG-20010904/DTD/svg10.dtd">
<svg version="1.0" xmlns="http://www.w3.org/2000/svg"
 width="36864.000000pt" height="36864.000000pt" viewBox="0 0 36864.000000 36864.000000"
 preserveAspectRatio="xMidYMid meet">
<metadata>
Created by potrace 1.16, written by Peter Selinger 2001-2019
</metadata>
<g transform="translate(0.000000,36864.000000) scale(7.200000,-7.200000)"
fill="#000000" stroke="none">
<path d="M2365 5114 c-16 -2 -73 -9 -125 -15 -553 -63 -1091 -329 -1497 -740
-463 -469 -715 -1050 -740 -1709 -33 -895 405 -1738 1162 -2236 609 -400 1378
-517 2090 -317 929 260 1646 1043 1819 1987 156 844 -102 1681 -704 2284 -397
397 -880 640 -1450 727 -100 15 -487 29 -555 19z m487 -589 c333 -50 651 -186
923 -394 85 -64 256 -232 328 -321 129 -160 250 -372 320 -560 35 -94 90 -305
102 -388 l6 -44 -48 6 c-37 5 -690 68 -1043 102 -146 14 -136 9 -183 82 -212
326 -604 460 -974 333 -162 -56 -322 -182 -417 -328 -44 -69 -47 -71 -93 -77
-93 -12 -1177 -116 -1180 -113 -5 6 18 132 43 232 63 250 188 505 353 720 64
85 232 256 321 328 281 227 654 387 990 426 52 6 111 13 130 15 65 8 324 -4
422 -19z m-213 -1721 c99 -29 181 -140 181 -244 0 -133 -127 -260 -260 -260
-133 0 -260 127 -260 260 0 101 82 215 176 244 64 19 99 19 163 0z m-1514
-539 c510 -39 677 -53 680 -57 111 -183 192 -274 302 -342 51 -31 63 -44 67
-70 6 -32 76 -1133 76 -1174 0 -22 -3 -23 -42 -17 -82 12 -273 66 -363 102
-280 111 -502 259 -710 474 -200 207 -340 428 -439 691 -37 101 -88 295 -100
383 l-7 51 38 -3 c21 -2 245 -19 498 -38z m3400 -2 c-12 -90 -65 -293 -101
-390 -71 -192 -191 -402 -321 -563 -72 -89 -243 -257 -328 -321 -232 -177
-512 -308 -792 -370 -56 -13 -105 -20 -109 -16 -6 6 62 1156 72 1203 2 13 28
36 66 59 86 53 204 175 258 268 l44 76 51 6 c27 3 289 23 580 45 292 22 539
42 550 44 11 2 24 4 28 5 5 0 5 -20 2 -46z"/>
</g>
</svg>
