<?xml version="1.0" standalone="no"?>
<!DOCTYPE svg PUBLIC "-//W3C//DTD SVG 20010904//EN"
 "http://www.w3.org/TR/2001/REC-SVG-20010904/DTD/svg10.dtd">
<svg version="1.0" xmlns="http://www.w3.org/2000/svg"
 width="36864.000000pt" height="36864.000000pt" viewBox="0 0 36864.000000 36864.000000"
 preserveAspectRatio="xMidYMid meet">
<metadata>
Created by potrace 1.15, written by Peter Selinger 2001-2017
</metadata>
<g transform="translate(0.000000,36864.000000) scale(7.200000,-7.200000)"
fill="#000000" stroke="none">
<path d="M900 4824 c-102 -21 -183 -74 -240 -156 -41 -60 -53 -88 -105 -238
-20 -58 -49 -141 -65 -185 -44 -125 -92 -261 -175 -500 -42 -121 -84 -242 -94
-270 -11 -27 -42 -117 -71 -200 -28 -82 -74 -212 -101 -289 l-49 -138 1 -1167
c0 -971 3 -1174 15 -1212 19 -63 81 -131 146 -159 50 -22 66 -23 258 -24 170
0 214 3 256 17 84 29 152 110 169 200 4 21 8 104 9 186 0 82 4 153 9 157 7 7
3354 13 3387 6 14 -3 16 -29 17 -177 1 -151 4 -179 22 -219 26 -59 53 -93 96
-123 59 -40 119 -49 327 -48 176 2 197 4 243 24 62 28 110 73 138 131 l22 45
3 1179 2 1179 -51 146 c-28 80 -84 241 -124 356 -138 394 -213 610 -270 770
-124 354 -137 391 -145 415 -27 89 -93 177 -170 229 -122 81 23 75 -1789 76
-1195 0 -1628 -3 -1671 -11z m3434 -1042 c115 -345 211 -633 214 -639 3 -10
-398 -13 -1988 -13 -1590 0 -1991 3 -1987 13 2 6 97 290 210 630 113 339 209
622 212 627 4 7 561 10 1568 10 l1562 0 209 -628z m-3208 -1245 c291 -105 386
-462 183 -682 -95 -103 -193 -145 -328 -142 -78 2 -95 6 -163 40 -83 40 -162
116 -200 191 -64 125 -60 275 10 396 55 96 182 190 282 209 62 11 167 5 216
-12z m3119 3 c181 -60 313 -245 304 -425 -11 -212 -199 -398 -410 -404 -170
-5 -316 86 -397 248 -33 67 -37 82 -38 163 -2 100 14 156 65 237 56 87 155
159 252 185 60 16 170 14 224 -4z"/>
</g>
</svg>
