<?xml version="1.0" standalone="no"?>
<!DOCTYPE svg PUBLIC "-//W3C//DTD SVG 20010904//EN"
 "http://www.w3.org/TR/2001/REC-SVG-20010904/DTD/svg10.dtd">
<svg version="1.0" xmlns="http://www.w3.org/2000/svg"
 width="36864.000000pt" height="36864.000000pt" viewBox="0 0 36864.000000 36864.000000"
 preserveAspectRatio="xMidYMid meet">
<metadata>
Created by potrace 1.15, written by Peter Selinger 2001-2017
</metadata>
<g transform="translate(0.000000,36864.000000) scale(7.200000,-7.200000)"
fill="#000000" stroke="none">
<path d="M640 5015 c0 -77 3 -105 13 -106 6 0 126 -1 266 -2 l254 -2 2 -630
c1 -569 3 -636 19 -694 44 -160 126 -290 281 -446 189 -190 478 -385 788 -532
42 -20 77 -39 77 -42 0 -3 -42 -26 -93 -51 -119 -58 -203 -106 -357 -201 -282
-176 -475 -352 -597 -544 -42 -65 -78 -148 -99 -227 -16 -56 -18 -130 -20
-688 -1 -344 -3 -627 -3 -630 -1 -3 -115 -6 -253 -5 -139 0 -259 -1 -265 -4
-9 -2 -13 -33 -13 -107 l0 -104 1920 0 1920 0 0 104 c0 74 -4 105 -12 108 -7
2 -127 3 -265 3 -176 -1 -253 2 -254 9 0 6 -2 290 -3 631 -3 695 -1 675 -77
832 -79 162 -220 317 -454 501 -89 70 -404 256 -562 332 -40 19 -73 37 -73 40
0 3 44 27 98 53 520 259 858 540 997 832 69 145 68 133 71 815 1 338 3 622 3
631 1 13 31 15 249 14 136 0 255 1 265 3 15 4 17 17 17 108 l0 104 -1920 0
-1920 0 0 -105z"/>
</g>
</svg>
