<?xml version="1.0" standalone="no"?>
<!DOCTYPE svg PUBLIC "-//W3C//DTD SVG 20010904//EN"
 "http://www.w3.org/TR/2001/REC-SVG-20010904/DTD/svg10.dtd">
<svg version="1.0" xmlns="http://www.w3.org/2000/svg"
 width="36864.000000pt" height="36864.000000pt" viewBox="0 0 36864.000000 36864.000000"
 preserveAspectRatio="xMidYMid meet">
<metadata>
Created by potrace 1.16, written by Peter Selinger 2001-2019
</metadata>
<g transform="translate(0.000000,36864.000000) scale(7.200000,-7.200000)"
fill="#000000" stroke="none">
<path d="M640 5015 l0 -105 264 0 265 0 4 -637 c4 -714 1 -682 79 -840 101
-206 320 -422 623 -614 114 -72 286 -168 393 -218 39 -19 72 -38 72 -41 0 -3
-33 -22 -72 -41 -308 -146 -600 -342 -784 -524 -118 -117 -178 -197 -233 -309
-77 -156 -74 -126 -78 -839 l-4 -637 -265 0 -264 0 0 -105 0 -105 1920 0 1920
0 0 105 0 105 -264 0 -265 0 -4 638 c-4 713 -1 681 -79 839 -133 272 -464 552
-934 790 -85 43 -154 81 -154 84 0 3 28 19 62 35 304 143 607 344 789 524 118
116 189 210 239 315 76 158 73 126 77 838 l4 637 265 0 264 0 0 105 0 105
-1920 0 -1920 0 0 -105z"/>
</g>
</svg>
