<?xml version="1.0" standalone="no"?>
<!DOCTYPE svg PUBLIC "-//W3C//DTD SVG 20010904//EN"
 "http://www.w3.org/TR/2001/REC-SVG-20010904/DTD/svg10.dtd">
<svg version="1.0" xmlns="http://www.w3.org/2000/svg"
 width="36864.000000pt" height="36864.000000pt" viewBox="0 0 36864.000000 36864.000000"
 preserveAspectRatio="xMidYMid meet">
<metadata>
Created by potrace 1.16, written by Peter Selinger 2001-2019
</metadata>
<g transform="translate(0.000000,36864.000000) scale(7.200000,-7.200000)"
fill="#000000" stroke="none">
<path d="M2259 4073 c-710 -712 -809 -815 -830 -863 l-24 -55 -3 -1260 c-2
-1121 -1 -1266 13 -1317 41 -149 152 -266 303 -322 56 -21 73 -21 1142 -24
721 -2 1108 1 1155 8 103 15 200 66 269 141 31 33 63 73 71 89 8 16 175 408
371 872 260 616 359 859 365 903 5 33 9 169 9 302 0 171 3 242 11 245 9 3 9
22 0 73 -29 170 -142 304 -310 368 -55 21 -68 22 -833 25 -428 1 -778 4 -778
5 0 1 52 240 115 531 70 324 115 551 115 585 0 146 -53 241 -217 390 -67 61
-125 111 -130 111 -4 0 -371 -363 -814 -807z"/>
<path d="M0 1628 l0 -1398 465 0 465 0 0 1399 0 1398 -465 0 -465 0 0 -1399z"/>
</g>
</svg>
