<?xml version="1.0" standalone="no"?>
<!DOCTYPE svg PUBLIC "-//W3C//DTD SVG 20010904//EN"
 "http://www.w3.org/TR/2001/REC-SVG-20010904/DTD/svg10.dtd">
<svg version="1.0" xmlns="http://www.w3.org/2000/svg"
 width="36864.000000pt" height="36864.000000pt" viewBox="0 0 36864.000000 36864.000000"
 preserveAspectRatio="xMidYMid meet">
<metadata>
Created by potrace 1.15, written by Peter Selinger 2001-2017
</metadata>
<g transform="translate(0.000000,36864.000000) scale(7.200000,-7.200000)"
fill="#000000" stroke="none">
<path d="M2371 5109 c-25 -5 -63 -11 -85 -14 -142 -20 -385 -126 -467 -204
-135 -128 -170 -170 -233 -286 -58 -103 -102 -240 -122 -375 -13 -91 -13 -101
-15 -225 -2 -121 4 -199 22 -310 5 -33 12 -80 15 -105 3 -25 19 -99 35 -165
131 -532 377 -861 736 -983 65 -23 86 -27 184 -41 64 -8 218 -7 266 3 15 3 43
8 61 11 50 8 149 44 217 78 338 168 580 599 660 1177 9 63 18 129 21 145 8 45
7 260 0 340 -37 383 -225 685 -522 836 -59 30 -177 76 -214 83 -14 3 -36 8
-50 11 -87 21 -154 27 -300 29 -91 2 -185 -1 -209 -5z"/>
<path d="M1600 2481 c-30 -16 -113 -50 -185 -76 -274 -99 -365 -137 -422 -174
-191 -123 -310 -381 -388 -836 -3 -16 -7 -41 -10 -55 -6 -27 -9 -50 -20 -120
-4 -25 -9 -54 -11 -65 -3 -11 -7 -43 -10 -71 -2 -28 -6 -60 -8 -71 -3 -11 -7
-56 -11 -99 -4 -43 -9 -87 -11 -97 -11 -59 -14 -290 -4 -325 13 -51 51 -97 99
-121 36 -19 210 -81 332 -120 125 -39 614 -148 750 -167 49 -7 58 -8 149 -23
93 -14 128 -19 190 -26 30 -3 71 -7 90 -10 220 -26 606 -27 845 -1 180 20 315
38 450 62 17 3 41 7 55 9 14 2 36 6 50 9 14 3 36 8 50 10 21 3 193 39 250 51
257 56 622 171 693 219 45 30 74 78 82 134 9 70 -4 277 -31 497 -15 123 -18
140 -34 235 -15 88 -17 102 -29 165 -6 33 -13 74 -16 90 -3 17 -8 44 -12 60
-4 17 -8 35 -9 40 -30 158 -119 379 -194 480 -100 135 -182 182 -535 305 -66
23 -158 60 -204 81 -46 21 -89 39 -95 39 -7 0 -35 -21 -62 -47 -234 -224 -517
-333 -849 -327 -104 2 -191 15 -336 49 -43 10 -182 73 -249 113 -81 49 -150
102 -219 169 -24 24 -51 43 -60 43 -9 -1 -41 -14 -71 -29z"/>
</g>
</svg>
