<?xml version="1.0" standalone="no"?>
<!DOCTYPE svg PUBLIC "-//W3C//DTD SVG 20010904//EN"
 "http://www.w3.org/TR/2001/REC-SVG-20010904/DTD/svg10.dtd">
<svg version="1.0" xmlns="http://www.w3.org/2000/svg"
 width="36864.000000pt" height="36864.000000pt" viewBox="0 0 36864.000000 36864.000000"
 preserveAspectRatio="xMidYMid meet">
<metadata>
Created by potrace 1.15, written by Peter Selinger 2001-2017
</metadata>
<g transform="translate(0.000000,36864.000000) scale(7.200000,-7.200000)"
fill="#000000" stroke="none">
<path d="M2379 5116 c-2 -2 -35 -6 -74 -10 -77 -6 -232 -31 -304 -47 -25 -6
-53 -12 -61 -14 -52 -12 -207 -61 -289 -92 -141 -52 -222 -92 -426 -207 -11
-6 -54 -35 -97 -63 -422 -288 -765 -712 -946 -1173 -55 -141 -105 -302 -126
-410 -44 -224 -51 -299 -50 -550 0 -221 5 -284 39 -475 12 -64 64 -265 87
-330 235 -682 731 -1229 1378 -1520 197 -88 443 -163 635 -191 22 -3 51 -8 65
-10 173 -29 566 -25 742 6 29 5 69 12 88 15 178 29 434 114 628 207 542 261
989 719 1226 1258 61 138 62 141 92 230 35 106 28 83 64 230 28 118 35 154 45
232 32 244 27 564 -10 783 -74 426 -242 809 -502 1142 -356 456 -835 771
-1388 913 -66 17 -135 33 -155 36 -19 3 -46 7 -60 9 -14 3 -41 7 -60 10 -19 3
-53 7 -75 11 -46 6 -460 16 -466 10z m406 -580 c33 -4 67 -9 75 -11 8 -3 31
-7 50 -10 158 -24 377 -96 525 -172 137 -71 195 -106 300 -183 155 -115 315
-273 410 -404 11 -16 25 -33 30 -40 66 -75 214 -362 264 -511 40 -121 91 -332
91 -378 0 -5 -22 -6 -50 -3 -27 3 -72 8 -100 11 -27 3 -71 7 -97 10 -78 8
-144 14 -218 20 -72 6 -124 11 -197 20 -24 3 -65 7 -93 9 -74 6 -196 18 -225
21 -14 2 -63 7 -110 11 -47 4 -92 8 -100 10 -8 1 -20 3 -26 3 -7 1 -31 31 -55
68 -255 393 -775 500 -1164 240 -82 -55 -174 -150 -230 -235 -25 -40 -51 -72
-58 -73 -7 0 -19 -2 -28 -4 -10 -1 -50 -6 -90 -9 -41 -4 -87 -8 -104 -10 -16
-2 -70 -7 -119 -11 -50 -4 -97 -8 -106 -10 -9 -2 -52 -6 -96 -9 -43 -4 -95 -8
-114 -11 -86 -10 -130 -15 -195 -20 -38 -3 -108 -10 -155 -15 -47 -5 -114 -12
-149 -15 l-63 -5 7 37 c4 21 9 52 12 68 11 77 67 269 108 371 150 374 415 698
755 923 91 61 254 147 335 179 28 10 59 22 70 27 25 10 20 8 140 44 101 31
243 58 345 68 30 2 56 6 57 7 6 5 311 -2 368 -8z m-111 -1746 c147 -70 188
-272 81 -397 -99 -116 -290 -117 -388 -3 -92 108 -80 275 28 367 74 63 186 76
279 33z m-1939 -495 c55 -4 116 -9 135 -10 19 -2 76 -6 125 -10 50 -3 106 -8
125 -10 19 -2 78 -7 130 -10 52 -4 111 -8 130 -10 19 -2 73 -6 120 -9 47 -4
112 -9 145 -12 33 -2 82 -7 109 -9 27 -2 53 -9 57 -17 5 -7 26 -42 46 -77 48
-82 170 -206 251 -255 34 -22 63 -42 63 -45 4 -18 7 -58 14 -171 4 -69 8 -141
10 -160 2 -19 7 -87 10 -150 4 -63 8 -131 10 -150 2 -19 6 -89 10 -155 4 -66
8 -138 10 -160 2 -22 7 -93 11 -159 l7 -118 -44 7 c-324 51 -690 228 -950 457
-130 114 -260 257 -317 348 -9 14 -19 27 -22 30 -18 16 -108 174 -155 272 -81
168 -134 341 -170 546 -7 39 1 55 23 48 10 -3 62 -8 117 -11z m3791 -22 c-13
-87 -18 -112 -38 -188 -106 -424 -349 -803 -691 -1078 -207 -167 -487 -307
-742 -370 -144 -36 -185 -42 -186 -25 -2 17 3 89 16 263 2 28 7 100 10 160 4
61 8 133 10 160 2 28 7 97 10 155 4 58 8 125 10 150 2 25 6 95 10 155 8 111
11 155 14 166 0 3 27 22 59 42 104 64 220 187 277 295 16 28 33 53 39 53 28 3
78 7 161 13 104 8 191 15 255 21 25 2 86 7 135 10 50 4 108 8 130 10 22 1 81
6 130 10 50 4 106 8 125 10 19 2 82 7 140 10 58 4 107 9 109 11 14 14 22 -1
17 -33z"/>
</g>
</svg>
