<?xml version="1.0" standalone="no"?>
<!DOCTYPE svg PUBLIC "-//W3C//DTD SVG 20010904//EN"
 "http://www.w3.org/TR/2001/REC-SVG-20010904/DTD/svg10.dtd">
<svg version="1.0" xmlns="http://www.w3.org/2000/svg"
 width="36864.000000pt" height="36864.000000pt" viewBox="0 0 36864.000000 36864.000000"
 preserveAspectRatio="xMidYMid meet">
<metadata>
Created by potrace 1.16, written by Peter Selinger 2001-2019
</metadata>
<g transform="translate(0.000000,36864.000000) scale(7.200000,-7.200000)"
fill="#000000" stroke="none">
<path d="M1283 3588 c-700 -629 -1272 -1146 -1272 -1150 -1 -5 170 -8 379 -8
l380 0 0 -1025 0 -1025 638 2 637 3 3 768 2 767 510 0 510 0 2 -767 3 -768
638 -3 637 -2 0 1025 0 1025 380 0 c209 0 380 3 379 8 -1 8 -2531 2284 -2545
2289 -6 2 -582 -511 -1281 -1139z"/>
</g>
</svg>
