<?xml version="1.0" standalone="no"?>
<!DOCTYPE svg PUBLIC "-//W3C//DTD SVG 20010904//EN"
 "http://www.w3.org/TR/2001/REC-SVG-20010904/DTD/svg10.dtd">
<svg version="1.0" xmlns="http://www.w3.org/2000/svg"
 width="36864.000000pt" height="36864.000000pt" viewBox="0 0 36864.000000 36864.000000"
 preserveAspectRatio="xMidYMid meet">
<metadata>
Created by potrace 1.15, written by Peter Selinger 2001-2017
</metadata>
<g transform="translate(0.000000,36864.000000) scale(7.200000,-7.200000)"
fill="#000000" stroke="none">
<path d="M335 4595 c-150 -33 -269 -144 -315 -293 -20 -63 -20 -99 -20 -1746
0 -1797 -2 -1714 48 -1813 30 -58 103 -134 163 -170 111 -66 -39 -62 2354 -62
1435 0 2185 3 2215 10 152 34 280 155 326 308 20 67 21 3380 0 3456 -20 78
-54 134 -115 195 -65 65 -119 95 -204 115 -88 21 -4358 21 -4452 0z m4403
-343 c13 -7 27 -24 32 -37 5 -13 9 -160 10 -327 l0 -303 -2217 0 -2218 0 -3
301 c-1 185 2 312 8 328 5 15 23 33 40 40 45 19 4314 17 4348 -2z m42 -2507
c0 -870 1 -859 -47 -881 -10 -4 -987 -8 -2171 -9 -2017 -1 -2154 0 -2181 16
-18 11 -30 29 -35 49 -3 18 -6 394 -6 836 l0 804 2220 0 2220 0 0 -815z"/>
<path d="M685 1525 c-2 -5 -3 -82 -2 -170 l2 -160 325 -1 c179 -1 332 0 340 2
14 4 16 28 15 171 l0 168 -339 0 c-224 0 -339 -3 -341 -10z"/>
<path d="M1709 1520 c-4 -67 -3 -313 1 -319 3 -4 233 -7 513 -7 l507 0 0 171
0 170 -510 0 c-449 0 -510 -1 -511 -15z"/>
</g>
</svg>
