<?xml version="1.0" standalone="no"?>
<!DOCTYPE svg PUBLIC "-//W3C//DTD SVG 20010904//EN"
 "http://www.w3.org/TR/2001/REC-SVG-20010904/DTD/svg10.dtd">
<svg version="1.0" xmlns="http://www.w3.org/2000/svg"
 width="36864.000000pt" height="36864.000000pt" viewBox="0 0 36864.000000 36864.000000"
 preserveAspectRatio="xMidYMid meet">
<metadata>
Created by potrace 1.15, written by Peter Selinger 2001-2017
</metadata>
<g transform="translate(0.000000,36864.000000) scale(7.200000,-7.200000)"
fill="#000000" stroke="none">
<path d="M2378 5115 c-2 -1 -34 -5 -73 -9 -395 -34 -792 -174 -1150 -404 -196
-126 -446 -352 -584 -527 -34 -44 -68 -87 -76 -96 -17 -22 -125 -186 -147
-224 -39 -67 -149 -295 -173 -360 -91 -239 -138 -440 -165 -705 -8 -76 -5
-468 3 -505 3 -12 8 -48 12 -80 8 -67 7 -59 30 -170 125 -611 482 -1168 986
-1538 366 -268 790 -432 1259 -484 78 -9 432 -9 515 0 458 48 882 208 1241
469 135 97 190 144 310 263 421 419 684 971 741 1560 10 95 10 413 1 505 -9
87 -22 172 -38 250 -6 30 -14 68 -16 83 -3 16 -20 79 -39 140 -105 355 -271
665 -500 933 -69 81 -217 229 -295 296 -66 56 -256 198 -265 198 -2 0 -32 18
-66 40 -152 98 -440 222 -649 279 -83 22 -250 57 -320 66 -25 3 -61 8 -80 11
-37 6 -456 14 -462 9z m-768 -1294 c8 0 219 -205 470 -455 276 -275 465 -456
480 -459 22 -6 74 43 485 453 254 253 465 460 470 461 6 0 19 2 30 4 43 9 84
-18 182 -118 110 -112 128 -149 99 -204 -8 -15 -213 -226 -456 -468 -243 -242
-445 -449 -449 -460 -5 -11 -4 -29 1 -40 6 -11 212 -222 458 -470 387 -389
449 -455 454 -486 4 -20 3 -46 -1 -57 -9 -24 -173 -195 -210 -220 -34 -21 -79
-25 -111 -8 -15 8 -220 209 -457 446 -236 238 -443 440 -459 450 -26 17 -32
17 -55 5 -14 -8 -200 -189 -413 -402 -213 -213 -413 -414 -445 -445 -65 -64
-103 -77 -155 -54 -37 15 -228 205 -229 227 0 8 -2 22 -4 33 -2 10 1 30 6 45
6 14 214 231 464 481 406 406 454 458 449 480 -4 15 -182 201 -455 475 -247
249 -453 463 -459 478 -20 55 1 94 107 199 97 96 128 117 168 113 11 -1 27 -3
35 -4z"/>
</g>
</svg>
