<?xml version="1.0" standalone="no"?>
<!DOCTYPE svg PUBLIC "-//W3C//DTD SVG 20010904//EN"
 "http://www.w3.org/TR/2001/REC-SVG-20010904/DTD/svg10.dtd">
<svg version="1.0" xmlns="http://www.w3.org/2000/svg"
 width="36864.000000pt" height="36864.000000pt" viewBox="0 0 36864.000000 36864.000000"
 preserveAspectRatio="xMidYMid meet">
<metadata>
Created by potrace 1.16, written by Peter Selinger 2001-2019
</metadata>
<g transform="translate(0.000000,36864.000000) scale(7.200000,-7.200000)"
fill="#000000" stroke="none">
<path d="M2365 5114 c-242 -25 -418 -62 -621 -129 -1014 -337 -1699 -1256
-1741 -2333 -43 -1127 661 -2152 1724 -2511 297 -101 506 -135 828 -135 322
-1 531 32 825 130 848 282 1486 992 1679 1869 44 201 55 311 55 555 0 327 -33
534 -135 833 -306 908 -1088 1554 -2059 1702 -101 15 -469 28 -555 19z m-758
-1294 c15 -6 231 -213 478 -460 248 -246 461 -451 474 -455 21 -6 74 44 485
453 357 356 468 461 492 467 51 10 92 -15 196 -121 106 -110 123 -146 95 -200
-9 -16 -216 -229 -461 -474 -388 -387 -446 -449 -446 -475 0 -25 60 -89 454
-485 478 -479 480 -481 456 -546 -16 -42 -197 -222 -237 -235 -24 -7 -42 -7
-65 0 -23 8 -172 150 -483 461 -391 391 -454 450 -480 450 -25 0 -89 -60 -485
-454 -479 -478 -481 -480 -546 -456 -40 15 -222 197 -234 235 -22 67 -17 73
466 556 406 407 455 459 449 480 -4 13 -209 227 -455 474 -249 249 -454 463
-460 478 -20 55 1 94 108 200 83 83 123 111 164 116 4 1 19 -4 35 -9z"/>
</g>
</svg>
