<?xml version="1.0" standalone="no"?>
<!DOCTYPE svg PUBLIC "-//W3C//DTD SVG 20010904//EN"
 "http://www.w3.org/TR/2001/REC-SVG-20010904/DTD/svg10.dtd">
<svg version="1.0" xmlns="http://www.w3.org/2000/svg"
 width="36864.000000pt" height="36864.000000pt" viewBox="0 0 36864.000000 36864.000000"
 preserveAspectRatio="xMidYMid meet">
<metadata>
Created by potrace 1.15, written by Peter Selinger 2001-2017
</metadata>
<g transform="translate(0.000000,36864.000000) scale(7.200000,-7.200000)"
fill="#000000" stroke="none">
<path d="M2534 4712 c-10 -9 -64 -57 -119 -106 -55 -49 -102 -92 -105 -95 -3
-4 -45 -42 -95 -86 -49 -44 -110 -98 -135 -121 -25 -22 -97 -87 -160 -144 -63
-57 -153 -138 -200 -180 -47 -42 -155 -139 -240 -216 -85 -76 -160 -143 -166
-149 -6 -5 -48 -44 -94 -85 -46 -41 -91 -82 -100 -90 -8 -8 -56 -51 -105 -95
-49 -44 -95 -84 -101 -90 -6 -5 -48 -44 -94 -85 -46 -41 -91 -82 -100 -90 -9
-8 -56 -51 -105 -95 -50 -44 -92 -82 -95 -85 -3 -3 -50 -45 -105 -94 -55 -50
-102 -92 -105 -96 -3 -3 -48 -43 -100 -90 -52 -46 -114 -102 -138 -125 -24
-22 -48 -41 -53 -43 -5 -2 -9 -8 -9 -13 0 -5 156 -9 380 -9 l380 0 0 -1023 0
-1022 638 0 637 0 3 768 2 767 510 0 510 0 2 -767 3 -768 638 0 637 0 0 1022
0 1023 380 0 c247 0 380 4 380 10 0 6 -3 10 -7 10 -5 0 -31 22 -58 48 -28 26
-93 85 -145 132 -52 46 -115 103 -140 126 -25 23 -97 88 -160 144 -99 89 -228
205 -306 275 -12 11 -41 38 -65 59 -24 22 -64 58 -89 80 -25 23 -86 77 -135
122 -50 45 -164 148 -255 229 -91 82 -181 163 -200 180 -19 18 -62 57 -95 86
-163 145 -230 206 -255 229 -15 14 -64 59 -111 100 -46 41 -86 77 -89 80 -3 3
-28 25 -55 50 -28 25 -91 81 -140 126 -189 170 -239 214 -245 214 -3 0 -15 -8
-26 -18z"/>
</g>
</svg>
