<?xml version="1.0" standalone="no"?>
<!DOCTYPE svg PUBLIC "-//W3C//DTD SVG 20010904//EN"
 "http://www.w3.org/TR/2001/REC-SVG-20010904/DTD/svg10.dtd">
<svg version="1.0" xmlns="http://www.w3.org/2000/svg"
 width="36864.000000pt" height="36864.000000pt" viewBox="0 0 36864.000000 36864.000000"
 preserveAspectRatio="xMidYMid meet">
<metadata>
Created by potrace 1.15, written by Peter Selinger 2001-2017
</metadata>
<g transform="translate(0.000000,36864.000000) scale(7.200000,-7.200000)"
fill="#000000" stroke="none">
<path d="M1273 5099 c-66 -26 -133 -93 -156 -156 -15 -45 -28 -181 -17 -184
12 -3 2906 -5 2915 -2 6 2 9 33 7 76 -5 119 -58 208 -156 260 l-41 22 -1250 2
c-1231 2 -1251 2 -1302 -18z m1052 -83 c59 -25 66 -109 12 -149 -21 -16 -42
-20 -102 -20 -67 0 -79 2 -100 24 -13 13 -26 36 -29 50 -6 36 21 86 53 98 40
14 127 13 166 -3z m633 3 c64 -22 75 -111 19 -153 -25 -18 -43 -20 -210 -20
-227 -1 -241 0 -272 31 -42 43 -27 121 29 143 31 13 397 12 434 -1z"/>
<path d="M1099 4548 c-1 -30 -1 -3981 0 -3990 1 -5 658 -8 1461 -8 803 0 1460
3 1461 8 1 9 1 3972 0 3995 -1 16 -77 17 -1461 17 l-1460 0 -1 -22z m1326
-1182 c14 -10 30 -28 35 -42 6 -14 10 -151 10 -305 0 -314 -4 -338 -60 -358
-41 -14 -577 -15 -614 -1 -56 21 -59 37 -58 323 0 368 -2 340 28 370 32 32 32
32 361 31 237 -1 276 -4 298 -18z m910 4 c46 -25 48 -41 48 -356 0 -279 -1
-297 -20 -322 -11 -15 -31 -30 -44 -33 -13 -4 -149 -7 -302 -8 -320 -1 -338 2
-357 66 -8 25 -10 133 -8 325 3 281 3 288 25 310 30 30 68 33 371 32 188 -1
270 -5 287 -14z m-275 -800 c40 -25 415 -409 426 -437 10 -23 11 -39 4 -59
-13 -34 -409 -430 -444 -444 -19 -7 -35 -6 -57 3 -16 6 -105 87 -197 179 -246
244 -252 251 -252 294 0 34 13 50 203 241 111 112 213 210 227 218 29 16 69
19 90 5z m-646 -114 c23 -9 37 -24 45 -46 14 -41 15 -577 1 -614 -21 -56 -34
-58 -355 -59 -315 0 -330 2 -355 49 -10 18 -13 99 -13 318 0 261 2 298 17 321
10 14 27 30 39 35 12 5 149 9 305 9 220 1 290 -2 316 -13z"/>
<path d="M1920 3017 l0 -183 178 2 c97 1 180 2 183 3 3 0 5 81 5 179 l-1 177
-182 3 -183 2 0 -183z"/>
<path d="M2836 3023 c1 -98 2 -180 3 -183 0 -4 82 -6 181 -6 l180 1 0 182 0
183 -183 0 -183 0 2 -177z"/>
<path d="M2887 2232 l-128 -128 126 -127 c70 -70 130 -127 134 -127 4 0 62 56
130 125 108 108 122 127 111 140 -15 19 -185 189 -222 222 l-24 23 -127 -128z"/>
<path d="M1924 2281 c-2 -2 -4 -85 -4 -183 l0 -178 183 0 183 0 -2 178 c-1 97
-2 179 -3 182 -1 7 -350 7 -357 1z"/>
<path d="M1099 350 c-11 -154 41 -262 155 -323 l41 -22 1265 0 1265 0 42 23
c110 58 159 154 154 302 l-1 36 -1460 0 c-1300 -1 -1460 -2 -1461 -16z m1669
-79 c7 -1 24 -12 37 -26 35 -34 34 -93 -1 -126 -25 -24 -27 -24 -245 -24
l-219 0 -24 25 c-52 53 -29 134 43 148 25 6 340 8 409 3z"/>
</g>
</svg>
