<?xml version="1.0" standalone="no"?>
<!DOCTYPE svg PUBLIC "-//W3C//DTD SVG 20010904//EN"
 "http://www.w3.org/TR/2001/REC-SVG-20010904/DTD/svg10.dtd">
<svg version="1.0" xmlns="http://www.w3.org/2000/svg"
 width="36864.000000pt" height="36864.000000pt" viewBox="0 0 36864.000000 36864.000000"
 preserveAspectRatio="xMidYMid meet">
<metadata>
Created by potrace 1.16, written by Peter Selinger 2001-2019
</metadata>
<g transform="translate(0.000000,36864.000000) scale(7.200000,-7.200000)"
fill="#000000" stroke="none">
<path d="M1274 5099 c-110 -42 -174 -142 -174 -271 l0 -77 1460 0 1460 0 0 77
c0 131 -64 230 -177 272 -53 20 -73 20 -1286 19 -1201 0 -1233 -1 -1283 -20z
m1044 -80 c60 -21 75 -109 24 -149 -20 -16 -40 -20 -102 -20 -87 0 -123 18
-133 67 -7 38 19 90 51 102 37 13 122 13 160 0z m640 0 c62 -21 75 -111 21
-150 -20 -16 -47 -18 -179 -19 -284 -2 -274 -3 -304 26 -43 44 -29 121 28 144
31 13 397 12 434 -1z"/>
<path d="M1100 2560 l0 -2010 1460 0 1460 0 0 2010 0 2010 -1460 0 -1460 0 0
-2010z m1337 796 l28 -24 3 -289 c2 -193 0 -301 -8 -326 -19 -65 -36 -68 -377
-65 l-295 3 -24 28 -24 28 0 308 0 308 26 27 27 26 308 0 308 0 28 -24z m917
-2 l26 -27 0 -308 0 -308 -24 -28 -24 -28 -295 -3 c-341 -3 -358 0 -377 65 -8
25 -10 133 -8 326 l3 289 28 24 28 24 308 0 308 0 27 -26z m-91 -981 c115
-115 215 -221 222 -236 6 -16 10 -41 7 -55 -6 -33 -389 -424 -438 -447 -29
-14 -37 -14 -66 -1 -18 7 -126 108 -240 223 -199 200 -208 211 -208 248 0 38
9 48 218 257 209 209 219 218 257 218 37 0 48 -9 248 -207z m-848 83 c53 -22
57 -50 53 -379 l-3 -289 -28 -24 -28 -24 -308 0 -308 0 -27 26 -26 27 0 306
c0 330 1 340 54 361 11 5 148 9 304 9 223 1 290 -2 317 -13z"/>
<path d="M1920 3015 l0 -185 183 2 182 3 2 183 2 182 -184 0 -185 0 0 -185z"/>
<path d="M2835 3178 c-3 -13 -4 -95 -3 -183 l3 -160 183 -3 182 -2 0 185 0
185 -180 0 c-178 0 -180 0 -185 -22z"/>
<path d="M2887 2232 l-127 -127 130 -130 130 -130 127 128 128 127 -130 130
-130 130 -128 -128z"/>
<path d="M1920 2105 l0 -185 184 0 185 0 -2 183 -2 182 -182 2 -183 3 0 -185z"/>
<path d="M1100 292 c0 -131 64 -230 177 -272 53 -20 73 -20 1283 -20 1210 0
1230 0 1283 20 113 42 177 141 177 272 l0 77 -1460 0 -1460 0 0 -77z m1613
-21 c58 -1 71 -5 92 -26 35 -34 34 -93 -1 -126 -25 -24 -27 -24 -244 -24 -217
0 -219 0 -244 24 -32 30 -35 87 -7 122 17 22 29 24 128 29 59 3 131 4 158 3
28 -1 81 -2 118 -2z"/>
</g>
</svg>
