<?xml version="1.0" standalone="no"?>
<!DOCTYPE svg PUBLIC "-//W3C//DTD SVG 20010904//EN"
 "http://www.w3.org/TR/2001/REC-SVG-20010904/DTD/svg10.dtd">
<svg version="1.0" xmlns="http://www.w3.org/2000/svg"
 width="36864.000000pt" height="36864.000000pt" viewBox="0 0 36864.000000 36864.000000"
 preserveAspectRatio="xMidYMid meet">
<metadata>
Created by potrace 1.15, written by Peter Selinger 2001-2017
</metadata>
<g transform="translate(0.000000,36864.000000) scale(7.200000,-7.200000)"
fill="#000000" stroke="none">
<path d="M4140 4110 c-8 -5 -192 -186 -410 -403 l-395 -394 -1460 2 c-803 0
-1473 -3 -1490 -7 -16 -4 -38 -18 -47 -31 -16 -21 -18 -94 -18 -1120 l0 -1099
29 -29 29 -29 2182 0 2182 0 29 29 29 30 -2 1104 c-3 1035 -4 1105 -20 1121
-28 28 -63 32 -245 31 -95 0 -173 2 -173 5 0 3 59 64 131 135 72 72 137 143
145 158 28 53 14 74 -199 286 -111 111 -209 206 -217 211 -19 12 -61 12 -80 0z
m169 -335 l124 -125 -779 -780 -780 -781 -69 70 c-39 39 -82 75 -97 82 -58 24
-118 -18 -118 -82 0 -32 8 -46 65 -103 45 -45 61 -67 52 -73 -18 -11 -328
-164 -355 -174 -21 -8 -21 -7 8 51 17 33 30 62 30 65 0 3 20 44 44 92 25 49
63 128 86 177 l42 89 806 809 c443 444 809 808 812 808 3 0 61 -56 129 -125z
m-1159 -645 c0 -3 -165 -169 -366 -370 l-366 -365 -48 -100 c-26 -55 -79 -165
-117 -245 -39 -80 -91 -189 -117 -242 -25 -53 -51 -100 -58 -104 -6 -4 -283
-8 -614 -8 -571 -1 -603 -2 -622 -20 -43 -38 -36 -110 13 -142 24 -16 78 -17
654 -17 345 0 638 3 652 6 24 6 122 53 579 274 l185 90 622 624 623 624 225 1
225 0 1 -25 c3 -149 0 -1924 -4 -1927 -6 -7 -4108 -7 -4114 0 -4 4 -7 1877 -4
1941 1 11 2651 16 2651 5z"/>
<path d="M869 2815 c-32 -11 -58 -46 -59 -78 0 -35 29 -76 61 -84 17 -5 214
-8 439 -8 l409 0 24 23 c14 13 27 37 29 53 6 36 -22 84 -54 95 -37 12 -813 11
-849 -1z"/>
<path d="M2055 2821 c-72 -23 -97 -90 -52 -143 39 -49 158 -42 186 10 29 55
-8 132 -63 132 -13 0 -30 2 -38 4 -7 2 -22 1 -33 -3z"/>
<path d="M839 2231 c-33 -33 -36 -58 -14 -101 21 -41 38 -47 140 -48 50 -1
111 -3 138 -4 26 -2 47 -1 47 2 0 8 136 4 149 -4 6 -4 11 -4 11 1 0 4 51 7
112 5 62 -1 133 -2 158 -1 70 1 111 0 163 -3 26 -2 47 -1 47 2 0 8 136 4 149
-4 6 -4 11 -4 11 1 0 4 42 8 92 7 51 0 103 4 115 9 29 13 47 59 39 102 -13 67
8 65 -696 65 l-632 0 -29 -29z"/>
</g>
</svg>
