<?xml version="1.0" standalone="no"?>
<!DOCTYPE svg PUBLIC "-//W3C//DTD SVG 20010904//EN"
 "http://www.w3.org/TR/2001/REC-SVG-20010904/DTD/svg10.dtd">
<svg version="1.0" xmlns="http://www.w3.org/2000/svg"
 width="36864.000000pt" height="36864.000000pt" viewBox="0 0 36864.000000 36864.000000"
 preserveAspectRatio="xMidYMid meet">
<metadata>
Created by potrace 1.15, written by Peter Selinger 2001-2017
</metadata>
<g transform="translate(0.000000,36864.000000) scale(7.200000,-7.200000)"
fill="#000000" stroke="none">
<path d="M975 4954 c-93 -57 -177 -107 -185 -111 -8 -3 -38 -20 -66 -37 -67
-41 -52 -32 -368 -223 -154 -92 -297 -178 -319 -190 l-39 -21 24 -15 c12 -8
272 -164 576 -346 l552 -331 88 53 c48 29 94 56 102 60 8 4 27 15 42 25 27 16
366 221 419 252 112 65 477 285 487 293 9 7 7 13 -10 22 -13 6 -266 158 -563
336 -297 178 -546 327 -555 330 -9 4 -80 -33 -185 -97z"/>
<path d="M0 3471 c0 -427 3 -551 13 -558 6 -6 32 -22 57 -35 25 -14 97 -58
160 -97 63 -39 126 -77 140 -83 14 -7 27 -15 30 -18 3 -3 16 -11 30 -18 14 -6
147 -86 295 -175 l270 -164 3 546 c1 367 -1 548 -8 555 -6 6 -30 22 -55 36
-24 14 -92 54 -152 90 -139 83 -130 78 -210 124 -37 22 -70 42 -73 46 -3 4
-17 13 -32 21 -43 22 -352 207 -365 219 -7 5 -15 10 -18 10 -3 0 -23 11 -45
25 l-40 25 0 -549z"/>
<path d="M1800 3720 l-495 -296 -3 -552 -2 -551 122 73 c68 40 182 108 253
151 72 43 142 85 157 94 94 55 436 262 451 273 16 12 17 48 15 559 l-3 546
-495 -297z"/>
<path d="M2737 3971 c-43 -9 -95 -57 -108 -100 -49 -165 167 -268 264 -126 73
107 -27 252 -156 226z"/>
<path d="M3326 3965 c-74 -26 -116 -94 -102 -168 22 -117 177 -161 255 -72
101 115 -10 289 -153 240z"/>
<path d="M3950 3973 c-59 -16 -91 -39 -110 -78 -11 -23 -20 -54 -20 -68 0 -78
69 -150 144 -150 181 0 211 253 35 292 -19 4 -41 6 -49 4z"/>
<path d="M3950 3373 c-59 -16 -91 -39 -110 -78 -23 -48 -25 -83 -6 -128 35
-83 131 -115 209 -69 118 69 90 241 -44 271 -19 4 -41 6 -49 4z"/>
<path d="M3937 2759 c-14 -10 -28 -19 -31 -19 -3 0 -29 -15 -59 -32 -29 -18
-61 -38 -72 -45 -262 -152 -945 -569 -943 -575 5 -13 1122 -681 1138 -680 20
1 1141 674 1138 684 -4 9 -717 438 -729 438 -5 0 -9 5 -9 10 0 6 -4 10 -8 10
-5 0 -90 49 -189 108 -99 60 -187 111 -196 115 -9 3 -27 -3 -40 -14z"/>
<path d="M1121 1929 c-133 -27 -162 -203 -45 -271 44 -25 87 -28 131 -8 104
46 123 177 37 248 -40 33 -72 41 -123 31z"/>
<path d="M2822 1188 l3 -552 90 -53 c50 -29 97 -57 105 -63 8 -6 25 -16 37
-23 13 -7 75 -43 138 -82 64 -38 129 -78 146 -87 16 -10 42 -26 58 -35 16 -10
70 -43 121 -73 50 -30 103 -62 118 -71 15 -9 62 -37 105 -63 l77 -46 0 549 0
549 -92 56 c-51 31 -100 61 -108 65 -8 5 -96 58 -195 118 -98 59 -187 113
-197 118 -18 10 -288 173 -366 220 l-42 26 2 -553z"/>
<path d="M4620 1440 l-495 -296 -3 -552 -2 -551 97 58 c230 135 869 521 886
533 16 12 17 48 15 559 l-3 545 -495 -296z"/>
<path d="M1106 1325 c-50 -18 -84 -51 -97 -96 -28 -91 29 -176 128 -192 39 -6
108 26 136 64 44 61 28 154 -34 202 -42 32 -84 38 -133 22z"/>
<path d="M1710 1327 c-95 -24 -140 -147 -83 -226 28 -38 96 -70 136 -64 82 12
132 69 132 148 0 61 -21 98 -73 128 -39 23 -66 26 -112 14z"/>
<path d="M2310 1327 c-143 -37 -143 -246 0 -285 90 -24 177 36 187 129 10 102
-87 182 -187 156z"/>
</g>
</svg>
