<?xml version="1.0" standalone="no"?>
<!DOCTYPE svg PUBLIC "-//W3C//DTD SVG 20010904//EN"
 "http://www.w3.org/TR/2001/REC-SVG-20010904/DTD/svg10.dtd">
<svg version="1.0" xmlns="http://www.w3.org/2000/svg"
 width="36864.000000pt" height="36864.000000pt" viewBox="0 0 36864.000000 36864.000000"
 preserveAspectRatio="xMidYMid meet">
<metadata>
Created by potrace 1.16, written by Peter Selinger 2001-2019
</metadata>
<g transform="translate(0.000000,36864.000000) scale(7.200000,-7.200000)"
fill="#000000" stroke="none">
<path d="M3740 3715 l-405 -404 -1476 0 c-811 0 -1483 -3 -1492 -7 -48 -18
-47 10 -47 -1154 l0 -1092 29 -29 29 -29 2182 0 2182 0 29 29 29 29 0 1092 c0
1166 1 1135 -47 1155 -10 4 -102 6 -205 5 -104 0 -188 3 -188 7 0 5 59 67 131
138 141 141 164 172 154 214 -4 18 -77 98 -218 239 -194 193 -216 212 -247
212 -32 0 -64 -30 -440 -405z m570 60 l125 -125 -780 -780 -779 -779 -76 73
c-41 40 -85 76 -98 80 -56 18 -112 -24 -112 -84 0 -31 9 -46 66 -104 37 -37
65 -68 63 -70 -5 -5 -316 -155 -357 -172 l-33 -15 14 28 c8 15 61 125 117 243
l102 215 806 808 c444 444 809 807 812 807 3 0 61 -56 130 -125z m-1160 -642
c0 -5 -166 -174 -369 -378 l-369 -370 -163 -342 -163 -343 -593 0 c-647 0
-652 0 -673 -55 -16 -43 -12 -65 19 -96 l29 -29 649 0 648 0 170 82 c94 45
265 127 380 183 l210 103 625 626 625 626 222 0 223 0 0 -980 0 -980 -2060 0
-2060 0 0 980 0 980 1325 0 c729 0 1325 -3 1325 -7z"/>
<path d="M836 2789 c-14 -17 -26 -39 -26 -50 0 -35 29 -78 58 -86 15 -3 213
-7 441 -7 l414 0 23 28 c32 37 32 89 -1 121 l-24 25 -430 0 -429 0 -26 -31z"/>
<path d="M2012 2800 c-41 -39 -41 -107 1 -134 21 -14 64 -20 115 -17 36 2 72
44 72 86 0 57 -35 85 -108 85 -45 0 -63 -5 -80 -20z"/>
<path d="M838 2230 c-26 -27 -30 -36 -25 -67 4 -20 16 -46 27 -57 20 -21 30
-21 661 -24 l640 -2 30 29 c46 46 38 110 -18 139 -16 9 -192 12 -653 12 l-632
0 -30 -30z"/>
</g>
</svg>
