<?xml version="1.0" standalone="no"?>
<!DOCTYPE svg PUBLIC "-//W3C//DTD SVG 20010904//EN"
 "http://www.w3.org/TR/2001/REC-SVG-20010904/DTD/svg10.dtd">
<svg version="1.0" xmlns="http://www.w3.org/2000/svg"
 width="36864.000000pt" height="36864.000000pt" viewBox="0 0 36864.000000 36864.000000"
 preserveAspectRatio="xMidYMid meet">
<metadata>
Created by potrace 1.16, written by Peter Selinger 2001-2019
</metadata>
<g transform="translate(0.000000,36864.000000) scale(7.200000,-7.200000)"
fill="#000000" stroke="none">
<path d="M642 4777 l-22 -23 0 -1992 0 -1992 -125 0 c-120 0 -127 -1 -150 -25
-25 -24 -25 -27 -25 -200 0 -173 0 -176 25 -200 l24 -25 2191 0 2191 0 24 25
c25 24 25 27 25 200 0 173 0 176 -25 200 -23 24 -30 25 -150 25 l-125 0 0
1994 0 1995 -26 20 -27 21 -1892 0 -1892 0 -21 -23z m3708 -2067 l0 -1940
-560 0 -560 0 0 424 c0 395 -1 425 -18 446 l-18 23 -634 0 -634 0 -18 -23
c-17 -21 -18 -51 -18 -446 l0 -424 -560 0 -560 0 0 1940 0 1940 1790 0 1790 0
0 -1940z m-1865 -1566 l0 -369 -222 -3 -223 -2 0 369 0 370 23 3 c12 2 112 2
222 2 l200 -2 0 -368z m553 367 l42 -1 0 -370 0 -370 -222 2 -223 3 -1 365 c0
201 0 367 2 370 2 4 275 5 402 1z m1612 -966 l0 -75 -2090 0 -2090 0 0 75 0
75 2090 0 2090 0 0 -75z"/>
<path d="M1120 4423 c-50 -19 -50 -19 -50 -295 0 -245 1 -259 20 -278 19 -19
33 -20 350 -20 317 0 331 1 350 20 19 19 20 33 20 278 0 250 -1 260 -21 278
-20 18 -42 19 -338 21 -174 1 -323 -1 -331 -4z m540 -170 c2 -63 2 -152 1
-210 l-1 -63 -220 0 c-169 0 -220 3 -221 13 -1 15 -1 223 0 260 l1 27 220 0
220 0 0 -27z"/>
<path d="M2240 4423 c-50 -19 -50 -19 -50 -295 0 -245 1 -259 20 -278 19 -19
33 -20 350 -20 317 0 331 1 350 20 19 19 20 33 20 278 0 250 -1 260 -21 278
-20 18 -42 19 -338 21 -174 1 -323 -1 -331 -4z m541 -180 c1 -63 2 -175 0
-220 l-1 -43 -220 0 c-203 0 -220 1 -220 18 -2 37 -2 219 -1 250 l1 32 220 0
220 0 1 -37z"/>
<path d="M3360 4423 c-50 -19 -50 -19 -50 -295 0 -245 1 -259 20 -278 19 -19
33 -20 350 -20 317 0 331 1 350 20 19 19 20 33 20 278 0 250 -1 260 -21 278
-20 18 -42 19 -338 21 -174 1 -323 -1 -331 -4z m541 -185 c1 -38 1 -110 -1
-225 l0 -33 -220 0 -220 0 -1 30 c0 17 -1 62 -1 100 0 39 1 93 1 120 l1 50
220 0 220 0 1 -42z"/>
<path d="M1125 3602 c-11 -2 -28 -11 -37 -20 -16 -14 -18 -40 -18 -274 0 -245
1 -259 20 -278 19 -19 33 -20 350 -20 317 0 331 1 350 20 19 19 20 33 20 278
0 250 -1 260 -21 278 -20 18 -41 19 -333 19 -171 1 -320 -1 -331 -3z m524
-152 c11 -6 16 -97 12 -237 l-1 -53 -220 0 -220 0 -1 43 c-3 81 1 239 6 247 6
10 408 10 424 0z"/>
<path d="M2245 3602 c-11 -2 -28 -11 -37 -20 -16 -14 -18 -40 -18 -274 0 -245
1 -259 20 -278 19 -19 33 -20 350 -20 317 0 331 1 350 20 19 19 20 33 20 278
0 250 -1 260 -21 278 -20 18 -41 19 -333 20 -171 0 -320 -2 -331 -4z m536
-156 c1 -14 1 -222 0 -258 l-1 -28 -220 0 -220 0 -1 43 c-3 82 1 239 6 247 8
13 435 9 436 -4z"/>
<path d="M3365 3602 c-11 -2 -28 -11 -37 -20 -16 -14 -18 -40 -18 -274 0 -245
1 -259 20 -278 19 -19 33 -20 350 -20 317 0 331 1 350 20 19 19 20 33 20 278
0 250 -1 260 -21 278 -20 18 -41 19 -332 19 -172 1 -321 -1 -332 -3z m536
-156 c1 -14 1 -222 0 -258 l-1 -28 -220 0 -220 0 0 28 c-2 104 -2 193 -1 228
l1 41 220 0 c151 0 220 -4 221 -11z"/>
<path d="M1140 2782 c-71 -7 -70 -5 -70 -297 0 -241 1 -263 18 -278 17 -15 56
-17 354 -17 312 0 336 1 351 18 15 16 17 51 17 279 0 247 -1 261 -20 278 -18
16 -46 18 -317 19 -164 1 -314 0 -333 -2z m517 -155 c3 -4 7 -70 7 -147 l1
-140 -25 -1 c-28 -1 -322 0 -385 0 l-40 1 2 122 c1 68 2 134 2 148 l1 25 215
-1 c118 0 218 -4 222 -7z"/>
<path d="M2285 2782 c-99 -5 -95 7 -95 -297 0 -241 1 -263 18 -278 17 -15 56
-17 354 -17 312 0 336 1 351 18 15 16 17 51 17 279 0 243 -1 261 -19 277 -17
16 -49 18 -293 19 -150 1 -300 1 -333 -1z m491 -155 c8 -8 9 -275 1 -283 -7
-8 -427 -8 -434 0 -3 3 -6 68 -6 143 0 136 1 138 24 143 33 8 407 5 415 -3z"/>
<path d="M3364 2781 c-10 -1 -27 -10 -36 -19 -16 -14 -18 -40 -18 -277 0 -241
1 -263 18 -278 17 -15 56 -17 354 -17 312 0 336 1 351 18 15 16 17 51 17 279
0 242 -1 261 -19 277 -17 15 -53 17 -333 19 -173 1 -323 0 -334 -2z m537 -156
c3 -37 -2 -280 -6 -283 -3 -3 -100 -5 -217 -5 -184 1 -213 3 -218 17 -3 8 -4
48 -3 88 1 40 2 100 3 134 l0 61 220 -1 c139 -1 220 -5 221 -11z"/>
<path d="M2060 1940 c-27 -27 -26 -81 1 -106 20 -18 43 -19 499 -19 456 0 479
1 499 19 27 25 28 79 1 106 -19 19 -33 20 -500 20 -467 0 -481 -1 -500 -20z"/>
</g>
</svg>
