<?xml version="1.0" standalone="no"?>
<!DOCTYPE svg PUBLIC "-//W3C//DTD SVG 20010904//EN"
 "http://www.w3.org/TR/2001/REC-SVG-20010904/DTD/svg10.dtd">
<svg version="1.0" xmlns="http://www.w3.org/2000/svg"
 width="36864.000000pt" height="36864.000000pt" viewBox="0 0 36864.000000 36864.000000"
 preserveAspectRatio="xMidYMid meet">
<metadata>
Created by potrace 1.15, written by Peter Selinger 2001-2017
</metadata>
<g transform="translate(0.000000,36864.000000) scale(7.200000,-7.200000)"
fill="#000000" stroke="none">
<path d="M654 4790 c-12 -5 -24 -20 -28 -35 -4 -14 -7 -917 -7 -2006 l1 -1979
-23 -1 c-12 0 -71 -1 -130 -2 -151 -3 -147 4 -147 -224 0 -171 0 -174 25 -198
l24 -25 2189 0 2189 0 27 21 26 20 0 180 c0 177 0 180 -24 204 -24 23 -31 25
-138 24 -62 0 -118 0 -125 0 -10 1 -12 435 -12 1991 0 1555 -3 1994 -13 2009
-6 11 -21 22 -33 25 -34 9 -3778 5 -3801 -4z m3697 -152 c4 -75 0 -3860 -4
-3864 -4 -4 -883 -8 -1073 -5 l-42 1 0 413 c0 227 -3 423 -6 435 -16 48 -20
48 -679 48 l-619 -1 -19 -24 c-10 -13 -19 -37 -20 -55 0 -17 -1 -208 -1 -423
0 -287 -3 -393 -12 -394 -6 0 -257 -1 -559 -2 l-547 -2 -1 25 c0 32 0 3807 0
3838 l1 22 1790 0 c1425 0 1790 -3 1791 -12z m-1870 -3128 c1 -3 2 -170 3
-372 1 -322 -1 -368 -14 -369 -125 -4 -424 2 -429 9 -4 8 -6 737 -2 737 1 0
100 0 221 0 121 0 221 -2 221 -5z m600 -10 c0 -8 1 -176 2 -372 l2 -358 -40
-1 c-51 -1 -375 -1 -395 0 -13 1 -15 48 -15 369 -1 202 3 369 6 372 4 3 105 5
223 5 185 0 216 -2 217 -15z m1569 -955 l0 -75 -2090 0 -2090 0 0 75 0 74
2090 0 2090 1 0 -75z"/>
<path d="M1108 4418 c-16 -5 -30 -20 -35 -36 -5 -15 -8 -137 -8 -271 l1 -243
25 -19 c22 -17 47 -19 347 -19 192 0 331 4 342 10 31 17 36 58 34 295 -2 269
-1 245 -20 270 -14 19 -27 20 -337 21 -177 0 -334 -3 -349 -8z m547 -146 c6
-1 10 -57 10 -147 l0 -145 -225 0 -225 0 0 148 0 148 215 -1 c118 -1 220 -2
225 -3z"/>
<path d="M2208 4403 c-22 -23 -22 -29 -22 -278 l0 -254 24 -21 c22 -19 36 -20
347 -20 192 0 332 4 343 10 31 17 36 58 34 295 -2 269 -1 245 -20 270 -14 19
-27 20 -349 21 l-335 1 -22 -24z m577 -276 l0 -147 -225 2 -225 3 0 146 0 145
225 0 224 -1 1 -148z"/>
<path d="M3348 4418 c-16 -6 -30 -20 -35 -36 -7 -20 -10 -462 -4 -504 1 -5 10
-17 21 -28 19 -19 33 -20 348 -20 316 0 329 1 350 20 26 24 24 0 26 280 2 231
-3 273 -32 286 -24 11 -642 13 -674 2z m557 -290 l0 -148 -225 0 -225 0 0 148
0 148 224 0 225 -1 1 -147z"/>
<path d="M1112 3599 c-43 -16 -45 -30 -46 -272 -1 -128 0 -245 3 -260 8 -58
20 -60 371 -60 280 0 323 3 345 17 16 10 25 26 26 44 1 15 2 130 3 257 1 222
0 231 -21 255 l-21 25 -321 0 c-177 0 -330 -3 -339 -6z m548 -148 c7 -1 7
-291 0 -292 -3 0 -101 -1 -218 -2 -182 -2 -215 0 -221 13 -6 12 -7 231 -2 275
1 6 79 10 219 9 119 -1 219 -2 222 -3z"/>
<path d="M2232 3599 c-44 -16 -46 -29 -47 -277 0 -131 2 -247 4 -260 8 -52 25
-54 371 -54 354 0 369 2 371 60 1 15 2 130 2 257 2 222 1 231 -20 255 l-21 25
-321 0 c-177 0 -329 -3 -339 -6z m548 -148 c10 -2 5 -291 -5 -292 -54 -5 -414
-3 -425 2 -13 6 -15 29 -14 141 1 73 2 138 3 143 1 7 79 10 219 9 119 -1 219
-2 222 -3z"/>
<path d="M3352 3599 c-43 -16 -46 -30 -46 -272 -1 -128 0 -245 3 -260 8 -58
20 -60 371 -59 206 0 326 4 339 11 11 6 23 21 27 33 4 13 8 131 8 263 1 232 0
241 -21 265 l-21 25 -321 0 c-177 0 -329 -3 -339 -6z m548 -148 c3 0 5 -66 5
-146 1 -123 -2 -145 -15 -146 -121 -6 -423 -2 -428 6 -6 9 -11 274 -6 285 2 4
427 5 444 1z"/>
<path d="M1091 2764 l-25 -21 0 -243 c-1 -255 4 -293 43 -308 11 -4 164 -7
341 -6 350 0 342 -1 358 59 4 17 7 135 7 263 -1 225 -2 233 -23 255 -22 21
-26 22 -349 22 -319 0 -328 0 -352 -21z m570 -144 c1 -8 2 -74 3 -147 1 -110
-2 -133 -14 -135 -8 -2 -109 -3 -225 -3 l-210 0 0 130 c0 72 1 139 3 150 3 20
11 20 223 20 187 0 219 -2 220 -15z"/>
<path d="M2244 2782 c-12 -2 -30 -12 -40 -23 -16 -18 -18 -44 -18 -276 l0
-255 25 -22 c24 -20 32 -21 329 -20 168 1 317 2 333 3 19 1 33 10 45 30 15 25
17 58 16 275 0 240 -1 247 -22 269 -22 21 -26 22 -335 22 -171 0 -322 -1 -333
-3z m541 -282 c1 -74 -1 -142 -3 -150 -3 -13 -34 -15 -215 -15 -117 0 -217 3
-222 7 -8 5 -12 193 -6 278 1 13 32 15 223 15 l222 0 1 -135z"/>
<path d="M3352 2779 c-44 -16 -46 -29 -47 -282 -1 -255 4 -290 45 -305 10 -4
160 -7 333 -6 342 1 359 3 368 56 3 13 4 130 4 261 -1 230 -2 239 -23 260 -21
21 -28 21 -342 22 -176 0 -328 -2 -338 -6z m549 -149 c7 -33 2 -290 -6 -291
-44 -6 -422 -4 -430 2 -7 5 -10 62 -9 151 1 79 2 143 3 143 103 2 441 -1 442
-5z"/>
<path d="M2089 1957 c-21 -5 -34 -18 -43 -39 -16 -38 -11 -63 19 -86 21 -17
56 -18 500 -18 l477 1 23 27 c20 24 22 33 14 60 -5 18 -9 34 -9 35 0 1 -10 8
-22 15 -27 14 -906 19 -959 5z"/>
</g>
</svg>
