<?xml version="1.0" standalone="no"?>
<!DOCTYPE svg PUBLIC "-//W3C//DTD SVG 20010904//EN"
 "http://www.w3.org/TR/2001/REC-SVG-20010904/DTD/svg10.dtd">
<svg version="1.0" xmlns="http://www.w3.org/2000/svg"
 width="36864.000000pt" height="36864.000000pt" viewBox="0 0 36864.000000 36864.000000"
 preserveAspectRatio="xMidYMid meet">
<metadata>
Created by potrace 1.16, written by Peter Selinger 2001-2019
</metadata>
<g transform="translate(0.000000,36864.000000) scale(7.200000,-7.200000)"
fill="#000000" stroke="none">
<path d="M580 4720 c-311 -187 -566 -344 -568 -348 -1 -5 254 -163 568 -351
l570 -342 570 342 c314 188 570 345 570 349 0 6 -1133 691 -1142 690 -2 -1
-257 -154 -568 -340z"/>
<path d="M2 3469 l3 -553 495 -297 495 -297 3 546 c2 429 -1 549 -10 558 -7 6
-222 136 -478 289 -256 153 -475 285 -488 293 l-22 14 2 -553z"/>
<path d="M1806 3725 c-269 -161 -492 -297 -497 -302 -5 -5 -8 -247 -7 -555 l3
-546 489 293 c269 161 492 297 497 302 5 5 8 247 7 555 l-3 546 -489 -293z"/>
<path d="M2689 3947 c-39 -26 -69 -79 -69 -122 0 -43 30 -96 69 -122 71 -48
175 -20 213 57 50 98 -21 210 -132 210 -32 0 -58 -7 -81 -23z"/>
<path d="M3289 3947 c-39 -26 -69 -79 -69 -122 0 -43 30 -96 69 -122 71 -48
175 -20 213 57 50 98 -21 210 -132 210 -32 0 -58 -7 -81 -23z"/>
<path d="M3889 3947 c-39 -26 -69 -79 -69 -122 0 -43 30 -96 69 -122 71 -48
175 -20 213 57 50 98 -21 210 -132 210 -32 0 -58 -7 -81 -23z"/>
<path d="M3941 3369 c-45 -9 -82 -38 -103 -80 -50 -97 21 -209 132 -209 81 0
150 67 150 145 0 89 -92 163 -179 144z"/>
<path d="M3400 2440 c-311 -187 -566 -344 -568 -348 -1 -5 254 -163 568 -351
l570 -342 570 342 c314 188 570 345 570 349 0 6 -1133 691 -1142 690 -2 -1
-257 -154 -568 -340z"/>
<path d="M1069 1907 c-39 -26 -69 -79 -69 -122 0 -43 30 -96 69 -122 71 -48
175 -20 213 57 50 98 -21 210 -132 210 -32 0 -58 -7 -81 -23z"/>
<path d="M2822 1189 l3 -553 495 -297 495 -297 3 546 c2 429 -1 549 -10 558
-7 6 -222 136 -478 289 -256 153 -475 285 -488 293 l-22 14 2 -553z"/>
<path d="M4626 1445 c-269 -161 -492 -297 -497 -302 -5 -5 -8 -247 -7 -555 l3
-546 489 293 c269 161 492 297 497 302 5 5 8 247 7 555 l-3 546 -489 -293z"/>
<path d="M1069 1307 c-39 -26 -69 -79 -69 -122 0 -16 8 -46 18 -65 53 -107
211 -107 264 0 50 98 -21 210 -132 210 -32 0 -58 -7 -81 -23z"/>
<path d="M1673 1310 c-113 -68 -87 -233 42 -269 70 -19 155 28 176 99 18 59 4
108 -42 152 -36 34 -45 38 -92 38 -34 0 -63 -7 -84 -20z"/>
<path d="M2269 1307 c-64 -42 -85 -120 -51 -187 53 -107 211 -107 264 0 50 98
-21 210 -132 210 -32 0 -58 -7 -81 -23z"/>
</g>
</svg>
