<?xml version="1.0" standalone="no"?>
<!DOCTYPE svg PUBLIC "-//W3C//DTD SVG 20010904//EN"
 "http://www.w3.org/TR/2001/REC-SVG-20010904/DTD/svg10.dtd">
<svg version="1.0" xmlns="http://www.w3.org/2000/svg"
 width="36864.000000pt" height="36864.000000pt" viewBox="0 0 36864.000000 36864.000000"
 preserveAspectRatio="xMidYMid meet">
<metadata>
Created by potrace 1.15, written by Peter Selinger 2001-2017
</metadata>
<g transform="translate(0.000000,36864.000000) scale(7.200000,-7.200000)"
fill="#000000" stroke="none">
<path d="M1303 3215 c-354 -355 -643 -649 -643 -655 0 -5 290 -300 645 -655
l645 -645 1250 0 1250 0 0 1300 0 1300 -1252 -1 -1253 0 -642 -644z m2947
-655 l0 -1100 -1093 0 -1092 0 -550 550 -550 550 550 550 550 550 1093 0 1092
0 0 -1100z"/>
<path d="M2351 3059 l-71 -72 214 -213 214 -214 -209 -209 -208 -208 70 -72
71 -71 205 205 c113 113 209 205 214 205 4 0 99 -92 212 -205 l204 -205 71 71
72 72 -205 204 c-113 113 -205 209 -205 213 0 4 95 102 210 218 l211 209 -72
72 -71 71 -214 -214 -215 -214 -213 215 -214 214 -71 -72z"/>
</g>
</svg>
