<?xml version="1.0" standalone="no"?>
<!DOCTYPE svg PUBLIC "-//W3C//DTD SVG 20010904//EN"
 "http://www.w3.org/TR/2001/REC-SVG-20010904/DTD/svg10.dtd">
<svg version="1.0" xmlns="http://www.w3.org/2000/svg"
 width="36864.000000pt" height="36864.000000pt" viewBox="0 0 36864.000000 36864.000000"
 preserveAspectRatio="xMidYMid meet">
<metadata>
Created by potrace 1.16, written by Peter Selinger 2001-2019
</metadata>
<g transform="translate(0.000000,36864.000000) scale(7.200000,-7.200000)"
fill="#000000" stroke="none">
<path d="M1260 2820 l0 -1040 260 0 260 0 0 -260 0 -260 1040 0 1040 0 0 1040
0 1040 -260 0 -260 0 0 260 0 260 -1040 0 -1040 0 0 -1040z m1880 680 l0 -160
-680 0 -680 0 0 -680 0 -680 -160 0 -160 0 0 840 0 840 840 0 840 0 0 -160z
m520 -1200 l0 -840 -840 0 -840 0 0 840 0 840 840 0 840 0 0 -840z"/>
<path d="M2312 2798 l-72 -73 212 -212 213 -213 -208 -208 -207 -207 72 -73
73 -72 207 207 208 208 208 -208 207 -207 73 72 72 73 -207 207 -208 208 213
213 212 212 -72 73 -73 72 -212 -212 -213 -213 -213 213 -212 212 -73 -72z"/>
</g>
</svg>
