<?xml version="1.0" standalone="no"?>
<!DOCTYPE svg PUBLIC "-//W3C//DTD SVG 20010904//EN"
 "http://www.w3.org/TR/2001/REC-SVG-20010904/DTD/svg10.dtd">
<svg version="1.0" xmlns="http://www.w3.org/2000/svg"
 width="36864.000000pt" height="36864.000000pt" viewBox="0 0 36864.000000 36864.000000"
 preserveAspectRatio="xMidYMid meet">
<metadata>
Created by potrace 1.15, written by Peter Selinger 2001-2017
</metadata>
<g transform="translate(0.000000,36864.000000) scale(7.200000,-7.200000)"
fill="#000000" stroke="none">
<path d="M3425 3835 c-81 -33 -132 -89 -280 -310 -66 -99 -122 -184 -125 -190
-3 -6 -38 -61 -79 -122 -81 -122 -119 -153 -190 -153 -62 0 -106 28 -211 135
-52 54 -108 105 -124 115 -46 30 -78 12 -198 -107 l-107 -107 492 -492 492
-493 104 102 c112 111 135 146 119 187 -5 14 -60 77 -123 140 -118 120 -135
146 -135 207 0 73 32 116 138 184 184 119 467 308 517 346 62 48 118 121 131
173 17 62 10 168 -13 220 -71 156 -250 229 -408 165z m175 -191 c120 -71 41
-260 -93 -223 -107 29 -122 182 -22 225 41 18 81 17 115 -2z"/>
<path d="M1624 2610 c-192 -193 -353 -362 -357 -375 -15 -43 -1 -67 81 -148
90 -91 98 -97 132 -97 23 0 190 103 198 122 2 5 8 8 14 8 6 0 28 14 50 31 21
17 41 29 44 26 3 -2 -38 -68 -90 -146 -52 -78 -93 -149 -91 -158 2 -10 4 -25
4 -33 1 -24 315 -333 346 -342 15 -4 43 -1 66 7 44 16 45 15 24 -25 -27 -53
-16 -79 75 -167 50 -48 77 -59 115 -46 14 4 184 167 379 361 l353 353 -489
490 c-269 269 -493 489 -497 489 -4 0 -164 -158 -357 -350z"/>
</g>
</svg>
