<?xml version="1.0" standalone="no"?>
<!DOCTYPE svg PUBLIC "-//W3C//DTD SVG 20010904//EN"
 "http://www.w3.org/TR/2001/REC-SVG-20010904/DTD/svg10.dtd">
<svg version="1.0" xmlns="http://www.w3.org/2000/svg"
 width="36864.000000pt" height="36864.000000pt" viewBox="0 0 36864.000000 36864.000000"
 preserveAspectRatio="xMidYMid meet">
<metadata>
Created by potrace 1.15, written by Peter Selinger 2001-2017
</metadata>
<g transform="translate(0.000000,36864.000000) scale(7.200000,-7.200000)"
fill="#000000" stroke="none">
<path d="M2349 4986 c-2 -2 -38 -7 -79 -10 -101 -9 -243 -33 -366 -62 -92 -21
-290 -82 -339 -103 -11 -5 -60 -26 -110 -47 -393 -167 -739 -432 -1004 -771
-228 -291 -397 -705 -438 -1071 -15 -130 -7 -483 12 -552 2 -8 7 -35 10 -60
28 -211 167 -557 311 -778 32 -48 57 -98 57 -112 0 -25 -20 -195 -29 -248 -60
-360 -139 -598 -259 -782 -23 -36 -51 -74 -62 -85 -59 -61 -67 -117 -21 -156
30 -26 37 -26 266 15 368 67 782 202 1099 358 l123 60 83 -30 c86 -32 204 -69
241 -76 11 -2 41 -9 66 -16 25 -7 54 -14 65 -16 11 -2 31 -6 45 -9 75 -15 236
-37 315 -42 165 -12 452 -6 566 11 13 3 45 7 70 10 437 60 885 247 1244 519
173 131 355 315 481 487 96 130 205 322 258 455 16 39 32 79 37 90 23 57 70
219 85 295 33 174 41 275 39 460 -2 107 -6 211 -10 230 -3 19 -11 62 -16 95
-32 192 -93 375 -189 571 -309 633 -924 1112 -1660 1292 -69 17 -143 34 -165
37 -22 4 -52 9 -66 11 -116 20 -275 32 -450 33 -113 0 -208 -1 -210 -3z m451
-177 c128 -12 239 -28 250 -34 3 -2 25 -6 48 -10 48 -7 286 -70 317 -84 11 -5
58 -24 105 -42 533 -204 992 -613 1226 -1094 80 -165 151 -374 169 -501 3 -21
8 -45 10 -52 26 -76 26 -508 0 -602 -2 -8 -6 -31 -9 -50 -21 -146 -102 -376
-190 -546 -179 -342 -445 -627 -791 -848 -102 -66 -358 -192 -455 -226 -36
-12 -74 -26 -85 -30 -54 -23 -291 -83 -375 -95 -14 -2 -38 -6 -55 -9 -198 -34
-562 -39 -727 -11 -13 2 -43 6 -68 9 -65 8 -184 32 -265 54 -145 39 -195 55
-195 61 1 3 53 39 117 80 169 108 211 144 218 185 15 79 -80 134 -139 79 -26
-24 -249 -171 -402 -265 -272 -168 -604 -296 -1026 -398 -93 -22 -172 -40
-178 -40 -6 0 8 37 31 83 97 192 176 464 213 737 3 19 10 71 17 114 6 44 12
113 12 155 l2 76 -72 105 c-142 209 -245 454 -293 695 -5 28 -12 61 -15 75
-19 91 -27 391 -13 520 39 357 197 731 434 1024 329 407 769 682 1312 821 92
23 265 53 357 60 44 4 81 8 83 10 7 6 357 2 432 -6z"/>
</g>
</svg>
