<?xml version="1.0" standalone="no"?>
<!DOCTYPE svg PUBLIC "-//W3C//DTD SVG 20010904//EN"
 "http://www.w3.org/TR/2001/REC-SVG-20010904/DTD/svg10.dtd">
<svg version="1.0" xmlns="http://www.w3.org/2000/svg"
 width="36864.000000pt" height="36864.000000pt" viewBox="0 0 36864.000000 36864.000000"
 preserveAspectRatio="xMidYMid meet">
<metadata>
Created by potrace 1.16, written by Peter Selinger 2001-2019
</metadata>
<g transform="translate(0.000000,36864.000000) scale(7.200000,-7.200000)"
fill="#000000" stroke="none">
<path d="M2295 4980 c-664 -73 -1216 -329 -1647 -766 -188 -191 -315 -368
-429 -599 -331 -674 -283 -1448 130 -2088 l59 -92 -18 -140 c-62 -483 -164
-778 -347 -1003 -46 -57 -51 -77 -28 -121 27 -53 46 -53 303 -1 416 83 769
198 1077 352 l122 60 117 -41 c469 -164 980 -199 1476 -101 1204 239 2051
1221 2006 2325 -19 469 -180 892 -483 1270 -396 494 -984 823 -1658 926 -147
23 -543 34 -680 19z m630 -184 c555 -83 1016 -304 1388 -666 192 -186 329
-372 438 -595 264 -543 262 -1162 -5 -1702 -218 -440 -566 -779 -1041 -1013
-357 -176 -728 -261 -1144 -261 -274 0 -491 30 -736 101 -109 31 -129 39 -110
46 32 12 302 204 319 226 29 41 14 96 -34 122 -43 23 -39 24 -192 -81 -372
-254 -633 -386 -992 -500 -113 -35 -488 -133 -513 -133 -9 0 3 31 33 93 112
223 208 614 239 977 l7 75 -72 110 c-86 131 -197 355 -238 480 -211 642 -86
1309 348 1855 89 112 281 297 400 386 380 284 817 447 1335 498 87 9 475 -4
570 -18z"/>
</g>
</svg>
