<?xml version="1.0" standalone="no"?>
<!DOCTYPE svg PUBLIC "-//W3C//DTD SVG 20010904//EN"
 "http://www.w3.org/TR/2001/REC-SVG-20010904/DTD/svg10.dtd">
<svg version="1.0" xmlns="http://www.w3.org/2000/svg"
 width="36864.000000pt" height="36864.000000pt" viewBox="0 0 36864.000000 36864.000000"
 preserveAspectRatio="xMidYMid meet">
<metadata>
Created by potrace 1.16, written by Peter Selinger 2001-2019
</metadata>
<g transform="translate(0.000000,36864.000000) scale(7.200000,-7.200000)"
fill="#000000" stroke="none">
<path d="M2140 5104 c-64 -22 -75 -40 -150 -242 l-53 -142 -131 6 c-116 6
-270 -4 -341 -22 -18 -4 -29 13 -84 138 -81 182 -96 207 -139 225 -45 19 -59
15 -237 -64 -180 -80 -200 -93 -215 -139 -15 -46 -12 -59 71 -242 l69 -154
-28 -21 c-84 -64 -262 -258 -307 -334 0 -1 -73 25 -161 58 -95 37 -175 61
-199 62 -81 1 -97 -23 -196 -295 -39 -109 -41 -121 -30 -157 6 -23 23 -48 39
-59 15 -11 98 -46 184 -78 l157 -59 -6 -140 c-5 -123 5 -278 23 -336 3 -12
-31 -32 -148 -84 -184 -83 -203 -95 -218 -141 -16 -46 -11 -61 73 -247 77
-174 104 -207 168 -207 21 0 97 29 196 74 l162 74 55 -67 c57 -71 166 -172
252 -234 l51 -37 -64 -171 c-96 -253 -94 -258 165 -354 94 -36 184 -65 198
-65 34 0 78 24 96 52 8 13 41 93 73 178 l58 155 206 2 c113 1 225 3 249 5 l43
3 70 -155 c77 -173 106 -210 165 -210 34 0 187 62 327 132 61 30 97 74 97 118
0 14 -34 99 -74 190 l-75 165 42 34 c71 58 204 198 248 261 23 33 46 60 50 60
5 0 81 -27 169 -60 88 -33 173 -60 188 -60 42 0 87 33 109 81 11 24 44 108 73
186 81 217 75 228 -174 322 l-163 62 4 157 c3 104 -1 187 -10 246 l-13 89 75
35 c250 114 260 120 281 154 30 47 23 80 -55 253 -79 176 -94 200 -139 215
-45 15 -65 9 -241 -72 l-150 -69 -34 38 c-88 99 -182 190 -248 240 -40 30 -73
59 -73 66 0 7 27 83 60 170 33 86 60 167 60 178 0 35 -31 89 -59 104 -42 21
-313 122 -346 128 -16 3 -37 3 -45 1z m-200 -958 c145 -37 303 -140 404 -262
325 -394 198 -988 -259 -1214 -129 -64 -218 -84 -365 -84 -228 0 -414 83 -577
258 -181 194 -251 480 -182 741 72 269 301 493 579 566 110 28 276 26 400 -5z"/>
<path d="M3662 2657 c-46 -27 -56 -54 -62 -183 -3 -68 -8 -125 -11 -129 -4 -3
-39 -15 -79 -26 -41 -11 -106 -35 -145 -53 l-72 -33 -74 82 c-85 94 -114 115
-161 115 -45 0 -76 -22 -191 -131 -94 -91 -97 -96 -97 -137 0 -56 6 -66 96
-165 40 -45 74 -85 74 -89 0 -3 -14 -29 -31 -57 -17 -27 -46 -90 -65 -138
l-33 -88 -124 4 c-201 5 -215 -10 -224 -238 -5 -131 -4 -150 12 -175 29 -44
64 -56 195 -63 l120 -6 10 -41 c16 -63 50 -156 76 -207 l23 -47 -94 -89 c-141
-135 -140 -160 5 -318 150 -162 174 -163 333 -17 l76 72 60 -35 c59 -35 199
-95 221 -95 8 0 9 -34 4 -123 -5 -100 -4 -128 9 -152 31 -62 45 -67 194 -76
242 -16 262 -1 272 209 l6 116 75 21 c41 12 108 36 149 55 l73 34 85 -92 c120
-130 161 -138 261 -49 224 199 228 215 87 371 -76 85 -83 95 -70 112 25 36 93
179 106 222 l12 43 133 -2 c196 -3 208 8 219 232 6 112 5 140 -8 165 -30 58
-47 66 -169 75 -62 4 -122 8 -133 8 -16 1 -23 14 -38 72 -9 39 -33 105 -53
147 l-35 77 94 90 c109 104 120 129 89 197 -11 24 -62 86 -114 139 -133 137
-161 138 -301 8 l-89 -82 -36 22 c-54 33 -161 82 -207 95 l-40 12 0 130 c0
145 -7 169 -58 200 -27 16 -56 19 -182 22 -110 2 -156 -1 -173 -11z m253 -782
c101 -26 184 -73 256 -144 110 -110 164 -241 163 -397 -2 -221 -136 -414 -347
-501 -75 -31 -229 -42 -320 -23 -150 31 -292 143 -364 287 -183 366 74 787
482 792 39 1 98 -6 130 -14z"/>
</g>
</svg>
