<?xml version="1.0" standalone="no"?>
<!DOCTYPE svg PUBLIC "-//W3C//DTD SVG 20010904//EN"
 "http://www.w3.org/TR/2001/REC-SVG-20010904/DTD/svg10.dtd">
<svg version="1.0" xmlns="http://www.w3.org/2000/svg"
 width="36864.000000pt" height="36864.000000pt" viewBox="0 0 36864.000000 36864.000000"
 preserveAspectRatio="xMidYMid meet">
<metadata>
Created by potrace 1.15, written by Peter Selinger 2001-2017
</metadata>
<g transform="translate(0.000000,36864.000000) scale(7.200000,-7.200000)"
fill="#000000" stroke="none">
<path d="M2125 5101 c-41 -18 -66 -61 -128 -221 -46 -120 -67 -164 -78 -161
-8 2 -77 5 -154 7 -124 2 -217 -5 -295 -21 -24 -5 -28 1 -65 82 -117 265 -133
286 -205 287 -37 0 -283 -102 -362 -151 -61 -37 -70 -96 -28 -189 75 -167 108
-241 112 -254 3 -9 -14 -30 -45 -54 -43 -34 -114 -105 -192 -191 -15 -16 -74
-97 -90 -122 -1 -2 -66 22 -146 53 -198 76 -218 80 -264 58 -43 -20 -57 -48
-135 -257 -79 -214 -70 -230 177 -321 l160 -60 -3 -170 c-2 -94 1 -193 6 -221
21 -115 37 -94 -133 -170 -181 -82 -202 -95 -217 -139 -15 -48 -10 -67 71
-247 109 -242 119 -246 355 -140 87 39 162 71 169 71 7 0 33 -26 59 -58 69
-87 252 -249 298 -264 4 -2 -22 -82 -58 -178 -96 -255 -94 -258 161 -355 94
-36 184 -65 200 -65 42 0 89 31 107 71 9 19 37 90 63 159 65 174 57 162 118
154 58 -7 260 -8 293 0 12 2 45 7 75 11 30 4 56 8 59 10 3 2 39 -70 79 -160
40 -90 83 -173 96 -185 45 -43 89 -38 231 25 191 84 214 97 242 133 20 27 23
39 18 73 -4 23 -17 65 -30 93 -35 73 -76 164 -97 213 l-18 42 63 50 c74 59
171 162 228 244 23 31 45 57 50 57 11 0 244 -87 277 -103 13 -7 48 -12 78 -12
78 0 94 22 172 232 90 242 84 259 -111 332 -62 23 -137 52 -166 63 l-54 21 6
56 c13 119 7 278 -13 387 l-9 46 84 39 c46 22 121 56 167 78 133 61 152 107
94 231 -14 30 -44 97 -67 149 -53 123 -72 148 -119 161 -47 12 -61 8 -241 -74
l-145 -67 -55 63 c-80 91 -145 153 -231 217 l-75 57 33 90 c63 165 93 254 93
275 0 30 -28 74 -59 92 -37 22 -316 125 -354 131 -18 3 -41 2 -52 -3z m-245
-942 c254 -40 505 -252 597 -507 142 -390 -36 -818 -414 -995 -217 -101 -474
-97 -687 9 -282 142 -451 427 -440 742 14 396 322 721 719 761 77 7 126 5 225
-10z"/>
<path d="M3720 2672 c-44 -5 -79 -23 -95 -49 -16 -24 -21 -59 -29 -211 -3 -68
-6 -74 -37 -79 -37 -6 -163 -51 -213 -76 l-50 -25 -25 27 c-14 16 -50 54 -79
85 -59 65 -93 86 -137 86 -41 -1 -60 -13 -159 -104 -105 -95 -128 -126 -128
-171 0 -42 20 -75 87 -147 98 -105 93 -88 50 -165 -21 -37 -50 -102 -65 -143
l-28 -75 -125 3 c-211 6 -221 -8 -227 -304 -3 -137 29 -163 209 -171 64 -3
117 -6 119 -8 1 -1 12 -35 23 -75 11 -41 35 -107 54 -147 l34 -74 -47 -42
c-118 -107 -148 -143 -150 -180 -3 -41 13 -77 55 -123 80 -90 139 -150 156
-163 29 -21 82 -24 114 -7 29 15 40 24 138 113 l58 53 41 -26 c54 -34 151 -79
203 -94 l41 -13 -1 -138 -2 -137 29 -31 c33 -34 66 -41 236 -46 175 -5 201 19
207 200 2 61 6 115 8 122 2 6 18 14 37 18 55 12 146 45 204 72 l55 26 92 -97
c65 -68 99 -97 117 -98 75 -4 87 3 224 133 76 73 88 89 93 125 7 53 -8 80
-100 179 l-75 79 29 51 c26 44 45 82 79 160 5 11 12 33 17 49 l9 29 80 -3
c248 -11 260 0 269 242 l5 144 -30 36 c-34 41 -48 45 -209 53 -51 2 -94 6 -95
7 -1 2 -10 35 -20 73 -10 39 -33 104 -52 145 l-35 75 96 91 c52 51 96 100 97
110 0 11 2 26 3 34 2 22 -23 82 -43 100 -9 9 -48 51 -85 92 -121 136 -161 137
-297 9 -83 -78 -103 -91 -114 -72 -7 10 -190 101 -205 101 -6 0 -21 5 -35 12
l-26 11 3 127 c3 190 -13 209 -192 216 -58 3 -113 6 -121 7 -8 2 -26 1 -40 -1z
m199 -798 c56 -14 149 -54 178 -76 61 -47 147 -147 177 -206 46 -93 60 -151
60 -251 0 -390 -397 -652 -757 -501 -210 88 -340 290 -332 517 3 96 6 111 29
166 8 20 13 37 11 37 -9 0 61 108 92 143 39 44 112 101 167 129 103 54 263 71
375 42z"/>
</g>
</svg>
