<?xml version="1.0" standalone="no"?>
<!DOCTYPE svg PUBLIC "-//W3C//DTD SVG 20010904//EN"
 "http://www.w3.org/TR/2001/REC-SVG-20010904/DTD/svg10.dtd">
<svg version="1.0" xmlns="http://www.w3.org/2000/svg"
 width="36864.000000pt" height="36864.000000pt" viewBox="0 0 36864.000000 36864.000000"
 preserveAspectRatio="xMidYMid meet">
<metadata>
Created by potrace 1.15, written by Peter Selinger 2001-2017
</metadata>
<g transform="translate(0.000000,36864.000000) scale(7.200000,-7.200000)"
fill="#000000" stroke="none">
<path d="M1260 2820 l0 -1040 260 0 260 0 0 -260 0 -260 1040 0 1040 0 0 1040
0 1040 -260 0 -260 0 0 260 0 260 -1040 0 -1040 0 0 -1040z m1880 680 l0 -160
-680 0 -680 0 0 -680 0 -680 -160 0 -160 0 0 840 0 840 840 0 840 0 0 -160z
m520 -1200 l0 -840 -840 0 -840 0 0 840 0 840 840 0 840 0 0 -840z"/>
<path d="M2311 2799 l-71 -71 214 -214 214 -214 -204 -203 c-112 -112 -204
-209 -204 -216 0 -6 30 -40 67 -76 l66 -64 209 208 208 208 209 -208 210 -209
71 71 70 71 -209 209 -209 209 214 213 214 214 -71 72 -71 71 -214 -214 -215
-214 -213 214 -213 214 -72 -71z"/>
</g>
</svg>
