<?xml version="1.0" standalone="no"?>
<!DOCTYPE svg PUBLIC "-//W3C//DTD SVG 20010904//EN"
 "http://www.w3.org/TR/2001/REC-SVG-20010904/DTD/svg10.dtd">
<svg version="1.0" xmlns="http://www.w3.org/2000/svg"
 width="36864.000000pt" height="36864.000000pt" viewBox="0 0 36864.000000 36864.000000"
 preserveAspectRatio="xMidYMid meet">
<metadata>
Created by potrace 1.16, written by Peter Selinger 2001-2019
</metadata>
<g transform="translate(0.000000,36864.000000) scale(7.200000,-7.200000)"
fill="#000000" stroke="none">
<path d="M1295 3210 l-649 -650 649 -650 650 -650 1253 0 1252 0 0 1300 0
1300 -1252 0 -1253 0 -650 -650z m2955 -650 l0 -1100 -1093 0 -1092 0 -550
550 -550 550 550 550 550 550 1092 0 1093 0 0 -1100z"/>
<path d="M2352 3058 l-72 -73 212 -212 213 -213 -208 -208 -207 -207 72 -73
73 -72 207 207 208 208 208 -208 207 -207 73 72 72 73 -207 207 -208 208 213
213 212 212 -72 73 -73 72 -212 -212 -213 -213 -213 213 -212 212 -73 -72z"/>
</g>
</svg>
