<?xml version="1.0" standalone="no"?>
<!DOCTYPE svg PUBLIC "-//W3C//DTD SVG 20010904//EN"
 "http://www.w3.org/TR/2001/REC-SVG-20010904/DTD/svg10.dtd">
<svg version="1.0" xmlns="http://www.w3.org/2000/svg"
 width="36864.000000pt" height="36864.000000pt" viewBox="0 0 36864.000000 36864.000000"
 preserveAspectRatio="xMidYMid meet">
<metadata>
Created by potrace 1.16, written by Peter Selinger 2001-2019
</metadata>
<g transform="translate(0.000000,36864.000000) scale(7.200000,-7.200000)"
fill="#000000" stroke="none">
<path d="M3453 3846 c-54 -18 -101 -47 -139 -88 -39 -41 -150 -203 -316 -458
-139 -214 -166 -240 -247 -240 -63 0 -95 21 -222 146 -157 154 -151 154 -306
2 l-114 -112 493 -493 493 -493 113 113 c153 155 153 148 -8 312 -65 67 -124
134 -130 149 -16 44 -12 105 12 147 16 30 58 62 195 151 264 172 444 296 486
337 21 20 50 61 65 91 23 46 27 68 27 135 0 93 -21 148 -80 213 -74 83 -218
122 -322 88z m147 -202 c61 -36 78 -115 37 -175 -58 -86 -188 -62 -217 40 -28
100 89 188 180 135z"/>
<path d="M1617 2602 c-330 -330 -357 -360 -357 -392 0 -29 12 -46 93 -127 76
-76 99 -93 123 -93 22 0 71 28 179 102 81 55 144 95 140 87 -5 -8 -49 -73 -98
-146 -126 -187 -130 -164 73 -368 90 -90 174 -166 187 -170 12 -3 39 1 59 10
20 8 38 15 40 15 3 0 -3 -17 -11 -37 -23 -55 -12 -83 65 -157 109 -106 72
-128 495 294 l360 360 -490 490 c-269 269 -492 490 -495 490 -3 0 -166 -161
-363 -358z"/>
</g>
</svg>
