<?xml version="1.0" standalone="no"?>
<!DOCTYPE svg PUBLIC "-//W3C//DTD SVG 20010904//EN"
 "http://www.w3.org/TR/2001/REC-SVG-20010904/DTD/svg10.dtd">
<svg version="1.0" xmlns="http://www.w3.org/2000/svg"
 width="36864.000000pt" height="36864.000000pt" viewBox="0 0 36864.000000 36864.000000"
 preserveAspectRatio="xMidYMid meet">
<metadata>
Created by potrace 1.15, written by Peter Selinger 2001-2017
</metadata>
<g transform="translate(0.000000,36864.000000) scale(7.200000,-7.200000)"
fill="#000000" stroke="none">
<path d="M4847 4803 c-1 -1 -31 -4 -67 -7 -36 -4 -85 -8 -110 -11 -25 -3 -72
-7 -105 -10 -33 -2 -89 -7 -125 -10 -36 -3 -87 -8 -115 -10 -27 -3 -77 -7
-110 -10 -154 -14 -181 -18 -197 -33 -19 -16 -23 -48 -10 -68 4 -7 54 -51 112
-99 176 -146 203 -169 232 -195 l28 -25 -29 -33 c-28 -31 -167 -184 -236 -257
-16 -18 -50 -55 -74 -81 -24 -27 -87 -95 -139 -152 -53 -57 -103 -111 -111
-121 -9 -10 -61 -67 -116 -126 -55 -59 -104 -113 -110 -119 -47 -52 -203 -223
-215 -236 -8 -9 -53 -58 -100 -109 -47 -51 -107 -116 -133 -145 -27 -28 -72
-78 -100 -110 -29 -32 -65 -71 -81 -86 l-29 -28 -66 25 c-36 14 -199 74 -361
133 -498 182 -674 247 -705 260 -114 48 -558 204 -585 205 -19 1 -48 -2 -63
-8 -24 -8 -149 -129 -323 -313 -22 -22 -136 -141 -254 -264 -118 -123 -235
-244 -259 -269 -24 -25 -92 -97 -153 -159 -119 -122 -144 -164 -134 -225 17
-102 124 -160 212 -114 16 8 115 104 219 213 105 109 213 221 240 249 91 94
441 459 493 514 l51 54 441 -162 c242 -89 475 -175 518 -190 72 -27 477 -176
657 -242 89 -33 115 -37 162 -25 39 9 93 62 302 294 13 15 47 52 75 82 73 80
234 256 292 319 27 29 60 66 74 81 29 31 200 218 215 234 46 51 230 252 271
296 28 30 64 69 79 85 15 17 66 72 113 124 88 95 99 108 160 175 29 32 36 35
50 24 22 -16 185 -151 192 -158 3 -3 30 -25 60 -50 30 -25 61 -51 68 -58 8 -7
27 -19 42 -27 26 -13 30 -13 55 7 25 20 26 24 21 82 -3 34 -8 93 -11 131 -3
39 -7 88 -10 110 -2 22 -7 72 -10 110 -3 39 -8 88 -10 110 -2 22 -7 72 -10
110 -6 72 -8 95 -21 223 -8 87 -23 103 -97 99 -27 -1 -49 -3 -50 -4z"/>
<path d="M4574 3777 c-21 -23 -88 -96 -149 -162 -60 -66 -114 -125 -120 -131
-45 -50 -325 -354 -342 -372 -10 -11 -13 -288 -13 -1383 l0 -1370 25 -25 24
-24 533 0 c508 1 534 2 558 20 l25 19 3 1645 c2 1703 3 1673 -34 1636 -20 -20
-137 -24 -191 -6 -46 15 -135 80 -223 163 -19 18 -40 33 -46 33 -6 0 -28 -19
-50 -43z"/>
<path d="M1049 2538 c-107 -111 -251 -261 -320 -332 -69 -72 -172 -178 -227
-236 l-101 -105 -1 -743 c0 -787 0 -788 45 -806 9 -3 257 -5 551 -3 l536 2 19
24 c18 23 19 56 19 1172 0 914 -3 1149 -13 1149 -6 0 -59 18 -117 40 -67 26
-121 40 -151 40 l-46 0 -194 -202z"/>
<path d="M2370 2052 c-99 -3 -126 -14 -138 -56 -6 -17 -9 -384 -8 -834 l1
-804 28 -24 28 -24 534 0 c579 1 554 -2 574 54 4 12 7 383 6 826 -1 857 0 843
-49 856 -24 6 -822 11 -976 6z"/>
</g>
</svg>
