<?xml version="1.0" standalone="no"?>
<!DOCTYPE svg PUBLIC "-//W3C//DTD SVG 20010904//EN"
 "http://www.w3.org/TR/2001/REC-SVG-20010904/DTD/svg10.dtd">
<svg version="1.0" xmlns="http://www.w3.org/2000/svg"
 width="36864.000000pt" height="36864.000000pt" viewBox="0 0 36864.000000 36864.000000"
 preserveAspectRatio="xMidYMid meet">
<metadata>
Created by potrace 1.16, written by Peter Selinger 2001-2019
</metadata>
<g transform="translate(0.000000,36864.000000) scale(7.200000,-7.200000)"
fill="#000000" stroke="none">
<path d="M4465 4768 c-454 -42 -465 -44 -465 -93 0 -30 6 -37 203 -200 l178
-148 -19 -21 c-10 -11 -341 -373 -735 -803 l-717 -782 -67 25 c-461 174 -1626
597 -1653 601 -25 3 -47 -2 -76 -19 -26 -14 -248 -238 -568 -571 -558 -582
-557 -580 -542 -660 17 -92 124 -145 211 -105 15 7 243 237 507 512 264 276
485 505 491 509 7 5 350 -116 857 -303 924 -341 902 -335 971 -283 20 15 382
405 804 866 489 534 771 835 778 830 7 -4 66 -53 132 -108 250 -211 261 -218
299 -176 17 18 15 43 -24 478 -38 425 -42 459 -61 476 -26 21 13 23 -504 -25z"/>
<path d="M4281 3458 l-331 -362 0 -1367 c0 -1331 1 -1367 19 -1390 l19 -24
547 0 547 0 19 24 c19 23 19 63 19 1662 0 901 -2 1639 -4 1639 -2 0 -23 -7
-46 -15 -55 -19 -124 -19 -182 0 -27 10 -86 50 -152 105 -60 50 -111 90 -116
90 -4 0 -156 -163 -339 -362z"/>
<path d="M822 2303 l-421 -438 -1 -751 c0 -726 1 -753 19 -775 l19 -24 547 0
547 0 19 24 c19 23 19 53 17 1169 l-3 1146 -115 43 c-74 27 -132 43 -161 43
l-47 0 -420 -437z"/>
<path d="M2251 2031 c-11 -11 -22 -35 -25 -53 -4 -18 -5 -390 -4 -826 l3 -794
28 -24 28 -24 529 0 529 0 28 24 28 24 3 794 c2 436 0 808 -3 826 -3 18 -15
42 -26 53 -18 18 -37 19 -559 19 -522 0 -541 -1 -559 -19z"/>
</g>
</svg>
