<?xml version="1.0" standalone="no"?>
<!DOCTYPE svg PUBLIC "-//W3C//DTD SVG 20010904//EN"
 "http://www.w3.org/TR/2001/REC-SVG-20010904/DTD/svg10.dtd">
<svg version="1.0" xmlns="http://www.w3.org/2000/svg"
 width="36864.000000pt" height="36864.000000pt" viewBox="0 0 36864.000000 36864.000000"
 preserveAspectRatio="xMidYMid meet">
<metadata>
Created by potrace 1.15, written by Peter Selinger 2001-2017
</metadata>
<g transform="translate(0.000000,36864.000000) scale(7.200000,-7.200000)"
fill="#000000" stroke="none">
<path d="M2400 5063 c-179 -26 -277 -51 -430 -112 -220 -86 -441 -245 -616
-442 -28 -33 -125 -174 -157 -230 -94 -164 -174 -409 -212 -644 -13 -84 -14
-410 0 -505 49 -349 124 -527 384 -902 94 -135 171 -248 171 -250 0 -2 -140
-4 -312 -3 l-312 0 -52 -110 c-28 -60 -77 -164 -109 -230 -32 -66 -79 -165
-105 -220 -26 -55 -70 -147 -98 -205 -54 -115 -121 -255 -187 -395 -23 -49
-67 -142 -98 -205 -30 -63 -85 -178 -121 -255 -37 -77 -84 -176 -105 -220
l-38 -80 1279 -3 c703 -1 1853 -1 2557 0 l1279 3 -46 95 c-25 52 -74 156 -110
230 -35 74 -79 167 -97 205 -18 39 -63 133 -100 210 -37 77 -84 176 -105 220
-21 44 -63 134 -95 200 -32 66 -84 176 -117 245 -33 69 -75 157 -93 196 -19
39 -60 127 -93 195 l-59 125 -297 -1 c-163 -1 -296 1 -296 2 0 3 49 76 160
237 207 298 254 385 317 575 63 192 83 322 88 546 3 179 -5 283 -36 430 -111
536 -417 934 -889 1157 -109 52 -286 107 -395 125 -16 2 -41 7 -55 10 -29 6
-363 12 -400 6z m368 -173 c460 -59 884 -361 1079 -770 55 -115 108 -265 119
-340 3 -19 8 -38 10 -41 3 -6 20 -107 30 -184 7 -55 7 -318 0 -350 -2 -11 -7
-49 -11 -85 -4 -36 -9 -68 -11 -71 -2 -4 -6 -24 -10 -45 -12 -76 -83 -275
-134 -371 -27 -54 -135 -219 -238 -368 -103 -148 -218 -315 -256 -370 -38 -55
-124 -179 -191 -275 -182 -263 -207 -298 -267 -385 -49 -71 -309 -447 -312
-452 -1 -1 -16 19 -33 45 -18 26 -62 90 -98 142 -37 52 -91 131 -121 175 -30
44 -89 130 -132 191 -42 60 -144 208 -227 327 -82 120 -195 281 -249 360 -420
603 -433 623 -497 820 -136 416 -104 896 87 1280 136 275 377 515 634 632 19
9 49 22 65 30 57 26 140 54 220 74 119 30 129 31 223 38 48 3 88 6 89 7 6 5
158 -5 231 -14z m-891 -3395 c118 -170 249 -359 291 -420 172 -250 395 -571
401 -578 4 -4 21 11 37 35 16 23 90 130 164 238 168 242 235 338 388 560 66
96 130 189 142 205 11 17 59 84 105 150 l84 120 305 1 305 1 47 -101 c26 -56
81 -171 122 -256 41 -85 87 -182 102 -215 15 -33 53 -114 85 -180 109 -228
167 -350 200 -420 18 -39 69 -146 114 -239 45 -93 79 -172 76 -175 -8 -8
-4566 -7 -4571 1 -2 3 29 75 70 160 40 84 139 290 219 458 79 168 168 355 197
415 124 260 155 326 201 424 27 57 54 109 59 116 7 8 96 11 326 11 l316 -1
215 -310z"/>
<path d="M2452 4049 c-311 -79 -504 -391 -432 -699 37 -162 162 -320 310 -392
74 -36 88 -41 181 -57 156 -26 342 31 468 145 252 228 261 612 22 848 -148
146 -356 204 -549 155z m278 -175 c140 -55 237 -169 269 -313 28 -128 -23
-286 -126 -389 -25 -26 -128 -83 -167 -93 -238 -64 -483 88 -527 327 -11 60
-6 154 12 202 51 140 169 249 306 281 58 13 182 5 233 -15z"/>
</g>
</svg>
