<?xml version="1.0" standalone="no"?>
<!DOCTYPE svg PUBLIC "-//W3C//DTD SVG 20010904//EN"
 "http://www.w3.org/TR/2001/REC-SVG-20010904/DTD/svg10.dtd">
<svg version="1.0" xmlns="http://www.w3.org/2000/svg"
 width="36864.000000pt" height="36864.000000pt" viewBox="0 0 36864.000000 36864.000000"
 preserveAspectRatio="xMidYMid meet">
<metadata>
Created by potrace 1.16, written by Peter Selinger 2001-2019
</metadata>
<g transform="translate(0.000000,36864.000000) scale(7.200000,-7.200000)"
fill="#000000" stroke="none">
<path d="M2112 3318 c-992 -992 -1807 -1810 -1812 -1818 -18 -33 -302 -1400
-296 -1425 8 -33 38 -63 71 -71 23 -6 173 24 745 146 74 16 243 52 375 80 132
28 256 55 275 60 28 8 145 120 565 540 291 291 533 530 537 530 5 0 8 -17 8
-39 0 -64 29 -211 61 -305 147 -440 531 -761 994 -833 126 -19 323 -12 448 16
358 81 672 329 837 658 140 281 168 617 75 913 -99 315 -324 584 -611 732
-149 78 -363 138 -485 138 -22 0 -39 3 -39 7 0 4 284 291 630 638 676 676 651
647 616 713 -18 33 -1082 1095 -1113 1111 -62 32 42 131 -1881 -1791z m1542
480 c-539 -540 -693 -700 -697 -723 -12 -70 53 -135 121 -119 18 4 247 226
720 698 l692 691 195 -195 195 -195 -672 -672 c-370 -370 -678 -673 -683 -673
-23 0 -174 -54 -242 -87 -190 -90 -379 -253 -497 -430 -75 -113 -105 -177
-151 -317 l-33 -99 -443 -443 c-244 -244 -448 -444 -452 -444 -29 0 -131 64
-180 112 -71 70 -115 160 -130 264 l-11 75 561 562 c380 381 563 571 567 589
10 44 -17 96 -59 114 -20 8 -47 12 -63 8 -18 -4 -208 -187 -589 -567 l-562
-561 -75 11 c-167 24 -305 130 -366 281 l-13 34 1584 1584 1584 1584 195 -195
195 -195 -691 -692z m371 -1377 c497 -102 848 -558 822 -1065 -24 -461 -342
-845 -794 -958 -73 -19 -115 -22 -243 -22 -134 1 -168 4 -252 27 -188 50 -337
135 -474 272 -159 158 -257 346 -295 569 -17 99 -7 321 19 418 80 299 283 546
557 678 85 41 192 76 272 90 93 15 293 11 388 -9z m-3256 -1041 c106 -105 215
-158 383 -185 34 -5 38 -9 43 -43 27 -168 80 -277 185 -383 41 -42 98 -90 127
-106 l52 -29 -77 -77 -78 -77 -201 -43 -202 -43 -304 305 -304 306 43 199 43
200 78 78 77 77 29 -52 c16 -29 64 -86 106 -127z m-12 -1037 c-4 -4 -521 -112
-524 -110 -1 2 22 117 52 257 30 140 55 259 55 265 0 5 94 -84 210 -200 115
-115 208 -210 207 -212z"/>
<path d="M2713 2832 c-40 -6 -73 -50 -73 -97 0 -59 36 -95 95 -95 32 0 48 6
69 26 20 21 26 37 26 69 0 65 -51 107 -117 97z"/>
<path d="M3577 2009 c-37 -22 -47 -63 -47 -193 l0 -124 -141 -4 c-140 -3 -141
-3 -165 -31 -24 -28 -24 -30 -24 -247 l0 -220 29 -32 29 -33 136 -3 136 -4 0
-130 0 -130 34 -34 34 -34 208 0 c147 0 216 4 234 13 46 23 60 69 60 200 l0
117 118 0 c130 0 176 14 199 60 9 18 13 87 13 234 l0 208 -34 34 -34 34 -131
0 -131 0 0 121 c0 134 -12 178 -56 198 -32 14 -442 15 -467 0z m323 -320 c0
-72 5 -139 10 -150 21 -39 62 -49 195 -49 l125 0 0 -85 0 -85 -136 0 -136 0
-29 -29 -29 -29 0 -136 0 -136 -84 0 -84 0 -4 141 c-3 140 -3 141 -31 165 -27
23 -35 24 -163 24 l-134 0 0 85 0 85 126 0 c192 0 204 12 204 205 l0 125 85 0
85 0 0 -131z"/>
</g>
</svg>
