<?xml version="1.0" standalone="no"?>
<!DOCTYPE svg PUBLIC "-//W3C//DTD SVG 20010904//EN"
 "http://www.w3.org/TR/2001/REC-SVG-20010904/DTD/svg10.dtd">
<svg version="1.0" xmlns="http://www.w3.org/2000/svg"
 width="36864.000000pt" height="36864.000000pt" viewBox="0 0 36864.000000 36864.000000"
 preserveAspectRatio="xMidYMid meet">
<metadata>
Created by potrace 1.16, written by Peter Selinger 2001-2019
</metadata>
<g transform="translate(0.000000,36864.000000) scale(7.200000,-7.200000)"
fill="#000000" stroke="none">
<path d="M2410 5063 c-156 -16 -364 -73 -509 -140 -208 -94 -442 -279 -577
-454 -342 -444 -447 -1110 -264 -1673 59 -180 125 -302 313 -573 92 -133 167
-244 167 -247 0 -3 -141 -6 -313 -6 l-312 0 -456 -957 -456 -958 1278 -3 c704
-1 1854 -1 2558 0 l1278 3 -456 958 -456 957 -297 0 c-164 0 -298 3 -298 6 0
4 70 107 155 230 184 266 231 345 286 482 159 401 170 871 28 1296 -171 516
-564 890 -1084 1031 -166 45 -416 66 -585 48z m471 -192 c422 -97 764 -358
951 -726 124 -244 178 -476 179 -764 1 -286 -53 -520 -172 -751 -52 -101
-1246 -1833 -1264 -1833 -5 -1 -40 42 -76 94 -813 1169 -1140 1649 -1190 1744
-197 378 -228 860 -84 1291 124 372 366 654 710 826 106 54 280 111 385 128
41 6 82 13 90 15 8 2 98 2 200 0 139 -3 206 -9 271 -24z m-766 -3719 c249
-360 456 -654 459 -655 3 -1 210 293 459 653 l454 655 304 3 305 2 374 -786
c206 -433 377 -790 378 -795 2 -5 -972 -9 -2288 -9 -1326 0 -2290 4 -2288 9 2
5 172 363 377 795 l375 786 319 -2 319 -3 453 -653z"/>
<path d="M2500 4060 c-303 -47 -532 -348 -491 -645 19 -137 63 -232 152 -329
256 -281 709 -243 919 77 82 125 114 303 81 447 -46 195 -207 370 -396 429
-74 23 -192 32 -265 21z m171 -170 c215 -41 369 -264 330 -476 -33 -178 -168
-312 -348 -346 -166 -31 -354 66 -433 222 -82 162 -54 352 68 478 105 108 236
150 383 122z"/>
</g>
</svg>
