<?xml version="1.0" standalone="no"?>
<!DOCTYPE svg PUBLIC "-//W3C//DTD SVG 20010904//EN"
 "http://www.w3.org/TR/2001/REC-SVG-20010904/DTD/svg10.dtd">
<svg version="1.0" xmlns="http://www.w3.org/2000/svg"
 width="36864.000000pt" height="36864.000000pt" viewBox="0 0 36864.000000 36864.000000"
 preserveAspectRatio="xMidYMid meet">
<metadata>
Created by potrace 1.16, written by Peter Selinger 2001-2019
</metadata>
<g transform="translate(0.000000,36864.000000) scale(7.200000,-7.200000)"
fill="#000000" stroke="none">
<path d="M167 5106 c-55 -20 -103 -61 -134 -114 l-28 -47 0 -2385 0 -2385 28
-47 c31 -53 79 -94 134 -114 56 -20 4730 -20 4786 0 55 20 103 61 134 114 l28
47 0 2385 0 2385 -28 47 c-31 53 -79 94 -134 114 -56 20 -4730 20 -4786 0z
m4741 -160 c12 -4 27 -17 34 -29 14 -26 20 -4628 6 -4689 -5 -22 -18 -42 -30
-49 -29 -16 -4686 -16 -4716 0 -11 6 -24 21 -28 33 -9 29 -12 4631 -2 4677 9
46 20 55 81 61 80 8 4629 4 4655 -4z"/>
<path d="M460 4367 c-49 -25 -50 -33 -50 -485 0 -445 2 -469 45 -486 9 -3 216
-6 459 -6 l443 0 21 23 c22 23 22 25 22 464 0 243 -3 449 -6 458 -17 43 -41
45 -486 45 -319 0 -429 -3 -448 -13z m780 -487 l0 -330 -330 0 -330 0 0 330 0
330 330 0 330 0 0 -330z"/>
<path d="M1591 4264 c-28 -36 -27 -79 4 -109 l24 -25 1516 0 1517 0 29 29 c16
16 29 37 29 46 0 24 -27 72 -45 79 -9 3 -700 6 -1535 6 l-1519 0 -20 -26z"/>
<path d="M1591 3934 c-28 -36 -27 -79 4 -109 l24 -25 1520 0 1519 0 26 31 c14
17 26 37 26 45 0 24 -28 71 -45 78 -9 3 -700 6 -1535 6 l-1519 0 -20 -26z"/>
<path d="M1591 3604 c-28 -36 -27 -79 4 -109 l24 -25 981 0 981 0 24 25 c33
32 34 83 2 113 l-23 22 -986 0 -987 0 -20 -26z"/>
<path d="M3742 3607 c-32 -34 -30 -89 4 -116 21 -17 41 -21 94 -21 86 0 120
22 120 79 0 61 -30 81 -121 81 -66 0 -78 -3 -97 -23z"/>
<path d="M461 3044 c-17 -7 -36 -25 -41 -39 -13 -35 -13 -855 0 -890 19 -50
42 -53 470 -53 217 -1 412 2 433 5 21 3 47 14 58 26 18 20 19 38 19 466 -1
477 0 470 -51 489 -40 16 -851 12 -888 -4z m779 -484 l0 -330 -330 0 -330 0 0
330 0 330 330 0 330 0 0 -330z"/>
<path d="M1595 2945 c-16 -15 -25 -36 -25 -55 0 -19 9 -40 25 -55 l24 -25
1519 0 c1511 0 1518 0 1540 20 12 11 24 31 28 44 7 28 -18 81 -41 90 -9 3
-698 6 -1531 6 l-1515 0 -24 -25z"/>
<path d="M1595 2615 c-16 -15 -25 -36 -25 -55 0 -19 9 -40 25 -55 l24 -25
1519 0 c1511 0 1518 0 1540 20 40 38 37 93 -7 127 -12 10 -356 12 -1534 13
l-1518 0 -24 -25z"/>
<path d="M1595 2285 c-16 -15 -25 -36 -25 -55 0 -19 9 -40 25 -55 l24 -25 984
0 984 0 21 23 c32 34 30 89 -4 116 -27 21 -30 21 -1006 21 l-979 0 -24 -25z"/>
<path d="M3746 2289 c-35 -27 -36 -86 -3 -117 20 -19 35 -22 98 -22 66 0 78 3
97 23 30 32 29 87 -1 115 -33 31 -152 32 -191 1z"/>
<path d="M440 1710 c-11 -11 -22 -30 -25 -42 -3 -13 -4 -215 -3 -450 l3 -427
23 -23 23 -23 417 -3 c229 -2 432 0 450 3 18 3 42 15 53 26 18 18 19 37 19
467 l0 449 -23 21 c-23 22 -25 22 -470 22 -432 0 -448 -1 -467 -20z m800 -470
l0 -330 -330 0 -330 0 0 330 0 330 330 0 330 0 0 -330z"/>
<path d="M1595 1625 c-16 -15 -25 -36 -25 -55 0 -19 9 -40 25 -55 l24 -25
1515 0 c833 0 1522 3 1531 6 17 7 45 54 45 78 0 8 -12 28 -26 45 l-26 31
-1519 0 -1520 0 -24 -25z"/>
<path d="M1595 1295 c-31 -30 -32 -73 -4 -109 l20 -26 1519 0 c835 0 1526 3
1535 6 17 7 45 54 45 78 0 8 -12 28 -26 45 l-26 31 -1519 0 -1520 0 -24 -25z"/>
<path d="M1595 965 c-31 -30 -32 -73 -4 -109 l20 -26 988 0 988 0 21 23 c30
32 29 81 -3 112 l-24 25 -981 0 -981 0 -24 -25z"/>
<path d="M3746 969 c-35 -27 -36 -86 -3 -117 20 -19 35 -22 98 -22 66 0 78 3
97 23 32 34 30 89 -4 116 -21 17 -41 21 -94 21 -53 0 -73 -4 -94 -21z"/>
</g>
</svg>
