<?xml version="1.0" standalone="no"?>
<!DOCTYPE svg PUBLIC "-//W3C//DTD SVG 20010904//EN"
 "http://www.w3.org/TR/2001/REC-SVG-20010904/DTD/svg10.dtd">
<svg version="1.0" xmlns="http://www.w3.org/2000/svg"
 width="36864.000000pt" height="36864.000000pt" viewBox="0 0 36864.000000 36864.000000"
 preserveAspectRatio="xMidYMid meet">
<metadata>
Created by potrace 1.15, written by Peter Selinger 2001-2017
</metadata>
<g transform="translate(0.000000,36864.000000) scale(7.200000,-7.200000)"
fill="#000000" stroke="none">
<path d="M930 4740 c-475 -159 -874 -294 -886 -301 -13 -6 -28 -23 -33 -38 -8
-18 -10 -633 -9 -2094 l3 -2069 30 -24 c17 -13 41 -24 53 -24 13 0 404 127
868 281 l845 281 52 -22 c83 -34 718 -296 867 -357 74 -30 149 -61 165 -68 78
-35 493 -203 515 -208 29 -7 16 -14 590 290 234 124 470 249 525 278 427 225
563 299 580 316 20 19 20 35 23 1982 1 1079 0 1976 -3 1992 -3 17 -16 38 -29
47 -41 30 -76 28 -146 -10 -36 -19 -108 -57 -160 -85 -52 -27 -126 -67 -165
-87 -38 -21 -119 -63 -180 -95 -116 -61 -382 -202 -500 -265 -38 -20 -124 -66
-190 -100 -66 -35 -165 -88 -219 -117 -55 -29 -105 -53 -112 -53 -7 0 -33 11
-56 24 -24 13 -97 51 -163 86 -66 34 -151 79 -190 100 -128 69 -718 382 -845
448 -69 36 -129 68 -135 72 -19 14 -190 98 -210 103 -12 3 -380 -114 -885
-283z m776 -1220 l0 -1279 -55 -12 c-76 -15 -110 -35 -125 -70 -17 -40 -10
-72 23 -105 24 -25 30 -26 92 -21 l65 6 0 -559 0 -559 -752 -250 c-413 -138
-754 -251 -758 -251 -3 0 -5 872 -4 1937 l3 1938 755 252 c415 138 755 252
756 252 0 1 0 -575 0 -1279z m514 1082 c47 -24 117 -61 155 -82 39 -21 113
-60 165 -88 52 -27 122 -64 155 -82 33 -18 103 -55 155 -82 119 -63 303 -160
395 -209 l70 -38 2 -1005 1 -1006 -51 5 c-56 5 -141 15 -171 21 -46 8 -107
-54 -99 -101 15 -76 68 -98 273 -110 l45 -2 2 -746 1 -745 -61 25 c-101 41
-400 164 -432 178 -16 8 -169 71 -340 140 -170 70 -326 134 -345 142 -19 8
-44 19 -55 23 -11 4 -58 24 -105 43 l-84 35 -1 572 c0 315 4 574 8 577 5 3 31
7 60 9 91 8 130 52 108 124 -16 52 -52 72 -121 65 -43 -4 -50 -3 -51 12 -3 54
-4 2470 -1 2481 3 8 42 -8 121 -49 64 -34 154 -82 201 -107z m2703 -3503 c-5
-4 -43 -25 -85 -48 -43 -22 -111 -58 -150 -80 -40 -21 -156 -82 -258 -136
-102 -53 -216 -114 -255 -135 -38 -20 -119 -63 -180 -95 -60 -32 -132 -70
-160 -85 -27 -15 -112 -59 -187 -99 l-138 -73 0 741 0 740 25 25 c35 35 35 96
0 128 l-25 24 2 1008 3 1007 50 28 c68 37 215 115 360 191 66 34 147 77 180
95 33 18 101 54 150 80 135 71 239 127 345 183 52 28 147 78 210 111 l115 60
3 -1831 c1 -1008 -1 -1835 -5 -1839z"/>
<path d="M936 4254 c-255 -60 -417 -325 -351 -579 41 -155 163 -285 311 -332
l54 -17 0 -113 c0 -86 4 -119 16 -138 21 -32 64 -46 107 -34 51 14 64 49 64
177 l0 107 59 20 c246 86 376 352 294 599 -24 73 -87 166 -146 214 -109 90
-269 128 -408 96z m232 -208 c172 -88 210 -317 75 -452 -77 -77 -180 -101
-293 -68 -76 23 -153 100 -176 179 -38 132 12 264 127 333 76 46 187 49 267 8z"/>
<path d="M814 2930 c-32 -12 -54 -49 -54 -88 0 -29 12 -46 74 -111 l75 -76
-75 -76 c-64 -66 -74 -81 -74 -112 0 -56 37 -92 93 -92 42 0 49 4 118 72 l74
72 70 -69 c78 -78 113 -92 163 -66 29 15 38 29 47 76 6 29 -16 70 -57 107 -18
16 -45 43 -61 60 l-27 29 64 65 c36 35 70 77 76 93 15 40 -2 87 -41 110 -49
29 -84 15 -165 -65 l-70 -70 -55 56 c-85 88 -123 106 -175 85z"/>
<path d="M1163 2018 c-88 -58 -272 -236 -274 -265 -4 -49 3 -70 31 -95 54 -49
90 -37 187 64 40 40 90 87 113 103 123 90 128 94 134 129 8 43 -10 83 -45 102
-44 22 -62 17 -146 -38z"/>
<path d="M734 1488 c-29 -14 -56 -64 -98 -187 -41 -116 -66 -218 -66 -262 0
-44 48 -89 93 -89 57 0 83 29 102 117 20 91 55 199 84 263 30 65 27 105 -8
141 -31 31 -68 37 -107 17z"/>
<path d="M2299 2211 c-35 -35 -39 -86 -10 -123 21 -26 57 -37 221 -64 19 -3
38 -8 41 -10 3 -2 20 -6 38 -9 18 -3 50 -15 72 -25 54 -28 100 -26 132 5 53
53 34 125 -43 162 -44 21 -164 57 -225 67 -16 3 -57 10 -90 15 -89 16 -104 14
-136 -18z"/>
<path d="M4423 3785 c-17 -7 -36 -22 -41 -32 -13 -24 -23 -439 -12 -469 20
-52 116 -68 152 -26 27 30 29 54 34 266 l4 208 -34 34 c-37 37 -55 40 -103 19z"/>
<path d="M4380 3036 c-39 -12 -64 -53 -74 -119 -7 -45 -48 -192 -71 -257 -24
-65 -25 -77 -13 -110 21 -61 101 -78 148 -32 49 49 145 394 128 459 -13 50
-65 76 -118 59z"/>
<path d="M3999 2261 c-49 -48 -119 -105 -155 -126 -77 -45 -104 -76 -104 -119
0 -42 23 -72 66 -86 31 -11 41 -9 89 15 100 48 245 172 303 258 23 34 24 41
13 77 -8 27 -21 45 -41 55 -57 29 -75 21 -171 -74z"/>
</g>
</svg>
