<?xml version="1.0" standalone="no"?>
<!DOCTYPE svg PUBLIC "-//W3C//DTD SVG 20010904//EN"
 "http://www.w3.org/TR/2001/REC-SVG-20010904/DTD/svg10.dtd">
<svg version="1.0" xmlns="http://www.w3.org/2000/svg"
 width="36864.000000pt" height="36864.000000pt" viewBox="0 0 36864.000000 36864.000000"
 preserveAspectRatio="xMidYMid meet">
<metadata>
Created by potrace 1.16, written by Peter Selinger 2001-2019
</metadata>
<g transform="translate(0.000000,36864.000000) scale(7.200000,-7.200000)"
fill="#000000" stroke="none">
<path d="M5007 5022 c-9 -2 -369 -190 -800 -418 -430 -227 -787 -414 -793
-414 -6 0 -364 187 -795 415 -540 286 -794 415 -815 415 -28 0 -1712 -556
-1761 -581 -12 -7 -27 -23 -32 -38 -8 -18 -10 -633 -9 -2094 l3 -2069 28 -24
c15 -13 40 -24 55 -24 15 0 406 126 869 281 l843 281 792 -327 c436 -180 807
-327 823 -327 37 0 1649 851 1683 888 l22 25 0 1974 0 1973 -25 30 c-25 30
-54 41 -88 34z m-3297 -1501 l0 -1280 -57 -11 c-103 -22 -133 -47 -133 -113 0
-24 8 -42 28 -62 26 -26 30 -27 95 -21 l67 6 0 -559 0 -559 -753 -251 c-413
-138 -755 -251 -760 -251 -4 0 -6 872 -5 1937 l3 1937 755 252 c415 139 756
253 758 253 1 1 2 -575 2 -1278z m1040 801 l565 -300 3 -1006 2 -1006 -22 0
c-13 0 -67 7 -121 15 -87 13 -102 13 -127 0 -36 -19 -50 -43 -50 -88 0 -68 53
-92 258 -113 l62 -6 0 -743 0 -744 -152 63 c-84 34 -404 166 -710 292 l-558
229 0 576 0 577 31 6 c17 3 45 6 61 6 38 0 88 48 88 85 0 70 -56 112 -135 101
l-45 -7 0 1256 0 1256 143 -75 c78 -41 396 -210 707 -374z m2173 -3223 c-5 -4
-323 -174 -708 -378 l-700 -370 -3 739 -2 739 25 25 c35 35 35 93 0 126 l-25
24 2 1009 3 1010 705 373 705 374 3 -1832 c1 -1008 -1 -1835 -5 -1839z"/>
<path d="M960 4259 c-90 -15 -189 -70 -257 -143 -90 -95 -133 -199 -133 -321
0 -203 136 -392 326 -452 l54 -17 0 -113 c0 -126 10 -154 59 -171 38 -14 75
-5 103 25 21 22 23 35 26 143 l4 118 51 17 c158 52 278 189 313 357 47 227
-86 461 -307 537 -69 23 -168 32 -239 20z m200 -210 c58 -26 105 -72 138 -134
31 -61 36 -167 9 -228 -60 -139 -215 -209 -358 -162 -73 25 -149 101 -174 174
-39 117 3 250 100 320 87 63 186 73 285 30z"/>
<path d="M814 2930 c-32 -12 -54 -49 -54 -88 0 -29 12 -46 74 -111 l75 -76
-75 -76 c-63 -66 -74 -81 -74 -111 0 -72 74 -117 136 -85 16 9 56 43 88 76
l60 61 77 -75 c82 -80 104 -89 159 -60 37 19 57 74 40 114 -6 15 -40 56 -75
91 l-65 64 70 71 c38 40 72 83 75 97 9 37 -20 93 -55 108 -47 20 -81 4 -155
-70 l-69 -70 -66 64 c-88 86 -113 98 -166 76z"/>
<path d="M1163 2018 c-43 -29 -122 -96 -175 -149 -95 -94 -98 -98 -98 -142 0
-38 5 -49 31 -71 55 -47 78 -38 192 72 56 53 131 118 167 142 74 52 92 88 70
140 -13 32 -55 60 -89 60 -10 0 -55 -23 -98 -52z"/>
<path d="M733 1488 c-37 -18 -98 -164 -143 -340 -28 -106 -26 -133 9 -169 55
-54 140 -28 156 48 17 75 59 214 85 281 38 94 38 125 1 163 -31 31 -68 37
-108 17z"/>
<path d="M2299 2211 c-37 -37 -39 -88 -6 -125 19 -22 44 -30 169 -55 80 -16
167 -39 193 -50 65 -29 106 -27 139 5 28 29 35 79 16 115 -23 43 -132 83 -325
120 -134 26 -151 25 -186 -10z"/>
<path d="M4423 3790 c-47 -19 -51 -40 -55 -282 -3 -225 -3 -228 20 -250 31
-31 102 -32 133 -1 18 17 23 40 31 125 5 56 8 160 6 230 -3 121 -4 129 -28
153 -28 28 -74 39 -107 25z"/>
<path d="M4346 3017 c-16 -16 -29 -53 -45 -122 -13 -55 -38 -148 -57 -206 -29
-91 -32 -110 -23 -138 22 -62 102 -80 148 -33 41 40 115 279 128 409 5 57 4
63 -20 87 -35 35 -98 36 -131 3z"/>
<path d="M4006 2268 c-44 -44 -118 -105 -163 -134 -45 -30 -87 -62 -93 -73
-13 -25 -13 -67 0 -92 16 -28 68 -52 99 -44 90 22 337 228 361 301 15 45 -1
89 -41 109 -55 29 -76 21 -163 -67z"/>
</g>
</svg>
