<?xml version="1.0" standalone="no"?>
<!DOCTYPE svg PUBLIC "-//W3C//DTD SVG 20010904//EN"
 "http://www.w3.org/TR/2001/REC-SVG-20010904/DTD/svg10.dtd">
<svg version="1.0" xmlns="http://www.w3.org/2000/svg"
 width="36864.000000pt" height="36864.000000pt" viewBox="0 0 36864.000000 36864.000000"
 preserveAspectRatio="xMidYMid meet">
<metadata>
Created by potrace 1.15, written by Peter Selinger 2001-2017
</metadata>
<g transform="translate(0.000000,36864.000000) scale(7.200000,-7.200000)"
fill="#000000" stroke="none">
<path d="M2369 5116 c-2 -2 -34 -6 -70 -10 -59 -5 -249 -36 -304 -49 -190 -45
-356 -102 -518 -179 -733 -344 -1265 -1019 -1426 -1808 -19 -94 -24 -122 -38
-250 -10 -84 -9 -457 1 -535 55 -426 178 -770 401 -1120 40 -63 147 -208 174
-237 9 -9 50 -54 91 -100 299 -333 716 -593 1158 -722 239 -71 424 -98 687
-101 324 -4 593 38 885 140 201 70 559 262 685 367 11 9 47 38 80 64 95 76
263 240 331 324 16 19 31 37 35 40 3 3 33 41 66 85 191 252 357 598 432 902
62 249 76 371 76 658 -1 180 -7 262 -30 400 -2 11 -8 43 -14 70 -6 28 -13 61
-15 75 -36 178 -137 447 -245 645 -50 92 -155 258 -198 313 -273 349 -552 581
-919 766 -139 69 -350 151 -440 171 -10 2 -64 15 -119 29 -55 13 -120 27 -145
30 -25 3 -56 8 -70 11 -77 13 -135 17 -331 20 -119 2 -218 2 -220 1z m412
-190 c295 -64 543 -233 705 -481 51 -79 119 -214 111 -222 -2 -2 -26 14 -53
36 -145 115 -332 215 -519 275 -60 20 -114 36 -120 36 -6 0 -27 -35 -47 -77
-95 -202 -273 -315 -484 -308 -66 2 -105 11 -220 51 -138 48 -140 48 -264 48
-109 -1 -135 -4 -205 -28 -44 -15 -102 -40 -128 -56 -27 -17 -50 -30 -53 -30
-2 0 7 28 20 63 95 253 281 462 525 590 84 44 218 92 290 103 20 3 54 9 76 14
66 12 284 4 366 -14z m859 -236 c133 -67 343 -205 452 -297 78 -65 289 -285
349 -363 201 -259 347 -554 429 -863 30 -116 36 -141 46 -217 3 -25 8 -48 10
-51 17 -29 25 -443 11 -574 -31 -289 -107 -555 -233 -814 -30 -62 -57 -112
-58 -110 -2 2 -20 45 -42 94 -162 382 -482 637 -889 708 -56 10 -176 15 -395
16 -173 1 -318 5 -322 9 -27 27 -6 112 26 112 15 0 177 93 213 122 75 61 204
203 260 285 138 201 247 456 299 698 48 224 54 480 15 663 -47 223 -161 439
-319 604 l-73 77 78 -33 c43 -19 108 -48 143 -66z m-2000 38 c-155 -153 -306
-442 -335 -641 -4 -23 -10 -60 -15 -81 -13 -61 -5 -330 14 -436 97 -543 407
-1043 748 -1208 l78 -37 0 -48 c0 -29 -5 -49 -12 -52 -7 -2 -166 -6 -353 -9
-363 -4 -397 -8 -555 -62 -191 -66 -382 -198 -511 -354 -86 -103 -154 -220
-198 -337 -13 -35 -25 -63 -27 -63 -8 0 -100 194 -133 280 -18 47 -37 94 -41
105 -10 22 -50 157 -55 187 -2 11 -7 28 -10 38 -6 20 -9 33 -26 125 -34 183
-45 464 -26 660 7 77 10 97 23 175 3 19 8 48 11 64 2 15 20 85 39 155 190 691
687 1267 1344 1557 41 19 79 34 84 34 5 0 -15 -24 -44 -52z m1526 -432 c153
-71 330 -203 447 -335 l57 -63 -4 -112 c-16 -399 -197 -849 -442 -1101 -78
-80 -138 -124 -236 -172 -139 -69 -172 -113 -171 -233 1 -85 9 -112 48 -158
33 -39 76 -63 125 -69 19 -3 36 -6 38 -8 1 -1 -103 -108 -233 -237 l-234 -235
-237 236 -236 236 40 7 c55 9 94 31 127 70 39 47 47 74 48 161 0 68 -4 83 -30
125 -24 40 -43 54 -125 97 -121 62 -144 80 -240 177 -177 180 -335 485 -408
788 -11 47 -23 103 -26 125 -3 22 -7 46 -9 53 -3 7 -8 59 -11 116 l-7 103 55
64 c109 129 225 184 388 183 81 -1 108 -6 185 -33 218 -78 302 -86 499 -46 42
9 148 59 200 95 62 42 140 121 182 185 l35 53 52 -20 c29 -11 84 -34 123 -52z
m-966 -2607 l360 -360 362 361 361 361 191 -5 c105 -2 205 -7 221 -11 222 -46
404 -143 546 -292 88 -92 137 -164 189 -276 35 -75 80 -227 80 -268 0 -54
-309 -389 -481 -522 -48 -37 -91 -67 -95 -67 -5 0 -9 89 -8 197 0 109 -3 203
-7 209 -9 11 -137 12 -155 2 -6 -4 -10 -101 -10 -263 l1 -257 -28 -20 c-41
-29 -239 -121 -352 -163 -159 -59 -363 -106 -560 -130 -161 -20 -494 -10 -650
20 -16 3 -55 10 -85 16 -104 20 -245 61 -365 106 -143 54 -333 149 -343 172
-5 9 -8 129 -7 268 1 168 -3 254 -10 256 -5 2 -44 3 -85 3 l-75 -1 0 -208 c0
-114 -3 -207 -7 -207 -4 0 -44 28 -90 62 -165 124 -488 472 -488 527 0 41 45
193 80 268 52 112 101 184 189 276 120 125 280 221 446 267 110 30 175 37 357
38 l157 0 361 -359z"/>
</g>
</svg>
