<?xml version="1.0" standalone="no"?>
<!DOCTYPE svg PUBLIC "-//W3C//DTD SVG 20010904//EN"
 "http://www.w3.org/TR/2001/REC-SVG-20010904/DTD/svg10.dtd">
<svg version="1.0" xmlns="http://www.w3.org/2000/svg"
 width="36864.000000pt" height="36864.000000pt" viewBox="0 0 36864.000000 36864.000000"
 preserveAspectRatio="xMidYMid meet">
<metadata>
Created by potrace 1.16, written by Peter Selinger 2001-2019
</metadata>
<g transform="translate(0.000000,36864.000000) scale(7.200000,-7.200000)"
fill="#000000" stroke="none">
<path d="M2360 5113 c-341 -34 -626 -112 -905 -247 -261 -126 -460 -265 -667
-464 -301 -291 -529 -650 -657 -1037 -93 -282 -126 -494 -125 -810 0 -265 15
-385 74 -621 116 -459 333 -839 674 -1180 398 -397 872 -638 1431 -726 189
-29 528 -32 719 -4 160 22 398 81 531 130 152 56 406 186 537 273 385 257 694
613 894 1028 82 171 127 296 174 479 150 595 85 1210 -186 1755 -133 269 -271
459 -488 677 -223 222 -412 357 -691 494 -289 142 -567 220 -890 250 -103 9
-345 11 -425 3z m338 -173 c319 -40 611 -224 789 -496 52 -81 118 -212 110
-220 -2 -2 -35 20 -73 49 -146 113 -308 198 -484 255 -156 51 -139 55 -183
-39 -62 -132 -170 -232 -303 -280 -46 -17 -82 -22 -164 -22 -99 0 -112 2 -218
41 -147 54 -260 70 -374 53 -92 -14 -185 -46 -247 -85 -22 -14 -43 -26 -46
-26 -9 0 45 134 82 200 78 143 219 299 352 389 217 147 495 214 759 181z m951
-255 c442 -222 825 -612 1051 -1069 114 -230 187 -464 226 -721 25 -168 25
-504 0 -670 -39 -253 -107 -474 -218 -705 -56 -116 -61 -123 -71 -100 -87 206
-153 314 -266 433 -169 178 -372 291 -615 344 -52 11 -164 17 -416 22 l-345 6
0 49 0 49 85 44 c287 149 518 453 654 864 197 591 114 1102 -240 1479 l-76 80
78 -33 c44 -19 112 -51 153 -72z m-2018 32 c-160 -164 -276 -387 -326 -627
-64 -306 4 -709 181 -1079 150 -314 354 -547 567 -649 l78 -37 -3 -50 -3 -50
-345 -6 c-252 -5 -364 -11 -416 -22 -242 -53 -444 -165 -615 -343 -111 -116
-181 -229 -266 -434 -10 -23 -15 -16 -71 100 -110 227 -180 456 -218 705 -25
165 -25 502 0 670 111 739 548 1379 1192 1744 89 50 280 141 298 141 5 0 -19
-28 -53 -63z m1527 -418 c142 -65 276 -161 400 -284 l112 -112 0 -64 c0 -285
-112 -667 -270 -924 -126 -206 -258 -331 -443 -419 -60 -29 -83 -46 -105 -78
-25 -38 -27 -49 -27 -144 0 -99 1 -103 31 -141 38 -46 79 -71 133 -81 l41 -7
-235 -235 -235 -235 -235 235 -235 235 39 7 c73 13 121 49 156 117 13 26 16
53 13 121 -4 122 -25 152 -149 214 -51 26 -117 65 -147 88 -159 123 -326 372
-428 642 -70 183 -123 436 -124 588 l0 57 78 79 c87 90 164 133 272 152 94 17
175 5 329 -48 134 -46 138 -46 261 -46 107 1 136 5 205 27 149 49 278 146 359
269 l38 57 42 -16 c22 -9 78 -33 124 -54z m-959 -2609 l361 -359 362 361 362
361 195 -6 c218 -6 322 -25 455 -86 158 -72 327 -214 419 -354 76 -115 157
-325 157 -407 0 -56 -304 -386 -483 -524 -48 -38 -90 -66 -93 -64 -2 3 -5 96
-6 207 l-1 201 -87 0 -88 0 1 -261 c1 -248 0 -262 -18 -276 -34 -26 -255 -130
-358 -167 -237 -88 -560 -146 -811 -146 -262 0 -584 57 -823 146 -125 46 -335
146 -359 170 -18 18 -19 36 -17 277 l2 257 -88 0 -88 0 -1 -201 c0 -111 -3
-203 -5 -205 -3 -3 -42 23 -88 58 -170 127 -489 471 -489 528 0 12 9 58 21
103 85 336 356 613 693 707 105 29 180 37 363 39 l151 1 361 -360z"/>
</g>
</svg>
