<?xml version="1.0" standalone="no"?>
<!DOCTYPE svg PUBLIC "-//W3C//DTD SVG 20010904//EN"
 "http://www.w3.org/TR/2001/REC-SVG-20010904/DTD/svg10.dtd">
<svg version="1.0" xmlns="http://www.w3.org/2000/svg"
 width="36864.000000pt" height="36864.000000pt" viewBox="0 0 36864.000000 36864.000000"
 preserveAspectRatio="xMidYMid meet">
<metadata>
Created by potrace 1.16, written by Peter Selinger 2001-2019
</metadata>
<g transform="translate(0.000000,36864.000000) scale(7.200000,-7.200000)"
fill="#000000" stroke="none">
<path d="M708 5054 c-322 -58 -579 -293 -680 -624 l-23 -75 -3 -1667 c-3
-1838 -6 -1741 60 -1876 42 -88 159 -207 245 -250 60 -31 140 -55 215 -67 32
-5 38 -11 49 -43 44 -137 166 -278 292 -340 135 -66 24 -63 2000 -60 l1792 3
66 22 c170 58 314 202 372 372 l22 66 3 1792 c3 1977 6 1867 -60 2001 -50 101
-151 203 -252 252 -45 22 -108 45 -141 51 -33 6 -70 13 -82 15 -14 3 -25 16
-34 41 -44 138 -167 281 -291 341 -133 65 -40 62 -1838 61 -1348 -1 -1648 -3
-1712 -15z m3437 -213 c67 -27 159 -111 187 -171 l17 -35 -922 -5 c-721 -4
-927 -8 -944 -18 -53 -30 -59 -107 -14 -153 l29 -29 1030 0 c654 0 1049 -4
1083 -10 119 -23 224 -105 277 -218 l27 -57 3 -1270 2 -1270 -42 41 c-269 255
-480 426 -551 445 -23 6 -80 9 -127 7 -70 -3 -95 -9 -142 -34 -31 -16 -165
-119 -298 -229 -132 -110 -257 -209 -278 -220 -79 -42 -202 -14 -255 57 -14
18 -210 375 -438 793 -303 557 -425 773 -458 808 -26 27 -71 61 -110 80 -61
30 -72 32 -171 32 -96 0 -110 -3 -165 -29 -33 -17 -80 -50 -105 -76 -32 -32
-187 -287 -530 -869 -266 -453 -490 -831 -497 -840 -17 -22 -19 2470 -2 2551
15 72 64 161 112 204 22 20 69 50 106 68 l66 31 372 5 371 5 25 23 c52 49 36
131 -29 158 -32 13 -90 15 -398 12 -338 -4 -365 -5 -426 -26 -182 -61 -319
-197 -383 -382 l-22 -65 -3 -1729 -2 -1729 -38 6 c-103 13 -219 106 -270 215
l-27 57 0 1675 0 1675 22 70 c59 181 182 325 348 405 150 73 35 69 1865 67
l1645 -2 60 -24z m-1979 -1686 c29 -24 155 -248 654 -1165 340 -624 628 -1143
640 -1152 67 -54 180 23 154 104 -3 12 -58 116 -121 231 -63 115 -113 210
-111 212 2 1 32 7 68 14 108 18 169 57 425 272 132 110 254 207 272 215 41 18
114 18 156 1 18 -8 164 -135 325 -283 l293 -269 -3 -400 -3 -400 -27 -57 c-37
-80 -107 -152 -187 -191 l-66 -32 -1780 -3 c-1761 -2 -1781 -2 -1847 18 -109
33 -195 114 -243 230 -17 40 -20 78 -23 347 l-4 301 577 979 c317 538 589 991
603 1007 40 43 79 57 149 53 51 -2 69 -8 99 -32z"/>
<path d="M2100 4619 c-96 -38 -69 -189 33 -189 43 0 92 38 100 77 7 40 -16 89
-52 107 -34 18 -46 19 -81 5z"/>
<path d="M3683 3796 c-85 -21 -180 -73 -242 -135 -105 -103 -154 -223 -154
-371 3 -458 555 -681 878 -354 97 98 145 216 145 360 0 328 -311 576 -627 500z
m245 -216 c68 -29 144 -112 167 -181 23 -69 17 -178 -13 -241 -114 -234 -443
-236 -562 -4 -30 60 -34 77 -34 140 1 147 97 270 239 307 50 13 146 3 203 -21z"/>
<path d="M3661 656 c-87 -48 -50 -186 49 -186 51 0 100 49 100 99 0 75 -83
124 -149 87z"/>
</g>
</svg>
