<?xml version="1.0" standalone="no"?>
<!DOCTYPE svg PUBLIC "-//W3C//DTD SVG 20010904//EN"
 "http://www.w3.org/TR/2001/REC-SVG-20010904/DTD/svg10.dtd">
<svg version="1.0" xmlns="http://www.w3.org/2000/svg"
 width="36864.000000pt" height="36864.000000pt" viewBox="0 0 36864.000000 36864.000000"
 preserveAspectRatio="xMidYMid meet">
<metadata>
Created by potrace 1.15, written by Peter Selinger 2001-2017
</metadata>
<g transform="translate(0.000000,36864.000000) scale(7.200000,-7.200000)"
fill="#000000" stroke="none">
<path d="M728 5060 c-178 -30 -338 -112 -468 -240 -129 -127 -216 -290 -249
-470 -7 -36 -10 -635 -10 -1705 -1 -1812 -4 -1696 59 -1830 84 -176 287 -313
473 -319 15 -1 27 -5 27 -9 0 -17 53 -142 62 -145 4 -2 8 -8 8 -14 0 -21 86
-116 145 -160 33 -25 82 -55 109 -67 117 -53 47 -52 1979 -49 l1792 3 66 22
c171 59 313 201 372 372 l22 66 3 1798 c2 1986 6 1863 -61 1995 -91 179 -268
300 -459 314 -33 3 -37 7 -48 43 -43 143 -151 269 -294 343 -126 65 -35 62
-1841 61 -902 -1 -1661 -5 -1687 -9z m3367 -204 c59 -16 119 -47 159 -84 29
-27 96 -124 96 -139 0 -4 -413 -7 -918 -6 -871 2 -919 1 -947 -16 -60 -36 -61
-121 -4 -163 26 -19 55 -20 1085 -22 l1059 -2 57 -23 c82 -34 161 -108 200
-189 l33 -67 3 -1270 2 -1269 -36 34 c-21 19 -45 42 -54 50 -9 8 -65 60 -125
115 -111 103 -290 247 -335 270 -37 19 -122 33 -172 28 -104 -10 -167 -42
-298 -151 -36 -30 -85 -71 -109 -91 -24 -20 -49 -41 -55 -46 -10 -9 -96 -80
-139 -115 -10 -8 -33 -27 -50 -42 -68 -59 -138 -76 -217 -52 -30 9 -65 29 -84
47 -17 18 -81 122 -141 232 -59 110 -118 218 -130 240 -74 136 -147 269 -180
330 -56 103 -91 168 -156 285 -32 58 -59 110 -60 115 0 6 -9 21 -19 35 -9 14
-38 66 -65 115 -134 252 -176 305 -274 349 -66 29 -107 38 -181 38 -99 0 -228
-61 -284 -135 -13 -17 -133 -216 -266 -442 -133 -225 -288 -486 -343 -580 -56
-93 -109 -183 -118 -200 -32 -59 -271 -460 -278 -468 -12 -13 -6 2553 6 2588
33 96 115 197 184 227 19 9 48 21 64 29 23 10 116 13 389 15 242 2 368 7 387
14 74 31 70 144 -6 176 -47 19 -679 18 -775 -2 -202 -42 -378 -208 -436 -410
-16 -54 -18 -194 -20 -1769 -1 -940 -3 -1717 -3 -1726 -1 -14 -7 -16 -41 -8
-112 25 -211 103 -262 207 l-33 67 0 1675 c0 1623 1 1677 19 1735 78 243 250
407 491 466 65 16 190 18 1700 18 1336 1 1639 -2 1680 -13z m-1941 -1691 c22
-15 76 -77 76 -88 0 -3 21 -42 46 -88 75 -135 99 -180 136 -249 20 -36 47 -85
60 -110 26 -46 62 -113 138 -255 23 -44 49 -90 56 -102 8 -13 35 -62 60 -110
26 -49 50 -92 54 -98 4 -5 29 -50 55 -100 26 -49 156 -288 288 -530 131 -242
255 -469 274 -505 42 -78 74 -110 113 -110 84 0 129 72 93 148 -10 20 -47 91
-84 157 -91 165 -139 255 -139 259 0 3 19 7 43 10 122 18 175 45 307 155 41
35 95 79 120 99 24 21 94 79 155 130 126 106 156 124 217 124 79 -1 96 -11
258 -161 58 -54 129 -120 159 -147 30 -27 66 -60 81 -74 15 -14 66 -61 114
-105 l87 -80 -3 -405 -3 -405 -37 -66 c-20 -37 -53 -83 -75 -103 -33 -32 -118
-81 -163 -95 -8 -3 -816 -7 -1795 -8 -1768 -3 -1781 -3 -1840 17 -112 38 -205
128 -242 235 -15 43 -18 90 -18 355 l0 305 114 190 c63 105 211 354 329 555
118 201 296 502 395 670 99 168 210 356 246 418 37 62 79 126 94 142 53 56
165 68 231 25z"/>
<path d="M2095 4616 c-76 -33 -75 -140 3 -180 23 -12 33 -12 65 -1 38 13 65
38 68 63 1 6 2 18 3 25 4 25 -17 68 -39 83 -33 22 -66 25 -100 10z"/>
<path d="M3683 3795 c-237 -56 -408 -279 -397 -518 11 -268 214 -477 479 -494
400 -26 672 390 489 747 -60 116 -165 207 -291 252 -70 25 -205 32 -280 13z
m207 -201 c97 -34 177 -109 205 -195 72 -216 -96 -435 -320 -417 -265 22 -385
341 -200 531 82 84 210 117 315 81z"/>
<path d="M3654 652 c-27 -23 -44 -55 -44 -82 0 -52 49 -100 101 -100 50 0 99
49 99 100 0 77 -99 129 -156 82z"/>
</g>
</svg>
