<?xml version="1.0" standalone="no"?>
<!DOCTYPE svg PUBLIC "-//W3C//DTD SVG 20010904//EN"
 "http://www.w3.org/TR/2001/REC-SVG-20010904/DTD/svg10.dtd">
<svg version="1.0" xmlns="http://www.w3.org/2000/svg"
 width="36864.000000pt" height="36864.000000pt" viewBox="0 0 36864.000000 36864.000000"
 preserveAspectRatio="xMidYMid meet">
<metadata>
Created by potrace 1.15, written by Peter Selinger 2001-2017
</metadata>
<g transform="translate(0.000000,36864.000000) scale(7.200000,-7.200000)"
fill="#000000" stroke="none">
<path d="M167 5106 c-55 -20 -103 -61 -134 -114 l-28 -47 0 -2386 0 -2386 30
-48 c35 -57 95 -102 151 -115 23 -6 1009 -9 2384 -9 1933 0 2352 2 2383 13 55
20 103 61 134 114 l28 47 3 2364 c1 1609 -1 2375 -8 2402 -16 58 -68 119 -129
151 l-53 28 -2361 0 c-1949 -1 -2369 -3 -2400 -14z m4739 -159 c51 -18 49 113
49 -2381 1 -1276 -3 -2333 -8 -2348 -18 -56 129 -53 -2393 -52 -1819 0 -2334
3 -2351 12 -13 7 -26 25 -30 40 -4 15 -7 1072 -7 2348 -1 2508 -4 2363 51
2381 29 10 4660 9 4689 0z"/>
<path d="M458 4366 c-45 -23 -47 -36 -46 -485 0 -463 1 -470 55 -488 32 -10
857 -10 889 0 46 16 48 31 48 477 1 231 -3 434 -7 451 -14 55 -28 56 -495 56
-289 0 -429 -4 -444 -11z m782 -486 l0 -330 -330 0 c-308 0 -330 1 -330 18 -1
32 -1 437 0 540 l0 102 330 0 330 0 0 -330z"/>
<path d="M1643 4292 c-69 -7 -96 -102 -41 -144 22 -17 109 -18 1528 -18 828 0
1514 3 1525 6 23 6 44 34 50 66 6 29 -21 75 -47 84 -21 7 -2944 13 -3015 6z"/>
<path d="M1638 3962 c-15 -2 -37 -15 -48 -29 -28 -36 -26 -79 6 -108 25 -23
34 -25 138 -25 61 0 743 0 1516 0 l1404 0 23 23 c22 21 28 45 24 89 0 10 -13
25 -28 35 -25 16 -116 17 -1517 18 -820 0 -1503 -1 -1518 -3z"/>
<path d="M1638 3632 c-62 -7 -89 -92 -43 -137 l24 -25 981 0 981 0 24 25 c34
33 34 83 0 115 l-25 23 -957 1 c-527 1 -970 0 -985 -2z"/>
<path d="M3789 3632 c-67 -8 -95 -96 -44 -139 22 -19 38 -23 96 -23 64 0 73 3
98 28 33 33 32 78 -3 111 -21 20 -87 31 -147 23z"/>
<path d="M461 3044 c-15 -6 -33 -25 -39 -40 -14 -35 -15 -854 -2 -890 18 -47
28 -48 480 -49 234 -1 437 3 451 7 52 17 53 26 53 478 1 231 -2 432 -6 447
-15 57 -15 57 -482 58 -300 0 -436 -3 -455 -11z m779 -484 l0 -330 -330 0
c-286 0 -330 2 -330 15 -1 8 -1 139 -1 290 0 151 0 293 1 315 l0 40 330 0 330
0 0 -330z"/>
<path d="M1619 2963 c-53 -22 -65 -87 -24 -128 l24 -25 1519 0 c1514 0 1518 0
1540 20 12 12 22 24 23 28 0 4 2 15 4 26 5 26 -13 62 -39 76 -32 17 -3006 20
-3047 3z"/>
<path d="M1615 2630 c-54 -27 -59 -104 -9 -137 24 -15 139 -16 1530 -16 1201
0 1509 2 1528 12 53 29 54 113 1 141 -20 11 -303 13 -1522 14 -1313 1 -1502
-1 -1528 -14z"/>
<path d="M1595 2285 c-16 -15 -25 -36 -25 -55 0 -37 38 -80 72 -80 13 -1 454
-1 981 -1 885 -1 960 1 977 16 43 39 42 98 -2 129 -20 14 -118 16 -1001 16
l-978 0 -24 -25z"/>
<path d="M3740 2285 c-30 -32 -29 -80 3 -112 21 -21 33 -24 97 -24 65 0 77 3
98 25 32 31 32 79 1 112 -20 21 -31 24 -99 24 -68 0 -79 -3 -100 -25z"/>
<path d="M503 1733 c-4 0 -21 -4 -36 -7 -54 -12 -56 -29 -54 -504 l2 -431 23
-23 23 -23 437 -1 c475 -2 481 -1 499 53 10 32 10 858 0 889 -16 46 -32 48
-472 48 -228 1 -418 0 -422 -1z m737 -493 l0 -330 -330 0 -330 0 0 78 c-1 79
-1 519 0 560 l0 22 330 0 330 0 0 -330z"/>
<path d="M1595 1625 c-16 -15 -25 -36 -25 -55 0 -34 37 -79 67 -81 97 -4 2995
-1 3013 4 29 7 60 54 55 83 -2 10 -4 22 -4 26 -1 4 -11 16 -23 28 -22 20 -26
20 -1540 20 l-1519 0 -24 -25z"/>
<path d="M1682 1320 c-62 -4 -77 -9 -93 -29 -36 -45 -17 -110 38 -128 44 -14
3013 -10 3039 5 31 16 47 62 35 95 -24 61 81 57 -1502 60 -794 1 -1477 0
-1517 -3z"/>
<path d="M1595 965 c-32 -31 -32 -75 -1 -112 l24 -27 980 -1 981 0 25 24 c35
33 35 83 1 116 l-24 25 -981 0 -981 0 -24 -25z"/>
<path d="M3745 968 c-41 -36 -35 -104 10 -128 41 -22 149 -19 176 5 29 27 38
55 27 88 -16 43 -44 57 -120 57 -55 0 -71 -4 -93 -22z"/>
</g>
</svg>
