<?xml version="1.0" standalone="no"?>
<!DOCTYPE svg PUBLIC "-//W3C//DTD SVG 20010904//EN"
 "http://www.w3.org/TR/2001/REC-SVG-20010904/DTD/svg10.dtd">
<svg version="1.0" xmlns="http://www.w3.org/2000/svg"
 width="36864.000000pt" height="36864.000000pt" viewBox="0 0 36864.000000 36864.000000"
 preserveAspectRatio="xMidYMid meet">
<metadata>
Created by potrace 1.15, written by Peter Selinger 2001-2017
</metadata>
<g transform="translate(0.000000,36864.000000) scale(7.200000,-7.200000)"
fill="#000000" stroke="none">
<path d="M3904 5106 c-30 -22 -3584 -3577 -3600 -3601 -12 -18 -44 -151 -61
-250 -2 -16 -13 -67 -24 -112 -10 -44 -21 -96 -24 -115 -3 -18 -11 -53 -16
-78 -10 -44 -33 -150 -109 -510 -21 -102 -46 -216 -55 -255 -19 -80 -13 -131
18 -157 32 -29 59 -31 144 -13 43 9 89 18 103 21 14 3 118 25 232 49 114 24
218 47 230 49 13 2 88 19 168 36 80 17 154 33 165 35 11 3 97 21 190 40 94 20
186 40 206 45 30 8 138 111 568 541 293 293 533 530 535 528 2 -2 6 -39 10
-81 12 -148 71 -334 149 -472 36 -65 96 -155 122 -182 5 -6 32 -34 58 -63 40
-42 118 -111 194 -171 41 -32 199 -114 272 -140 150 -55 250 -73 418 -76 129
-2 168 1 260 21 133 29 199 52 300 103 149 75 218 126 341 249 162 164 275
375 328 615 19 83 27 338 14 408 -4 25 -11 59 -14 75 -74 422 -400 793 -821
933 -108 37 -245 64 -327 66 -10 0 -18 2 -18 4 0 3 281 285 625 629 670 670
656 654 622 719 -9 16 -260 273 -559 571 -502 501 -546 543 -583 548 -28 4
-46 2 -61 -9z m420 -638 c-11 -11 -322 -323 -691 -693 -370 -370 -673 -679
-674 -686 0 -8 -2 -23 -4 -34 -11 -57 73 -117 132 -94 14 5 328 312 698 682
370 370 680 678 688 686 14 11 40 -11 211 -181 l195 -194 -668 -668 -667 -667
-119 -40 c-377 -126 -666 -418 -790 -795 -14 -43 -25 -83 -25 -89 0 -5 -202
-212 -449 -459 l-449 -449 -34 13 c-161 65 -269 213 -283 386 l-4 62 559 560
c308 308 561 569 561 579 4 41 -1 67 -16 89 -19 29 -77 46 -113 33 -14 -6
-271 -255 -571 -555 -299 -300 -552 -549 -563 -555 -21 -11 -102 -4 -158 13
-129 40 -240 142 -290 266 l-13 34 1583 1583 1584 1584 194 -195 c193 -193
194 -195 176 -216z m-385 -2032 c223 -24 432 -127 602 -296 211 -209 311 -457
304 -755 -3 -138 -4 -148 -37 -265 -119 -432 -529 -745 -979 -748 -512 -3
-939 346 -1035 848 -16 83 -21 236 -9 320 69 521 532 920 1049 903 32 -1 79
-4 105 -7z m-3175 -1052 c111 -110 233 -169 391 -189 11 -1 25 -3 30 -4 6 0
10 -13 11 -28 4 -113 56 -244 141 -350 48 -60 144 -140 196 -164 l28 -13 -77
-77 c-64 -64 -85 -80 -123 -88 -104 -24 -278 -61 -310 -66 -19 -3 -38 -8 -42
-10 -3 -3 -144 133 -312 300 l-305 305 10 43 c5 23 25 114 44 202 l34 159 77
78 77 77 29 -52 c17 -29 62 -84 101 -123z m-193 -848 c104 -104 188 -190 186
-192 -3 -3 -409 -90 -467 -100 -14 -3 -33 -7 -43 -10 -14 -5 -17 -1 -12 18 5
23 60 283 96 456 13 64 -16 85 240 -172z"/>
<path d="M2705 2828 c-56 -15 -84 -81 -58 -135 22 -47 67 -65 124 -50 62 16
82 111 34 160 -30 29 -58 36 -100 25z"/>
<path d="M3645 2022 c-59 -5 -76 -13 -95 -45 -17 -27 -20 -50 -20 -159 l0
-128 -125 0 c-136 0 -174 -10 -196 -53 -9 -15 -12 -86 -12 -229 1 -181 3 -210
19 -237 10 -17 27 -34 39 -38 11 -4 74 -8 140 -9 66 -1 123 -3 128 -3 4 -1 7
-57 7 -126 0 -206 0 -206 288 -205 276 2 276 2 278 185 1 61 2 119 3 130 1 19
8 20 126 19 138 -1 176 11 195 62 6 14 10 117 10 229 l0 204 -31 36 -31 35
-137 0 -136 0 0 129 c0 142 -9 172 -57 192 -26 10 -310 19 -393 11z m246 -202
c1 -3 3 -61 4 -130 1 -74 7 -135 14 -148 22 -42 61 -52 196 -52 l125 0 0 -83
0 -83 -122 1 c-197 2 -211 -12 -211 -205 l-1 -130 -83 0 -83 0 0 124 c0 201
-8 209 -203 209 l-132 0 1 81 0 81 135 5 c74 3 142 9 152 14 37 17 47 59 47
190 0 74 4 126 10 128 16 5 150 4 151 -2z"/>
</g>
</svg>
