<?xml version="1.0" standalone="no"?>
<!DOCTYPE svg PUBLIC "-//W3C//DTD SVG 20010904//EN"
 "http://www.w3.org/TR/2001/REC-SVG-20010904/DTD/svg10.dtd">
<svg version="1.0" xmlns="http://www.w3.org/2000/svg"
 width="36864.000000pt" height="36864.000000pt" viewBox="0 0 36864.000000 36864.000000"
 preserveAspectRatio="xMidYMid meet">
<metadata>
Created by potrace 1.16, written by Peter Selinger 2001-2019
</metadata>
<g transform="translate(0.000000,36864.000000) scale(7.200000,-7.200000)"
fill="#000000" stroke="none">
<path d="M1260 3370 l0 -490 490 0 490 0 0 490 0 490 -490 0 -490 0 0 -490z"/>
<path d="M2880 3370 l0 -490 490 0 490 0 0 490 0 490 -490 0 -490 0 0 -490z"/>
<path d="M1260 1750 l0 -490 490 0 490 0 0 490 0 490 -490 0 -490 0 0 -490z"/>
<path d="M2880 1750 l0 -490 490 0 490 0 0 490 0 490 -490 0 -490 0 0 -490z"/>
</g>
</svg>
