<?xml version="1.0" standalone="no"?>
<!DOCTYPE svg PUBLIC "-//W3C//DTD SVG 20010904//EN"
 "http://www.w3.org/TR/2001/REC-SVG-20010904/DTD/svg10.dtd">
<svg version="1.0" xmlns="http://www.w3.org/2000/svg"
 width="36864.000000pt" height="36864.000000pt" viewBox="0 0 36864.000000 36864.000000"
 preserveAspectRatio="xMidYMid meet">
<metadata>
Created by potrace 1.15, written by Peter Selinger 2001-2017
</metadata>
<g transform="translate(0.000000,36864.000000) scale(7.200000,-7.200000)"
fill="#000000" stroke="none">
<path d="M1258 4715 c-2 -1 -30 -5 -63 -8 -173 -17 -321 -90 -450 -222 -151
-155 -216 -324 -210 -545 3 -124 22 -202 75 -312 95 -195 293 -349 511 -397
182 -39 378 -6 557 95 2 1 5 14 8 30 32 184 122 351 265 493 l79 79 0 60 c0
81 -41 237 -84 319 -115 218 -338 374 -568 398 -105 11 -117 12 -120 10z"/>
<path d="M3808 4715 c-2 -1 -29 -5 -61 -9 -339 -35 -617 -320 -652 -669 l-7
-63 44 -29 c94 -62 213 -194 276 -306 43 -77 81 -178 101 -274 15 -75 18 -81
51 -96 113 -53 316 -68 455 -35 99 24 225 87 303 154 80 67 89 78 145 162 145
219 166 493 56 729 -77 167 -211 297 -384 373 -61 27 -73 31 -160 47 -51 10
-162 20 -167 16z"/>
<path d="M2453 3924 c-355 -76 -604 -376 -603 -731 1 -405 303 -728 700 -750
259 -14 477 84 641 287 63 78 125 213 144 311 11 60 13 214 3 265 -5 27 -11
59 -14 72 -24 119 -138 300 -241 383 -89 71 -221 139 -298 153 -13 3 -29 8
-35 11 -21 13 -235 12 -297 -1z"/>
<path d="M925 3159 c-60 -4 -132 -12 -160 -19 -27 -6 -57 -13 -65 -15 -70 -16
-182 -69 -270 -128 -196 -131 -338 -329 -396 -551 -9 -34 -19 -70 -22 -81 -3
-11 -7 -230 -9 -486 l-5 -466 29 -10 c79 -30 338 -98 483 -128 139 -28 134
-28 280 -49 105 -16 130 -19 272 -32 l76 -6 1 167 c3 310 62 515 209 725 130
184 356 356 546 416 31 10 56 20 56 24 0 3 -14 19 -31 36 -119 112 -226 348
-245 538 -3 34 -7 62 -9 64 -6 6 -635 7 -740 1z"/>
<path d="M3595 3160 l-70 -5 -3 -40 c-15 -196 -101 -400 -227 -540 -24 -27
-45 -53 -45 -57 0 -3 24 -14 53 -24 249 -81 502 -304 627 -552 90 -178 121
-316 125 -564 2 -97 6 -181 10 -187 3 -6 16 -9 28 -6 12 2 63 7 112 10 50 2
99 7 110 9 11 2 45 7 75 10 232 27 522 106 688 189 l43 21 -4 466 -4 465 -26
93 c-108 376 -416 648 -792 702 -83 12 -577 19 -700 10z"/>
<path d="M2145 2375 c-308 -45 -562 -224 -718 -506 -30 -54 -83 -206 -92 -264
-4 -22 -9 -53 -11 -70 -6 -36 -8 -895 -2 -900 6 -6 237 -73 333 -97 93 -23
105 -26 165 -38 25 -5 56 -12 70 -15 27 -6 142 -25 175 -30 11 -2 54 -8 95
-14 67 -10 111 -14 260 -27 55 -5 464 -5 505 0 17 2 66 6 110 10 44 4 103 11
130 16 28 5 66 11 85 14 171 25 411 94 546 156 l82 38 -3 453 c-2 370 -6 467
-19 523 -54 237 -190 444 -382 582 -84 60 -218 125 -288 139 -10 3 -33 9 -50
14 -66 21 -143 24 -521 26 -250 1 -419 -3 -470 -10z"/>
</g>
</svg>
