<?xml version="1.0" standalone="no"?>
<!DOCTYPE svg PUBLIC "-//W3C//DTD SVG 20010904//EN"
 "http://www.w3.org/TR/2001/REC-SVG-20010904/DTD/svg10.dtd">
<svg version="1.0" xmlns="http://www.w3.org/2000/svg"
 width="36864.000000pt" height="36864.000000pt" viewBox="0 0 36864.000000 36864.000000"
 preserveAspectRatio="xMidYMid meet">
<metadata>
Created by potrace 1.16, written by Peter Selinger 2001-2019
</metadata>
<g transform="translate(0.000000,36864.000000) scale(7.200000,-7.200000)"
fill="#000000" stroke="none">
<path d="M1110 4695 c-85 -19 -229 -91 -305 -152 -162 -131 -260 -325 -272
-538 -8 -139 13 -239 79 -375 44 -91 62 -115 142 -195 76 -76 106 -99 186
-138 119 -58 207 -79 335 -80 136 0 262 30 361 88 39 23 42 28 64 112 44 170
156 357 277 460 l56 48 -6 90 c-21 310 -233 575 -538 670 -75 24 -292 30 -379
10z"/>
<path d="M3670 4695 c-85 -19 -229 -91 -305 -152 -150 -122 -251 -310 -271
-508 l-6 -61 43 -29 c191 -125 352 -384 384 -612 6 -48 9 -52 48 -67 93 -35
173 -49 277 -49 133 0 217 20 340 80 80 39 110 62 186 138 80 80 98 104 142
195 66 136 87 236 79 375 -18 318 -228 583 -538 680 -75 24 -292 30 -379 10z"/>
<path d="M2473 3930 c-279 -50 -506 -252 -593 -525 -31 -100 -38 -266 -15
-371 80 -366 400 -610 775 -591 477 24 808 484 679 947 -35 127 -92 223 -194
325 -101 101 -196 158 -325 195 -86 24 -247 34 -327 20z"/>
<path d="M769 3140 c-379 -80 -671 -375 -749 -757 -19 -95 -20 -131 -18 -539
l3 -437 150 -43 c163 -48 412 -104 570 -129 99 -16 350 -45 391 -45 21 0 22 4
27 208 4 181 8 220 31 307 52 196 178 409 320 542 118 111 279 211 404 250 28
9 52 19 52 23 0 3 -14 19 -31 36 -45 42 -111 138 -152 219 -46 92 -74 186 -89
296 l-12 89 -405 -1 c-352 0 -417 -3 -492 -19z"/>
<path d="M3526 3148 c-3 -7 -7 -41 -10 -76 -14 -154 -92 -337 -202 -473 -36
-45 -64 -82 -62 -84 2 -1 29 -12 60 -23 268 -99 492 -301 623 -562 87 -174
113 -293 122 -557 6 -189 6 -193 27 -188 12 2 66 7 121 10 294 19 631 96 838
192 l77 36 0 430 c0 393 -2 437 -21 530 -77 385 -370 679 -753 758 -79 16
-138 19 -454 19 -281 0 -363 -3 -366 -12z"/>
<path d="M2177 2379 c-242 -25 -480 -153 -636 -341 -73 -87 -163 -261 -193
-373 -21 -76 -22 -103 -26 -556 l-3 -476 123 -36 c252 -74 482 -124 728 -157
199 -27 637 -38 814 -21 331 33 616 100 814 192 l84 39 -5 452 c-5 504 -8 529
-74 688 -140 333 -440 553 -802 590 -119 12 -709 11 -824 -1z"/>
</g>
</svg>
