<?xml version="1.0" standalone="no"?>
<!DOCTYPE svg PUBLIC "-//W3C//DTD SVG 20010904//EN"
 "http://www.w3.org/TR/2001/REC-SVG-20010904/DTD/svg10.dtd">
<svg version="1.0" xmlns="http://www.w3.org/2000/svg"
 width="36864.000000pt" height="36864.000000pt" viewBox="0 0 36864.000000 36864.000000"
 preserveAspectRatio="xMidYMid meet">
<metadata>
Created by potrace 1.15, written by Peter Selinger 2001-2017
</metadata>
<g transform="translate(0.000000,36864.000000) scale(7.200000,-7.200000)"
fill="#000000" stroke="none">
<path d="M2249 4775 c-269 -57 -520 -179 -714 -349 -85 -74 -77 -66 -151 -151
-359 -412 -483 -959 -337 -1485 84 -305 203 -582 403 -940 29 -52 68 -119 86
-148 19 -29 34 -55 34 -57 0 -5 97 -157 181 -283 27 -40 49 -75 49 -78 0 -3 7
-12 15 -21 9 -8 34 -43 57 -77 23 -33 45 -62 50 -64 4 -2 8 -8 8 -14 0 -24
447 -599 556 -714 6 -7 22 -26 37 -43 22 -27 29 -30 44 -20 28 18 272 316 449
549 110 144 313 431 335 473 7 12 15 24 18 27 9 7 164 253 228 360 150 255
270 495 357 719 85 216 144 440 163 620 13 116 7 301 -12 391 -3 14 -8 41 -11
60 -3 19 -17 75 -30 123 -78 278 -225 522 -439 727 -146 141 -344 262 -545
335 -41 15 -82 28 -90 30 -8 2 -53 13 -100 25 -72 19 -118 23 -305 26 -202 3
-230 1 -336 -21z m438 -992 c261 -59 451 -307 438 -572 -5 -119 -11 -145 -55
-236 -75 -154 -208 -263 -375 -306 -82 -22 -232 -19 -307 5 -106 33 -228 121
-302 215 -21 27 -89 171 -80 171 2 0 0 10 -7 22 -17 31 -20 193 -5 263 14 66
64 185 77 185 5 0 9 7 9 15 0 36 194 198 255 212 6 1 36 11 68 21 73 23 193
25 284 5z"/>
</g>
</svg>
