<?xml version="1.0" standalone="no"?>
<!DOCTYPE svg PUBLIC "-//W3C//DTD SVG 20010904//EN"
 "http://www.w3.org/TR/2001/REC-SVG-20010904/DTD/svg10.dtd">
<svg version="1.0" xmlns="http://www.w3.org/2000/svg"
 width="36864.000000pt" height="36864.000000pt" viewBox="0 0 36864.000000 36864.000000"
 preserveAspectRatio="xMidYMid meet">
<metadata>
Created by potrace 1.16, written by Peter Selinger 2001-2019
</metadata>
<g transform="translate(0.000000,36864.000000) scale(7.200000,-7.200000)"
fill="#000000" stroke="none">
<path d="M2325 4786 c-301 -47 -652 -222 -845 -420 l-45 -46 357 -357 356
-356 53 47 c100 90 222 136 359 136 162 0 283 -50 395 -164 114 -115 165 -236
165 -391 0 -138 -44 -258 -134 -365 l-45 -55 402 -402 c221 -222 405 -403 408
-403 8 0 139 276 192 405 62 152 123 347 155 495 24 112 26 146 26 330 0 226
-12 307 -74 492 -124 369 -399 698 -740 881 -165 89 -358 153 -533 176 -103
14 -352 12 -452 -3z"/>
<path d="M480 4453 c-69 -70 -131 -136 -139 -146 -13 -18 14 -47 339 -372
l354 -354 -18 -109 c-32 -202 -17 -454 40 -676 139 -536 507 -1204 1080 -1957
101 -133 309 -388 381 -468 l49 -54 105 124 c158 185 355 439 501 643 71 99
135 187 142 193 9 10 93 -69 386 -362 l374 -374 138 139 c76 77 138 143 138
147 0 5 -843 851 -1873 1881 l-1873 1873 -124 -128z"/>
</g>
</svg>
