<?xml version="1.0" standalone="no"?>
<!DOCTYPE svg PUBLIC "-//W3C//DTD SVG 20010904//EN"
 "http://www.w3.org/TR/2001/REC-SVG-20010904/DTD/svg10.dtd">
<svg version="1.0" xmlns="http://www.w3.org/2000/svg"
 width="36864.000000pt" height="36864.000000pt" viewBox="0 0 36864.000000 36864.000000"
 preserveAspectRatio="xMidYMid meet">
<metadata>
Created by potrace 1.16, written by Peter Selinger 2001-2019
</metadata>
<g transform="translate(0.000000,36864.000000) scale(7.200000,-7.200000)"
fill="#000000" stroke="none">
<path d="M2895 4849 c-43 -12 -112 -74 -138 -123 -20 -39 -22 -58 -28 -376 -9
-432 -27 -580 -89 -765 -57 -169 -130 -277 -292 -430 -168 -159 -332 -273
-451 -315 -47 -17 -83 -20 -207 -20 l-150 0 0 40 c0 58 -22 104 -56 118 -22 9
-205 12 -732 10 l-704 -3 -24 -28 -24 -28 0 -1310 0 -1310 25 -24 24 -25 719
0 719 0 24 26 c23 24 24 33 27 170 l3 144 119 0 c220 0 338 -33 625 -176 178
-89 227 -109 325 -132 l115 -27 815 0 815 0 50 25 c68 33 141 108 173 178 34
74 37 183 5 253 l-20 45 67 18 c232 59 367 301 300 536 -5 20 -26 62 -45 94
-19 32 -35 60 -35 61 0 2 24 16 53 33 237 134 287 455 103 658 l-42 47 48 45
c93 87 127 216 94 356 -45 189 -185 334 -356 366 -30 6 -245 10 -510 10 -510
0 -517 1 -585 67 -73 71 -70 40 -73 713 -2 508 -5 617 -18 680 -45 213 -177
346 -391 394 -77 17 -228 20 -278 5z m-2044 -3842 c108 -57 122 -218 25 -292
-69 -52 -174 -44 -234 18 -84 87 -57 228 52 278 55 25 104 24 157 -4z"/>
</g>
</svg>
