<?xml version="1.0" standalone="no"?>
<!DOCTYPE svg PUBLIC "-//W3C//DTD SVG 20010904//EN"
 "http://www.w3.org/TR/2001/REC-SVG-20010904/DTD/svg10.dtd">
<svg version="1.0" xmlns="http://www.w3.org/2000/svg"
 width="36864.000000pt" height="36864.000000pt" viewBox="0 0 36864.000000 36864.000000"
 preserveAspectRatio="xMidYMid meet">
<metadata>
Created by potrace 1.16, written by Peter Selinger 2001-2019
</metadata>
<g transform="translate(0.000000,36864.000000) scale(7.200000,-7.200000)"
fill="#000000" stroke="none">
<path d="M470 5104 c-266 -57 -470 -311 -470 -584 0 -324 276 -600 600 -600
276 0 528 205 585 475 43 204 -16 397 -164 546 -149 149 -347 207 -551 163z"/>
<path d="M4591 5104 c-107 -29 -144 -59 -433 -347 -222 -221 -275 -278 -261
-283 175 -61 264 -114 368 -219 87 -87 127 -149 182 -277 20 -46 37 -85 39
-86 1 -2 126 120 277 271 232 233 280 286 306 339 63 127 64 253 3 381 -83
176 -293 272 -481 221z"/>
<path d="M1454 4798 c33 -118 40 -163 40 -278 0 -115 -7 -160 -40 -277 l-6
-23 873 0 874 0 300 300 300 300 -1174 0 -1173 0 6 -22z"/>
<path d="M3164 3764 l-457 -458 61 -17 c205 -58 366 -190 457 -374 24 -49 49
-112 56 -140 6 -27 15 -54 20 -59 4 -5 213 197 464 449 l457 458 -7 71 c-27
283 -238 494 -522 521 l-71 7 -458 -458z"/>
<path d="M4518 3493 l-298 -298 0 -874 0 -873 23 6 c120 34 160 40 282 39 100
0 148 -5 209 -22 44 -11 81 -20 83 -18 2 2 2 529 1 1170 l-3 1167 -297 -297z"/>
<path d="M300 2560 l0 -1112 23 6 c117 33 162 40 277 40 115 0 160 -7 278 -40
l22 -6 0 411 0 411 315 0 c297 0 318 1 355 20 70 36 80 70 80 280 0 210 -10
244 -80 280 -37 19 -58 20 -355 20 l-315 0 0 401 0 401 -22 -6 c-118 -33 -163
-40 -278 -40 -115 0 -160 7 -277 40 l-23 6 0 -1112z"/>
<path d="M2477 3006 c-31 -7 -61 -17 -66 -22 -17 -19 -201 -600 -201 -634 0
-71 70 -140 140 -140 19 0 178 48 352 106 l318 106 0 93 c0 164 -33 263 -122
360 -59 65 -163 121 -253 135 -74 12 -95 12 -168 -4z"/>
<path d="M2348 1629 c-23 -12 -46 -35 -58 -59 -19 -37 -20 -58 -20 -355 l0
-315 -411 0 -411 0 6 -22 c33 -118 40 -163 40 -278 0 -115 -7 -160 -40 -278
l-6 -22 1112 0 1112 0 -6 23 c-33 117 -40 162 -40 277 0 115 7 160 40 278 l6
22 -401 0 -401 0 0 315 c0 297 -1 318 -20 355 -36 71 -69 80 -282 80 -162 -1
-187 -3 -220 -21z"/>
<path d="M470 1184 c-266 -57 -470 -311 -470 -584 0 -324 276 -600 600 -600
276 0 528 205 585 475 43 204 -16 397 -164 546 -149 149 -347 207 -551 163z"/>
<path d="M4390 1184 c-266 -57 -470 -311 -470 -584 0 -324 276 -600 600 -600
276 0 528 205 585 475 43 204 -16 397 -164 546 -149 149 -347 207 -551 163z"/>
</g>
</svg>
