<?xml version="1.0" standalone="no"?>
<!DOCTYPE svg PUBLIC "-//W3C//DTD SVG 20010904//EN"
 "http://www.w3.org/TR/2001/REC-SVG-20010904/DTD/svg10.dtd">
<svg version="1.0" xmlns="http://www.w3.org/2000/svg"
 width="36864.000000pt" height="36864.000000pt" viewBox="0 0 36864.000000 36864.000000"
 preserveAspectRatio="xMidYMid meet">
<metadata>
Created by potrace 1.16, written by Peter Selinger 2001-2019
</metadata>
<g transform="translate(0.000000,36864.000000) scale(7.200000,-7.200000)"
fill="#000000" stroke="none">
<path d="M2299 4786 c-158 -28 -366 -100 -489 -169 -348 -195 -616 -514 -739
-883 -151 -451 -100 -879 177 -1492 233 -513 692 -1203 1213 -1821 46 -55 89
-100 94 -100 6 0 48 45 95 101 583 691 1089 1477 1297 2018 187 486 221 812
123 1188 -73 281 -203 505 -420 723 -215 216 -468 353 -781 424 -100 23 -462
30 -570 11z m442 -1018 c181 -67 302 -192 365 -378 26 -77 26 -253 0 -330 -64
-190 -196 -322 -386 -386 -40 -14 -84 -19 -165 -19 -168 0 -291 50 -405 165
-116 117 -165 237 -165 405 0 81 5 125 19 165 60 179 182 309 349 372 81 31
125 37 227 33 68 -2 113 -10 161 -27z"/>
</g>
</svg>
