<?xml version="1.0" standalone="no"?>
<!DOCTYPE svg PUBLIC "-//W3C//DTD SVG 20010904//EN"
 "http://www.w3.org/TR/2001/REC-SVG-20010904/DTD/svg10.dtd">
<svg version="1.0" xmlns="http://www.w3.org/2000/svg"
 width="36864.000000pt" height="36864.000000pt" viewBox="0 0 36864.000000 36864.000000"
 preserveAspectRatio="xMidYMid meet">
<metadata>
Created by potrace 1.15, written by Peter Selinger 2001-2017
</metadata>
<g transform="translate(0.000000,36864.000000) scale(7.200000,-7.200000)"
fill="#000000" stroke="none">
<path d="M2388 4795 c-1 -1 -23 -5 -48 -8 -25 -4 -56 -9 -70 -11 -14 -3 -38
-8 -55 -12 -30 -5 -116 -30 -145 -41 -8 -3 -19 -7 -25 -8 -54 -14 -238 -102
-302 -146 -23 -16 -44 -29 -48 -29 -10 0 -147 -111 -204 -166 l-55 -52 357
-357 356 -358 42 42 c23 22 46 41 50 41 4 0 14 6 21 13 18 17 122 63 178 77
64 17 199 14 267 -5 180 -52 326 -189 388 -364 65 -184 14 -412 -125 -560
l-32 -34 404 -404 c221 -221 406 -403 409 -403 7 0 146 289 162 335 5 16 13
35 17 40 3 6 15 33 25 60 9 28 23 64 30 80 14 32 63 179 70 211 2 10 13 53 24
94 112 435 41 884 -197 1250 -78 120 -112 162 -227 275 -153 150 -291 243
-485 326 -74 32 -247 85 -305 95 -16 2 -54 8 -83 13 -49 8 -386 13 -394 6z"/>
<path d="M475 4447 c-72 -72 -134 -138 -138 -145 -6 -10 89 -112 338 -361 191
-191 351 -354 355 -361 5 -8 7 -18 4 -22 -15 -24 -37 -212 -37 -318 -2 -250
87 -614 219 -898 13 -29 24 -54 24 -56 0 -11 105 -225 160 -326 73 -134 218
-380 293 -495 56 -86 243 -361 258 -379 5 -6 24 -31 42 -56 85 -116 124 -167
144 -190 13 -14 23 -28 23 -32 0 -3 6 -13 13 -20 7 -7 48 -58 92 -113 43 -55
81 -102 84 -105 3 -3 24 -27 46 -55 22 -27 48 -59 58 -70 10 -11 28 -33 40
-48 12 -16 33 -40 47 -53 l25 -24 40 44 c99 110 329 396 466 581 41 55 77 101
82 103 4 2 7 10 7 17 0 7 4 15 8 17 4 2 39 48 77 103 38 55 70 102 72 104 2 2
172 -165 378 -371 l375 -376 140 139 c77 77 140 143 140 147 0 4 -91 98 -203
209 -111 111 -936 937 -1834 1835 -897 898 -1649 1650 -1670 1670 l-38 37
-130 -132z"/>
</g>
</svg>
