<?xml version="1.0" standalone="no"?>
<!DOCTYPE svg PUBLIC "-//W3C//DTD SVG 20010904//EN"
 "http://www.w3.org/TR/2001/REC-SVG-20010904/DTD/svg10.dtd">
<svg version="1.0" xmlns="http://www.w3.org/2000/svg"
 width="36864.000000pt" height="36864.000000pt" viewBox="0 0 36864.000000 36864.000000"
 preserveAspectRatio="xMidYMid meet">
<metadata>
Created by potrace 1.16, written by Peter Selinger 2001-2019
</metadata>
<g transform="translate(0.000000,36864.000000) scale(7.200000,-7.200000)"
fill="#000000" stroke="none">
<path d="M0 4695 l0 -425 2560 0 2560 0 0 425 0 425 -2560 0 -2560 0 0 -425z
m3840 -110 l0 -105 -105 0 -105 0 0 105 0 105 105 0 105 0 0 -105z m430 0 l0
-105 -110 0 -110 0 0 105 0 105 110 0 110 0 0 -105z m420 0 l0 -105 -105 0
-105 0 0 105 0 105 105 0 105 0 0 -105z"/>
<path d="M0 2025 l0 -2025 2560 0 2560 0 0 2025 0 2025 -2560 0 -2560 0 0
-2025z m4588 1228 l2 -373 -2030 0 -2030 0 0 368 c0 203 3 372 7 375 3 4 916
6 2027 5 l2021 -3 3 -372z m-2988 -1813 l0 -1010 -535 0 -535 0 0 1010 0 1010
535 0 535 0 0 -1010z m1490 0 l0 -1010 -530 0 -530 0 0 1010 0 1010 530 0 530
0 0 -1010z m1500 0 l0 -1010 -535 0 -535 0 0 1010 0 1010 535 0 535 0 0 -1010z"/>
</g>
</svg>
