<?xml version="1.0" standalone="no"?>
<!DOCTYPE svg PUBLIC "-//W3C//DTD SVG 20010904//EN"
 "http://www.w3.org/TR/2001/REC-SVG-20010904/DTD/svg10.dtd">
<svg version="1.0" xmlns="http://www.w3.org/2000/svg"
 width="36864.000000pt" height="36864.000000pt" viewBox="0 0 36864.000000 36864.000000"
 preserveAspectRatio="xMidYMid meet">
<metadata>
Created by potrace 1.16, written by Peter Selinger 2001-2019
</metadata>
<g transform="translate(0.000000,36864.000000) scale(7.200000,-7.200000)"
fill="#000000" stroke="none">
<path d="M2895 4849 c-43 -12 -112 -74 -138 -123 -20 -39 -22 -58 -28 -376 -9
-424 -27 -583 -89 -764 -56 -166 -129 -276 -279 -419 -219 -208 -400 -323
-542 -346 -77 -13 -109 -39 -109 -91 0 -73 67 -97 190 -69 76 17 240 105 352
189 130 98 320 278 388 369 99 131 171 300 210 490 32 159 41 280 47 615 6
317 6 320 29 343 19 19 33 23 88 23 167 0 291 -62 348 -173 42 -83 42 -87 48
-704 l5 -601 24 -26 c33 -35 83 -35 116 -1 l25 24 0 586 c0 501 -2 596 -16
658 -47 212 -179 344 -391 391 -77 17 -228 20 -278 5z"/>
<path d="M3120 3317 c-39 -20 -52 -54 -45 -125 15 -169 111 -291 273 -348 l67
-24 641 0 c730 0 713 2 791 -76 65 -66 98 -142 98 -230 0 -62 -3 -75 -28 -107
-35 -46 -89 -74 -180 -93 -103 -22 -127 -40 -127 -98 0 -46 38 -76 108 -86 79
-11 142 -47 181 -104 77 -112 62 -248 -38 -339 -56 -50 -120 -67 -258 -67
-108 0 -115 -1 -138 -25 -25 -24 -32 -65 -19 -100 9 -22 57 -45 96 -45 44 -1
115 -34 156 -73 56 -53 76 -102 76 -182 0 -80 -20 -129 -76 -182 -66 -63 -104
-73 -291 -73 l-169 0 -29 -29 c-31 -31 -36 -59 -17 -94 17 -32 39 -46 72 -47
77 -1 157 -72 171 -151 9 -50 -22 -118 -71 -155 l-37 -29 -749 -3 c-958 -3
-921 -8 -1243 157 -93 48 -206 99 -250 113 -105 35 -283 71 -312 63 -38 -9
-63 -41 -63 -80 0 -55 32 -80 121 -95 142 -24 242 -60 449 -164 216 -108 294
-134 460 -156 57 -7 335 -10 850 -8 l765 3 50 25 c68 33 141 108 173 178 34
74 37 183 5 253 l-20 45 67 18 c232 59 367 301 300 536 -5 20 -26 62 -45 94
-19 32 -35 60 -35 61 0 2 24 16 53 33 237 134 287 455 103 658 l-42 47 48 45
c93 87 127 216 94 356 -45 189 -185 334 -356 366 -32 6 -300 10 -680 10 -698
0 -685 -1 -755 67 -45 43 -62 81 -70 154 -8 68 -21 94 -52 108 -30 14 -42 14
-73 -2z"/>
<path d="M54 2980 c-12 -5 -29 -19 -38 -32 -14 -20 -16 -145 -16 -1331 l0
-1308 25 -24 24 -25 719 0 719 0 24 26 24 26 3 1286 c2 903 0 1298 -8 1324
-20 71 12 68 -762 67 -381 0 -703 -4 -714 -9z m1312 -1357 l1 -1193 -598 0
-599 0 0 1195 0 1195 598 -2 597 -3 1 -1192z"/>
<path d="M680 998 c-50 -34 -72 -71 -78 -127 -6 -63 9 -101 58 -144 87 -79
223 -44 266 68 20 55 14 103 -20 155 -46 70 -158 94 -226 48z"/>
</g>
</svg>
