<?xml version="1.0" standalone="no"?>
<!DOCTYPE svg PUBLIC "-//W3C//DTD SVG 20010904//EN"
 "http://www.w3.org/TR/2001/REC-SVG-20010904/DTD/svg10.dtd">
<svg version="1.0" xmlns="http://www.w3.org/2000/svg"
 width="36864.000000pt" height="36864.000000pt" viewBox="0 0 36864.000000 36864.000000"
 preserveAspectRatio="xMidYMid meet">
<metadata>
Created by potrace 1.15, written by Peter Selinger 2001-2017
</metadata>
<g transform="translate(0.000000,36864.000000) scale(7.200000,-7.200000)"
fill="#000000" stroke="none">
<path d="M2940 4858 c-84 -15 -147 -61 -185 -137 -21 -42 -24 -76 -30 -431 -2
-157 -7 -305 -10 -330 -43 -388 -126 -574 -347 -786 -203 -193 -402 -327 -524
-350 -39 -7 -279 -12 -300 -6 -5 1 -9 22 -9 45 2 55 -12 94 -39 110 -16 9
-191 12 -729 13 l-709 0 -29 -27 -29 -27 0 -1304 c0 -1028 3 -1308 13 -1328 7
-14 26 -29 43 -35 20 -6 289 -10 728 -10 l696 1 27 27 c27 26 28 29 29 164 1
76 2 141 3 144 1 3 67 5 149 4 217 -3 357 -42 580 -163 59 -32 123 -64 142
-72 19 -7 40 -16 45 -20 6 -3 30 -12 55 -19 25 -7 56 -17 70 -21 14 -5 41 -11
60 -14 19 -3 46 -8 60 -11 70 -14 255 -18 905 -18 642 0 715 1 759 17 136 47
231 168 240 305 4 57 -15 151 -35 177 -6 7 9 15 44 23 159 40 275 150 322 307
16 53 14 177 -4 234 -6 20 -27 62 -46 94 -19 32 -35 60 -35 61 0 2 24 16 53
33 165 93 249 290 203 473 -19 74 -50 130 -105 190 l-39 43 27 20 c49 39 100
113 116 171 15 53 14 163 -2 222 -30 118 -111 234 -204 294 -99 63 -87 62
-623 65 -544 4 -553 5 -620 70 -71 69 -69 44 -71 689 -1 319 -5 609 -9 644
-26 218 -144 372 -336 437 -58 19 -102 27 -230 38 -14 1 -45 -1 -70 -6z
m-2089 -3851 c108 -57 122 -218 25 -292 -69 -52 -174 -44 -234 18 -84 87 -57
228 52 278 55 25 104 24 157 -4z"/>
</g>
</svg>
