<?xml version="1.0" standalone="no"?>
<!DOCTYPE svg PUBLIC "-//W3C//DTD SVG 20010904//EN"
 "http://www.w3.org/TR/2001/REC-SVG-20010904/DTD/svg10.dtd">
<svg version="1.0" xmlns="http://www.w3.org/2000/svg"
 width="36864.000000pt" height="36864.000000pt" viewBox="0 0 36864.000000 36864.000000"
 preserveAspectRatio="xMidYMid meet">
<metadata>
Created by potrace 1.15, written by Peter Selinger 2001-2017
</metadata>
<g transform="translate(0.000000,36864.000000) scale(7.200000,-7.200000)"
fill="#000000" stroke="none">
<path d="M2598 4794 c-2 -2 -24 -6 -49 -8 -65 -8 -237 -52 -291 -75 -27 -11
-48 -18 -48 -16 0 15 -328 -167 -350 -194 -3 -3 -22 -19 -43 -34 -20 -16 -50
-40 -65 -53 -14 -14 -31 -29 -37 -32 -5 -4 -21 -19 -34 -34 l-24 -27 355 -357
356 -356 32 31 c149 142 376 192 565 124 181 -65 314 -210 362 -396 25 -100
19 -212 -21 -332 -16 -50 -69 -134 -116 -184 l-32 -34 404 -404 c221 -221 406
-403 409 -403 14 0 199 410 244 540 1 3 4 12 8 20 10 27 49 150 52 168 2 9 4
18 5 20 3 3 4 5 19 77 7 33 17 74 22 90 24 88 34 399 16 530 -35 256 -152 530
-322 751 -55 72 -240 249 -321 306 -82 59 -273 161 -354 191 -73 26 -222 68
-265 73 -22 3 -53 9 -70 13 -30 8 -400 13 -407 5z"/>
<path d="M688 4439 c-76 -76 -138 -143 -138 -147 1 -4 159 -166 354 -360 l352
-353 -13 -62 c-30 -142 -34 -389 -9 -517 1 -8 7 -37 11 -65 5 -27 10 -52 10
-55 1 -3 5 -18 9 -35 51 -193 122 -400 186 -540 159 -346 298 -592 543 -960
138 -206 354 -501 501 -682 8 -10 47 -58 87 -108 40 -49 76 -92 79 -95 3 -3
18 -21 34 -40 16 -19 42 -50 58 -69 l30 -34 47 51 c75 83 288 345 371 457 25
33 48 62 51 65 6 5 201 274 257 354 l33 48 375 -376 376 -376 142 143 142 142
-175 177 c-250 251 -3574 3578 -3575 3578 -1 -1 -63 -64 -138 -141z"/>
</g>
</svg>
