<?xml version="1.0" standalone="no"?>
<!DOCTYPE svg PUBLIC "-//W3C//DTD SVG 20010904//EN"
 "http://www.w3.org/TR/2001/REC-SVG-20010904/DTD/svg10.dtd">
<svg version="1.0" xmlns="http://www.w3.org/2000/svg"
 width="36864.000000pt" height="36864.000000pt" viewBox="0 0 36864.000000 36864.000000"
 preserveAspectRatio="xMidYMid meet">
<metadata>
Created by potrace 1.15, written by Peter Selinger 2001-2017
</metadata>
<g transform="translate(0.000000,36864.000000) scale(7.200000,-7.200000)"
fill="#000000" stroke="none">
<path d="M2380 5113 c-31 -4 -139 -22 -225 -38 -97 -18 -270 -79 -393 -137
-74 -35 -190 -100 -217 -121 -5 -4 -48 -35 -95 -70 -336 -246 -592 -633 -694
-1052 -14 -59 -31 -156 -42 -245 -7 -53 -7 -326 0 -356 2 -12 7 -45 11 -75 4
-30 11 -74 17 -99 5 -25 11 -54 14 -64 60 -294 271 -791 505 -1186 50 -85 97
-164 103 -175 42 -72 217 -336 327 -495 105 -152 467 -623 534 -696 5 -7 26
-31 45 -55 67 -84 191 -219 210 -229 32 -17 97 -22 133 -11 43 15 73 45 216
216 595 714 1060 1418 1306 1975 20 47 46 105 57 130 27 62 32 73 66 170 30
82 89 274 98 315 2 11 6 31 9 45 3 14 7 35 10 48 2 13 6 31 9 40 3 9 8 41 11
71 4 30 9 63 11 75 3 12 5 91 5 176 1 286 -56 536 -181 795 -204 424 -548 746
-982 921 -143 57 -281 95 -403 110 -27 4 -54 9 -59 12 -10 6 -355 10 -406 5z
m365 -932 c354 -80 623 -334 714 -672 27 -99 33 -148 33 -249 -1 -98 -5 -124
-33 -233 -83 -327 -349 -586 -686 -669 -121 -29 -302 -29 -428 1 -349 84 -619
361 -696 714 -20 91 -26 238 -14 323 52 349 306 649 643 759 127 41 346 53
467 26z"/>
</g>
</svg>
