<?xml version="1.0" standalone="no"?>
<!DOCTYPE svg PUBLIC "-//W3C//DTD SVG 20010904//EN"
 "http://www.w3.org/TR/2001/REC-SVG-20010904/DTD/svg10.dtd">
<svg version="1.0" xmlns="http://www.w3.org/2000/svg"
 width="36864.000000pt" height="36864.000000pt" viewBox="0 0 36864.000000 36864.000000"
 preserveAspectRatio="xMidYMid meet">
<metadata>
Created by potrace 1.15, written by Peter Selinger 2001-2017
</metadata>
<g transform="translate(0.000000,36864.000000) scale(7.200000,-7.200000)"
fill="#000000" stroke="none">
<path d="M2930 4858 c-95 -24 -171 -94 -189 -176 -5 -26 -12 -189 -15 -362 -3
-173 -8 -333 -10 -355 -21 -177 -42 -279 -76 -380 -54 -160 -132 -277 -273
-411 -203 -193 -402 -327 -518 -349 -67 -12 -74 -13 -86 -14 -25 -2 -53 -45
-53 -81 0 -106 143 -110 343 -9 156 79 412 290 552 454 147 173 241 415 271
695 4 36 8 79 10 95 3 17 7 165 10 330 2 165 7 315 10 333 7 45 41 65 112 63
169 -3 289 -66 346 -181 48 -94 48 -105 50 -742 l1 -556 24 -26 c43 -46 118
-29 138 31 10 32 10 1088 -1 1175 -20 173 -123 334 -255 403 -97 49 -308 84
-391 63z"/>
<path d="M3101 3304 c-22 -19 -26 -31 -27 -81 -2 -179 103 -321 286 -384 65
-22 70 -22 720 -23 l655 -2 48 -24 c83 -41 149 -142 162 -246 18 -129 -56
-204 -228 -234 -52 -9 -72 -18 -87 -37 -42 -54 -12 -128 56 -138 83 -14 101
-18 128 -32 40 -21 94 -80 113 -123 8 -19 16 -62 18 -96 5 -75 -23 -142 -83
-196 -57 -51 -121 -68 -259 -68 -108 0 -115 -1 -138 -25 -25 -24 -32 -65 -19
-100 9 -22 57 -45 96 -45 43 0 128 -40 162 -76 50 -53 70 -103 70 -179 0 -108
-49 -185 -148 -231 -47 -22 -63 -24 -217 -24 -151 0 -169 -2 -192 -20 -58 -46
-32 -148 38 -150 100 -2 187 -90 180 -184 -5 -51 -49 -113 -99 -139 -38 -20
-57 -20 -745 -20 -642 1 -796 4 -871 18 -129 24 -188 45 -345 125 -197 100
-269 131 -380 159 -175 44 -226 47 -259 16 -18 -17 -26 -34 -26 -57 0 -61 35
-88 132 -102 98 -15 223 -53 308 -95 30 -15 109 -54 175 -88 126 -64 214 -98
299 -114 28 -5 61 -11 74 -14 13 -2 51 -7 85 -11 82 -9 1457 -12 1525 -3 154
21 290 166 298 319 2 54 -18 152 -37 176 -6 7 8 14 42 22 208 48 355 243 336
445 -8 85 -21 123 -62 191 -19 32 -35 60 -35 61 0 2 24 16 53 33 142 80 228
245 214 406 -10 102 -45 182 -119 261 l-37 41 27 18 c41 27 94 102 113 159 24
71 19 201 -11 279 -55 145 -164 257 -295 301 -19 6 -274 11 -686 12 -711 3
-717 3 -779 58 -56 49 -74 88 -85 182 -7 54 -23 82 -54 94 -38 14 -61 10 -90
-15z"/>
<path d="M29 2959 l-29 -27 0 -1304 c0 -1028 3 -1308 13 -1328 7 -14 26 -30
43 -35 20 -6 288 -10 728 -10 l696 0 27 28 28 27 1 1298 c0 802 -3 1308 -9
1326 -18 54 -12 54 -770 53 l-698 0 -30 -28z m1336 -1336 c0 -1055 -2 -1193
-15 -1194 -20 -1 -1140 -1 -1162 0 -17 1 -18 65 -18 1194 l0 1192 598 0 597 0
0 -1192z"/>
<path d="M755 1024 c-5 -1 -22 -5 -37 -8 -14 -3 -40 -17 -57 -31 -88 -75 -80
-211 16 -274 61 -40 151 -32 207 17 26 23 56 91 56 127 0 44 -33 109 -67 133
-29 20 -97 41 -118 36z"/>
</g>
</svg>
