<?xml version="1.0" standalone="no"?>
<!DOCTYPE svg PUBLIC "-//W3C//DTD SVG 20010904//EN"
 "http://www.w3.org/TR/2001/REC-SVG-20010904/DTD/svg10.dtd">
<svg version="1.0" xmlns="http://www.w3.org/2000/svg"
 width="36864.000000pt" height="36864.000000pt" viewBox="0 0 36864.000000 36864.000000"
 preserveAspectRatio="xMidYMid meet">
<metadata>
Created by potrace 1.15, written by Peter Selinger 2001-2017
</metadata>
<g transform="translate(0.000000,36864.000000) scale(7.200000,-7.200000)"
fill="#000000" stroke="none">
<path d="M0 4695 c0 -398 1 -425 18 -426 9 0 1160 -1 2557 -1 l2540 -1 3 426
2 427 -2560 0 -2560 0 0 -425z m3838 -108 l3 -107 -106 0 c-77 0 -105 3 -106
13 -5 52 -3 175 2 187 6 12 28 15 106 15 l98 0 3 -108z m413 104 c13 -1 16
-17 15 -103 l-1 -103 -106 -3 -106 -3 0 103 c1 74 4 104 13 108 11 4 128 5
185 1z m439 -3 c4 -5 5 -150 1 -195 -1 -10 -29 -13 -106 -13 l-105 0 0 104 c0
62 4 106 10 108 19 6 195 3 200 -4z"/>
<path d="M17 4052 c-16 -3 -17 -140 -17 -2028 l0 -2024 2560 0 2560 0 0 2028
0 2027 -2543 0 c-1399 0 -2551 -1 -2560 -3z m4568 -797 l0 -370 -2025 0 -2025
0 -1 365 c-1 209 3 368 8 371 5 3 917 5 2026 5 l2017 -1 0 -370z m-2987 -1815
l2 -1015 -502 2 c-277 1 -517 2 -534 2 l-30 1 -1 1008 c0 554 4 1009 8 1012 4
3 243 5 531 5 l523 -1 3 -1014z m1492 1011 c4 -1 5 -1924 1 -2006 -1 -20 -8
-20 -526 -19 -289 0 -528 4 -532 8 -9 8 -11 1987 -2 2006 6 13 74 15 531 14
287 -1 525 -2 528 -3z m1486 0 c7 -1 10 -303 10 -1011 l0 -1010 -20 -1 c-12 0
-250 -1 -531 -1 l-510 -1 -3 1014 -2 1014 522 -1 c288 -1 528 -2 534 -3z"/>
</g>
</svg>
