<?xml version="1.0" standalone="no"?>
<!DOCTYPE svg PUBLIC "-//W3C//DTD SVG 20010904//EN"
 "http://www.w3.org/TR/2001/REC-SVG-20010904/DTD/svg10.dtd">
<svg version="1.0" xmlns="http://www.w3.org/2000/svg"
 width="36864.000000pt" height="36864.000000pt" viewBox="0 0 36864.000000 36864.000000"
 preserveAspectRatio="xMidYMid meet">
<metadata>
Created by potrace 1.15, written by Peter Selinger 2001-2017
</metadata>
<g transform="translate(0.000000,36864.000000) scale(7.200000,-7.200000)"
fill="#000000" stroke="none">
<path d="M470 5106 c-112 -25 -247 -105 -318 -187 -95 -110 -143 -236 -147
-384 -4 -169 46 -303 161 -425 111 -117 246 -179 409 -185 177 -8 320 48 445
174 86 87 132 165 160 276 25 97 21 231 -9 325 -58 182 -210 334 -391 391 -79
25 -232 32 -310 15z"/>
<path d="M4578 5101 c-31 -10 -77 -30 -102 -45 -25 -15 -170 -150 -321 -302
-214 -213 -272 -276 -258 -280 10 -3 26 -10 35 -15 10 -5 22 -9 28 -9 39 0
199 -94 273 -160 94 -84 206 -255 230 -350 16 -62 15 -64 299 222 334 336 357
372 353 549 -2 72 -7 94 -37 159 -52 112 -137 189 -253 228 -66 22 -182 23
-247 3z"/>
<path d="M1454 4798 c25 -86 44 -209 44 -278 0 -70 -20 -199 -44 -277 l-6 -23
873 0 874 0 300 300 300 300 -1174 0 -1173 0 6 -22z"/>
<path d="M3621 4213 c-8 -3 -217 -209 -465 -457 l-450 -451 49 -13 c238 -63
415 -221 504 -450 11 -28 23 -67 26 -85 4 -17 10 -36 15 -41 4 -4 213 197 464
448 l456 456 -5 72 c-6 79 -39 184 -79 252 -60 103 -195 210 -310 245 -65 20
-182 34 -205 24z"/>
<path d="M4518 3493 l-298 -298 0 -873 c0 -479 4 -872 8 -872 5 0 31 7 58 15
124 38 310 40 443 6 46 -11 86 -20 88 -18 2 2 2 529 1 1170 l-3 1167 -297
-297z"/>
<path d="M300 2560 c0 -610 4 -1110 8 -1110 5 0 31 7 58 15 122 37 322 40 446
6 43 -12 80 -21 83 -21 3 0 5 185 5 410 l0 410 318 0 c349 1 354 2 404 65 22
28 23 38 26 217 3 170 1 192 -17 233 -16 36 -29 50 -63 65 -40 18 -67 20 -355
20 l-313 0 0 400 c0 220 -3 400 -7 400 -5 0 -42 -10 -83 -21 -86 -24 -258 -33
-335 -18 -77 15 -87 17 -125 28 -19 6 -38 11 -42 11 -5 0 -8 -499 -8 -1110z"/>
<path d="M2472 3005 c-29 -7 -56 -15 -59 -19 -16 -16 -202 -595 -203 -631 0
-76 67 -145 141 -145 20 0 178 47 350 105 173 58 316 105 318 105 2 0 1 57 -2
128 -5 132 -16 176 -65 257 -97 160 -293 242 -480 200z"/>
<path d="M2353 1632 c-17 -9 -42 -30 -55 -47 -23 -29 -23 -31 -26 -357 l-3
-328 -410 0 -411 0 7 -28 c49 -176 54 -340 16 -482 -12 -41 -21 -78 -21 -82 0
-5 500 -8 1110 -8 611 0 1110 3 1110 8 0 4 -10 41 -21 82 -15 51 -23 110 -24
186 -3 108 0 129 42 302 l5 22 -400 0 -401 0 -3 328 c-3 367 -3 364 -79 403
-34 17 -59 19 -221 19 -153 -1 -188 -4 -215 -18z"/>
<path d="M472 1185 c-175 -39 -334 -166 -409 -326 -49 -104 -64 -174 -59 -287
20 -433 474 -698 865 -506 94 46 212 161 259 251 97 185 91 412 -14 590 -71
120 -202 223 -334 264 -85 26 -226 33 -308 14z"/>
<path d="M4390 1185 c-260 -59 -454 -289 -466 -554 -8 -178 49 -326 175 -451
119 -118 233 -168 398 -176 165 -7 305 45 428 159 117 108 180 240 191 401 19
269 -157 525 -416 607 -85 27 -225 33 -310 14z"/>
</g>
</svg>
