<?xml version="1.0" standalone="no"?>
<!DOCTYPE svg PUBLIC "-//W3C//DTD SVG 20010904//EN"
 "http://www.w3.org/TR/2001/REC-SVG-20010904/DTD/svg10.dtd">
<svg version="1.0" xmlns="http://www.w3.org/2000/svg"
 width="36864.000000pt" height="36864.000000pt" viewBox="0 0 36864.000000 36864.000000"
 preserveAspectRatio="xMidYMid meet">
<metadata>
Created by potrace 1.15, written by Peter Selinger 2001-2017
</metadata>
<g transform="translate(0.000000,36864.000000) scale(7.200000,-7.200000)"
fill="#000000" stroke="none">
<path d="M4895 5101 c-23 -10 -65 -47 -100 -87 -147 -170 -351 -361 -540 -505
-111 -84 -398 -264 -430 -270 -5 0 -21 -9 -35 -18 -104 -70 -537 -235 -725
-277 -11 -2 -56 -12 -100 -22 l-80 -18 0 -1024 0 -1024 35 -8 c19 -4 49 -10
65 -13 56 -11 250 -66 355 -102 549 -187 1095 -557 1457 -989 74 -87 124 -111
201 -98 42 8 99 65 112 112 6 25 10 736 10 2130 0 2241 2 2129 -47 2180 -44
47 -120 61 -178 33z"/>
<path d="M2490 3849 c-25 -4 -422 -8 -883 -8 -927 -1 -881 2 -933 -67 -27 -35
-29 -44 -32 -145 l-4 -108 -267 -3 -268 -3 -37 -29 c-67 -50 -65 -36 -65 -606
0 -573 -2 -555 67 -608 l35 -27 266 -3 c146 -2 267 -4 268 -5 1 -2 3 -46 4
-99 2 -110 15 -146 66 -185 28 -22 48 -27 113 -31 l78 -4 327 -871 c199 -530
338 -887 356 -914 81 -118 256 -163 390 -101 46 21 99 69 286 254 270 270 278
281 278 419 l-1 90 -282 564 -283 563 278 -4 c153 -3 285 -7 293 -9 13 -4 15
110 18 972 2 777 0 976 -10 975 -7 0 -33 -3 -58 -7z"/>
</g>
</svg>
