<?xml version="1.0" standalone="no"?>
<!DOCTYPE svg PUBLIC "-//W3C//DTD SVG 20010904//EN"
 "http://www.w3.org/TR/2001/REC-SVG-20010904/DTD/svg10.dtd">
<svg version="1.0" xmlns="http://www.w3.org/2000/svg"
 width="36864.000000pt" height="36864.000000pt" viewBox="0 0 36864.000000 36864.000000"
 preserveAspectRatio="xMidYMid meet">
<metadata>
Created by potrace 1.16, written by Peter Selinger 2001-2019
</metadata>
<g transform="translate(0.000000,36864.000000) scale(7.200000,-7.200000)"
fill="#000000" stroke="none">
<path d="M4905 5106 c-27 -10 -59 -36 -100 -83 -94 -108 -312 -323 -409 -403
-407 -336 -918 -587 -1426 -698 l-85 -18 0 -1024 0 -1023 103 -23 c500 -112
1008 -362 1406 -692 119 -99 291 -267 374 -365 36 -42 81 -89 100 -103 75 -58
184 -32 229 55 l23 44 0 2107 0 2107 -23 44 c-38 72 -116 102 -192 75z"/>
<path d="M2495 3850 c-33 -4 -435 -8 -893 -9 -921 -1 -876 2 -928 -67 -27 -35
-29 -44 -32 -146 l-4 -108 -254 0 c-286 0 -302 -3 -350 -66 l-29 -37 -3 -524
c-3 -584 -5 -567 66 -621 l35 -27 269 -3 268 -3 0 -95 c0 -111 14 -151 68
-192 30 -23 47 -28 113 -31 l77 -3 327 -871 c199 -530 338 -887 356 -914 57
-83 149 -128 259 -128 129 0 156 18 420 283 267 267 275 279 275 417 l0 90
-283 563 -282 562 227 -1 c126 0 258 -3 296 -8 l67 -7 0 978 c0 538 -1 977 -2
977 -2 -1 -30 -5 -63 -9z"/>
</g>
</svg>
