<?xml version="1.0" standalone="no"?>
<!DOCTYPE svg PUBLIC "-//W3C//DTD SVG 20010904//EN"
 "http://www.w3.org/TR/2001/REC-SVG-20010904/DTD/svg10.dtd">
<svg version="1.0" xmlns="http://www.w3.org/2000/svg"
 width="36864.000000pt" height="36864.000000pt" viewBox="0 0 36864.000000 36864.000000"
 preserveAspectRatio="xMidYMid meet">
<metadata>
Created by potrace 1.15, written by Peter Selinger 2001-2017
</metadata>
<g transform="translate(0.000000,36864.000000) scale(7.200000,-7.200000)"
fill="#000000" stroke="none">
<path d="M2463 3846 c-64 -21 -111 -54 -153 -107 -135 -171 -65 -423 139 -500
115 -43 265 -8 346 83 143 158 97 412 -91 504 -67 33 -175 42 -241 20z"/>
<path d="M2460 2863 c-85 -30 -152 -90 -191 -171 -34 -69 -33 -197 1 -267 32
-64 92 -124 155 -155 72 -34 198 -34 270 0 64 31 124 91 155 155 34 69 35 197
2 267 -29 61 -95 128 -157 157 -65 30 -172 37 -235 14z"/>
<path d="M2477 1890 c-50 -13 -139 -72 -169 -113 -47 -63 -63 -116 -62 -202 1
-96 26 -157 90 -221 67 -65 124 -88 224 -88 70 -1 94 4 135 24 63 31 123 91
155 155 35 71 35 197 0 270 -30 62 -94 125 -156 154 -54 26 -158 35 -217 21z"/>
</g>
</svg>
