<?xml version="1.0" standalone="no"?>
<!DOCTYPE svg PUBLIC "-//W3C//DTD SVG 20010904//EN"
 "http://www.w3.org/TR/2001/REC-SVG-20010904/DTD/svg10.dtd">
<svg version="1.0" xmlns="http://www.w3.org/2000/svg"
 width="36864.000000pt" height="36864.000000pt" viewBox="0 0 36864.000000 36864.000000"
 preserveAspectRatio="xMidYMid meet">
<metadata>
Created by potrace 1.15, written by Peter Selinger 2001-2017
</metadata>
<g transform="translate(0.000000,36864.000000) scale(7.200000,-7.200000)"
fill="#000000" stroke="none">
<path d="M1449 3610 c-219 -146 -381 -261 -392 -277 -16 -26 -17 -89 -15
-1021 l3 -994 33 -29 c20 -18 43 -29 61 -29 20 0 122 63 364 225 185 124 341
225 347 225 9 0 77 -41 105 -63 6 -4 137 -93 293 -197 203 -137 290 -190 311
-190 20 0 84 37 212 122 101 68 186 126 189 129 3 3 10 8 15 10 6 2 72 46 147
97 76 50 142 92 148 92 6 0 162 -101 347 -225 241 -161 344 -225 364 -225 18
0 42 12 61 29 l33 29 0 1004 c0 990 0 1004 -20 1024 -11 12 -186 132 -389 268
-260 174 -376 246 -396 246 -19 0 -126 -66 -363 -225 -185 -124 -341 -225
-347 -225 -6 0 -162 101 -346 225 -237 159 -344 225 -364 225 -20 0 -137 -73
-401 -250z m999 -763 c2 -290 0 -367 -10 -367 -7 0 -32 11 -55 24 -41 24 -63
20 -63 -10 0 -6 -7 -17 -15 -24 -35 -29 -13 -49 106 -98 5 -2 15 12 23 30 13
30 14 -12 15 -394 1 -236 -2 -428 -6 -427 -5 0 -116 73 -248 163 l-239 162 0
410 c1 296 4 408 12 407 6 -2 19 11 29 27 9 17 20 30 24 30 4 0 9 7 12 14 4
10 -7 23 -31 37 -20 13 -39 26 -42 30 -4 6 -5 598 -1 661 1 13 65 -26 244
-146 l242 -163 3 -366z m717 293 c0 -220 -1 -400 -3 -400 -1 0 -11 5 -21 12
-17 10 -23 7 -47 -21 -15 -18 -34 -39 -41 -46 -20 -21 -16 -31 25 -65 l37 -31
22 26 c12 13 23 22 25 17 3 -6 2 -687 -1 -718 -1 -9 -188 -142 -216 -153 -5
-2 -12 -7 -15 -10 -7 -9 -250 -171 -256 -171 -2 0 -3 172 -2 382 3 332 5 383
18 384 39 3 40 4 34 32 -3 15 -5 37 -5 50 1 17 -5 22 -24 22 l-25 0 2 382 3
382 240 162 c132 90 242 163 245 163 3 1 5 -179 5 -399z m281 352 c11 -6 78
-52 149 -100 72 -49 159 -108 195 -132 36 -24 67 -46 69 -47 2 -2 5 -370 5
-818 1 -654 -2 -814 -12 -810 -11 4 -190 124 -399 267 l-72 50 0 463 c0 456 1
474 29 472 3 0 15 5 27 11 20 11 20 14 9 59 -12 43 -15 48 -39 45 l-26 -3 -1
296 0 296 24 -18 c13 -10 32 -24 42 -31z m-1706 -776 l0 -813 -178 -123 c-97
-68 -205 -143 -239 -167 -37 -26 -63 -39 -64 -31 -4 60 -3 1588 1 1605 3 15
72 69 215 167 116 80 219 153 230 161 10 8 23 15 27 15 4 0 8 -366 8 -814z"/>
<path d="M2103 2672 l-42 -37 49 -55 49 -55 39 41 c35 38 38 43 23 56 -9 7
-29 30 -46 50 l-30 36 -42 -36z"/>
<path d="M2884 2523 l-51 -35 18 -36 c11 -20 23 -40 28 -45 11 -11 54 11 98
50 l33 28 -34 38 c-19 20 -36 37 -38 36 -1 0 -26 -16 -54 -36z"/>
<path d="M3547 2992 l-36 -37 35 -34 35 -34 -35 -36 -35 -36 39 -39 39 -39 34
35 35 36 34 -35 34 -34 37 34 c20 18 37 37 37 42 0 4 -14 21 -31 37 l-31 30
24 26 c12 15 26 28 31 30 15 7 6 28 -28 61 l-36 34 -34 -33 c-37 -35 -43 -35
-86 12 -9 10 -18 18 -21 18 -2 0 -20 -17 -41 -38z"/>
<path d="M1595 2874 c-33 -19 -62 -37 -64 -40 -3 -2 13 -22 34 -44 37 -38 40
-39 62 -25 12 8 29 15 36 15 32 0 41 28 26 77 -8 26 -19 48 -25 50 -5 2 -37
-13 -69 -33z"/>
<path d="M1438 2708 c-21 -39 -48 -111 -43 -119 3 -4 25 -14 49 -22 l44 -15
25 58 c13 32 22 62 18 66 -7 11 -68 54 -75 54 -3 0 -11 -10 -18 -22z"/>
</g>
</svg>
