<?xml version="1.0" standalone="no"?>
<!DOCTYPE svg PUBLIC "-//W3C//DTD SVG 20010904//EN"
 "http://www.w3.org/TR/2001/REC-SVG-20010904/DTD/svg10.dtd">
<svg version="1.0" xmlns="http://www.w3.org/2000/svg"
 width="36864.000000pt" height="36864.000000pt" viewBox="0 0 36864.000000 36864.000000"
 preserveAspectRatio="xMidYMid meet">
<metadata>
Created by potrace 1.16, written by Peter Selinger 2001-2019
</metadata>
<g transform="translate(0.000000,36864.000000) scale(7.200000,-7.200000)"
fill="#000000" stroke="none">
<path d="M446 3985 c-51 -18 -104 -70 -116 -115 -6 -22 -10 -507 -10 -1318 0
-1055 2 -1288 14 -1315 17 -43 76 -93 123 -106 53 -15 4153 -15 4206 0 51 14
114 72 127 118 8 24 10 445 8 1331 l-3 1295 -25 37 c-14 20 -43 47 -65 60
l-40 23 -2090 2 c-1760 2 -2096 0 -2129 -12z m4201 -151 c2 -6 -65 -54 -149
-106 -84 -52 -310 -193 -503 -313 -192 -120 -594 -370 -892 -556 l-543 -338
-172 108 c-209 130 -841 523 -1453 904 -247 154 -454 283 -459 288 -4 4 -5 12
-2 18 10 16 4168 11 4173 -5z m-3429 -643 c405 -253 737 -465 737 -470 0 -13
-1476 -1183 -1483 -1176 -4 3 -6 2034 -3 2093 1 6 3 12 6 12 3 0 337 -207 743
-459z m3433 422 c0 -16 1 -488 2 -1051 1 -722 -1 -1021 -9 -1018 -19 7 -1489
1167 -1488 1174 1 8 1475 921 1487 922 4 0 7 -12 8 -27z m-2324 -1118 c119
-74 224 -135 233 -135 9 0 115 61 235 136 192 120 221 134 239 124 12 -6 379
-294 816 -639 747 -589 795 -629 798 -660 2 -20 -2 -37 -10 -42 -17 -11 -4139
-11 -4156 0 -8 5 -12 22 -10 42 3 31 44 66 648 542 953 751 974 767 983 767 4
0 105 -61 224 -135z"/>
</g>
</svg>
