<?xml version="1.0" standalone="no"?>
<!DOCTYPE svg PUBLIC "-//W3C//DTD SVG 20010904//EN"
 "http://www.w3.org/TR/2001/REC-SVG-20010904/DTD/svg10.dtd">
<svg version="1.0" xmlns="http://www.w3.org/2000/svg"
 width="36864.000000pt" height="36864.000000pt" viewBox="0 0 36864.000000 36864.000000"
 preserveAspectRatio="xMidYMid meet">
<metadata>
Created by potrace 1.15, written by Peter Selinger 2001-2017
</metadata>
<g transform="translate(0.000000,36864.000000) scale(7.200000,-7.200000)"
fill="#000000" stroke="none">
<path d="M460 3992 c-29 -5 -78 -37 -100 -66 -39 -52 -39 -43 -39 -1371 0
-1198 1 -1292 17 -1325 21 -43 41 -63 84 -87 31 -17 134 -18 2128 -19 l2095
-2 50 24 c31 15 59 38 75 61 l25 38 0 1315 0 1315 -25 37 c-14 20 -43 47 -65
60 l-40 23 -2090 0 c-1149 0 -2101 -1 -2115 -3z m4184 -152 c12 -12 0 -21 -89
-76 -73 -46 -656 -408 -705 -439 -19 -12 -53 -33 -75 -47 -205 -129 -316 -198
-319 -198 -2 0 -43 -26 -92 -57 -50 -32 -99 -63 -109 -70 -11 -6 -47 -29 -80
-49 -33 -21 -185 -115 -337 -211 l-278 -173 -402 251 c-222 138 -419 261 -438
273 -97 62 -130 83 -150 92 -8 4 -17 10 -20 14 -3 3 -27 19 -54 35 -26 17 -56
35 -65 40 -9 6 -38 24 -66 40 -27 16 -54 33 -60 38 -5 4 -41 27 -80 51 -552
342 -750 469 -750 479 0 8 24 14 70 17 143 10 4088 1 4099 -10z m-3879 -367
c127 -78 235 -146 240 -150 6 -4 51 -32 100 -62 50 -30 92 -58 93 -63 2 -4 8
-8 13 -8 5 0 134 -78 286 -173 153 -96 320 -200 371 -231 50 -32 92 -61 92
-65 0 -4 -88 -77 -196 -162 -108 -85 -201 -159 -208 -164 -6 -6 -54 -44 -106
-85 -126 -98 -119 -93 -138 -110 -10 -8 -35 -29 -57 -46 -126 -98 -711 -559
-715 -564 -8 -10 -70 -52 -71 -48 -1 2 -2 479 -3 1060 l-1 1057 35 -22 c19
-12 139 -85 265 -164z m3889 -875 c0 -887 -2 -1053 -14 -1050 -14 3 -113 82
-118 95 -2 4 -8 7 -12 7 -5 0 -78 55 -162 122 -169 133 -258 204 -273 216 -13
9 -195 153 -215 169 -12 10 -164 129 -355 279 -202 157 -346 274 -348 280 -2
5 80 59 203 133 74 45 1037 641 1075 666 28 18 64 40 80 49 25 14 140 84 140
86 0 0 0 -474 -1 -1052z m-2320 -108 c130 -81 208 -123 226 -123 18 0 73 28
147 74 65 41 126 79 135 84 10 6 52 31 93 58 42 26 79 47 84 47 4 0 26 -14 47
-31 22 -17 53 -41 69 -54 17 -13 100 -79 185 -146 85 -68 200 -158 255 -201
55 -43 107 -84 115 -90 8 -7 57 -46 110 -87 52 -41 102 -80 110 -88 13 -11
182 -145 270 -213 14 -11 64 -50 111 -87 48 -38 99 -78 115 -90 136 -105 248
-201 250 -213 1 -8 -2 -25 -7 -37 l-8 -23 -2080 0 c-1971 0 -2081 1 -2089 18
-8 14 -7 62 1 67 10 7 136 104 152 117 11 9 81 65 155 123 74 58 149 116 165
129 17 14 176 140 355 280 179 141 383 302 454 359 338 267 350 276 366 263 8
-7 104 -68 214 -136z"/>
</g>
</svg>
