<?xml version="1.0" standalone="no"?>
<!DOCTYPE svg PUBLIC "-//W3C//DTD SVG 20010904//EN"
 "http://www.w3.org/TR/2001/REC-SVG-20010904/DTD/svg10.dtd">
<svg version="1.0" xmlns="http://www.w3.org/2000/svg"
 width="36864.000000pt" height="36864.000000pt" viewBox="0 0 36864.000000 36864.000000"
 preserveAspectRatio="xMidYMid meet">
<metadata>
Created by potrace 1.16, written by Peter Selinger 2001-2019
</metadata>
<g transform="translate(0.000000,36864.000000) scale(7.200000,-7.200000)"
fill="#000000" stroke="none">
<path d="M1449 3610 c-218 -146 -381 -261 -392 -277 -16 -26 -17 -89 -15
-1021 l3 -994 33 -29 c19 -17 44 -29 60 -29 20 0 127 67 365 225 185 124 341
225 347 225 6 0 162 -101 346 -225 233 -156 343 -225 362 -225 19 0 131 69
365 225 185 124 341 225 347 225 6 0 162 -101 347 -225 238 -158 345 -225 365
-225 16 0 41 12 60 29 l33 29 3 994 c2 932 1 995 -15 1021 -26 40 -758 527
-793 527 -19 0 -129 -68 -363 -225 -185 -124 -341 -225 -347 -225 -6 0 -162
101 -347 225 -231 155 -345 225 -363 225 -19 0 -143 -77 -401 -250z m999 -764
c1 -251 -1 -366 -8 -366 -6 0 -28 9 -50 20 -22 11 -43 20 -47 20 -10 0 -53
-66 -53 -80 0 -10 84 -56 114 -62 14 -2 22 6 32 32 10 29 13 -33 13 -397 1
-238 -2 -433 -5 -433 -3 0 -113 73 -245 162 l-239 161 0 414 c0 228 4 412 9
409 4 -3 22 15 40 39 l32 44 -41 23 -40 23 0 343 0 343 243 -164 242 -165 3
-366z m712 293 c0 -360 -2 -400 -15 -389 -13 11 -21 8 -51 -21 -61 -58 -63
-68 -18 -107 l39 -33 22 26 23 26 0 -368 0 -369 -240 -162 c-132 -89 -242
-162 -245 -162 -3 0 -5 170 -5 379 l0 379 30 6 c29 5 31 8 25 43 -10 58 -13
63 -35 63 -20 0 -20 3 -18 382 l3 383 240 162 c132 89 241 162 243 163 1 0 2
-181 2 -401z m-1420 -423 l0 -813 -192 -134 c-106 -73 -214 -148 -240 -167
l-48 -34 0 819 0 819 233 162 c127 89 235 161 240 162 4 0 7 -366 7 -814z
m1891 654 l228 -155 1 -818 c0 -652 -3 -817 -12 -811 -7 4 -115 77 -241 162
l-227 154 2 466 3 466 33 10 c34 9 36 16 26 79 -6 36 -9 38 -35 32 l-29 -7 0
292 c0 207 3 291 11 288 6 -2 114 -73 240 -158z"/>
<path d="M2098 2667 l-38 -32 50 -55 50 -55 36 38 c19 21 34 42 32 46 -5 15
-78 91 -85 91 -5 0 -25 -15 -45 -33z"/>
<path d="M2900 2534 c-19 -14 -42 -29 -50 -34 -13 -7 -12 -15 8 -54 12 -25 26
-46 30 -46 11 0 97 57 110 73 8 9 1 23 -24 50 -19 20 -35 37 -37 37 -1 -1 -18
-12 -37 -26z"/>
<path d="M1610 2884 c-25 -14 -53 -33 -63 -42 -17 -15 -16 -18 19 -53 l37 -38
49 25 c47 24 49 26 42 57 -10 46 -22 77 -31 77 -5 0 -28 -12 -53 -26z"/>
<path d="M1419 2666 c-17 -36 -28 -69 -25 -74 6 -10 95 -37 99 -31 1 2 12 28
25 58 24 60 25 57 -41 96 l-27 16 -31 -65z"/>
<path d="M3547 2992 l-37 -38 35 -34 35 -34 -30 -31 c-16 -17 -30 -35 -30 -41
0 -6 16 -25 35 -44 l35 -34 35 34 35 34 33 -33 34 -32 36 32 c21 18 37 38 37
44 0 6 -14 24 -30 40 l-30 29 30 31 c16 17 30 35 30 41 0 6 -16 25 -35 44
l-35 34 -35 -34 -35 -34 -33 32 c-18 18 -35 32 -38 32 -3 0 -22 -17 -42 -38z"/>
</g>
</svg>
