<?xml version="1.0" standalone="no"?>
<!DOCTYPE svg PUBLIC "-//W3C//DTD SVG 20010904//EN"
 "http://www.w3.org/TR/2001/REC-SVG-20010904/DTD/svg10.dtd">
<svg version="1.0" xmlns="http://www.w3.org/2000/svg"
 width="36864.000000pt" height="36864.000000pt" viewBox="0 0 36864.000000 36864.000000"
 preserveAspectRatio="xMidYMid meet">
<metadata>
Created by potrace 1.16, written by Peter Selinger 2001-2019
</metadata>
<g transform="translate(0.000000,36864.000000) scale(7.200000,-7.200000)"
fill="#000000" stroke="none">
<path d="M2520 3719 c-1350 -771 -2468 -1414 -2483 -1429 -40 -38 -46 -94 -15
-140 23 -35 33 -38 770 -285 l747 -250 281 -770 c155 -423 288 -780 296 -793
38 -58 128 -66 176 -14 14 15 207 254 428 532 222 278 407 506 411 508 5 2
266 -82 581 -187 315 -105 583 -191 596 -191 36 0 80 27 97 59 8 17 170 961
366 2137 309 1854 350 2112 340 2145 -13 42 -48 69 -100 76 -33 4 -241 -112
-2491 -1398z m632 -1017 c-473 -637 -866 -1170 -875 -1183 -11 -17 -32 -158
-68 -462 -29 -240 -57 -431 -61 -423 -18 32 -379 1030 -376 1041 3 13 2231
2194 2236 2189 2 -1 -383 -524 -856 -1162z"/>
</g>
</svg>
