<?xml version="1.0" standalone="no"?>
<!DOCTYPE svg PUBLIC "-//W3C//DTD SVG 20010904//EN"
 "http://www.w3.org/TR/2001/REC-SVG-20010904/DTD/svg10.dtd">
<svg version="1.0" xmlns="http://www.w3.org/2000/svg"
 width="36864.000000pt" height="36864.000000pt" viewBox="0 0 36864.000000 36864.000000"
 preserveAspectRatio="xMidYMid meet">
<metadata>
Created by potrace 1.15, written by Peter Selinger 2001-2017
</metadata>
<g transform="translate(0.000000,36864.000000) scale(7.200000,-7.200000)"
fill="#000000" stroke="none">
<path d="M4935 5097 c-87 -49 -351 -199 -365 -208 -17 -10 -172 -99 -240 -137
-25 -14 -151 -86 -280 -160 -129 -74 -251 -143 -270 -154 -19 -11 -288 -165
-597 -342 -309 -176 -570 -326 -580 -331 -93 -52 -261 -148 -273 -156 -21 -13
-1029 -589 -1065 -608 -17 -9 -223 -126 -458 -261 -234 -135 -435 -249 -444
-255 -190 -105 -315 -180 -334 -201 -34 -37 -33 -114 3 -150 19 -20 189 -80
759 -270 404 -135 739 -251 745 -257 6 -7 25 -50 42 -97 16 -47 98 -272 182
-500 84 -228 169 -462 190 -520 151 -419 161 -441 198 -466 36 -25 100 -27
128 -3 9 7 59 67 112 134 53 66 102 127 109 135 7 8 71 89 143 180 73 91 139
174 148 185 9 11 30 38 47 60 16 22 39 51 51 65 12 14 70 86 129 160 59 74
110 136 115 138 4 2 265 -83 579 -188 315 -104 584 -190 599 -190 37 0 90 35
103 66 5 15 12 43 15 63 3 20 7 47 10 61 3 22 26 159 40 245 2 17 6 41 9 55 3
14 7 39 10 55 3 17 7 39 9 50 2 11 7 42 10 69 4 27 9 52 10 55 2 3 7 33 11 66
3 32 8 62 10 65 1 3 6 28 9 55 4 28 11 68 16 90 5 22 11 58 15 80 12 85 26
171 31 195 2 14 7 41 10 60 3 19 7 46 10 60 2 14 17 106 34 205 16 99 32 189
34 200 2 11 9 55 16 98 14 93 16 108 35 212 7 44 16 94 19 110 5 31 43 262 50
305 2 14 10 59 16 100 7 41 14 84 16 95 3 11 7 36 10 55 3 19 14 85 24 145 10
61 21 126 24 145 3 19 8 45 10 56 2 12 7 39 10 60 8 51 18 115 21 134 1 8 6
35 10 60 4 25 9 54 11 65 3 11 7 36 10 55 3 19 7 46 10 60 2 14 11 68 20 120
8 52 17 106 20 120 2 14 7 41 10 60 2 19 7 46 10 60 2 14 6 34 8 45 2 11 9 56
16 100 7 44 14 89 16 100 8 38 13 70 19 117 15 114 -81 181 -180 125z m-921
-1229 c-9 -14 -391 -531 -782 -1058 -35 -47 -70 -94 -78 -105 -8 -11 -123
-167 -257 -347 -133 -179 -307 -414 -387 -523 -80 -108 -153 -205 -162 -216
-9 -11 -32 -44 -51 -72 -35 -51 -38 -65 -52 -192 -3 -27 -7 -66 -10 -85 -2
-19 -7 -55 -10 -80 -3 -25 -7 -61 -10 -80 -4 -33 -11 -83 -20 -160 -2 -19 -7
-62 -10 -95 -4 -33 -8 -67 -10 -75 -2 -8 -7 -46 -11 -85 -3 -38 -7 -71 -9 -73
-3 -3 -26 56 -83 213 -23 61 -98 265 -168 455 -69 190 -129 355 -131 367 -5
21 88 117 482 498 50 48 242 236 428 419 186 182 387 378 445 434 218 211 827
808 856 840 32 34 42 40 30 20z"/>
</g>
</svg>
