<?xml version="1.0" standalone="no"?>
<!DOCTYPE svg PUBLIC "-//W3C//DTD SVG 20010904//EN"
 "http://www.w3.org/TR/2001/REC-SVG-20010904/DTD/svg10.dtd">
<svg version="1.0" xmlns="http://www.w3.org/2000/svg"
 width="36864.000000pt" height="36864.000000pt" viewBox="0 0 36864.000000 36864.000000"
 preserveAspectRatio="xMidYMid meet">
<metadata>
Created by potrace 1.16, written by Peter Selinger 2001-2019
</metadata>
<g transform="translate(0.000000,36864.000000) scale(7.200000,-7.200000)"
fill="#000000" stroke="none">
<path d="M2315 5109 c-498 -52 -950 -232 -1344 -537 -111 -85 -338 -312 -423
-423 -341 -441 -523 -941 -545 -1497 -23 -606 167 -1193 545 -1681 85 -111
312 -338 423 -423 416 -322 886 -502 1411 -540 248 -18 353 8 467 117 162 155
182 393 46 560 -51 62 -101 154 -120 219 -54 186 66 410 262 487 55 22 75 23
438 30 283 5 403 11 470 23 589 107 1020 527 1146 1116 30 137 32 439 5 595
-80 465 -276 846 -614 1189 -401 407 -937 668 -1546 751 -136 19 -498 27 -621
14z m-369 -573 c276 -73 409 -381 269 -621 -99 -168 -304 -252 -482 -197 -201
63 -335 268 -303 466 39 244 287 413 516 352z m1424 0 c208 -54 353 -268 320
-469 -40 -250 -296 -421 -527 -352 -142 42 -266 167 -303 303 -80 301 211 596
510 518z m-2198 -1169 c236 -116 317 -391 178 -606 -149 -231 -456 -264 -650
-71 -228 229 -138 591 175 703 37 13 72 17 137 14 76 -3 95 -8 160 -40z m3121
6 c222 -105 316 -359 210 -571 -36 -72 -123 -159 -194 -195 -189 -95 -421 -29
-539 154 -152 235 -41 533 235 632 80 28 202 20 288 -20z"/>
</g>
</svg>
