<?xml version="1.0" standalone="no"?>
<!DOCTYPE svg PUBLIC "-//W3C//DTD SVG 20010904//EN"
 "http://www.w3.org/TR/2001/REC-SVG-20010904/DTD/svg10.dtd">
<svg version="1.0" xmlns="http://www.w3.org/2000/svg"
 width="36864.000000pt" height="36864.000000pt" viewBox="0 0 36864.000000 36864.000000"
 preserveAspectRatio="xMidYMid meet">
<metadata>
Created by potrace 1.15, written by Peter Selinger 2001-2017
</metadata>
<g transform="translate(0.000000,36864.000000) scale(7.200000,-7.200000)"
fill="#000000" stroke="none">
<path d="M2378 5116 c-1 -2 -34 -6 -73 -10 -75 -6 -313 -44 -324 -51 -4 -2
-19 -6 -32 -8 -51 -10 -272 -77 -314 -97 -11 -5 -54 -23 -95 -41 -297 -126
-549 -298 -790 -539 -235 -235 -392 -462 -525 -759 -89 -199 -165 -448 -190
-626 -4 -27 -9 -59 -11 -70 -25 -129 -25 -566 0 -710 3 -16 8 -43 10 -60 89
-586 419 -1168 874 -1544 209 -172 382 -280 619 -385 158 -70 380 -139 543
-169 63 -12 145 -25 210 -33 19 -2 101 -6 182 -9 160 -5 211 4 300 52 192 104
279 365 183 552 -13 26 -32 55 -42 66 -21 23 -83 118 -101 155 -44 92 -52 167
-27 263 22 84 50 133 114 197 57 58 91 80 165 107 61 22 80 23 467 26 195 2
360 6 365 9 5 3 32 9 59 12 139 19 332 89 477 173 145 84 308 227 398 348 25
33 47 62 50 65 14 13 101 172 128 235 31 72 70 180 75 212 2 10 9 43 15 73 6
30 15 79 20 108 10 55 8 372 -2 432 -3 19 -9 55 -12 79 -3 25 -7 48 -9 52 -3
4 -7 24 -11 45 -3 22 -16 78 -30 125 -228 820 -955 1464 -1879 1665 -38 8 -86
17 -105 20 -19 3 -41 7 -48 9 -7 3 -45 7 -85 11 -40 3 -76 9 -81 11 -9 6 -462
14 -468 9z m-355 -609 c269 -133 333 -465 129 -672 -173 -176 -427 -179 -597
-9 -78 77 -117 158 -130 266 -11 100 41 241 119 320 95 98 194 139 323 134 72
-2 93 -8 156 -39z m1421 0 c192 -91 293 -305 234 -497 -43 -141 -158 -253
-301 -295 -254 -74 -528 136 -527 405 0 116 36 208 116 293 129 136 313 172
478 94z m-2340 -1111 c188 -55 323 -237 315 -425 -7 -169 -127 -328 -293 -388
-51 -18 -162 -24 -218 -11 -187 41 -336 223 -336 411 0 183 118 344 298 408
61 21 169 24 234 5z m3197 -28 c162 -80 260 -245 246 -411 -19 -215 -195 -385
-407 -392 -168 -6 -324 92 -402 252 -30 63 -32 76 -33 169 0 96 2 103 37 175
55 111 135 184 248 227 43 16 75 20 146 19 82 -2 97 -5 165 -39z"/>
</g>
</svg>
