<?xml version="1.0" standalone="no"?>
<!DOCTYPE svg PUBLIC "-//W3C//DTD SVG 20010904//EN"
 "http://www.w3.org/TR/2001/REC-SVG-20010904/DTD/svg10.dtd">
<svg version="1.0" xmlns="http://www.w3.org/2000/svg"
 width="36864.000000pt" height="36864.000000pt" viewBox="0 0 36864.000000 36864.000000"
 preserveAspectRatio="xMidYMid meet">
<metadata>
Created by potrace 1.15, written by Peter Selinger 2001-2017
</metadata>
<g transform="translate(0.000000,36864.000000) scale(7.200000,-7.200000)"
fill="#000000" stroke="none">
<path d="M2358 3844 c-277 -45 -510 -166 -713 -369 -153 -153 -258 -322 -320
-515 -32 -100 -32 -102 -49 -205 -14 -80 -15 -339 -1 -400 3 -16 11 -50 16
-75 26 -119 83 -262 150 -380 74 -129 251 -319 381 -408 169 -116 342 -184
553 -219 86 -15 347 -8 430 11 418 95 738 346 919 721 33 68 86 209 86 229 0
1 -75 2 -167 2 l-168 -1 -38 -80 c-116 -244 -309 -422 -560 -515 -240 -89
-551 -64 -777 62 -442 248 -628 761 -442 1224 78 194 240 377 432 486 196 112
458 150 682 98 147 -33 308 -119 421 -224 l49 -44 -256 -256 c-141 -141 -256
-257 -256 -259 0 -2 254 -4 565 -4 l565 0 0 563 c0 310 -2 564 -6 564 -3 0
-90 -85 -194 -190 l-188 -190 -49 47 c-164 156 -390 274 -615 319 -104 21
-346 25 -450 8z"/>
</g>
</svg>
