<?xml version="1.0" standalone="no"?>
<!DOCTYPE svg PUBLIC "-//W3C//DTD SVG 20010904//EN"
 "http://www.w3.org/TR/2001/REC-SVG-20010904/DTD/svg10.dtd">
<svg version="1.0" xmlns="http://www.w3.org/2000/svg"
 width="36864.000000pt" height="36864.000000pt" viewBox="0 0 36864.000000 36864.000000"
 preserveAspectRatio="xMidYMid meet">
<metadata>
Created by potrace 1.15, written by Peter Selinger 2001-2017
</metadata>
<g transform="translate(0.000000,36864.000000) scale(7.200000,-7.200000)"
fill="#000000" stroke="none">
<path d="M170 4950 c94 -93 174 -170 178 -170 4 0 45 38 91 84 l84 84 63 -63
c35 -35 64 -66 64 -69 0 -4 -36 -43 -80 -88 -44 -45 -80 -85 -80 -90 0 -14
121 -130 128 -124 4 4 73 73 155 154 l147 147 68 -68 67 -67 -135 -134 c-198
-195 -183 -165 -111 -236 34 -33 65 -60 69 -60 5 0 44 36 88 80 43 44 82 80
86 80 4 0 35 -27 68 -60 72 -70 73 -63 -33 -169 l-75 -74 64 -63 c36 -35 66
-64 68 -64 3 0 72 68 156 152 l151 152 67 -67 67 -67 -147 -147 c-81 -82 -150
-151 -154 -155 -4 -4 24 -36 61 -72 l66 -65 84 84 c46 47 87 85 90 85 10 0
125 -117 125 -127 0 -5 -38 -46 -84 -92 l-84 -83 64 -64 c35 -35 66 -64 68
-64 3 0 73 68 157 152 l151 151 66 -66 67 -67 -154 -154 -154 -154 66 -66 67
-65 86 84 c47 47 87 85 90 85 3 0 34 -28 69 -63 l64 -64 -85 -84 c-46 -46 -84
-87 -84 -92 0 -8 117 -127 126 -127 3 0 74 68 157 151 l151 150 65 -65 66 -66
-154 -154 -153 -154 66 -66 66 -66 86 85 c47 47 88 85 90 85 8 0 124 -120 124
-129 0 -4 -36 -43 -80 -87 -44 -43 -80 -82 -80 -87 0 -10 117 -127 126 -127 3
0 74 68 157 150 l151 151 66 -66 65 -65 -154 -154 -154 -155 68 -66 68 -67 84
84 c46 46 88 82 93 80 13 -3 120 -111 120 -121 0 -4 -36 -44 -80 -88 -44 -44
-80 -84 -80 -87 0 -9 119 -126 128 -126 4 0 74 68 157 150 l149 150 63 -62
c35 -34 63 -65 63 -68 0 -4 -68 -74 -151 -158 l-150 -151 66 -67 67 -66 88 87
89 88 65 -66 66 -67 -85 -84 c-47 -45 -85 -86 -85 -90 0 -10 119 -126 129
-126 3 0 74 67 156 150 l150 150 62 -62 c35 -34 63 -66 63 -70 0 -4 -68 -75
-150 -158 l-151 -152 67 -65 67 -64 87 86 88 87 66 -66 67 -66 -85 -86 c-47
-47 -86 -88 -86 -90 0 -8 120 -124 128 -124 4 0 75 67 157 150 l150 150 66
-66 67 -67 -154 -154 -154 -155 66 -65 66 -65 88 87 88 88 67 -67 67 -67 -74
-73 c-40 -39 -79 -80 -86 -89 -12 -14 9 -39 177 -206 105 -105 193 -191 196
-191 3 0 5 1150 5 2555 l0 2555 -2560 0 -2560 0 170 -170z m3966 -785 c13 -8
28 -24 33 -34 10 -17 12 -325 11 -1373 l0 -296 -26 -31 c-29 -35 -67 -40 -112
-17 -15 8 -388 376 -830 819 -769 769 -804 805 -809 846 -5 35 -2 46 18 67 12
13 36 28 51 32 15 4 391 6 835 5 701 -2 809 -5 829 -18z"/>
</g>
</svg>
