<?xml version="1.0" standalone="no"?>
<!DOCTYPE svg PUBLIC "-//W3C//DTD SVG 20010904//EN"
 "http://www.w3.org/TR/2001/REC-SVG-20010904/DTD/svg10.dtd">
<svg version="1.0" xmlns="http://www.w3.org/2000/svg"
 width="36864.000000pt" height="36864.000000pt" viewBox="0 0 36864.000000 36864.000000"
 preserveAspectRatio="xMidYMid meet">
<metadata>
Created by potrace 1.16, written by Peter Selinger 2001-2019
</metadata>
<g transform="translate(0.000000,36864.000000) scale(7.200000,-7.200000)"
fill="#000000" stroke="none">
<path d="M165 4950 c93 -93 174 -170 180 -170 6 0 46 36 90 80 44 44 84 80 90
80 12 0 125 -115 125 -127 0 -4 -38 -46 -85 -93 l-85 -85 65 -65 65 -65 155
155 155 155 67 -68 68 -67 -155 -155 -155 -155 60 -60 c33 -33 64 -60 70 -60
6 0 46 36 90 80 44 44 83 80 87 80 10 0 128 -117 128 -127 0 -5 -36 -44 -80
-88 -44 -44 -80 -84 -80 -90 0 -6 27 -37 60 -70 l60 -60 155 155 155 155 67
-68 68 -67 -155 -155 -155 -155 65 -65 65 -65 87 87 c98 98 84 97 170 10 27
-27 48 -52 48 -55 0 -4 -38 -45 -85 -92 l-85 -85 62 -62 c34 -35 66 -63 70
-63 4 0 75 69 158 152 l150 153 67 -68 68 -67 -155 -155 -155 -155 68 -67 68
-67 89 89 90 89 60 -59 c33 -33 60 -64 60 -70 0 -6 -36 -46 -80 -90 -44 -44
-80 -84 -80 -90 0 -13 112 -125 125 -125 5 0 77 68 160 150 l150 150 65 -65
65 -65 -155 -155 -155 -155 68 -67 67 -68 87 87 88 87 25 -23 c14 -12 43 -42
65 -64 l39 -42 -82 -83 c-45 -45 -82 -87 -82 -93 0 -12 112 -124 125 -124 5 0
77 68 160 150 l150 150 65 -65 65 -65 -155 -155 -155 -155 68 -67 67 -68 88
88 87 87 63 -62 c34 -34 62 -64 62 -67 0 -4 -36 -42 -80 -86 -44 -44 -80 -84
-80 -90 0 -13 112 -125 125 -125 5 0 77 68 160 150 l150 150 65 -65 65 -65
-155 -155 -154 -154 67 -68 67 -68 90 90 90 90 64 -66 64 -67 -84 -83 c-46
-46 -84 -89 -84 -95 0 -10 13 -23 98 -98 l33 -29 152 151 152 152 65 -65 65
-65 -155 -155 -155 -155 68 -67 67 -68 87 87 88 87 68 -65 67 -65 -85 -84
c-47 -45 -85 -87 -85 -92 0 -5 28 -37 63 -71 l62 -62 155 155 155 155 62 -62
c35 -34 63 -67 63 -73 0 -5 -68 -77 -150 -160 l-150 -150 65 -65 65 -65 88 88
89 88 67 -67 68 -66 -88 -89 -89 -89 198 -198 197 -197 0 2563 0 2562 -2562 0
-2563 0 170 -170z m3986 -799 l29 -29 0 -832 0 -832 -29 -29 c-22 -22 -39 -29
-68 -29 -37 0 -58 20 -860 823 -803 802 -823 823 -823 860 0 29 7 46 29 68
l29 29 832 0 832 0 29 -29z"/>
</g>
</svg>
