<?xml version="1.0" standalone="no"?>
<!DOCTYPE svg PUBLIC "-//W3C//DTD SVG 20010904//EN"
 "http://www.w3.org/TR/2001/REC-SVG-20010904/DTD/svg10.dtd">
<svg version="1.0" xmlns="http://www.w3.org/2000/svg"
 width="36864.000000pt" height="36864.000000pt" viewBox="0 0 36864.000000 36864.000000"
 preserveAspectRatio="xMidYMid meet">
<metadata>
Created by potrace 1.16, written by Peter Selinger 2001-2019
</metadata>
<g transform="translate(0.000000,36864.000000) scale(7.200000,-7.200000)"
fill="#000000" stroke="none">
<path d="M2430 3854 c-14 -2 -56 -9 -95 -15 -250 -40 -498 -171 -690 -363
-150 -151 -251 -311 -315 -502 -52 -152 -64 -234 -64 -414 0 -180 12 -262 64
-414 64 -191 165 -351 315 -501 189 -190 399 -303 667 -362 116 -25 370 -25
488 0 263 56 469 167 656 352 111 110 157 169 227 290 49 85 133 293 122 304
-4 3 -79 6 -168 6 l-161 0 -51 -102 c-29 -56 -70 -126 -92 -155 -265 -350
-703 -478 -1116 -327 -293 106 -523 366 -603 679 -29 115 -27 366 4 474 66
230 184 403 366 538 93 70 189 117 311 154 83 26 104 28 260 28 134 1 184 -3
235 -17 142 -39 295 -122 403 -219 l48 -43 -255 -255 c-141 -140 -256 -258
-256 -262 0 -5 254 -8 565 -8 l565 0 0 565 c0 311 -3 565 -8 565 -4 0 -92 -85
-196 -189 l-188 -188 -47 45 c-152 149 -364 261 -591 313 -81 19 -340 34 -400
23z"/>
</g>
</svg>
