<?xml version="1.0" standalone="no"?>
<!DOCTYPE svg PUBLIC "-//W3C//DTD SVG 20010904//EN"
 "http://www.w3.org/TR/2001/REC-SVG-20010904/DTD/svg10.dtd">
<svg version="1.0" xmlns="http://www.w3.org/2000/svg"
 width="36864.000000pt" height="36864.000000pt" viewBox="0 0 36864.000000 36864.000000"
 preserveAspectRatio="xMidYMid meet">
<metadata>
Created by potrace 1.16, written by Peter Selinger 2001-2019
</metadata>
<g transform="translate(0.000000,36864.000000) scale(7.200000,-7.200000)"
fill="#000000" stroke="none">
<path d="M3730 5101 c-339 -74 -601 -323 -691 -656 -18 -65 -22 -107 -22 -225
0 -156 17 -246 67 -355 l24 -52 -469 -291 -468 -290 -76 75 c-133 131 -295
221 -495 276 -109 29 -371 29 -480 0 -401 -110 -679 -387 -781 -779 -34 -129
-34 -359 0 -488 101 -390 387 -675 777 -777 122 -32 369 -33 484 -1 200 54
361 144 495 275 l76 75 468 -290 469 -291 -24 -52 c-50 -109 -67 -199 -67
-355 0 -118 4 -160 22 -225 91 -338 356 -586 701 -657 173 -36 384 -11 547 66
246 117 423 329 494 591 29 105 32 325 6 428 -82 328 -328 580 -652 668 -65
18 -107 22 -225 22 -118 0 -160 -4 -225 -22 -129 -35 -254 -101 -370 -196
l-31 -24 -459 285 c-253 157 -468 291 -479 297 -18 12 -17 16 12 107 69 215
69 424 0 639 -16 51 -26 97 -21 101 4 5 219 139 478 299 l469 290 31 -25 c116
-94 241 -160 370 -195 115 -32 335 -32 450 0 317 86 561 329 646 646 29 105
32 325 6 428 -82 329 -332 584 -652 668 -116 30 -294 35 -405 10z"/>
</g>
</svg>
