<?xml version="1.0" standalone="no"?>
<!DOCTYPE svg PUBLIC "-//W3C//DTD SVG 20010904//EN"
 "http://www.w3.org/TR/2001/REC-SVG-20010904/DTD/svg10.dtd">
<svg version="1.0" xmlns="http://www.w3.org/2000/svg"
 width="36864.000000pt" height="36864.000000pt" viewBox="0 0 36864.000000 36864.000000"
 preserveAspectRatio="xMidYMid meet">
<metadata>
Created by potrace 1.15, written by Peter Selinger 2001-2017
</metadata>
<g transform="translate(0.000000,36864.000000) scale(7.200000,-7.200000)"
fill="#000000" stroke="none">
<path d="M2368 4804 c-3 -2 -32 -7 -64 -9 -32 -3 -94 -12 -137 -21 -42 -8 -87
-17 -100 -19 -28 -6 -168 -48 -225 -69 -231 -84 -472 -262 -604 -448 -115
-161 -200 -389 -222 -598 -8 -79 -9 -296 -1 -355 19 -151 69 -329 114 -408 53
-93 84 -142 92 -145 5 -2 9 -8 9 -12 0 -5 10 -20 23 -33 12 -13 42 -45 66 -71
175 -189 465 -350 951 -528 145 -53 260 -104 380 -169 40 -22 123 -85 144
-110 69 -82 85 -206 40 -298 -88 -175 -363 -216 -814 -121 -68 15 -285 75
-325 90 -17 7 -37 13 -45 15 -56 11 -358 142 -453 196 -38 22 -72 37 -75 35
-4 -5 -21 -91 -36 -191 -4 -22 -11 -65 -16 -95 -5 -30 -12 -75 -15 -100 -4
-25 -12 -81 -20 -125 -7 -44 -16 -98 -19 -120 -4 -23 -8 -52 -11 -65 -3 -13
-7 -42 -10 -65 -3 -22 -10 -62 -15 -90 -35 -190 -36 -183 40 -221 322 -162
762 -283 1175 -321 161 -16 598 -8 695 12 13 2 42 7 65 10 177 26 443 119 590
209 401 244 605 636 607 1166 1 550 -233 906 -778 1179 -67 34 -124 61 -127
61 -4 0 -35 13 -69 29 -35 15 -133 54 -218 85 -446 164 -616 268 -656 403 -20
67 -4 153 38 204 19 23 88 64 123 74 17 4 39 11 50 14 51 14 349 4 435 -14 14
-3 36 -8 50 -10 28 -4 103 -20 140 -30 14 -3 35 -8 46 -11 87 -18 400 -134
537 -199 32 -15 59 -26 61 -24 2 2 7 22 10 44 4 22 9 51 11 65 2 14 9 54 14
90 6 36 13 76 16 90 3 14 8 43 11 65 2 22 7 51 9 65 2 14 6 39 9 55 3 17 14
84 25 150 24 147 31 189 37 239 3 22 7 43 9 46 2 3 6 31 10 61 7 63 18 53
-120 111 -124 53 -401 139 -520 163 -106 20 -260 45 -315 50 -36 4 -76 9 -90
12 -33 7 -526 14 -532 7z"/>
</g>
</svg>
