<?xml version="1.0" standalone="no"?>
<!DOCTYPE svg PUBLIC "-//W3C//DTD SVG 20010904//EN"
 "http://www.w3.org/TR/2001/REC-SVG-20010904/DTD/svg10.dtd">
<svg version="1.0" xmlns="http://www.w3.org/2000/svg"
 width="36864.000000pt" height="36864.000000pt" viewBox="0 0 36864.000000 36864.000000"
 preserveAspectRatio="xMidYMid meet">
<metadata>
Created by potrace 1.16, written by Peter Selinger 2001-2019
</metadata>
<g transform="translate(0.000000,36864.000000) scale(7.200000,-7.200000)"
fill="#000000" stroke="none">
<path d="M3746 5105 c-351 -73 -614 -318 -708 -660 -18 -66 -22 -106 -22 -230
1 -134 4 -159 27 -238 15 -49 36 -105 46 -126 l20 -37 -470 -291 -469 -291
-72 73 c-130 130 -304 227 -494 276 -125 33 -359 34 -484 2 -497 -125 -830
-567 -807 -1068 3 -66 15 -156 26 -200 94 -381 394 -680 781 -778 125 -32 359
-31 484 2 190 49 357 143 491 274 l75 74 470 -290 469 -290 -19 -38 c-11 -21
-32 -77 -47 -126 -23 -79 -26 -104 -27 -238 0 -124 4 -164 22 -230 88 -318
329 -560 647 -647 115 -31 335 -31 450 0 318 87 560 329 647 647 31 115 31
335 0 450 -86 312 -315 546 -627 641 -81 25 -105 28 -245 28 -140 0 -164 -3
-243 -27 -129 -40 -240 -100 -352 -191 l-31 -25 -459 285 c-253 156 -468 290
-479 297 -18 13 -18 15 6 87 43 128 52 188 52 340 0 152 -9 212 -52 340 -24
72 -24 74 -6 87 11 7 226 141 479 297 l459 285 31 -25 c115 -94 241 -160 370
-196 65 -17 107 -22 225 -22 118 0 160 5 225 22 313 86 547 316 641 629 24 78
27 105 27 238 1 125 -3 164 -21 230 -87 314 -317 549 -629 641 -111 32 -300
41 -407 19z m289 -300 c269 -57 475 -310 475 -585 0 -275 -206 -528 -475 -585
-204 -43 -397 16 -545 164 -87 88 -132 165 -160 277 -53 205 6 411 159 565
149 149 342 207 546 164z m-2556 -1506 c296 -47 536 -272 612 -570 18 -70 18
-268 0 -338 -71 -280 -282 -491 -562 -562 -70 -18 -268 -18 -338 0 -280 71
-491 282 -562 562 -18 70 -18 268 0 339 57 231 229 432 446 523 52 21 82 29
190 51 41 8 152 6 214 -5z m2556 -1814 c269 -57 475 -310 475 -585 0 -323
-277 -600 -600 -600 -275 0 -528 206 -585 475 -43 204 15 397 164 546 149 149
342 207 546 164z"/>
</g>
</svg>
