<?xml version="1.0" standalone="no"?>
<!DOCTYPE svg PUBLIC "-//W3C//DTD SVG 20010904//EN"
 "http://www.w3.org/TR/2001/REC-SVG-20010904/DTD/svg10.dtd">
<svg version="1.0" xmlns="http://www.w3.org/2000/svg"
 width="36864.000000pt" height="36864.000000pt" viewBox="0 0 36864.000000 36864.000000"
 preserveAspectRatio="xMidYMid meet">
<metadata>
Created by potrace 1.16, written by Peter Selinger 2001-2019
</metadata>
<g transform="translate(0.000000,36864.000000) scale(7.200000,-7.200000)"
fill="#000000" stroke="none">
<path d="M2462 5099 c-25 -12 -55 -39 -70 -62 l-27 -40 -3 -243 c-3 -268 2
-305 49 -358 86 -98 242 -78 298 38 21 43 22 55 19 298 -3 232 -5 256 -23 287
-54 91 -156 125 -243 80z"/>
<path d="M4192 4429 c-18 -3 -49 -18 -70 -32 -49 -32 -343 -340 -359 -375 -25
-56 -9 -147 35 -195 47 -52 139 -71 208 -42 39 16 358 337 387 388 33 60 19
147 -31 200 -47 50 -107 69 -170 56z"/>
<path d="M800 4399 c-32 -13 -78 -56 -96 -92 -24 -46 -20 -120 10 -171 29 -50
343 -355 384 -373 56 -25 147 -9 195 35 53 47 71 139 42 208 -16 40 -336 358
-388 387 -35 19 -107 22 -147 6z"/>
<path d="M2377 4169 c-621 -72 -1149 -498 -1350 -1089 -156 -458 -96 -975 160
-1377 407 -641 1179 -916 1893 -676 844 285 1298 1205 1013 2053 -242 716
-966 1177 -1716 1089z m478 -392 c408 -103 733 -392 879 -779 56 -150 70 -240
70 -438 0 -198 -14 -288 -70 -438 -125 -331 -396 -604 -726 -732 -222 -86
-535 -104 -758 -44 -403 109 -720 394 -864 776 -56 150 -70 240 -70 438 0 161
3 197 23 280 119 478 477 836 941 939 139 30 131 30 310 26 136 -2 183 -7 265
-28z"/>
<path d="M4456 2745 c-152 -54 -167 -265 -22 -334 43 -21 55 -22 298 -19 284
3 290 5 352 81 27 34 31 46 31 101 0 79 -32 133 -97 165 -41 20 -60 21 -284
21 -177 -1 -249 -4 -278 -15z"/>
<path d="M125 2715 c-50 -17 -112 -85 -121 -132 -15 -82 25 -166 98 -202 41
-20 60 -21 279 -21 132 0 250 5 272 11 83 23 145 116 134 200 -8 57 -48 113
-99 138 -41 20 -60 21 -284 21 -178 -1 -249 -4 -279 -15z"/>
<path d="M3880 1354 c-45 -20 -68 -41 -91 -86 -23 -44 -24 -106 -4 -154 16
-39 337 -358 388 -386 17 -10 51 -18 74 -18 145 0 232 149 159 274 -29 50
-343 355 -384 373 -37 17 -100 15 -142 -3z"/>
<path d="M1112 1335 c-38 -17 -357 -339 -384 -388 -10 -17 -18 -51 -18 -74 0
-145 149 -232 274 -159 50 29 342 329 369 378 30 57 16 149 -31 201 -47 52
-142 71 -210 42z"/>
<path d="M2492 769 c-26 -13 -55 -39 -70 -62 l-27 -40 -3 -243 c-3 -274 1
-306 55 -364 84 -93 237 -71 292 42 20 41 21 60 21 279 0 130 -5 251 -10 271
-21 75 -102 137 -180 138 -19 0 -54 -10 -78 -21z"/>
</g>
</svg>
