<?xml version="1.0" standalone="no"?>
<!DOCTYPE svg PUBLIC "-//W3C//DTD SVG 20010904//EN"
 "http://www.w3.org/TR/2001/REC-SVG-20010904/DTD/svg10.dtd">
<svg version="1.0" xmlns="http://www.w3.org/2000/svg"
 width="36864.000000pt" height="36864.000000pt" viewBox="0 0 36864.000000 36864.000000"
 preserveAspectRatio="xMidYMid meet">
<metadata>
Created by potrace 1.15, written by Peter Selinger 2001-2017
</metadata>
<g transform="translate(0.000000,36864.000000) scale(7.200000,-7.200000)"
fill="#000000" stroke="none">
<path d="M2305 4144 c-556 -98 -949 -564 -949 -1124 0 -108 6 -157 28 -251 93
-401 405 -725 804 -835 112 -31 176 -39 302 -39 148 1 280 21 371 59 77 31 74
32 115 -36 20 -35 51 -88 67 -118 17 -30 46 -78 64 -107 18 -29 33 -54 33 -57
0 -3 52 -93 115 -202 63 -108 115 -198 115 -200 0 -1 17 -31 38 -66 22 -35 58
-96 81 -136 l43 -73 36 22 c20 12 73 43 118 68 l81 46 -49 84 c-26 46 -48 88
-48 92 0 5 -4 9 -10 9 -5 0 -10 4 -10 9 0 5 -23 49 -51 98 -28 48 -60 103 -71
121 -10 18 -58 102 -107 185 -253 436 -254 437 -232 437 15 0 176 163 206 208
15 23 32 42 36 42 5 0 9 6 9 14 0 8 7 22 16 30 42 43 138 291 159 411 11 65
14 286 5 340 -17 99 -21 116 -46 195 -121 384 -450 680 -851 766 -103 22 -315
26 -418 8z m330 -269 c416 -70 727 -441 719 -860 -7 -435 -324 -787 -759 -844
-66 -9 -181 -7 -244 4 -23 4 -42 6 -43 6 -15 -7 -240 86 -246 101 -2 4 -9 8
-14 8 -17 0 -117 77 -169 129 -128 130 -223 320 -244 491 -9 70 -5 255 5 268
3 2 4 5 14 57 4 22 11 44 14 50 4 5 8 18 9 27 4 28 55 129 94 188 112 169 275
289 476 350 39 12 93 25 120 29 55 8 208 6 268 -4z"/>
</g>
</svg>
