<?xml version="1.0" standalone="no"?>
<!DOCTYPE svg PUBLIC "-//W3C//DTD SVG 20010904//EN"
 "http://www.w3.org/TR/2001/REC-SVG-20010904/DTD/svg10.dtd">
<svg version="1.0" xmlns="http://www.w3.org/2000/svg"
 width="36864.000000pt" height="36864.000000pt" viewBox="0 0 36864.000000 36864.000000"
 preserveAspectRatio="xMidYMid meet">
<metadata>
Created by potrace 1.16, written by Peter Selinger 2001-2019
</metadata>
<g transform="translate(0.000000,36864.000000) scale(7.200000,-7.200000)"
fill="#000000" stroke="none">
<path d="M3765 5108 c-242 -45 -446 -172 -585 -362 -42 -58 -125 -223 -134
-268 -32 -154 -35 -182 -32 -288 4 -123 27 -232 70 -325 l24 -52 -337 -209
c-185 -114 -396 -245 -469 -290 l-132 -82 -68 67 c-210 210 -461 311 -762 306
-150 -2 -257 -23 -384 -77 -330 -140 -566 -434 -631 -788 -14 -74 -13 -285 1
-360 41 -220 139 -406 295 -562 79 -80 207 -169 294 -207 28 -12 59 -26 70
-31 157 -71 448 -88 640 -37 169 45 344 146 470 271 l75 74 258 -159 c141 -87
264 -163 272 -169 8 -5 38 -23 65 -40 28 -17 70 -44 95 -60 25 -16 54 -34 65
-40 11 -6 32 -18 46 -28 15 -9 52 -32 83 -50 41 -25 54 -37 47 -46 -15 -18
-69 -184 -78 -241 -10 -61 -10 -255 -1 -310 63 -365 370 -671 733 -730 406
-66 789 132 967 501 32 66 44 99 68 189 6 22 13 96 16 165 3 98 0 143 -16 212
-61 275 -230 495 -475 618 -148 74 -229 93 -405 93 -118 0 -160 -4 -225 -21
-107 -29 -249 -100 -332 -167 l-67 -54 -36 21 c-89 54 -280 174 -327 204 -28
19 -56 34 -62 34 -6 0 -11 3 -11 8 0 4 -10 12 -23 18 -26 13 -478 293 -490
304 -5 4 1 36 13 71 75 228 77 476 4 687 -14 41 -22 78 -17 82 4 4 85 55 178
113 94 57 289 178 435 269 146 90 281 174 301 186 l37 22 38 -35 c22 -19 47
-37 57 -41 9 -3 17 -9 17 -14 0 -15 205 -111 285 -132 115 -31 336 -30 450 1
313 85 546 313 641 628 24 78 27 105 27 238 1 124 -3 164 -21 230 -44 160
-123 295 -238 410 -117 116 -253 195 -409 236 -91 23 -289 33 -370 17z m300
-311 c105 -28 181 -73 266 -157 153 -153 212 -359 159 -564 -29 -113 -73 -190
-160 -277 -268 -270 -707 -226 -920 93 -67 101 -91 180 -96 315 -4 106 18 201
69 298 41 78 163 200 244 243 134 71 293 89 438 49z m-2552 -1501 c140 -32
275 -106 376 -207 292 -294 293 -757 1 -1056 -132 -136 -307 -212 -500 -219
-165 -5 -310 35 -441 122 -150 99 -248 230 -304 404 -23 71 -28 104 -29 200
-1 152 11 219 61 329 94 206 289 367 510 420 77 19 256 22 326 7z m2545 -1817
c108 -27 186 -73 273 -159 242 -240 236 -620 -13 -855 -119 -113 -267 -168
-433 -160 -164 7 -278 58 -395 175 -87 87 -131 164 -161 277 -36 139 -16 294
54 428 41 78 163 200 244 243 129 68 290 87 431 51z"/>
</g>
</svg>
