<?xml version="1.0" standalone="no"?>
<!DOCTYPE svg PUBLIC "-//W3C//DTD SVG 20010904//EN"
 "http://www.w3.org/TR/2001/REC-SVG-20010904/DTD/svg10.dtd">
<svg version="1.0" xmlns="http://www.w3.org/2000/svg"
 width="36864.000000pt" height="36864.000000pt" viewBox="0 0 36864.000000 36864.000000"
 preserveAspectRatio="xMidYMid meet">
<metadata>
Created by potrace 1.15, written by Peter Selinger 2001-2017
</metadata>
<g transform="translate(0.000000,36864.000000) scale(7.200000,-7.200000)"
fill="#000000" stroke="none">
<path d="M2471 5105 c-46 -21 -89 -70 -102 -118 -12 -44 -10 -477 2 -521 24
-83 89 -131 180 -131 45 1 65 6 96 28 76 53 78 59 80 353 2 248 1 263 -19 300
-36 67 -76 92 -158 100 -28 3 -58 -2 -79 -11z"/>
<path d="M4190 4432 c-14 -2 -38 -13 -55 -25 -53 -36 -357 -351 -371 -384 -27
-63 -13 -142 35 -197 45 -51 138 -70 206 -42 42 18 368 345 390 392 19 41 19
105 0 151 -30 71 -119 117 -205 105z"/>
<path d="M795 4395 c-95 -45 -136 -155 -91 -245 23 -45 346 -363 391 -384 64
-31 159 -12 207 41 45 50 60 136 33 199 -18 43 -347 371 -392 390 -41 18 -109
17 -148 -1z"/>
<path d="M2375 4169 c-22 -4 -64 -10 -92 -14 -29 -3 -67 -11 -85 -16 -18 -6
-46 -13 -61 -15 -50 -9 -213 -72 -299 -115 -418 -210 -731 -597 -847 -1047
-11 -42 -22 -95 -25 -117 -4 -23 -9 -52 -12 -65 -10 -43 -13 -353 -3 -410 5
-30 11 -73 14 -95 18 -122 81 -309 150 -443 64 -122 78 -145 155 -247 175
-233 448 -440 714 -539 77 -29 230 -72 291 -81 22 -3 58 -9 80 -13 56 -8 348
-8 420 1 92 12 230 46 332 83 526 190 911 631 1039 1189 2 11 7 36 9 55 3 19
9 62 14 95 9 59 7 357 -3 405 -3 14 -8 43 -11 65 -23 162 -127 432 -216 562
-16 23 -29 44 -29 47 0 16 -140 183 -216 259 -196 194 -445 339 -704 408 -94
25 -107 28 -150 34 -19 3 -46 8 -60 11 -38 9 -360 12 -405 3z m395 -373 c24
-4 62 -12 85 -18 22 -6 48 -13 57 -15 25 -4 163 -60 217 -87 145 -74 323 -223
425 -355 90 -117 170 -276 210 -421 64 -226 60 -503 -10 -718 -132 -409 -466
-726 -875 -832 -69 -18 -105 -25 -179 -36 -38 -5 -250 -4 -290 1 -533 79 -936
437 -1067 950 -32 126 -41 381 -18 510 91 505 480 906 980 1010 144 30 293 34
465 11z"/>
<path d="M4466 2749 c-132 -36 -179 -200 -85 -299 55 -57 75 -61 337 -59 245
1 288 7 333 44 45 38 63 76 63 141 1 50 -4 67 -26 100 -54 77 -61 79 -343 80
-137 0 -263 -3 -279 -7z"/>
<path d="M113 2711 c-82 -44 -113 -95 -109 -177 4 -63 28 -106 80 -142 l39
-27 252 -1 c279 -1 305 3 360 56 87 84 60 237 -51 290 -40 20 -57 21 -292 19
-207 -2 -254 -5 -279 -18z"/>
<path d="M3885 1358 c-36 -13 -81 -53 -98 -88 -19 -37 -20 -113 -3 -154 17
-40 317 -343 380 -383 33 -21 48 -25 97 -21 69 5 118 35 150 92 27 48 28 119
3 168 -24 47 -349 366 -391 383 -41 17 -94 18 -138 3z"/>
<path d="M1113 1336 c-33 -15 -312 -290 -369 -363 -30 -39 -33 -49 -31 -106 2
-49 8 -72 27 -100 51 -74 153 -102 230 -63 19 10 113 97 207 193 178 181 193
202 193 281 0 58 -45 126 -105 158 -30 16 -116 16 -152 0z"/>
<path d="M2495 769 c-100 -53 -106 -76 -104 -375 1 -236 2 -246 25 -292 29
-58 73 -89 139 -97 79 -10 142 24 184 98 20 36 21 49 18 295 -3 280 -4 288
-64 343 -55 51 -133 62 -198 28z"/>
</g>
</svg>
