<?xml version="1.0" standalone="no"?>
<!DOCTYPE svg PUBLIC "-//W3C//DTD SVG 20010904//EN"
 "http://www.w3.org/TR/2001/REC-SVG-20010904/DTD/svg10.dtd">
<svg version="1.0" xmlns="http://www.w3.org/2000/svg"
 width="36864.000000pt" height="36864.000000pt" viewBox="0 0 36864.000000 36864.000000"
 preserveAspectRatio="xMidYMid meet">
<metadata>
Created by potrace 1.16, written by Peter Selinger 2001-2019
</metadata>
<g transform="translate(0.000000,36864.000000) scale(7.200000,-7.200000)"
fill="#000000" stroke="none">
<path d="M2300 4795 c-593 -72 -1014 -354 -1195 -800 -64 -158 -86 -274 -92
-486 -8 -278 25 -449 124 -641 135 -264 397 -477 793 -646 63 -27 207 -84 320
-127 342 -130 497 -218 566 -322 30 -46 36 -65 41 -128 5 -67 3 -80 -22 -130
-34 -70 -94 -117 -190 -148 -61 -19 -91 -22 -230 -22 -169 0 -233 9 -435 56
-257 61 -507 151 -733 264 -85 43 -129 61 -132 52 -2 -6 -34 -201 -70 -432
-37 -231 -73 -458 -81 -504 -8 -46 -14 -85 -14 -87 0 -8 184 -96 277 -133 384
-152 766 -227 1198 -238 328 -8 572 23 815 104 456 152 750 454 863 888 41
156 50 257 44 470 -4 159 -9 206 -31 290 -45 179 -103 299 -205 427 -182 229
-449 393 -946 581 -408 154 -541 225 -622 330 -99 129 -47 286 113 347 226 85
776 -19 1237 -232 48 -23 89 -39 92 -37 4 5 165 988 165 1012 0 31 -295 143
-544 207 -140 36 -385 77 -541 90 -160 13 -435 11 -565 -5z"/>
</g>
</svg>
