<?xml version="1.0" standalone="no"?>
<!DOCTYPE svg PUBLIC "-//W3C//DTD SVG 20010904//EN"
 "http://www.w3.org/TR/2001/REC-SVG-20010904/DTD/svg10.dtd">
<svg version="1.0" xmlns="http://www.w3.org/2000/svg"
 width="36864.000000pt" height="36864.000000pt" viewBox="0 0 36864.000000 36864.000000"
 preserveAspectRatio="xMidYMid meet">
<metadata>
Created by potrace 1.16, written by Peter Selinger 2001-2019
</metadata>
<g transform="translate(0.000000,36864.000000) scale(7.200000,-7.200000)"
fill="#000000" stroke="none">
<path d="M3730 5101 c-219 -47 -415 -173 -550 -355 -42 -58 -125 -222 -134
-268 -32 -154 -35 -182 -32 -288 4 -123 27 -232 70 -325 l23 -52 -86 -53 c-47
-29 -108 -68 -136 -85 -42 -27 -170 -106 -663 -410 l-54 -33 -66 67 c-159 161
-337 251 -587 300 -87 17 -299 7 -399 -18 -94 -24 -203 -67 -276 -109 -265
-152 -459 -427 -515 -732 -14 -74 -13 -285 1 -359 70 -363 305 -655 640 -792
128 -52 225 -72 375 -75 290 -6 541 94 755 300 l76 73 361 -224 c199 -124 371
-230 382 -236 11 -7 34 -22 52 -34 17 -13 34 -23 37 -23 2 0 27 -14 55 -31 35
-22 48 -35 41 -43 -14 -18 -68 -185 -77 -241 -10 -61 -10 -255 -1 -310 63
-365 370 -671 733 -730 423 -69 822 152 987 547 19 46 38 99 42 118 3 19 9 46
12 60 3 14 8 77 10 140 13 413 -265 783 -671 892 -115 31 -336 30 -450 -1
-118 -32 -268 -106 -330 -164 -11 -10 -31 -27 -45 -37 l-26 -18 -134 83 c-121
75 -245 151 -319 196 -14 9 -100 63 -191 119 -91 57 -198 123 -237 147 -40 25
-73 48 -73 51 0 4 11 41 25 82 39 118 53 222 50 355 -3 112 -6 139 -21 205 -3
14 -7 33 -9 42 -2 10 -14 45 -26 78 -13 36 -18 64 -13 69 7 7 872 544 941 584
6 4 17 1 25 -6 88 -84 249 -172 383 -208 114 -31 334 -31 450 0 301 81 544
312 634 604 30 97 36 147 36 282 -1 240 -86 444 -260 618 -117 118 -253 196
-410 238 -113 29 -293 34 -405 10z"/>
</g>
</svg>
