<?xml version="1.0" standalone="no"?>
<!DOCTYPE svg PUBLIC "-//W3C//DTD SVG 20010904//EN"
 "http://www.w3.org/TR/2001/REC-SVG-20010904/DTD/svg10.dtd">
<svg version="1.0" xmlns="http://www.w3.org/2000/svg"
 width="36864.000000pt" height="36864.000000pt" viewBox="0 0 36864.000000 36864.000000"
 preserveAspectRatio="xMidYMid meet">
<metadata>
Created by potrace 1.16, written by Peter Selinger 2001-2019
</metadata>
<g transform="translate(0.000000,36864.000000) scale(7.200000,-7.200000)"
fill="#000000" stroke="none">
<path d="M2335 4149 c-169 -25 -331 -87 -475 -184 -315 -211 -501 -555 -503
-930 0 -140 14 -235 54 -358 134 -412 486 -706 924 -774 165 -25 361 -6 530
53 38 13 73 20 77 16 3 -4 135 -230 293 -502 158 -272 289 -498 293 -502 8 -7
225 116 230 130 1 5 -128 234 -288 510 -159 275 -290 504 -289 509 0 4 29 32
64 60 153 127 292 350 344 555 43 167 50 300 26 461 -74 493 -460 877 -955
952 -104 16 -231 18 -325 4z m280 -273 c291 -44 540 -228 659 -488 86 -188
103 -358 55 -566 -68 -298 -313 -550 -608 -627 -408 -105 -820 80 -1001 450
-64 131 -80 195 -87 341 -12 249 67 460 237 634 125 128 268 209 431 244 136
29 191 31 314 12z"/>
</g>
</svg>
