<?xml version="1.0" standalone="no"?>
<!DOCTYPE svg PUBLIC "-//W3C//DTD SVG 20010904//EN"
 "http://www.w3.org/TR/2001/REC-SVG-20010904/DTD/svg10.dtd">
<svg version="1.0" xmlns="http://www.w3.org/2000/svg"
 width="36864.000000pt" height="36864.000000pt" viewBox="0 0 36864.000000 36864.000000"
 preserveAspectRatio="xMidYMid meet">
<metadata>
Created by potrace 1.16, written by Peter Selinger 2001-2019
</metadata>
<g transform="translate(0.000000,36864.000000) scale(7.200000,-7.200000)"
fill="#000000" stroke="none">
<path d="M2510 4789 c-30 -12 -2155 -2132 -2176 -2171 -17 -32 -18 -76 -4
-115 6 -16 476 -493 1078 -1096 1140 -1140 1094 -1098 1179 -1083 34 7 144
113 1111 1079 590 590 1080 1084 1088 1099 17 32 18 76 4 115 -15 38 -2125
2151 -2167 2169 -37 16 -77 17 -113 3z m995 -1814 c110 -104 254 -242 321
-305 l121 -116 -351 -333 -351 -333 -3 231 -2 231 -115 0 c-63 0 -315 0 -560
0 -245 0 -497 0 -560 0 l-115 0 0 -235 0 -235 -205 0 -205 0 0 400 c0 344 2
405 16 431 30 59 30 59 631 59 301 0 675 0 831 0 l282 0 0 227 0 227 32 -30
c18 -16 122 -114 233 -219z"/>
</g>
</svg>
