<?xml version="1.0" standalone="no"?>
<!DOCTYPE svg PUBLIC "-//W3C//DTD SVG 20010904//EN"
 "http://www.w3.org/TR/2001/REC-SVG-20010904/DTD/svg10.dtd">
<svg version="1.0" xmlns="http://www.w3.org/2000/svg"
 width="36864.000000pt" height="36864.000000pt" viewBox="0 0 36864.000000 36864.000000"
 preserveAspectRatio="xMidYMid meet">
<metadata>
Created by potrace 1.15, written by Peter Selinger 2001-2017
</metadata>
<g transform="translate(0.000000,36864.000000) scale(7.200000,-7.200000)"
fill="#000000" stroke="none">
<path d="M2458 5115 c-2 -2 -25 -6 -53 -10 -59 -7 -180 -48 -250 -83 -262
-131 -451 -399 -489 -697 -3 -22 -5 -304 -6 -627 l0 -586 -279 -171 -279 -171
-421 0 -421 0 0 -200 0 -200 477 0 477 0 100 61 c56 33 155 94 221 134 l120
73 3 -201 2 -201 -48 -50 c-143 -149 -254 -350 -308 -556 -9 -36 -18 -76 -20
-90 -2 -14 -7 -46 -12 -72 -12 -60 -7 -318 6 -384 30 -142 60 -236 108 -339
25 -54 100 -182 114 -195 3 -3 24 -31 48 -62 151 -199 418 -374 677 -443 205
-55 449 -55 665 -1 338 86 643 329 822 656 61 111 118 293 136 435 10 76 8
311 -3 360 -4 17 -8 39 -9 50 -15 107 -96 315 -167 433 -36 59 -133 184 -173
221 l-36 35 0 756 0 757 138 85 c75 47 200 124 278 172 l140 86 422 0 422 0 0
200 0 200 -478 0 -478 0 -189 -116 c-105 -63 -203 -124 -218 -135 -16 -12 -30
-19 -32 -17 -1 1 -6 34 -10 71 -12 126 -35 211 -87 317 -124 256 -371 446
-648 495 -37 7 -256 15 -262 10z m250 -419 c82 -28 141 -65 207 -130 111 -112
145 -216 145 -442 l0 -152 -77 -48 c-43 -27 -87 -54 -98 -60 -19 -10 -310
-189 -660 -406 l-160 -98 -3 457 c-2 426 -1 461 17 527 26 96 64 159 136 231
98 98 219 145 360 141 44 -1 104 -10 133 -20z m352 -1920 l0 -724 37 -28 c66
-50 166 -158 214 -231 96 -148 142 -301 143 -478 1 -136 -7 -195 -39 -291
-107 -319 -367 -547 -695 -608 -103 -19 -283 -13 -382 13 -317 83 -565 332
-650 650 -24 93 -31 275 -13 376 40 224 165 427 353 572 l32 25 0 418 0 418
128 78 c70 43 137 84 150 92 l22 14 -1 -603 0 -604 -71 -34 c-85 -40 -198
-147 -245 -231 -98 -173 -106 -386 -23 -557 107 -220 323 -349 565 -338 225 9
412 130 511 330 36 73 38 81 55 180 21 120 -10 278 -75 389 -58 99 -205 224
-293 251 l-23 6 0 729 0 728 131 81 c72 44 135 81 140 81 5 0 9 5 9 10 0 6 5
10 10 10 7 0 10 -248 10 -724z m-439 -1288 c44 -13 105 -67 120 -107 41 -106
-6 -224 -106 -265 -37 -16 -116 -15 -155 1 -44 18 -96 79 -110 126 -21 77 -3
142 55 200 54 54 119 69 196 45z"/>
</g>
</svg>
