<?xml version="1.0" standalone="no"?>
<!DOCTYPE svg PUBLIC "-//W3C//DTD SVG 20010904//EN"
 "http://www.w3.org/TR/2001/REC-SVG-20010904/DTD/svg10.dtd">
<svg version="1.0" xmlns="http://www.w3.org/2000/svg"
 width="36864.000000pt" height="36864.000000pt" viewBox="0 0 36864.000000 36864.000000"
 preserveAspectRatio="xMidYMid meet">
<metadata>
Created by potrace 1.16, written by Peter Selinger 2001-2019
</metadata>
<g transform="translate(0.000000,36864.000000) scale(7.200000,-7.200000)"
fill="#000000" stroke="none">
<path d="M2397 5105 c-338 -64 -614 -321 -709 -660 -22 -78 -22 -93 -26 -707
l-3 -627 -278 -170 -278 -171 -421 0 -422 0 0 -200 0 -200 478 0 477 0 220
135 220 134 3 -201 2 -202 -48 -50 c-166 -175 -285 -411 -334 -666 -19 -100
-16 -358 5 -459 26 -123 64 -235 109 -326 188 -376 510 -623 929 -712 116 -24
362 -24 478 0 274 59 512 187 690 372 181 189 304 427 352 685 16 85 16 357 1
440 -31 160 -109 358 -190 484 -37 58 -124 166 -161 200 l-31 30 0 757 0 757
278 171 279 171 421 0 422 0 0 200 0 200 -478 0 -478 0 -219 -134 -220 -135
-12 95 c-15 123 -35 189 -88 299 -111 229 -333 411 -580 475 -106 28 -283 35
-388 15z m254 -395 c141 -27 285 -133 348 -258 50 -99 61 -158 61 -328 l0
-152 -497 -306 -498 -306 -3 453 c-1 290 2 470 8 503 55 265 319 443 581 394z
m481 -2717 c156 -136 247 -280 300 -474 32 -117 31 -326 -1 -444 -84 -311
-334 -561 -646 -646 -115 -32 -335 -32 -450 0 -312 85 -562 335 -646 646 -32
118 -33 327 -1 444 28 103 75 208 131 289 42 63 145 171 206 218 l35 26 0 418
0 418 128 78 c70 43 137 84 150 92 l22 14 0 -603 -1 -604 -72 -34 c-129 -62
-246 -199 -296 -348 -110 -329 102 -696 444 -768 204 -43 397 16 546 164 195
195 233 479 96 721 -48 85 -159 190 -244 231 l-72 34 -1 727 0 726 148 91 147
90 5 -724 5 -724 67 -58z m-466 -525 c19 -13 47 -41 62 -62 23 -33 27 -50 27
-106 0 -56 -4 -73 -27 -106 -46 -65 -91 -89 -168 -89 -77 0 -122 24 -168 89
-23 33 -27 50 -27 105 0 54 5 73 26 103 30 44 69 77 107 89 45 14 130 3 168
-23z"/>
</g>
</svg>
