<?xml version="1.0" standalone="no"?>
<!DOCTYPE svg PUBLIC "-//W3C//DTD SVG 20010904//EN"
 "http://www.w3.org/TR/2001/REC-SVG-20010904/DTD/svg10.dtd">
<svg version="1.0" xmlns="http://www.w3.org/2000/svg"
 width="36864.000000pt" height="36864.000000pt" viewBox="0 0 36864.000000 36864.000000"
 preserveAspectRatio="xMidYMid meet">
<metadata>
Created by potrace 1.15, written by Peter Selinger 2001-2017
</metadata>
<g transform="translate(0.000000,36864.000000) scale(7.200000,-7.200000)"
fill="#000000" stroke="none">
<path d="M2502 4783 c-34 -19 -2146 -2124 -2164 -2158 -19 -34 -21 -92 -4
-127 9 -18 493 -510 1083 -1100 975 -974 1071 -1067 1108 -1074 25 -4 52 -2
77 7 30 11 283 258 1104 1079 586 586 1070 1073 1076 1083 15 29 20 68 13 107
-6 30 -160 188 -1073 1104 -628 629 -1080 1074 -1099 1082 -43 19 -82 18 -121
-3z m851 -1662 c189 -182 250 -239 361 -344 176 -167 226 -216 226 -224 0 -4
-24 -30 -54 -58 -90 -84 -466 -440 -588 -558 -28 -26 -52 -46 -55 -43 -2 2 -5
106 -5 230 0 124 -3 226 -7 227 -20 3 -1318 4 -1328 1 -10 -3 -13 -60 -13
-237 l0 -233 -204 0 -205 0 -1 400 c0 387 0 401 20 434 12 18 31 36 43 41 12
4 396 8 852 9 457 1 833 2 837 3 4 1 7 92 7 204 0 263 -1 250 13 241 6 -4 52
-46 101 -93z"/>
</g>
</svg>
