<?xml version="1.0" standalone="no"?>
<!DOCTYPE svg PUBLIC "-//W3C//DTD SVG 20010904//EN"
 "http://www.w3.org/TR/2001/REC-SVG-20010904/DTD/svg10.dtd">
<svg version="1.0" xmlns="http://www.w3.org/2000/svg"
 width="36864.000000pt" height="36864.000000pt" viewBox="0 0 36864.000000 36864.000000"
 preserveAspectRatio="xMidYMid meet">
<metadata>
Created by potrace 1.16, written by Peter Selinger 2001-2019
</metadata>
<g transform="translate(0.000000,36864.000000) scale(7.200000,-7.200000)"
fill="#000000" stroke="none">
<path d="M2038 4899 c-405 -43 -719 -377 -745 -791 l-6 -98 216 0 217 0 0 58
c0 302 326 502 596 365 31 -15 79 -50 106 -78 88 -88 122 -182 116 -322 -3
-74 -8 -99 -35 -155 -55 -116 -147 -196 -270 -233 -40 -13 -185 -15 -925 -15
l-878 0 0 -215 0 -215 883 0 c822 0 888 2 973 19 312 64 557 289 650 596 24
80 27 106 28 240 0 161 -10 219 -61 340 -32 75 -100 181 -155 241 -93 100
-244 195 -373 233 -57 17 -235 45 -255 40 -3 -1 -40 -5 -82 -10z"/>
<path d="M4091 4035 c-187 -42 -350 -141 -476 -287 -96 -111 -175 -288 -189
-423 -4 -33 -9 -75 -12 -92 l-5 -33 214 0 214 0 11 66 c15 90 55 168 119 232
135 136 351 164 515 68 67 -39 134 -114 170 -191 31 -65 33 -77 33 -175 0 -98
-2 -110 -33 -175 -52 -110 -143 -191 -260 -233 -43 -15 -178 -17 -1579 -19
l-1533 -3 0 -210 0 -210 1573 3 c1769 3 1601 -5 1782 81 218 104 379 293 451
531 24 80 27 106 27 235 0 129 -3 155 -27 235 -52 172 -156 326 -290 432 -78
61 -217 132 -311 158 -84 23 -310 29 -394 10z"/>
<path d="M0 2560 l0 -210 425 0 425 0 0 210 0 210 -425 0 -425 0 0 -210z"/>
<path d="M852 1708 l3 -213 1320 -5 c934 -4 1329 -8 1350 -16 117 -43 200
-116 252 -222 37 -75 38 -78 38 -191 0 -109 -2 -120 -31 -182 -59 -124 -172
-208 -308 -231 l-66 -11 2 -211 3 -211 65 4 c333 18 634 262 736 596 25 82 28
104 28 245 -1 140 -3 164 -28 245 -87 287 -298 494 -599 587 l-72 23 -1348 3
-1347 2 2 -212z"/>
</g>
</svg>
