<?xml version="1.0" standalone="no"?>
<!DOCTYPE svg PUBLIC "-//W3C//DTD SVG 20010904//EN"
 "http://www.w3.org/TR/2001/REC-SVG-20010904/DTD/svg10.dtd">
<svg version="1.0" xmlns="http://www.w3.org/2000/svg"
 width="36864.000000pt" height="36864.000000pt" viewBox="0 0 36864.000000 36864.000000"
 preserveAspectRatio="xMidYMid meet">
<metadata>
Created by potrace 1.15, written by Peter Selinger 2001-2017
</metadata>
<g transform="translate(0.000000,36864.000000) scale(7.200000,-7.200000)"
fill="#000000" stroke="none">
<path d="M2025 4899 c-22 -4 -57 -10 -77 -13 -51 -8 -162 -51 -228 -88 -150
-84 -277 -222 -349 -379 -26 -58 -43 -100 -42 -106 0 -2 -6 -24 -14 -50 -8
-27 -18 -94 -21 -149 l-7 -102 215 -1 214 -1 2 57 c6 187 121 340 297 395 49
15 166 17 220 3 137 -36 251 -147 291 -284 15 -52 20 -161 10 -206 -13 -62
-22 -85 -53 -136 -62 -107 -187 -191 -303 -205 -30 -4 -436 -7 -903 -7 -595 0
-847 -4 -848 -11 0 -6 -2 -102 -2 -214 l-2 -203 910 4 c501 2 924 6 941 9 65
13 191 60 251 94 223 124 365 319 430 587 3 12 7 72 10 132 18 384 -223 731
-588 843 -106 33 -263 46 -354 31z"/>
<path d="M4190 4050 c-116 -14 -211 -42 -307 -91 -53 -27 -100 -53 -103 -57
-3 -4 -21 -19 -41 -34 -89 -66 -176 -173 -232 -284 -55 -107 -78 -197 -91
-341 l-4 -43 213 0 213 0 7 53 c29 213 206 368 420 369 249 1 436 -195 423
-444 -9 -185 -132 -337 -313 -389 -42 -12 -281 -14 -1572 -14 l-1523 0 0 -215
0 -215 1522 1 c838 1 1546 4 1573 8 170 24 335 100 473 221 40 34 128 147 160
205 121 215 142 487 58 720 -65 178 -210 346 -381 442 -112 63 -247 103 -365
107 -35 1 -67 4 -70 5 -3 1 -30 -1 -60 -4z"/>
<path d="M0 2560 l0 -215 421 1 c294 0 422 3 427 11 5 8 8 386 3 413 -1 3
-192 5 -426 5 l-425 0 0 -215z"/>
<path d="M859 1918 c-1 -2 -3 -98 -4 -214 l-2 -210 1301 -2 c716 0 1308 -3
1316 -5 8 -2 29 -7 45 -12 86 -23 181 -92 235 -170 59 -86 86 -224 66 -335
-30 -161 -189 -309 -348 -324 -22 -2 -42 -7 -46 -11 -11 -11 -10 -409 1 -417
14 -9 95 -1 175 17 249 56 470 236 577 469 15 33 38 100 50 150 20 78 23 110
21 221 -4 139 -5 146 -37 251 -90 293 -346 519 -654 578 -69 13 -256 15 -1387
16 -720 0 -1309 -1 -1309 -2z"/>
</g>
</svg>
