<?xml version="1.0" standalone="no"?>
<!DOCTYPE svg PUBLIC "-//W3C//DTD SVG 20010904//EN"
 "http://www.w3.org/TR/2001/REC-SVG-20010904/DTD/svg10.dtd">
<svg version="1.0" xmlns="http://www.w3.org/2000/svg"
 width="36864.000000pt" height="36864.000000pt" viewBox="0 0 36864.000000 36864.000000"
 preserveAspectRatio="xMidYMid meet">
<metadata>
Created by potrace 1.16, written by Peter Selinger 2001-2019
</metadata>
<g transform="translate(0.000000,36864.000000) scale(7.200000,-7.200000)"
fill="#000000" stroke="none">
<path d="M2379 5116 c-2 -2 -35 -6 -74 -10 -38 -3 -97 -10 -130 -16 -33 -6
-76 -13 -95 -16 -75 -12 -300 -74 -395 -109 -434 -161 -810 -427 -1099 -780
-220 -268 -371 -546 -471 -870 -40 -132 -42 -139 -49 -175 -2 -14 -7 -36 -10
-50 -45 -192 -65 -562 -43 -783 35 -352 155 -725 329 -1023 l48 -81 -15 -44
c-34 -107 -268 -968 -272 -1004 -9 -74 57 -120 138 -97 19 6 124 38 234 72
198 61 288 89 375 115 25 8 83 26 130 40 47 15 125 39 173 53 l89 26 41 -23
c288 -163 658 -288 942 -317 33 -4 82 -10 108 -14 49 -7 461 -5 507 4 14 2 45
7 70 10 25 4 92 16 150 27 58 12 116 23 129 25 13 3 83 24 155 48 755 249
1339 808 1615 1548 46 123 101 317 115 408 3 19 8 46 11 60 3 14 8 48 11 75 3
28 9 79 14 115 8 66 6 468 -3 505 -3 11 -8 45 -11 75 -18 141 -67 343 -119
490 -227 643 -679 1152 -1296 1460 -189 94 -457 183 -646 215 -16 3 -39 7 -51
9 -12 2 -45 8 -75 11 -30 4 -65 10 -79 12 -30 5 -446 13 -451 9z m342 -200
c59 -4 117 -9 129 -11 12 -2 41 -6 64 -9 89 -11 258 -52 396 -96 476 -154 938
-510 1224 -944 153 -233 279 -530 331 -780 9 -44 17 -82 19 -85 2 -3 7 -33 10
-66 4 -33 9 -69 11 -80 16 -73 21 -350 10 -470 -5 -59 -17 -154 -30 -240 -7
-48 -48 -207 -74 -290 -65 -203 -167 -415 -285 -592 -286 -430 -731 -771
-1213 -932 -155 -51 -352 -96 -474 -106 -40 -4 -85 -9 -99 -11 -36 -6 -283 -6
-360 1 -368 30 -693 133 -1021 321 -42 24 -87 44 -100 44 -23 0 -189 -49 -692
-205 -120 -37 -220 -65 -222 -63 -2 2 5 35 17 73 11 39 23 84 28 100 9 36 45
165 134 485 36 129 66 247 66 262 0 27 -15 58 -64 136 -53 85 -177 350 -199
427 -3 11 -15 52 -27 90 -12 39 -25 86 -30 105 -11 50 -31 141 -36 170 -2 14
-6 34 -9 45 -2 11 -7 52 -10 90 -4 39 -9 86 -11 105 -5 45 -5 303 0 355 6 66
16 148 21 175 3 14 7 41 10 60 4 19 17 80 30 135 117 495 411 958 815 1284
324 261 754 450 1130 497 25 3 51 7 58 9 6 3 65 7 130 11 64 4 118 7 119 8 3
2 95 -2 204 -8z"/>
<path d="M1460 4149 c-25 -4 -63 -10 -85 -13 -48 -7 -110 -67 -197 -192 -169
-241 -249 -467 -253 -720 -4 -203 34 -353 152 -601 63 -131 197 -366 245 -428
5 -5 45 -59 90 -120 287 -387 687 -722 1048 -879 36 -15 79 -34 95 -41 93 -42
330 -106 444 -121 26 -3 73 -9 106 -14 91 -12 360 -4 445 13 318 65 531 238
650 531 41 99 80 252 80 310 0 49 -20 67 -170 156 -69 41 -205 125 -303 188
-98 62 -203 125 -233 139 -65 29 -146 33 -199 7 -38 -18 -46 -27 -147 -163
-71 -96 -231 -267 -258 -276 -56 -18 -434 228 -675 439 -186 162 -340 344
-390 462 -37 86 -37 85 23 149 30 33 73 87 97 120 100 143 112 239 50 396 -60
149 -172 366 -278 537 -65 103 -101 124 -216 126 -42 1 -96 -1 -121 -5z m196
-266 c62 -101 197 -364 234 -453 22 -54 29 -84 25 -110 -7 -45 -54 -122 -117
-191 -110 -120 -121 -137 -121 -182 -3 -237 267 -586 706 -910 198 -147 405
-268 514 -300 62 -19 102 -14 168 21 88 47 279 251 386 412 l14 22 55 -30 c30
-15 102 -59 160 -97 149 -97 193 -125 295 -185 50 -29 92 -55 94 -57 9 -7 -33
-150 -64 -220 -96 -211 -239 -321 -485 -374 -69 -15 -117 -18 -260 -15 -96 2
-184 6 -195 9 -11 3 -40 8 -65 11 -78 11 -127 22 -253 62 -432 134 -833 440
-1176 898 -210 281 -393 636 -439 851 -18 82 -12 247 12 365 10 47 53 165 87
235 35 74 155 260 186 287 19 18 57 24 142 23 l53 0 44 -72z"/>
</g>
</svg>
