<?xml version="1.0" standalone="no"?>
<!DOCTYPE svg PUBLIC "-//W3C//DTD SVG 20010904//EN"
 "http://www.w3.org/TR/2001/REC-SVG-20010904/DTD/svg10.dtd">
<svg version="1.0" xmlns="http://www.w3.org/2000/svg"
 width="36864.000000pt" height="36864.000000pt" viewBox="0 0 36864.000000 36864.000000"
 preserveAspectRatio="xMidYMid meet">
<metadata>
Created by potrace 1.16, written by Peter Selinger 2001-2019
</metadata>
<g transform="translate(0.000000,36864.000000) scale(7.200000,-7.200000)"
fill="#000000" stroke="none">
<path d="M2323 5110 c-499 -53 -945 -231 -1343 -538 -195 -150 -448 -432 -594
-662 -63 -99 -186 -351 -230 -471 -204 -556 -204 -1204 -1 -1755 37 -101 150
-339 203 -429 l29 -50 -143 -519 c-79 -286 -144 -532 -144 -547 0 -39 38 -79
80 -85 27 -4 156 32 539 151 277 85 509 155 516 155 7 0 73 -31 146 -69 638
-331 1389 -380 2058 -135 120 44 372 167 471 230 321 204 620 503 824 824 63
99 186 351 230 471 50 135 102 340 127 499 27 165 32 535 10 690 -68 488 -236
889 -529 1270 -84 109 -323 348 -432 432 -364 280 -750 448 -1200 519 -143 22
-484 33 -617 19z m622 -219 c512 -88 948 -319 1310 -692 346 -356 561 -787
642 -1284 25 -157 25 -555 0 -710 -82 -500 -296 -928 -642 -1284 -194 -200
-373 -334 -609 -457 -329 -171 -636 -250 -1013 -261 -465 -14 -865 88 -1274
323 -42 24 -87 44 -100 44 -13 0 -223 -61 -467 -136 -243 -75 -445 -135 -447
-133 -2 2 53 204 121 449 87 310 124 456 121 480 -3 20 -23 66 -46 103 -172
282 -284 610 -327 957 -22 178 -15 482 15 655 127 739 583 1365 1245 1711 264
138 534 218 866 258 19 2 136 3 260 1 172 -2 253 -8 345 -24z"/>
<path d="M1470 4150 c-118 -14 -144 -25 -195 -82 -227 -253 -367 -613 -352
-908 9 -176 44 -298 143 -511 320 -685 880 -1248 1481 -1490 325 -131 731
-181 1009 -124 372 77 599 305 700 703 31 121 31 166 2 195 -13 13 -79 56
-148 97 -69 40 -205 125 -304 188 -98 63 -202 125 -230 138 -62 29 -151 32
-203 7 -36 -17 -44 -26 -144 -161 -66 -89 -219 -256 -252 -273 -23 -13 -52 -2
-162 60 -325 184 -698 505 -850 731 -43 65 -85 156 -85 186 0 8 34 54 75 102
132 153 180 279 150 395 -36 140 -275 603 -359 696 -44 49 -139 67 -276 51z
m190 -272 c27 -45 96 -174 152 -285 121 -241 125 -263 68 -357 -19 -32 -72
-98 -116 -147 -88 -95 -97 -116 -84 -194 47 -279 384 -657 869 -973 225 -148
369 -210 443 -193 98 23 244 152 384 340 l89 119 33 -13 c18 -8 112 -65 210
-128 97 -62 218 -137 267 -167 50 -29 92 -55 95 -57 18 -16 -81 -278 -130
-341 -64 -83 -136 -143 -224 -186 -119 -59 -200 -77 -373 -83 -373 -14 -733
90 -1078 312 -383 248 -745 665 -984 1135 -132 259 -169 396 -158 588 12 213
117 466 273 659 36 44 47 48 161 51 l52 2 51 -82z"/>
</g>
</svg>
