<?xml version="1.0" encoding="iso-8859-1"?>
<!-- Generator: Adobe Illustrator 19.0.0, SVG Export Plug-In . SVG Version: 6.00 Build 0)  -->
<svg version="1.1" id="Layer_1" xmlns="http://www.w3.org/2000/svg" xmlns:xlink="http://www.w3.org/1999/xlink" x="0px" y="0px"
	 viewBox="0 0 504.124 504.124" style="enable-background:new 0 0 504.124 504.124;" xml:space="preserve">
<path style="fill:#FFFFFF;" d="M98.462,0h307.2c12.997,0,23.631,10.634,23.631,23.631v456.862c0,12.997-10.634,23.631-23.631,23.631
	h-307.2c-12.997,0-23.631-10.634-23.631-23.631V23.631C74.831,10.634,85.465,0,98.462,0z"/>
<path style="fill:#0099C7;" d="M106.338,70.892h291.446c4.332,0,7.877,3.545,7.877,7.877v346.585c0,4.332-3.545,7.877-7.877,7.877
	H106.338c-4.332,0-7.877-3.545-7.877-7.877V78.769C98.462,74.437,102.006,70.892,106.338,70.892z"/>
<path style="fill:#4E6B78;" d="M288.689,230.006c-4.726-5.908-11.422-9.452-17.723-9.452c-8.271,0-11.815,3.938-17.329,3.938
	c-5.908,0-10.24-3.938-17.723-3.938c-7.089,0-14.572,4.332-19.298,11.815c-6.695,10.24-5.514,29.932,5.12,46.474
	c3.938,5.908,9.058,12.603,15.754,12.603c5.908,0,7.877-3.938,15.754-3.938c8.271,0,9.846,3.938,15.754,3.938
	c6.695,0,12.209-7.483,16.148-13.391c2.757-4.332,3.938-6.302,5.908-11.422C275.692,260.726,273.329,238.671,288.689,230.006z
	 M267.028,213.071c3.151-3.938,5.514-9.846,4.726-15.754c-5.12,0.394-11.028,3.545-14.572,7.877
	c-3.151,3.938-5.908,9.846-4.726,15.36C257.969,220.554,263.877,217.403,267.028,213.071z"/>
<path style="fill:#BFC3C5;" d="M252.062,448.985c11.028,0,19.692,8.665,19.692,19.692c0,11.028-8.665,19.692-19.692,19.692
	c-11.028,0-19.692-8.665-19.692-19.692C232.369,457.649,241.034,448.985,252.062,448.985z M252.062,27.569
	c4.332,0,7.877,3.545,7.877,7.877s-3.545,7.877-7.877,7.877s-7.877-3.545-7.877-7.877S247.729,27.569,252.062,27.569z"/>
</svg>
