<?xml version="1.0" encoding="iso-8859-1"?>
<!-- Generator: Adobe Illustrator 19.0.0, SVG Export Plug-In . SVG Version: 6.00 Build 0)  -->
<svg version="1.1" id="Layer_1" xmlns="http://www.w3.org/2000/svg" xmlns:xlink="http://www.w3.org/1999/xlink" x="0px" y="0px"
	 viewBox="0 0 504.124 504.124" style="enable-background:new 0 0 504.124 504.124;" xml:space="preserve">
<path style="fill:#FFFFFF;" d="M153.6,0h196.923c21.662,0,39.385,17.723,39.385,39.385v425.354
	c0,21.662-17.723,39.385-39.385,39.385H153.6c-21.662,0-39.385-17.723-39.385-39.385V39.385C114.215,17.723,131.939,0,153.6,0z"/>
<path style="fill:#0099C7;" d="M145.724,70.892H358.4c4.332,0,7.877,3.545,7.877,7.877v346.585c0,4.332-3.545,7.877-7.877,7.877
	H145.724c-4.332,0-7.877-3.545-7.877-7.877V78.769C137.846,74.437,141.392,70.892,145.724,70.892z"/>
<path style="fill:#4E6B78;" d="M288.689,230.006c-4.726-5.908-11.422-9.452-17.723-9.452c-8.271,0-11.815,3.938-17.329,3.938
	c-5.908,0-10.24-3.938-17.723-3.938c-7.089,0-14.572,4.332-19.298,11.815c-6.695,10.24-5.514,29.932,5.12,46.474
	c3.938,5.908,9.058,12.603,15.754,12.603c5.908,0,7.877-3.938,15.754-3.938c8.271,0,9.846,3.938,15.754,3.938
	c6.695,0,12.209-7.483,16.148-13.391c2.757-4.332,3.938-6.302,5.908-11.422C275.692,260.726,273.329,238.671,288.689,230.006z
	 M267.029,213.071c3.151-3.938,5.514-9.846,4.726-15.754c-5.12,0.394-11.028,3.545-14.572,7.877
	c-3.151,3.938-5.908,9.846-4.726,15.36C257.969,220.554,263.878,217.403,267.029,213.071z"/>
<path style="fill:#BFC3C5;" d="M252.063,448.985c11.028,0,19.692,8.665,19.692,19.692c0,11.028-8.665,19.692-19.692,19.692
	c-11.028,0-19.692-8.665-19.692-19.692C232.37,457.649,241.034,448.985,252.063,448.985z M228.431,27.569h47.262
	c4.332,0,7.877,3.545,7.877,7.877s-3.545,7.877-7.877,7.877h-47.262c-4.332,0-7.877-3.545-7.877-7.877
	S224.099,27.569,228.431,27.569z"/>
</svg>
