<svg xmlns="http://www.w3.org/2000/svg" height="512pt" version="1.1" viewBox="0 -77 512.00003 512" width="512pt">
<g id="surface1">
<path d="M 512 45.59375 L 512 313.273438 C 512 338.410156 491.542969 358.867188 466.40625 358.867188 L 45.59375 358.867188 C 20.457031 358.867188 0 338.410156 0 313.273438 L 0 45.59375 C 0 20.457031 20.457031 0 45.59375 0 L 466.40625 0 C 491.542969 0 512 20.457031 512 45.59375 Z M 512 45.59375 " style=" stroke:none;fill-rule:nonzero;fill:rgb(74.509804%,92.156863%,98.039216%);fill-opacity:1;" />
<path d="M 512 45.59375 L 512 313.273438 C 512 338.410156 491.542969 358.867188 466.40625 358.867188 L 256 358.867188 L 256 0 L 466.40625 0 C 491.542969 0 512 20.457031 512 45.59375 Z M 512 45.59375 " style=" stroke:none;fill-rule:nonzero;fill:rgb(61.960784%,88.627451%,97.254902%);fill-opacity:1;" />
<path d="M 316.800781 62.929688 C 252.5625 62.929688 200.296875 115.195312 200.296875 179.433594 C 200.296875 243.675781 252.5625 295.9375 316.800781 295.9375 C 381.042969 295.9375 433.304688 243.675781 433.304688 179.433594 C 433.304688 115.195312 381.042969 62.929688 316.800781 62.929688 Z M 316.800781 62.929688 " style=" stroke:none;fill-rule:nonzero;fill:rgb(100%,89.411765%,46.666667%);fill-opacity:1;" />
<path d="M 195.199219 62.929688 C 130.957031 62.929688 78.695312 115.195312 78.695312 179.433594 C 78.695312 243.675781 130.957031 295.9375 195.199219 295.9375 C 259.4375 295.9375 311.703125 243.675781 311.703125 179.433594 C 311.703125 115.195312 259.4375 62.929688 195.199219 62.929688 Z M 195.199219 62.929688 " style=" stroke:none;fill-rule:nonzero;fill:rgb(100%,39.215686%,14.901961%);fill-opacity:1;" />
<path d="M 311.703125 179.433594 C 311.703125 221.410156 289.394531 258.269531 256 278.777344 C 222.605469 258.269531 200.296875 221.410156 200.296875 179.433594 C 200.296875 137.457031 222.605469 100.597656 256 80.09375 C 289.394531 100.597656 311.703125 137.457031 311.703125 179.433594 Z M 311.703125 179.433594 " style=" stroke:none;fill-rule:nonzero;fill:rgb(100%,58.039216%,41.568627%);fill-opacity:1;" />
</g>
</svg>