<?xml version='1.0' encoding='iso-8859-1'?>
<svg version="1.1"
     xmlns="http://www.w3.org/2000/svg"
     viewBox="0 0 44 44" xmlns:xlink="http://www.w3.org/1999/xlink"
     enable-background="new 0 0 44 44">
  <g>
    <circle cx="22" cy="22" r="20" class="svg_filter_text"/>
    <circle cx="20" cy="20" r="7" class="svg_filter_bg"/>
    <path class="svg_filter_bg" d="m22,0c-12.2,0-22,9.8-22,22s9.8,22 22,22 22-9.8 22-22-9.8-22-22-22zm12.7,33.3l-1.4,1.4c-0.4,0.4-1,0.4-1.4,0l-5.4-5.4c-0.2-0.2-0.4-0.2-0.6-0.1-1.7,1.1-3.7,1.7-5.9,1.7-6.1,0-11-4.9-11-11s4.9-11 11-11 11,4.9 11,11c0,2.2-0.6,4.2-1.7,5.9-0.1,0.2-0.1,0.5 0.1,0.6l5.4,5.4c0.3,0.5 0.3,1.1-0.1,1.5z"/>
  </g>
</svg>
