<?xml version="1.0" encoding="utf-8"?>
<!-- Generator: Adobe Illustrator 16.0.0, SVG Export Plug-In . SVG Version: 6.00 Build 0)  -->
<!DOCTYPE svg PUBLIC "-//W3C//DTD SVG 1.1//EN" "http://www.w3.org/Graphics/SVG/1.1/DTD/svg11.dtd">
<svg version="1.1" id="Calque_1" xmlns="http://www.w3.org/2000/svg" xmlns:xlink="http://www.w3.org/1999/xlink" x="0px" y="0px"
	 width="400px" height="781px" viewBox="0 0 400 781" enable-background="new 0 0 400 781" xml:space="preserve">
<g>
	<g>
		<polygon fill="#777778" points="381.685,707 377.384,707 26.7,707 22.402,707 22.402,701.926 22.402,91.078 22.402,86 26.7,86 
			377.384,86 381.685,86 381.685,91.078 381.685,701.926 381.685,707 		"/>
	</g>
</g>
<g>
	<g>
		<rect x="25.974" y="91.174" fill="#FBF6C4" width="350.694" height="610.841"/>
	</g>
</g>
<path fill="none" stroke="#777778" stroke-width="4" stroke-miterlimit="10" d="M342.296,10.196C339.136,9.969,335,9.752,332,9.532
	V9.486c-42-4.061-87.225-5.438-131.823-5.153C168.202,4.109,136,4.727,105,6.578v0.676c-15,0.859-31.741,1.854-46.91,2.942
	C7.934,13.794,3.249,51.514,3.724,94.868l0.38,580.892c-1.283,43.348,1.045,88.649,54.58,93.289
	c15.162,1.316,31.316,2.492,46.316,3.5v0.883c31,2.059,62.81,2.788,94.175,2.567c44.189,0.34,90.825-1.24,132.825-5.719v-0.49
	c3-0.251,6.954-0.479,10.01-0.741c53.534-4.64,56.451-49.941,55.168-93.289l0.131-580.892
	C397.783,51.514,392.451,13.794,342.296,10.196z M161.978,35c0-2.746,2.226-4,4.978-4h67.8c2.753,0,4.979,1.254,4.979,4
	c0,2.749-2.227,4-4.979,4h-67.8C164.204,39,161.978,37.749,161.978,35z M164.233,730h1.35h0.31h4.669h60.588h4.67h0.309h1.351
	c0,0-0.757,1.994-0.704,1.986c1.344,0.186,2.225,3.035,2.225,6.168c0,5.091,0,10.182,0,10.182s-0.557,9.846-11.813,11.137
	c-0.082,0.072,1.752-0.473,1.752-0.473c-0.256,0-0.542,0-0.858,0c-0.409,0-0.898,0-1.358,0c-12.454,0-43.246,0-51.732,0
	c-0.565,0-0.996,0-1.358,0c-0.535,0-0.859,0-0.859,0s-0.029,0.545-0.105,0.473C161.406,758.182,159,748.336,159,748.336
	s0-5.091,0-10.182c0-3.236,2.716-6.035,4.473-6.186C163.744,731.986,164.233,730,164.233,730z"/>
<circle fill="#777778" cx="135" cy="35" r="6"/>
<circle fill="#777778" cx="263" cy="35" r="6"/>
<circle fill="#777778" cx="284" cy="35" r="6"/>
</svg>
