<?xml version="1.0" encoding="iso-8859-1" standalone="yes"?><!-- Generator: Adobe Illustrator 19.0.0, SVG Export Plug-In . SVG Version: 6.00 Build 0)  --><svg xmlns="http://www.w3.org/2000/svg" xmlns:xlink="http://www.w3.org/1999/xlink" version="1.1" id="Capa_1" x="0px" y="0px" viewBox="0 0 52 52" style="enable-background:new 0 0 52 52;zoom: 1;" xml:space="preserve"><path d="M38.945694,5.324 L38.945694,5.324 c-7.098,-7.098 -18.607,-7.098 -25.706,0 h0 C6.843691,11.72 6.123692,23.763 11.551691,31 L26.092691,52 l14.541,-21 C46.061691,23.763 45.34169,11.72 38.945694,5.324 z M26.269691,24 c-3.314,0 -6,-2.686 -6,-6 s2.686,-6 6,-6 s6,2.686 6,6 S29.583691,24 26.269691,24 z" style="fill:#87c02e;"></path><circle stroke="none" transform="" id="circle1" stroke-width="3px" cy="18px" fill="#ffffff" r="14px" cx="26px"></circle><path d="M-10.87,22.81 C-9.11,23.10 -7.58,23.24 -6.29,23.24 C-5.87,23.24 -5.38,23.22 -4.80,23.19 C-4.34,23.16 -3.87,23.07 -3.40,22.93 C-2.92,22.78 -2.54,22.60 -2.23,22.38 C-1.90,22.14 -1.63,21.80 -1.43,21.38 C-1.23,20.96 -1.13,20.46 -1.13,19.90 L-1.13,16.35 C-1.13,15.71 -1.33,15.19 -1.73,14.79 C-2.11,14.42 -2.55,14.16 -3.05,14.01 C-3.54,13.86 -4.11,13.78 -4.75,13.78 L-8.35,13.78 L-8.35,9.06 L-1.54,9.06 L-1.54,7.42 L-10.51,7.42 L-10.51,15.27 L-5.90,15.27 C-5.54,15.27 -5.24,15.28 -5.00,15.31 C-4.77,15.33 -4.52,15.38 -4.25,15.46 C-3.67,15.66 -3.38,16.09 -3.38,16.76 L-3.38,19.86 C-3.38,20.50 -3.61,20.96 -4.07,21.24 C-4.52,21.52 -5.24,21.66 -6.22,21.66 C-7.46,21.66 -9.02,21.46 -10.87,21.08 M6.14,16.23 L6.14,20.24 L7.75,20.24 L7.75,16.23 L11.52,16.23 L11.52,14.62 L7.75,14.62 L7.75,10.64 L6.14,10.64 L6.14,14.62 L2.40,14.62 L2.40,16.23  Z " id="path1" transform="translate(27,3)" fill="black"></path></svg>