<?xml version="1.0" encoding="utf-8"?>
<!-- Generator: Adobe Illustrator 16.0.0, SVG Export Plug-In . SVG Version: 6.00 Build 0)  -->
<!DOCTYPE svg PUBLIC "-//W3C//DTD SVG 1.1//EN" "http://www.w3.org/Graphics/SVG/1.1/DTD/svg11.dtd">
<svg version="1.1" id="Calque_1" xmlns="http://www.w3.org/2000/svg" xmlns:xlink="http://www.w3.org/1999/xlink" x="0px" y="0px"
	 width="400px" height="781px" viewBox="0 0 400 781" enable-background="new 0 0 400 781" xml:space="preserve">
<g id="XMLID_1_">
	<path fill="#FFFFFF" d="M349.188,14.661c-17.749-10.013-107.069-9.746-151.03-9.746c-43.048,0-121.227-0.002-142.762,8.594
		C29.963,21.572,10.332,43.28,7.086,72.322l-0.039-0.084c0,0-1.855,209.611-1.855,317.083c0,128.104,1.855,309.585,1.855,309.585
		c0,32.947,20.404,60.756,48.349,69.616c21.536,8.6,99.714,8.596,142.762,8.596c43.96,0,133.281,0.268,151.03-9.75
		c26.218-9.938,45.028-36.835,45.028-68.462c0-1.505,0.618-197.322,0.618-309.585c0-96.291-0.618-306.817-0.618-308.321
		C394.217,49.364,375.406,24.603,349.188,14.661z M316.855,25.904c5.995,0,10.854,4.918,10.854,10.979
		c0,6.064-4.859,10.98-10.854,10.98c-5.991,0-10.851-4.917-10.851-10.98C306.005,30.822,310.864,25.904,316.855,25.904z
		 M279.508,29.663c3.944,0,7.138,3.233,7.138,7.22c0,3.991-3.193,7.223-7.138,7.223c-3.943,0-7.145-3.232-7.145-7.223
		C272.363,32.896,275.564,29.663,279.508,29.663z M260.992,29.663c3.941,0,7.138,3.233,7.138,7.22c0,3.991-3.196,7.223-7.138,7.223
		c-3.939,0-7.136-3.232-7.136-7.223C253.856,32.896,257.053,29.663,260.992,29.663z M160.272,18.873h77.572
		c2.556,0,4.627,2.098,4.627,4.685s-2.071,4.681-4.627,4.681h-77.572c-2.56,0-4.63-2.094-4.63-4.681S157.712,18.873,160.272,18.873z
		 M218.212,761.344h-36.076c-11.013,0-30.007-5.965-30.007-16.792c0-6.937,5.72-9.042,12.773-9.042h70.545
		c7.054,0,12.772,3.073,12.772,9.042C248.219,754.564,230.978,761.344,218.212,761.344z M385.511,711.105H15.479V79.076h370.031
		V711.105z"/>
</g>
<path fill="#FFFFFF" d="M245.5,745c-4.706,5.603-17.25,10.25-45.875,10.625c-25.23,0.33-45.875-5.183-45.875-12.5
	c0-3.738-3.463-11.591,5.125-14c8.221-2.307,28.41-1,40.75-1c12.872,0,37.684-1.615,43.375,1.375
	C250.375,733.375,248.125,741.875,245.5,745z"/>
<circle fill="#FFFFFF" cx="259.667" cy="43.667" r="8"/>
<circle fill="#FFFFFF" cx="278.667" cy="43.667" r="8"/>
<circle fill="#FFFFFF" cx="314.667" cy="43.667" r="11.5"/>
<path fill="#FFFFFF" d="M243,32c0,2.209-1.809,4-4.039,4h-78.756c-2.23,0-4.205-1.791-4.205-4v-2c0-2.209,1.975-4,4.205-4h78.756
	c2.23,0,4.039,1.791,4.039,4V32z"/>
<path id="XMLID_344_" fill="#FFFFFF" d="M396.572,93.299c-0.016-4.853-0.02-7.582-0.02-7.748c0-30.995-18.471-56.65-45.832-66.897
	c-17.612-9.823-103.945-9.823-145.44-9.823l-7.164,0.002c-42.722,0-122.25,0-144.042,8.603C27.933,25.624,8.871,47.246,5.32,75.888
	l-0.025,0.013l-0.011,0.931c-0.019,2.087-2.435,209.9-2.435,315.675c0,126.084,1.85,306.41,1.868,308.211
	c0,32.227,20.301,61.093,49.291,70.177c21.848,8.622,101.349,8.622,144.138,8.622h7.161h0.004c41.486,0,127.801,0,145.28-9.761
	c27.491-10.301,45.962-38.048,45.962-69.038c0-0.155,0.004-2.396,0.016-6.406c0.389-130.021,0.605-237.213,0.605-301.805
	C397.174,336.752,396.968,233.29,396.572,93.299z M394.689,694.308c-0.011,4.014-0.019,6.255-0.019,6.41
	c0,30.214-17.979,57.25-44.867,67.336c-17.184,9.583-103.173,9.583-144.497,9.583h-7.246c-42.585,0-121.846,0-143.424-8.513
	c-28.287-8.866-48.041-36.991-48.041-68.417c-0.019-1.81-1.868-182.131-1.868-308.2c0-102.133,1.724-299.424,1.86-314.74h0.407
	l0.093-0.836C10.291,48.66,28.954,27.275,54.7,19.203c21.526-8.492,100.82-8.492,143.446-8.492l7.134-0.001
	c41.336,0,127.34,0,144.652,9.646c26.76,10.029,44.738,34.981,44.738,65.196c0,0.166,0.008,2.899,0.022,7.753
	c0.396,139.989,0.603,243.448,0.603,299.202C395.296,457.099,395.081,564.284,394.689,694.308z"/>
<path id="XMLID_145_" fill="#7C7C7C" d="M399.139,85.597c-0.015-4.915-0.021-7.678-0.021-7.848c0-31.399-18.712-57.417-46.43-67.797
	C334.846,0,247.386,0,205.348,0l-7.253,0.002c-43.285,0-123.848,0-145.925,8.714C25.688,17.012,5.853,38.859,2.25,67.875
	L2.176,67.96l-0.007,0.941c-0.019,2.116-1.89,212.655-1.89,319.812c0,127.725,1.872,310.407,1.89,312.234
	c0,32.647,20.564,61.888,49.935,71.09c22.133,8.736,102.669,8.736,146.017,8.736h7.257h0.003c42.027,0,129.47,0,147.175-9.89
	c27.851-10.435,46.563-38.543,46.563-69.937c0-0.159,0.007-2.431,0.018-6.491c0.396-131.718,0.614-240.309,0.614-305.743
	C399.749,332.229,399.538,227.416,399.139,85.597z M394.689,690.521c-0.011,4.012-0.019,6.254-0.019,6.409
	c0,30.213-17.979,57.25-44.867,67.336c-17.184,9.584-103.173,9.584-144.497,9.584h-7.246c-42.585,0-121.846,0-143.424-8.515
	c-28.287-8.866-48.041-36.99-48.041-68.417c-0.019-1.808-1.868-182.13-1.868-308.198c0-102.135,1.724-299.425,1.86-314.741
	l0.111-0.227l0.093-0.836C9.995,44.645,28.954,23.488,54.7,15.416c21.526-8.492,100.82-8.492,143.446-8.492l7.134-0.001
	c41.336,0,127.34,0,144.652,9.646c26.76,10.029,44.738,34.982,44.738,65.195c0,0.167,0.008,2.9,0.022,7.754
	c0.396,139.988,0.603,243.447,0.603,299.203C395.296,453.312,395.081,560.496,394.689,690.521z"/>
<g id="XMLID_137_">
	<path fill="#FFFFFF" d="M198.194,768.785c-41.536,0-118.742,0-139.68-8.361c-27.584-8.749-46.802-36.44-46.802-67.365
		c-0.018-1.79-1.82-179.476-1.82-303.705c0-101.797,1.719-299.526,1.816-310.583l0.035-0.284c3.005-26.89,20.9-48.675,46.702-56.854
		c21.012-8.384,98.215-8.384,139.691-8.384l6.952-0.001c40.267,0,124.056,0,140.775,9.433l0.065,0.037l0.071,0.027
		c26.849,10.182,43.527,34.76,43.527,64.145c0,0.164,0.008,2.86,0.021,7.653c0.384,137.937,0.586,239.881,0.586,294.813
		c0,63.648-0.209,169.263-0.588,297.389c-0.012,3.956-0.019,6.163-0.019,6.316c0,29.743-17.492,56.357-43.527,66.227l-0.071,0.027
		l-0.065,0.037c-16.72,9.437-100.509,9.437-140.775,9.437L198.194,768.785z M165.568,727.967c-11.183,0-13.53,5.367-13.53,9.87
		c0,11.635,19.513,17.474,30.437,17.474h35.391c12.71,0,30.438-6.647,30.438-17.474c0-5.996-5.311-9.87-13.53-9.87H165.568z
		 M17.984,706.026h365.003V84H17.984V706.026z M314.637,31.838c-6.421,0-11.645,5.28-11.645,11.771
		c0,6.491,5.224,11.772,11.645,11.772c6.423,0,11.648-5.281,11.648-11.772C326.285,37.119,321.06,31.838,314.637,31.838z
		 M277.998,35.526c-4.416,0-8.009,3.626-8.009,8.083c0,4.459,3.593,8.086,8.009,8.086c4.412,0,8.002-3.627,8.002-8.086
		C286,39.152,282.41,35.526,277.998,35.526z M259.834,35.526c-4.411,0-8,3.626-8,8.083c0,4.459,3.589,8.086,8,8.086
		c4.412,0,8.002-3.627,8.002-8.086C267.836,39.152,264.246,35.526,259.834,35.526z M161.027,24.94c-3.056,0-5.542,2.51-5.542,5.596
		c0,3.083,2.486,5.592,5.542,5.592h76.098c3.055,0,5.539-2.508,5.539-5.592c0-3.085-2.484-5.596-5.539-5.596H161.027z"/>
	<path fill="#7C7C7C" d="M205.092,14.247c37.043,0,123.791,0,140.281,9.303l0.132,0.075l0.142,0.054
		c12.562,4.764,23.213,13.006,30.803,23.836c7.902,11.277,12.079,24.892,12.079,39.373c0,0.164,0.008,2.861,0.021,7.655
		c0.384,137.937,0.586,239.88,0.586,294.81c0,63.647-0.209,169.261-0.588,297.386c-0.012,3.958-0.019,6.166-0.019,6.319
		c0,29.33-17.233,55.568-42.882,65.292l-0.142,0.054l-0.133,0.074c-16.49,9.308-103.241,9.308-140.286,9.308l-3.606-0.001h-3.286
		h-0.117c-41.39,0-118.433,0-139.192-8.29l-0.068-0.027l-0.069-0.021c-13.004-4.123-24.711-12.836-32.966-24.533
		c-8.55-12.115-13.069-26.588-13.069-41.875c-0.019-1.78-1.82-179.46-1.82-303.685c0-101.532,1.71-298.505,1.815-310.486l0.03-0.27
		c2.96-26.492,20.59-47.954,46.01-56.011l0.069-0.022l0.068-0.027c20.765-8.289,97.861-8.289,139.309-8.289l3.289,0L205.092,14.247
		 M161.027,37.128h76.098c3.605,0,6.539-2.957,6.539-6.592c0-3.637-2.934-6.596-6.539-6.596h-76.098
		c-3.607,0-6.542,2.959-6.542,6.596C154.485,34.171,157.419,37.128,161.027,37.128 M314.637,56.381
		c6.975,0,12.648-5.729,12.648-12.772c0-7.042-5.674-12.771-12.648-12.771c-6.973,0-12.645,5.729-12.645,12.771
		C301.992,50.651,307.664,56.381,314.637,56.381 M277.998,52.695c4.964,0,9.002-4.076,9.002-9.086c0-5.008-4.038-9.083-9.002-9.083
		c-4.968,0-9.009,4.075-9.009,9.083C268.989,48.619,273.03,52.695,277.998,52.695 M259.834,52.695c4.964,0,9.002-4.076,9.002-9.086
		c0-5.008-4.038-9.083-9.002-9.083c-4.963,0-9,4.075-9,9.083C250.834,48.619,254.871,52.695,259.834,52.695 M16.984,707.026h2
		h363.003h2v-2V85v-2h-2H18.984h-2v2v620.026V707.026 M182.475,756.311h35.391c13.127,0,31.438-7.028,31.438-18.474
		c0-6.502-5.839-10.87-14.53-10.87h-69.205c-12.009,0-14.53,5.911-14.53,10.87C151.038,750.137,171.192,756.311,182.475,756.311
		 M205.092,12.248c-2.405,0-4.708,0-6.898,0c-42.23,0-118.924-0.002-140.051,8.431C33.192,28.588,13.934,49.885,10.75,78.375
		l-0.038-0.083c0,0-1.82,205.63-1.82,311.061c0,125.672,1.82,303.705,1.82,303.705c0,32.321,20.017,59.602,47.431,68.294
		c21.106,8.429,97.677,8.433,139.934,8.433c0.042,0,0.076,0,0.117,0c2.188,0,4.491,0.001,6.892,0.001
		c44.943,0,124.74-0.236,141.27-9.565c25.72-9.75,44.173-36.136,44.173-67.162c0-1.477,0.606-193.574,0.606-303.705
		c0-94.462-0.606-300.99-0.606-302.465c0-31.036-18.453-55.326-44.173-65.08C329.827,12.484,250.036,12.248,205.092,12.248
		L205.092,12.248z M161.027,35.128c-2.511,0-4.542-2.055-4.542-4.592c0-2.538,2.031-4.596,4.542-4.596h76.098
		c2.508,0,4.539,2.058,4.539,4.596c0,2.537-2.031,4.592-4.539,4.592H161.027L161.027,35.128z M314.637,54.381
		c-5.878,0-10.645-4.823-10.645-10.772c0-5.946,4.767-10.771,10.645-10.771c5.881,0,10.648,4.825,10.648,10.771
		C325.285,49.558,320.518,54.381,314.637,54.381L314.637,54.381z M277.998,50.695c-3.868,0-7.009-3.171-7.009-7.086
		c0-3.911,3.141-7.083,7.009-7.083c3.869,0,7.002,3.172,7.002,7.083C285,47.524,281.867,50.695,277.998,50.695L277.998,50.695z
		 M259.834,50.695c-3.864,0-7-3.171-7-7.086c0-3.911,3.136-7.083,7-7.083c3.866,0,7.002,3.172,7.002,7.083
		C266.836,47.524,263.7,50.695,259.834,50.695L259.834,50.695z M18.984,705.026V85h363.003v620.026H18.984L18.984,705.026z
		 M182.475,754.311c-10.804,0-29.437-5.852-29.437-16.474c0-6.805,5.611-8.87,12.53-8.87h69.205c6.92,0,12.53,3.015,12.53,8.87
		c0,9.823-16.914,16.474-29.438,16.474H182.475L182.475,754.311z"/>
</g>
</svg>
