<?xml version="1.0" encoding="utf-8"?>
<!-- Generator: Adobe Illustrator 16.0.0, SVG Export Plug-In . SVG Version: 6.00 Build 0)  -->
<!DOCTYPE svg PUBLIC "-//W3C//DTD SVG 1.1//EN" "http://www.w3.org/Graphics/SVG/1.1/DTD/svg11.dtd">
<svg version="1.1" id="Calque_1" xmlns="http://www.w3.org/2000/svg" xmlns:xlink="http://www.w3.org/1999/xlink" x="0px" y="0px"
	 width="400px" height="728px" viewBox="0 0 400 728" enable-background="new 0 0 400 728" xml:space="preserve">
<path fill="#FFFFFF" d="M24,20v670h347V20H24z M349,603H48V71h301V603z"/>
<g id="XMLID_170_">
	<g id="XMLID_171_">
		<path fill="#FFFFFF" d="M12.023,716.855V2.734h371.817v714.694L12.023,716.855z M23.471,21.55v670.149h348.924V20.678
			L23.471,21.55z M181.509,9.74c-1.745,0-3.165,1.419-3.165,3.164c0,1.743,1.419,3.161,3.165,3.161h34.151
			c1.743,0,3.161-1.418,3.161-3.161c0-1.745-1.418-3.164-3.161-3.164H181.509z"/>
		<path fill="#7C7C7C" d="M382.841,3.734v712.693l-369.817-0.57V3.734H382.841 M181.509,17.065h34.151
			c2.295,0,4.161-1.867,4.161-4.161c0-2.296-1.866-4.164-4.161-4.164h-34.151c-2.296,0-4.165,1.868-4.165,4.164
			C177.344,15.198,179.212,17.065,181.509,17.065 M22.471,692.699h2h346.924h2v-2V21.681v-2.005l-2.005,0.005L24.466,20.548
			l-1.995,0.005v1.995v668.151V692.699 M384.841,1.734H11.023v716.12l373.817,0.576V1.734L384.841,1.734z M181.509,15.065
			c-1.195,0-2.165-0.966-2.165-2.161s0.969-2.164,2.165-2.164h34.151c1.194,0,2.161,0.969,2.161,2.164s-0.967,2.161-2.161,2.161
			H181.509L181.509,15.065z M24.471,690.699V22.548l346.924-0.867v669.019H24.471L24.471,690.699z"/>
	</g>
</g>
<rect x="75" y="616" fill="#FFFFFF" width="43" height="40"/>
<rect x="181" y="616" fill="#FFFFFF" width="43" height="40"/>
<rect x="282" y="616" fill="#FFFFFF" width="43" height="40"/>
<g id="XMLID_179_">
	<g id="XMLID_38_">
		<path fill="#FFFFFF" d="M308.602,633.73c-2.431,0-4.408-1.975-4.408-4.401c0-2.429,1.978-4.404,4.408-4.404
			c2.426,0,4.399,1.976,4.399,4.404C313.001,631.756,311.027,633.73,308.602,633.73z"/>
		<path fill="#7C7C7C" d="M308.602,625.925c1.874,0,3.399,1.527,3.399,3.404c0,1.876-1.525,3.401-3.399,3.401
			c-1.879,0-3.408-1.525-3.408-3.401C305.193,627.452,306.723,625.925,308.602,625.925 M308.602,623.925
			c-2.981,0-5.408,2.428-5.408,5.404c0,2.98,2.427,5.401,5.408,5.401c2.977,0,5.399-2.421,5.399-5.401
			C314.001,626.353,311.578,623.925,308.602,623.925L308.602,623.925z"/>
	</g>
	<g id="XMLID_180_">
		<path fill="#FFFFFF" d="M51.303,686.262c-12.271,0-22.255-10.024-22.255-22.347V50.514c0-12.322,9.983-22.347,22.255-22.347
			h293.266c12.27,0,22.251,10.025,22.251,22.347v613.401c0,12.322-9.981,22.347-22.251,22.347H51.303z M197.498,640.564
			c0.836,0.505,1.99,1.1,3.496,1.215c0.337,0.026,0.663,0.038,0.975,0.038c3.975,0,5.992-1.972,6.076-2.056l0.188-0.188l2.361-8.681
			l-0.242,0.04l0.276-0.161l2.953-10.879l-2.104,1.221c-0.011,0.007-1.56,0.867-4.021,0.867c-0.228,0-0.464-0.008-0.707-0.023
			c-0.959-0.068-1.688-0.438-2.621-1.053l-0.592-0.39l0.002-0.007l-0.633-0.412c-0.815-0.531-1.836-1.143-3.221-1.647
			c-1.163-0.423-2.321-0.638-3.442-0.638c-1.939,0-3.108,0.637-3.235,0.709l-0.324,0.186l-3.265,9.33l0.003-0.001l-3.805,10.88
			l1.931-0.642c0.009-0.003,1.27-0.404,3.336-0.404c0.676,0,1.371,0.043,2.065,0.128c1.041,0.123,1.962,0.783,3.028,1.549
			l0.851,0.608l-0.001,0.006l0.065,0.039l0.445,0.317l0.013-0.041L197.498,640.564z M83.904,630.518
			c-0.093,0.711,0.132,1.396,0.624,1.866l8.693,8.353c0.4,0.386,0.937,0.6,1.508,0.6c0.636,0,1.262-0.269,1.718-0.737
			c0.446-0.464,0.692-1.084,0.678-1.706c-0.013-0.59-0.25-1.134-0.668-1.531l-4.283-4.116h9.738c1.417,0,2.57-1.151,2.57-2.567
			c0-1.413-1.153-2.563-2.57-2.563H91.836l4.624-4.445c0.888-0.854,0.883-2.305-0.01-3.232c-0.456-0.472-1.081-0.74-1.717-0.74
			c-0.571,0-1.107,0.212-1.51,0.598l-8.697,8.359C84.036,629.121,83.811,629.807,83.904,630.518z M297.495,637.022
			c-0.898,0.799-0.887,2.288,0.027,3.318c0.521,0.583,1.228,0.916,1.941,0.916c0.509,0,0.99-0.177,1.355-0.498l3.784-3.38
			c1.237,0.62,2.605,0.945,3.998,0.945c4.959,0,8.994-4.035,8.994-8.995c0-4.962-4.035-8.998-8.994-8.998c-4.963,0-9,4.036-9,8.998
			c0,1.649,0.449,3.24,1.307,4.649L297.495,637.022z M48.984,603.958H349V71.01H48.984V603.958z"/>
		<path fill="#7C7C7C" d="M344.568,29.167c11.718,0,21.251,9.576,21.251,21.347v613.401c0,11.771-9.533,21.347-21.251,21.347H51.303
			c-11.72,0-21.255-9.576-21.255-21.347V50.514c0-11.771,9.535-21.347,21.255-21.347H344.568 M47.984,604.958h2H348h2v-2V72.01v-2
			h-2H49.984h-2v2v530.948V604.958 M187.881,629.405l0.004-0.001l-2.539,7.26l-1.303,3.763l3.807-1.2
			c0.011-0.003,1.155-0.357,3.036-0.357c0.635,0,1.289,0.041,1.949,0.121c0.783,0.093,1.607,0.684,2.561,1.368l0.234,0.167
			l0.031,0.022l-0.02,0.063l0.701,0.423l1.542,1.102l0.059-0.189c0.79,0.382,1.79,0.739,2.973,0.83
			c0.353,0.027,0.708,0.041,1.054,0.041c4.31,0,6.543-2.108,6.783-2.349l0.376-0.376l0.14-0.513l1.884-6.923l0.312-1.213
			l0.023-0.014l0.216-0.792l2.208-8.135l1.213-4.537l-4.128,2.272c-0.014,0.007-1.375,0.742-3.538,0.742
			c-0.207,0-0.421-0.007-0.629-0.021c-0.74-0.053-1.317-0.346-2.113-0.867l0.003-0.011l-1.266-0.824
			c-0.064-0.042-0.131-0.085-0.197-0.128l-0.799-0.526l-0.011,0.034c-0.672-0.387-1.462-0.78-2.419-1.13
			c-1.272-0.462-2.545-0.697-3.783-0.697c-2.152,0-3.485,0.7-3.731,0.841l-0.648,0.371l-0.247,0.705l-2.547,7.278L187.881,629.405
			 M82.897,630.518c-0.092,0.981,0.244,1.925,0.936,2.586l8.691,8.35c0.59,0.569,1.373,0.883,2.205,0.883
			c0.904,0,1.791-0.379,2.442-1.048c0.625-0.649,0.973-1.531,0.954-2.418c-0.019-0.857-0.367-1.65-0.971-2.227l-2.496-2.398h7.255
			c1.969,0,3.57-1.601,3.57-3.567c0-1.965-1.602-3.563-3.57-3.563H94.32l2.835-2.726c1.284-1.236,1.291-3.321,0.013-4.648
			c-0.642-0.664-1.529-1.044-2.435-1.044c-0.83,0-1.611,0.311-2.205,0.878l-8.691,8.354
			C83.142,628.593,82.806,629.537,82.897,630.518 M299.647,633.764l-2.815,2.51c-1.312,1.167-1.338,3.289-0.055,4.734
			c0.708,0.794,1.688,1.249,2.687,1.249c0.751,0,1.468-0.265,2.027-0.758l3.291-2.938c1.205,0.502,2.502,0.764,3.819,0.764
			c5.511,0,9.994-4.484,9.994-9.995c0-5.513-4.483-9.998-9.994-9.998c-5.514,0-10,4.485-10,9.998
			C298.602,630.883,298.959,632.388,299.647,633.764 M344.568,27.167H51.303c-12.842,0-23.255,10.449-23.255,23.347v613.401
			c0,12.894,10.413,23.347,23.255,23.347h293.266c12.84,0,23.251-10.453,23.251-23.347V50.514
			C367.819,37.616,357.408,27.167,344.568,27.167L344.568,27.167z M49.984,602.958V72.01H348v530.948H49.984L49.984,602.958z
			 M190.958,626.667l2.547-7.278c0,0,1.009-0.577,2.738-0.577c0.865,0,1.91,0.145,3.099,0.577c1.256,0.458,2.195,1.01,3.018,1.546
			l-2.592,8.36c0.372,0.358,0.772,0.659,1.195,0.897l2.615-8.452c0.959,0.632,1.866,1.127,3.105,1.216
			c0.266,0.018,0.523,0.025,0.772,0.025c2.796,0,4.522-1.002,4.522-1.002l-2.208,8.135c-0.096,0.056-0.188,0.117-0.273,0.186
			c-0.345,0.286-2.183,0.897-4.328,0.897c-1.38,0-2.886-0.253-4.206-1.005l-0.471,1.513c1.341,0.771,2.96,1.006,4.434,1.006
			c2.299,0,4.247-0.571,4.247-0.571l0.048-0.008l-1.884,6.923c0,0-1.763,1.763-5.369,1.763c-0.288,0-0.587-0.011-0.898-0.035
			c-1.182-0.091-2.158-0.532-3.056-1.074l2.479-8.003c-0.413-0.238-0.806-0.515-1.15-0.866c-0.014-0.015-0.031-0.021-0.044-0.034
			l-2.506,8.094c-1.205-0.86-2.338-1.73-3.721-1.895c-0.797-0.097-1.529-0.135-2.185-0.135c-2.283,0-3.652,0.455-3.652,0.455
			l3.178-9.087c0.641-0.147,1.38-0.245,2.178-0.245c2.068,0,4.533,0.657,6.708,2.813l0.471-1.51
			c-0.071-0.058-0.146-0.112-0.215-0.181c-2.127-2.191-4.667-2.67-6.479-2.67C192.1,626.444,191.336,626.582,190.958,626.667
			L190.958,626.667z M94.729,640.336c-0.3,0-0.591-0.105-0.815-0.321l-8.695-8.354c-0.311-0.297-0.392-0.73-0.3-1.144
			c-0.092-0.413-0.01-0.847,0.3-1.144l8.695-8.357c0.225-0.215,0.518-0.32,0.819-0.32c0.354,0,0.718,0.146,0.997,0.434
			c0.512,0.532,0.529,1.345,0.038,1.818l-6.415,6.166h12.56c0.867,0,1.57,0.7,1.57,1.563c0,0.864-0.703,1.567-1.57,1.567H89.691
			l6.077,5.841c0.492,0.468,0.475,1.283-0.038,1.815C95.451,640.188,95.084,640.336,94.729,640.336L94.729,640.336z
			 M299.464,640.257c-0.408,0-0.854-0.2-1.193-0.58c-0.549-0.618-0.601-1.472-0.109-1.908l4.065-3.626
			c-1.013-1.345-1.625-3.008-1.625-4.813c0-4.414,3.589-7.998,8-7.998c4.406,0,7.994,3.584,7.994,7.998
			c0,4.411-3.588,7.995-7.994,7.995c-1.52,0-2.93-0.427-4.135-1.164l-4.308,3.848C299.968,640.176,299.724,640.257,299.464,640.257
			L299.464,640.257z"/>
	</g>
</g>
<path id="XMLID_176_" fill="#7C7C7C" d="M385.76,241.795c0.986,0,1.785-1.16,1.785-2.591v-51.876c0-1.43-0.799-2.591-1.785-2.591
	c-0.314,0-0.604,0.126-0.863,0.338v-3.742c0.203,0.092,0.42,0.161,0.647,0.161c1.075,0,1.946-1.164,1.946-2.591v-51.88
	c0-1.43-0.871-2.595-1.946-2.595c-0.228,0-0.444,0.062-0.647,0.161V1.88H11.836v711.801l0.451,0.144
	c0.417,0.137,10.405,3.263,33.046,3.478h0.085c5.401,0,294.843-0.215,297.768-0.218c36.077-0.314,41.198-3.198,41.399-3.321
	l0.312-0.191V590.471c0.203,0.109,0.42,0.178,0.647,0.178c1.075,0,1.946-1.267,1.946-2.834v-56.591c0-1.557-0.871-2.826-1.946-2.826
	c-0.228,0-0.444,0.068-0.647,0.177V323.972c0.203,0.106,0.42,0.171,0.647,0.171c1.075,0,1.946-1.253,1.946-2.799v-56
	c0-1.546-0.871-2.796-1.946-2.796c-0.228,0-0.444,0.065-0.647,0.171v-21.265C385.155,241.669,385.445,241.795,385.76,241.795z
	 M383.602,712.786c-1.547,0.585-9.33,2.729-40.419,3.005c-2.922,0-292.364,0.216-297.765,0.216v0.651l-0.072-0.651
	c-19.79-0.186-30.024-2.681-32.212-3.284V3.178h370.468v123.845v51.88V712.786z"/>
</svg>
