<?xml version="1.0" encoding="utf-8"?>
<!-- Generator: Adobe Illustrator 16.0.0, SVG Export Plug-In . SVG Version: 6.00 Build 0)  -->
<!DOCTYPE svg PUBLIC "-//W3C//DTD SVG 1.1//EN" "http://www.w3.org/Graphics/SVG/1.1/DTD/svg11.dtd">
<svg version="1.1" id="Calque_1" xmlns="http://www.w3.org/2000/svg" xmlns:xlink="http://www.w3.org/1999/xlink" x="0px" y="0px"
	 width="455px" height="971px" viewBox="0 0 455 971" enable-background="new 0 0 455 971" xml:space="preserve">
<circle fill="#FFFFFF" cx="224.667" cy="897.833" r="44.833"/>
<path fill="#FFFFFF" d="M271,64.53c0,2.468-1.791,4.47-4,4.47h-79c-2.209,0-4-2.002-4-4.47v-4.471c0-2.469,1.791-4.059,4-4.059h79
	c2.209,0,4,1.59,4,4.059V64.53z"/>
<circle fill="#FFFFFF" cx="227.75" cy="32" r="9.625"/>
<circle fill="#FFFFFF" cx="169.75" cy="63" r="3.625"/>
<g id="XMLID_472_">
	<path fill="#FFFFFF" d="M60.983,969.789c-11.798,0-26.616-6.722-38.671-17.542c-7.919-7.108-21.204-22.045-21.204-42.223V282.871
		l0.047-1v-25.898H1.108v-57.279h-0.01v-22.892l0.01-1v-57.028h-0.01V79.929l0.01-1V58.765C1.108,26.374,27.409,1,60.983,1h246.129
		V0.986h64.106l1,0.014h21.032c33.813,0,60.299,25.374,60.299,57.765v851.259c0,32.413-37.037,59.765-60.299,59.765H60.983z
		 M224.204,852.566c-24.965,0-45.276,20.278-45.276,45.204c0,24.92,20.311,45.193,45.276,45.193
		c24.97,0,45.285-20.273,45.285-45.193C269.488,872.845,249.174,852.566,224.204,852.566z M33.166,835.565h388.551V126.003H33.166
		V835.565z M190.002,55.914c-3.93,0-7.126,3.191-7.126,7.113c0,3.922,3.197,7.114,7.126,7.114h74.817
		c3.928,0,7.124-3.191,7.124-7.114c0-3.922-3.196-7.113-7.124-7.113H190.002z M227.639,22.736c-5.417,0-9.825,4.398-9.825,9.805
		c0,5.405,4.407,9.802,9.825,9.802c5.415,0,9.819-4.397,9.819-9.802C237.458,27.134,233.054,22.736,227.639,22.736z"/>
	<path fill="#7C7C7C" d="M370.219,1.986V2h2h21.032c33.252,0,59.299,24.934,59.299,56.765v244.024v87.638v104.098v139.93v275.569
		c0,19.705-13.317,34.439-21.255,41.469c-11.865,10.507-26.798,17.296-38.044,17.296H60.983c-11.387,0-26.304-6.785-38.003-17.287
		c-7.795-6.996-20.872-21.688-20.872-41.478V634.455v-139.93V390.427v-87.638v-18.918h0.047v-2v-24.898l-0.047-2v-55.279l-0.01-2
		v-20.892h0.01v-2v-56.028l-0.01-2V80.929h0.01v-2V58.765C2.108,26.934,27.969,2,60.983,2h245.129l2-0.014H370.219 M227.639,43.343
		c5.965,0,10.819-4.846,10.819-10.802c0-5.958-4.854-10.805-10.819-10.805c-5.969,0-10.825,4.847-10.825,10.805
		C216.814,38.497,221.67,43.343,227.639,43.343 M190.002,71.14h74.817c4.479,0,8.124-3.64,8.124-8.114
		c0-4.474-3.645-8.113-8.124-8.113h-74.817c-4.481,0-8.126,3.639-8.126,8.113C181.875,67.5,185.521,71.14,190.002,71.14
		 M32.166,836.565h2h386.551h2v-2V127.003v-2h-2H34.166h-2v2v707.563V836.565 M224.204,943.964
		c25.521,0,46.285-20.723,46.285-46.193c0-25.478-20.764-46.204-46.285-46.204c-25.517,0-46.276,20.727-46.276,46.204
		C177.928,923.241,198.687,943.964,224.204,943.964 M372.219-0.014h-66.106V0H60.983C27.363,0,0.108,25.202,0.108,58.765v20.164
		h-0.01v39.845h0.01v56.028h-0.01v24.892h0.01v57.279h0.047v24.898H0.108v20.918v87.638v104.098v139.93v275.569
		c0,33.558,37.137,60.765,60.875,60.765h332.268c23.254,0,61.299-27.207,61.299-60.765V634.455v-139.93V390.427v-87.638V58.765
		C454.55,25.202,426.871,0,393.251,0h-21.032V-0.014L372.219-0.014z M227.639,41.343c-4.875,0-8.825-3.94-8.825-8.802
		c0-4.869,3.95-8.805,8.825-8.805c4.874,0,8.819,3.936,8.819,8.805C236.458,37.402,232.513,41.343,227.639,41.343L227.639,41.343z
		 M190.002,69.14c-3.383,0-6.126-2.741-6.126-6.114c0-3.371,2.743-6.113,6.126-6.113h74.817c3.392,0,6.124,2.742,6.124,6.113
		c0,3.373-2.732,6.114-6.124,6.114H190.002L190.002,69.14z M34.166,834.565V127.003h386.551v707.563H34.166L34.166,834.565z
		 M224.204,941.964c-24.449,0-44.276-19.788-44.276-44.193c0-24.413,19.827-44.204,44.276-44.204
		c24.459,0,44.285,19.791,44.285,44.204C268.488,922.176,248.663,941.964,224.204,941.964L224.204,941.964z"/>
</g>
<g id="XMLID_130_">
	<path fill="#7C7C7C" d="M229.418,886.688c3.739,0,6.781,3.03,6.781,6.756v10.014c0,3.723-3.042,6.752-6.781,6.752h-10.023
		c-3.734,0-6.772-3.029-6.772-6.752v-10.014c0-3.726,3.038-6.756,6.772-6.756H229.418 M219.395,910.041h10.023
		c3.64,0,6.601-2.953,6.601-6.584v-10.014c0-3.637-2.961-6.596-6.601-6.596h-10.023c-3.637,0-6.596,2.959-6.596,6.596v10.014
		C212.799,907.088,215.758,910.041,219.395,910.041 M229.418,884.688h-10.023c-4.832,0-8.772,3.929-8.772,8.756v10.014
		c0,4.82,3.94,8.752,8.772,8.752h10.023c4.842,0,8.781-3.932,8.781-8.752v-10.014C238.199,888.616,234.26,884.688,229.418,884.688
		L229.418,884.688z M219.395,908.041c-2.536,0-4.596-2.058-4.596-4.584v-10.014c0-2.529,2.061-4.596,4.596-4.596h10.023
		c2.539,0,4.601,2.066,4.601,4.596v10.014c0,2.526-2.062,4.584-4.601,4.584H219.395L219.395,908.041z"/>
</g>
<g id="XMLID_1_">
	<path fill="#7C7C7C" d="M169.94,60.566c1.387,0,2.516,1.125,2.516,2.508c0,1.382-1.129,2.507-2.516,2.507
		c-1.389,0-2.519-1.125-2.519-2.507C167.421,61.691,168.551,60.566,169.94,60.566 M169.94,58.566c-2.496,0-4.519,2.016-4.519,4.508
		c0,2.49,2.023,4.507,4.519,4.507c2.496,0,4.516-2.017,4.516-4.507C174.456,60.582,172.436,58.566,169.94,58.566L169.94,58.566z"/>
</g>
</svg>
