<?xml version="1.0" encoding="utf-8"?>
<!-- Generator: Adobe Illustrator 16.0.0, SVG Export Plug-In . SVG Version: 6.00 Build 0)  -->
<!DOCTYPE svg PUBLIC "-//W3C//DTD SVG 1.1//EN" "http://www.w3.org/Graphics/SVG/1.1/DTD/svg11.dtd">
<svg version="1.1" id="Calque_1" xmlns="http://www.w3.org/2000/svg" xmlns:xlink="http://www.w3.org/1999/xlink" x="0px" y="0px"
	 width="381px" height="802px" viewBox="0 0 381 802" enable-background="new 0 0 381 802" xml:space="preserve">
<path fill="#FFFFFF" d="M229,75c0,2.209-1.791,4-4,4h-64c-2.209,0-4-1.791-4-4v-4c0-2.209,1.791-4,4-4h64c2.209,0,4,1.791,4,4V75z"
	/>
<circle fill="#FFFFFF" cx="193.75" cy="41" r="8.125"/>
<circle fill="#FFFFFF" cx="190.667" cy="741.833" r="37.5"/>
<g id="XMLID_472_">
	<path fill="#FFFFFF" d="M55.211,800.881c-19.504,0-49.392-22.087-49.392-49.301V241.198H1v-18.61h4.819v-49.415H1v-18.605h4.819
		v-48.379H1V75.205h4.819V57.514c0-27.184,22.157-49.299,49.392-49.299h203.915V1h52.722v7.215h18.41
		C357.686,8.215,380,30.331,380,57.514V751.58c0,26.738-30.553,49.301-49.742,49.301H55.211z M190.322,703.845
		c-20.76,0-37.65,16.863-37.65,37.591c0,20.724,16.89,37.584,37.65,37.584c20.765,0,37.659-16.86,37.659-37.584
		C227.98,720.708,211.087,703.845,190.322,703.845z M32.012,690.116h321.981V113H32.012V690.116z M162.011,67.131
		c-3.348,0-6.071,2.718-6.071,6.06c0,3.342,2.723,6.061,6.071,6.061h61.934c3.347,0,6.069-2.719,6.069-6.061
		c0-3.341-2.723-6.06-6.069-6.06H162.011z M193.166,33.259c-4.579,0-8.304,3.718-8.304,8.288c0,4.569,3.725,8.287,8.304,8.287
		c4.577,0,8.301-3.717,8.301-8.287C201.467,36.977,197.743,33.259,193.166,33.259z"/>
	<path fill="#7C7C7C" d="M310.848,2v5.215v2h2h17.41C357.135,9.215,379,30.882,379,57.514v202v72.546v86.171v115.831V751.58
		c0,16.177-10.95,28.289-17.479,34.07c-9.762,8.645-22.033,14.23-31.264,14.23H55.211c-9.346,0-21.604-5.582-31.229-14.222
		c-6.41-5.753-17.163-17.831-17.163-34.079V534.063V418.231V332.06v-72.546v-17.316v-2h-2H2v-16.61h2.819h2v-2v-47.415v-2h-2H2
		v-16.605h2.819h2v-2v-46.379v-2h-2H2V76.205h2.819h2v-2V57.514c0-26.632,21.708-48.299,48.392-48.299h202.915h2v-2V2H310.848
		 M193.166,50.833c5.129,0,9.301-4.166,9.301-9.287c0-5.122-4.172-9.288-9.301-9.288c-5.13,0-9.304,4.167-9.304,9.288
		C183.862,46.667,188.036,50.833,193.166,50.833 M162.011,80.252h61.934c3.898,0,7.069-3.167,7.069-7.061
		c0-3.893-3.171-7.06-7.069-7.06h-61.934c-3.899,0-7.071,3.167-7.071,7.06C154.94,77.084,158.112,80.252,162.011,80.252
		 M31.012,691.116h2h319.981h2v-2V114v-2h-2H33.012h-2v2v575.116V691.116 M190.322,780.02c21.317,0,38.659-17.309,38.659-38.584
		c0-21.279-17.342-38.591-38.659-38.591c-21.312,0-38.65,17.312-38.65,38.591C151.672,762.711,169.01,780.02,190.322,780.02
		 M312.848,0h-54.722v7.215H55.211c-27.83,0-50.392,22.516-50.392,50.299v16.691H0v32.983h4.819v46.379H0v20.605h4.819v47.415H0
		v20.61h4.819v17.316v72.546v86.171v115.831V751.58c0,27.778,30.741,50.301,50.392,50.301h275.047
		c19.25,0,50.742-22.522,50.742-50.301V534.063V418.231V332.06v-72.546v-202c0-27.783-22.911-50.299-50.742-50.299h-17.41V0
		L312.848,0z M193.166,48.833c-4.035,0-7.304-3.262-7.304-7.287c0-4.03,3.269-7.288,7.304-7.288c4.034,0,7.301,3.258,7.301,7.288
		C200.467,45.572,197.2,48.833,193.166,48.833L193.166,48.833z M162.011,78.252c-2.801,0-5.071-2.269-5.071-5.061
		c0-2.791,2.27-5.06,5.071-5.06h61.934c2.807,0,5.069,2.269,5.069,5.06c0,2.792-2.263,5.061-5.069,5.061H162.011L162.011,78.252z
		 M33.012,689.116V114h319.981v575.116H33.012L33.012,689.116z M190.322,778.02c-20.238,0-36.65-16.382-36.65-36.584
		c0-20.209,16.412-36.591,36.65-36.591c20.248,0,36.659,16.382,36.659,36.591C226.98,761.638,210.569,778.02,190.322,778.02
		L190.322,778.02z"/>
</g>
<g id="XMLID_130_">
	<path fill="#7C7C7C" d="M195.282,729.821c3.687,0,6.687,2.988,6.687,6.662v9.907c0,3.672-3,6.659-6.687,6.659h-9.917
		c-3.683,0-6.679-2.987-6.679-6.659v-9.907c0-3.674,2.996-6.662,6.679-6.662H195.282 M185.366,752.925h9.917
		c3.612,0,6.551-2.932,6.551-6.534v-9.907c0-3.608-2.938-6.545-6.551-6.545h-9.917c-3.61,0-6.547,2.937-6.547,6.545v9.907
		C178.819,749.993,181.756,752.925,185.366,752.925 M195.282,727.821h-9.917c-4.781,0-8.679,3.888-8.679,8.662v9.907
		c0,4.768,3.898,8.659,8.679,8.659h9.917c4.789,0,8.687-3.892,8.687-8.659v-9.907C203.969,731.709,200.071,727.821,195.282,727.821
		L195.282,727.821z M185.366,750.925c-2.508,0-4.547-2.035-4.547-4.534v-9.907c0-2.502,2.039-4.545,4.547-4.545h9.917
		c2.512,0,4.551,2.043,4.551,4.545v9.907c0,2.499-2.039,4.534-4.551,4.534H185.366L185.366,750.925z"/>
</g>
</svg>
