<?xml version="1.0" encoding="utf-8"?>
<!-- Generator: Adobe Illustrator 19.1.0, SVG Export Plug-In . SVG Version: 6.00 Build 0)  -->
<svg version="1.1" id="Calque_1" xmlns="http://www.w3.org/2000/svg" xmlns:xlink="http://www.w3.org/1999/xlink" x="0px" y="0px"
	 viewBox="120 -310 400 781" style="enable-background:new 120 -310 400 781;" xml:space="preserve">
<style type="text/css">
	.st0{fill:#FFFFFF;}
	.st1{fill:#555555;}
</style>
<g id="XMLID_1_">
	<path class="st0" d="M469.2-295.3c-17.7-10-107.1-9.7-151-9.7c-43,0-121.2,0-142.8,8.6c-25.4,8.1-45.1,29.8-48.3,58.8l0-0.1
		c0,0-1.9,209.6-1.9,317.1c0,128.1,1.9,309.6,1.9,309.6c0,32.9,20.4,60.8,48.3,69.6c21.5,8.6,99.7,8.6,142.8,8.6
		c44,0,133.3,0.3,151-9.8c26.2-9.9,45-36.8,45-68.5c0-1.5,0.6-197.3,0.6-309.6c0-96.3-0.6-306.8-0.6-308.3
		C514.2-260.6,495.4-285.4,469.2-295.3z M436.9-284.1c6,0,10.9,4.9,10.9,11c0,6.1-4.9,11-10.9,11c-6,0-10.9-4.9-10.9-11
		C426-279.2,430.9-284.1,436.9-284.1z M399.5-280.3c3.9,0,7.1,3.2,7.1,7.2c0,4-3.2,7.2-7.1,7.2c-3.9,0-7.1-3.2-7.1-7.2
		C392.4-277.1,395.6-280.3,399.5-280.3z M381-280.3c3.9,0,7.1,3.2,7.1,7.2c0,4-3.2,7.2-7.1,7.2c-3.9,0-7.1-3.2-7.1-7.2
		C373.9-277.1,377.1-280.3,381-280.3z M280.3-291.1h77.6c2.6,0,4.6,2.1,4.6,4.7c0,2.6-2.1,4.7-4.6,4.7h-77.6c-2.6,0-4.6-2.1-4.6-4.7
		C275.6-289,277.7-291.1,280.3-291.1z M338.2,451.3h-36.1c-11,0-30-6-30-16.8c0-6.9,5.7-9,12.8-9h70.5c7.1,0,12.8,3.1,12.8,9
		C368.2,444.6,351,451.3,338.2,451.3z M505.5,401.1h-370v-632h370L505.5,401.1L505.5,401.1z"/>
</g>
<path class="st0" d="M365.5,435c-4.7,5.6-17.2,10.2-45.9,10.6c-25.2,0.3-45.9-5.2-45.9-12.5c0-3.7-3.5-11.6,5.1-14
	c8.2-2.3,28.4-1,40.8-1c12.9,0,37.7-1.6,43.4,1.4C370.4,423.4,368.1,431.9,365.5,435z"/>
<circle class="st0" cx="379.7" cy="-266.3" r="8"/>
<circle class="st0" cx="398.7" cy="-266.3" r="8"/>
<circle class="st0" cx="434.7" cy="-266.3" r="11.5"/>
<path class="st0" d="M363-278c0,2.2-1.8,4-4,4h-78.8c-2.2,0-4.2-1.8-4.2-4v-2c0-2.2,2-4,4.2-4H359c2.2,0,4,1.8,4,4V-278z"/>
<path id="XMLID_344_" class="st0" d="M516.6-216.7c0-4.9,0-7.6,0-7.7c0-31-18.5-56.6-45.8-66.9c-17.6-9.8-103.9-9.8-145.4-9.8
	l-7.2,0c-42.7,0-122.2,0-144,8.6c-26.1,8.2-45.2,29.8-48.8,58.5l0,0l0,0.9c0,2.1-2.4,209.9-2.4,315.7c0,126.1,1.8,306.4,1.9,308.2
	c0,32.2,20.3,61.1,49.3,70.2c21.8,8.6,101.3,8.6,144.1,8.6h7.2h0c41.5,0,127.8,0,145.3-9.8c27.5-10.3,46-38,46-69c0-0.2,0-2.4,0-6.4
	c0.4-130,0.6-237.2,0.6-301.8C517.2,26.8,517-76.7,516.6-216.7z M514.7,384.3c0,4,0,6.3,0,6.4c0,30.2-18,57.2-44.9,67.3
	c-17.2,9.6-103.2,9.6-144.5,9.6h-7.2c-42.6,0-121.8,0-143.4-8.5c-28.3-8.9-48-37-48-68.4c0-1.8-1.9-182.1-1.9-308.2
	c0-102.1,1.7-299.4,1.9-314.7h0.4l0.1-0.8c3.2-28.3,21.9-49.7,47.6-57.7c21.5-8.5,100.8-8.5,143.4-8.5l7.1,0
	c41.3,0,127.3,0,144.7,9.6c26.8,10,44.7,35,44.7,65.2c0,0.2,0,2.9,0,7.8c0.4,140,0.6,243.4,0.6,299.2
	C515.3,147.1,515.1,254.3,514.7,384.3z"/>
<path id="XMLID_145_" class="st1" d="M519.1-224.4c0-4.9,0-7.7,0-7.8c0-31.4-18.7-57.4-46.4-67.8c-17.8-10-105.3-10-147.3-10l-7.3,0
	c-43.3,0-123.8,0-145.9,8.7c-26.5,8.3-46.3,30.1-49.9,59.2l-0.1,0.1l0,0.9c0,2.1-1.9,212.7-1.9,319.8c0,127.7,1.9,310.4,1.9,312.2
	c0,32.6,20.6,61.9,49.9,71.1c22.1,8.7,102.7,8.7,146,8.7h7.3h0c42,0,129.5,0,147.2-9.9c27.9-10.4,46.6-38.5,46.6-69.9
	c0-0.2,0-2.4,0-6.5c0.4-131.7,0.6-240.3,0.6-305.7C519.7,22.2,519.5-82.6,519.1-224.4z M514.7,380.5c0,4,0,6.3,0,6.4
	c0,30.2-18,57.2-44.9,67.3c-17.2,9.6-103.2,9.6-144.5,9.6h-7.2c-42.6,0-121.8,0-143.4-8.5c-28.3-8.9-48-37-48-68.4
	c0-1.8-1.9-182.1-1.9-308.2c0-102.1,1.7-299.4,1.9-314.7l0.1-0.2l0.1-0.8c3.2-28.3,22.2-49.4,47.9-57.5
	c21.5-8.5,100.8-8.5,143.4-8.5l7.1,0c41.3,0,127.3,0,144.7,9.6c26.8,10,44.7,35,44.7,65.2c0,0.2,0,2.9,0,7.8
	c0.4,140,0.6,243.4,0.6,299.2C515.3,143.3,515.1,250.5,514.7,380.5z"/>
<g id="XMLID_137_">
	<path class="st0" d="M318.2,458.8c-41.5,0-118.7,0-139.7-8.4c-27.6-8.7-46.8-36.4-46.8-67.4c0-1.8-1.8-179.5-1.8-303.7
		c0-101.8,1.7-299.5,1.8-310.6l0-0.3c3-26.9,20.9-48.7,46.7-56.9c21-8.4,98.2-8.4,139.7-8.4l7,0c40.3,0,124.1,0,140.8,9.4l0.1,0
		l0.1,0c26.8,10.2,43.5,34.8,43.5,64.1c0,0.2,0,2.9,0,7.7c0.4,137.9,0.6,239.9,0.6,294.8c0,63.6-0.2,169.3-0.6,297.4
		c0,4,0,6.2,0,6.3c0,29.7-17.5,56.4-43.5,66.2l-0.1,0l-0.1,0c-16.7,9.4-100.5,9.4-140.8,9.4L318.2,458.8z M285.6,418
		c-11.2,0-13.5,5.4-13.5,9.9c0,11.6,19.5,17.5,30.4,17.5h35.4c12.7,0,30.4-6.6,30.4-17.5c0-6-5.3-9.9-13.5-9.9H285.6z M138,396h365
		v-622H138V396z M434.6-278.2c-6.4,0-11.6,5.3-11.6,11.8s5.2,11.8,11.6,11.8c6.4,0,11.6-5.3,11.6-11.8
		C446.3-272.9,441.1-278.2,434.6-278.2z M398-274.5c-4.4,0-8,3.6-8,8.1c0,4.5,3.6,8.1,8,8.1c4.4,0,8-3.6,8-8.1
		C406-270.8,402.4-274.5,398-274.5z M379.8-274.5c-4.4,0-8,3.6-8,8.1c0,4.5,3.6,8.1,8,8.1c4.4,0,8-3.6,8-8.1
		C387.8-270.8,384.2-274.5,379.8-274.5z M281-285.1c-3.1,0-5.5,2.5-5.5,5.6c0,3.1,2.5,5.6,5.5,5.6h76.1c3.1,0,5.5-2.5,5.5-5.6
		c0-3.1-2.5-5.6-5.5-5.6C357.1-285.1,281-285.1,281-285.1z"/>
	<path class="st1" d="M325.1-295.8c37,0,123.8,0,140.3,9.3l0.1,0.1l0.1,0.1c12.6,4.8,23.2,13,30.8,23.8
		c7.9,11.3,12.1,24.9,12.1,39.4c0,0.2,0,2.9,0,7.7c0.4,137.9,0.6,239.9,0.6,294.8c0,63.6-0.2,169.3-0.6,297.4c0,4,0,6.2,0,6.3
		c0,29.3-17.2,55.6-42.9,65.3l-0.1,0.1l-0.1,0.1c-16.5,9.3-103.2,9.3-140.3,9.3l-3.6,0h-3.3h-0.1c-41.4,0-118.4,0-139.2-8.3l-0.1,0
		l-0.1,0c-13-4.1-24.7-12.8-33-24.5c-8.6-12.1-13.1-26.6-13.1-41.9c0-1.8-1.8-179.5-1.8-303.7c0-101.5,1.7-298.5,1.8-310.5l0-0.3
		c3-26.5,20.6-48,46-56l0.1,0l0.1,0c20.8-8.3,97.9-8.3,139.3-8.3h3.3L325.1-295.8 M281-272.9h76.1c3.6,0,6.5-3,6.5-6.6
		c0-3.6-2.9-6.6-6.5-6.6H281c-3.6,0-6.5,3-6.5,6.6C274.5-275.8,277.4-272.9,281-272.9 M434.6-253.6c7,0,12.6-5.7,12.6-12.8
		c0-7-5.7-12.8-12.6-12.8c-7,0-12.6,5.7-12.6,12.8S427.7-253.6,434.6-253.6 M398-257.3c5,0,9-4.1,9-9.1c0-5-4-9.1-9-9.1
		c-5,0-9,4.1-9,9.1C389-261.4,393-257.3,398-257.3 M379.8-257.3c5,0,9-4.1,9-9.1c0-5-4-9.1-9-9.1c-5,0-9,4.1-9,9.1
		C370.8-261.4,374.9-257.3,379.8-257.3 M137,397h2h363h2v-2v-620v-2h-2H139h-2v2v620V397 M302.5,446.3h35.4c13.1,0,31.4-7,31.4-18.5
		c0-6.5-5.8-10.9-14.5-10.9h-69.2c-12,0-14.5,5.9-14.5,10.9C271,440.1,291.2,446.3,302.5,446.3 M325.1-297.8c-2.4,0-4.7,0-6.9,0
		c-42.2,0-118.9,0-140.1,8.4c-25,7.9-44.2,29.2-47.4,57.7l0-0.1c0,0-1.8,205.6-1.8,311.1c0,125.7,1.8,303.7,1.8,303.7
		c0,32.3,20,59.6,47.4,68.3c21.1,8.4,97.7,8.4,139.9,8.4c0,0,0.1,0,0.1,0c2.2,0,4.5,0,6.9,0c44.9,0,124.7-0.2,141.3-9.6
		c25.7-9.8,44.2-36.1,44.2-67.2c0-1.5,0.6-193.6,0.6-303.7c0-94.5-0.6-301-0.6-302.5c0-31-18.5-55.3-44.2-65.1
		C449.8-297.5,370-297.8,325.1-297.8L325.1-297.8z M281-274.9c-2.5,0-4.5-2.1-4.5-4.6c0-2.5,2-4.6,4.5-4.6h76.1
		c2.5,0,4.5,2.1,4.5,4.6c0,2.5-2,4.6-4.5,4.6H281L281-274.9z M434.6-255.6c-5.9,0-10.6-4.8-10.6-10.8c0-5.9,4.8-10.8,10.6-10.8
		c5.9,0,10.6,4.8,10.6,10.8C445.3-260.4,440.5-255.6,434.6-255.6L434.6-255.6z M398-259.3c-3.9,0-7-3.2-7-7.1c0-3.9,3.1-7.1,7-7.1
		c3.9,0,7,3.2,7,7.1C405-262.5,401.9-259.3,398-259.3L398-259.3z M379.8-259.3c-3.9,0-7-3.2-7-7.1c0-3.9,3.1-7.1,7-7.1
		c3.9,0,7,3.2,7,7.1C386.8-262.5,383.7-259.3,379.8-259.3L379.8-259.3z M139,395v-620h363v620H139L139,395z M302.5,444.3
		c-10.8,0-29.4-5.9-29.4-16.5c0-6.8,5.6-8.9,12.5-8.9h69.2c6.9,0,12.5,3,12.5,8.9c0,9.8-16.9,16.5-29.4,16.5H302.5L302.5,444.3z"/>
</g>
</svg>
