<?xml version="1.0" encoding="utf-8"?>
<!-- Generator: Adobe Illustrator 19.1.0, SVG Export Plug-In . SVG Version: 6.00 Build 0)  -->
<svg version="1.1" id="Calque_1" xmlns="http://www.w3.org/2000/svg" xmlns:xlink="http://www.w3.org/1999/xlink" x="0px" y="0px"
	 viewBox="120 -284 400 728" style="enable-background:new 120 -284 400 728;" xml:space="preserve">
<style type="text/css">
	.st0{fill:#FFFFFF;}
	.st1{fill:#555555;}
</style>
<path class="st0" d="M144-264v670h347v-670H144z M469,319H168v-532h301V319z"/>
<g id="XMLID_170_">
	<g id="XMLID_171_">
		<path class="st0" d="M132,432.9v-714.1h371.8v714.7L132,432.9z M143.5-262.5v670.1h348.9v-671L143.5-262.5z M301.5-274.3
			c-1.7,0-3.2,1.4-3.2,3.2c0,1.7,1.4,3.2,3.2,3.2h34.2c1.7,0,3.2-1.4,3.2-3.2c0-1.7-1.4-3.2-3.2-3.2
			C335.7-274.3,301.5-274.3,301.5-274.3z"/>
		<path class="st1" d="M502.8-280.3v712.7L133,431.9v-712.1H502.8 M301.5-266.9h34.2c2.3,0,4.2-1.9,4.2-4.2c0-2.3-1.9-4.2-4.2-4.2
			h-34.2c-2.3,0-4.2,1.9-4.2,4.2C297.3-268.8,299.2-266.9,301.5-266.9 M142.5,408.7h2h346.9h2v-2v-669v-2l-2,0l-346.9,0.9l-2,0v2
			v668.2L142.5,408.7 M504.8-282.3H131v716.1l373.8,0.6L504.8-282.3L504.8-282.3z M301.5-268.9c-1.2,0-2.2-1-2.2-2.2s1-2.2,2.2-2.2
			h34.2c1.2,0,2.2,1,2.2,2.2s-1,2.2-2.2,2.2H301.5L301.5-268.9z M144.5,406.7v-668.2l346.9-0.9v669L144.5,406.7L144.5,406.7z"/>
	</g>
</g>
<rect x="195" y="332" class="st0" width="43" height="40"/>
<rect x="301" y="332" class="st0" width="43" height="40"/>
<rect x="402" y="332" class="st0" width="43" height="40"/>
<g id="XMLID_179_">
	<g id="XMLID_38_">
		<path class="st0" d="M428.6,349.7c-2.4,0-4.4-2-4.4-4.4c0-2.4,2-4.4,4.4-4.4c2.4,0,4.4,2,4.4,4.4C433,347.8,431,349.7,428.6,349.7
			z"/>
		<path class="st1" d="M428.6,341.9c1.9,0,3.4,1.5,3.4,3.4c0,1.9-1.5,3.4-3.4,3.4c-1.9,0-3.4-1.5-3.4-3.4
			C425.2,343.5,426.7,341.9,428.6,341.9 M428.6,339.9c-3,0-5.4,2.4-5.4,5.4c0,3,2.4,5.4,5.4,5.4c3,0,5.4-2.4,5.4-5.4
			C434,342.4,431.6,339.9,428.6,339.9L428.6,339.9z"/>
	</g>
	<g id="XMLID_180_">
		<path class="st0" d="M171.3,402.3c-12.3,0-22.3-10-22.3-22.3v-613.4c0-12.3,10-22.3,22.3-22.3h293.3c12.3,0,22.3,10,22.3,22.3
			v613.4c0,12.3-10,22.3-22.3,22.3L171.3,402.3L171.3,402.3z M317.5,356.6c0.8,0.5,2,1.1,3.5,1.2c0.3,0,0.7,0,1,0c4,0,6-2,6.1-2.1
			l0.2-0.2l2.4-8.7l-0.2,0l0.3-0.2l3-10.9l-2.1,1.2c0,0-1.6,0.9-4,0.9c-0.2,0-0.5,0-0.7,0c-1-0.1-1.7-0.4-2.6-1.1l-0.6-0.4l0,0
			l-0.6-0.4c-0.8-0.5-1.8-1.1-3.2-1.6c-1.2-0.4-2.3-0.6-3.4-0.6c-1.9,0-3.1,0.6-3.2,0.7l-0.3,0.2l-3.3,9.3l0,0l-3.8,10.9l1.9-0.6
			c0,0,1.3-0.4,3.3-0.4c0.7,0,1.4,0,2.1,0.1c1,0.1,2,0.8,3,1.5l0.9,0.6l0,0l0.1,0l0.4,0.3l0,0L317.5,356.6z M203.9,346.5
			c-0.1,0.7,0.1,1.4,0.6,1.9l8.7,8.4c0.4,0.4,0.9,0.6,1.5,0.6c0.6,0,1.3-0.3,1.7-0.7c0.4-0.5,0.7-1.1,0.7-1.7c0-0.6-0.2-1.1-0.7-1.5
			l-4.3-4.1h9.7c1.4,0,2.6-1.2,2.6-2.6c0-1.4-1.2-2.6-2.6-2.6h-10.1l4.6-4.4c0.9-0.9,0.9-2.3,0-3.2c-0.5-0.5-1.1-0.7-1.7-0.7
			c-0.6,0-1.1,0.2-1.5,0.6l-8.7,8.4C204,345.1,203.8,345.8,203.9,346.5z M417.5,353c-0.9,0.8-0.9,2.3,0,3.3c0.5,0.6,1.2,0.9,1.9,0.9
			c0.5,0,1-0.2,1.4-0.5l3.8-3.4c1.2,0.6,2.6,0.9,4,0.9c5,0,9-4,9-9c0-5-4-9-9-9c-5,0-9,4-9,9c0,1.6,0.4,3.2,1.3,4.6L417.5,353z
			 M169,320h300V-213H169V320z"/>
		<path class="st1" d="M464.6-254.8c11.7,0,21.3,9.6,21.3,21.3v613.4c0,11.8-9.5,21.3-21.3,21.3H171.3c-11.7,0-21.3-9.6-21.3-21.3
			v-613.4c0-11.8,9.5-21.3,21.3-21.3H464.6 M168,321h2h298h2v-2V-212v-2h-2H170h-2v2V319V321 M307.9,345.4L307.9,345.4l-2.5,7.3
			l-1.3,3.8l3.8-1.2c0,0,1.2-0.4,3-0.4c0.6,0,1.3,0,1.9,0.1c0.8,0.1,1.6,0.7,2.6,1.4l0.2,0.2l0,0l0,0.1l0.7,0.4l1.5,1.1l0.1-0.2
			c0.8,0.4,1.8,0.7,3,0.8c0.4,0,0.7,0,1.1,0c4.3,0,6.5-2.1,6.8-2.3l0.4-0.4l0.1-0.5l1.9-6.9l0.3-1.2l0,0l0.2-0.8l2.2-8.1l1.2-4.5
			l-4.1,2.3c0,0-1.4,0.7-3.5,0.7c-0.2,0-0.4,0-0.6,0c-0.7-0.1-1.3-0.3-2.1-0.9l0,0l-1.3-0.8c-0.1,0-0.1-0.1-0.2-0.1l-0.8-0.5l0,0
			c-0.7-0.4-1.5-0.8-2.4-1.1c-1.3-0.5-2.5-0.7-3.8-0.7c-2.2,0-3.5,0.7-3.7,0.8l-0.6,0.4l-0.2,0.7l-2.5,7.3L307.9,345.4 M202.9,346.5
			c-0.1,1,0.2,1.9,0.9,2.6l8.7,8.3c0.6,0.6,1.4,0.9,2.2,0.9c0.9,0,1.8-0.4,2.4-1c0.6-0.6,1-1.5,1-2.4c0-0.9-0.4-1.7-1-2.2l-2.5-2.4
			h7.3c2,0,3.6-1.6,3.6-3.6c0-2-1.6-3.6-3.6-3.6h-7.6l2.8-2.7c1.3-1.2,1.3-3.3,0-4.6c-0.6-0.7-1.5-1-2.4-1c-0.8,0-1.6,0.3-2.2,0.9
			l-8.7,8.4C203.1,344.6,202.8,345.5,202.9,346.5 M419.6,349.8l-2.8,2.5c-1.3,1.2-1.3,3.3-0.1,4.7c0.7,0.8,1.7,1.2,2.7,1.2
			c0.8,0,1.5-0.3,2-0.8l3.3-2.9c1.2,0.5,2.5,0.8,3.8,0.8c5.5,0,10-4.5,10-10c0-5.5-4.5-10-10-10c-5.5,0-10,4.5-10,10
			C418.6,346.9,419,348.4,419.6,349.8 M464.6-256.8H171.3c-12.8,0-23.3,10.4-23.3,23.3v613.4c0,12.9,10.4,23.3,23.3,23.3h293.3
			c12.8,0,23.3-10.5,23.3-23.3v-613.4C487.8-246.4,477.4-256.8,464.6-256.8L464.6-256.8z M170,319V-212h298V319H170L170,319z
			 M311,342.7l2.5-7.3c0,0,1-0.6,2.7-0.6c0.9,0,1.9,0.1,3.1,0.6c1.3,0.5,2.2,1,3,1.5l-2.6,8.4c0.4,0.4,0.8,0.7,1.2,0.9l2.6-8.5
			c1,0.6,1.9,1.1,3.1,1.2c0.3,0,0.5,0,0.8,0c2.8,0,4.5-1,4.5-1l-2.2,8.1c-0.1,0.1-0.2,0.1-0.3,0.2c-0.3,0.3-2.2,0.9-4.3,0.9
			c-1.4,0-2.9-0.3-4.2-1l-0.5,1.5c1.3,0.8,3,1,4.4,1c2.3,0,4.2-0.6,4.2-0.6l0,0l-1.9,6.9c0,0-1.8,1.8-5.4,1.8c-0.3,0-0.6,0-0.9,0
			c-1.2-0.1-2.2-0.5-3.1-1.1l2.5-8c-0.4-0.2-0.8-0.5-1.2-0.9c0,0,0,0,0,0l-2.5,8.1c-1.2-0.9-2.3-1.7-3.7-1.9
			c-0.8-0.1-1.5-0.1-2.2-0.1c-2.3,0-3.7,0.5-3.7,0.5l3.2-9.1c0.6-0.1,1.4-0.2,2.2-0.2c2.1,0,4.5,0.7,6.7,2.8l0.5-1.5
			c-0.1-0.1-0.1-0.1-0.2-0.2c-2.1-2.2-4.7-2.7-6.5-2.7C312.1,342.4,311.3,342.6,311,342.7L311,342.7z M214.7,356.3
			c-0.3,0-0.6-0.1-0.8-0.3l-8.7-8.4c-0.3-0.3-0.4-0.7-0.3-1.1c-0.1-0.4,0-0.8,0.3-1.1l8.7-8.4c0.2-0.2,0.5-0.3,0.8-0.3
			c0.4,0,0.7,0.1,1,0.4c0.5,0.5,0.5,1.3,0,1.8l-6.4,6.2h12.6c0.9,0,1.6,0.7,1.6,1.6c0,0.9-0.7,1.6-1.6,1.6h-12.2l6.1,5.8
			c0.5,0.5,0.5,1.3,0,1.8C215.5,356.2,215.1,356.3,214.7,356.3L214.7,356.3z M419.5,356.3c-0.4,0-0.9-0.2-1.2-0.6
			c-0.5-0.6-0.6-1.5-0.1-1.9l4.1-3.6c-1-1.3-1.6-3-1.6-4.8c0-4.4,3.6-8,8-8c4.4,0,8,3.6,8,8c0,4.4-3.6,8-8,8c-1.5,0-2.9-0.4-4.1-1.2
			l-4.3,3.8C420,356.2,419.7,356.3,419.5,356.3L419.5,356.3z"/>
	</g>
</g>
<path id="XMLID_176_" class="st1" d="M505.8-42.2c1,0,1.8-1.2,1.8-2.6v-51.9c0-1.4-0.8-2.6-1.8-2.6c-0.3,0-0.6,0.1-0.9,0.3v-3.7
	c0.2,0.1,0.4,0.2,0.6,0.2c1.1,0,1.9-1.2,1.9-2.6V-157c0-1.4-0.9-2.6-1.9-2.6c-0.2,0-0.4,0.1-0.6,0.2v-122.7H131.8v711.8l0.5,0.1
	c0.4,0.1,10.4,3.3,33,3.5h0.1c5.4,0,294.8-0.2,297.8-0.2c36.1-0.3,41.2-3.2,41.4-3.3l0.3-0.2V306.5c0.2,0.1,0.4,0.2,0.6,0.2
	c1.1,0,1.9-1.3,1.9-2.8v-56.6c0-1.6-0.9-2.8-1.9-2.8c-0.2,0-0.4,0.1-0.6,0.2V40c0.2,0.1,0.4,0.2,0.6,0.2c1.1,0,1.9-1.3,1.9-2.8v-56
	c0-1.5-0.9-2.8-1.9-2.8c-0.2,0-0.4,0.1-0.6,0.2v-21.3C505.2-42.3,505.4-42.2,505.8-42.2z M503.6,428.8c-1.5,0.6-9.3,2.7-40.4,3
	c-2.9,0-292.4,0.2-297.8,0.2v0.7l-0.1-0.7c-19.8-0.2-30-2.7-32.2-3.3v-709.5h370.5V-157v51.9L503.6,428.8L503.6,428.8z"/>
</svg>
