<?xml version="1.0" encoding="utf-8"?>
<!-- Generator: Adobe Illustrator 19.1.0, SVG Export Plug-In . SVG Version: 6.00 Build 0)  -->
<svg version="1.1" id="Calque_1" xmlns="http://www.w3.org/2000/svg" xmlns:xlink="http://www.w3.org/1999/xlink" x="0px" y="0px"
	 viewBox="120 -284 400 728" style="enable-background:new 120 -284 400 728;" xml:space="preserve">
<style type="text/css">
	.st0{fill:#FFFFFF;}
	.st1{fill:#555555;}
</style>
<path class="st0" d="M144-264v670h347v-670H144z M469,319H168v-532h301V319z"/>
<g id="XMLID_170_">
	<g id="XMLID_171_">
		<path class="st0" d="M132,432.9v-714.1h371.8v714.7L132,432.9z M143.5-262.5v670.1h348.9v-671L143.5-262.5z M301.5-274.3
			c-1.7,0-3.2,1.4-3.2,3.2c0,1.7,1.4,3.2,3.2,3.2h34.2c1.7,0,3.2-1.4,3.2-3.2c0-1.7-1.4-3.2-3.2-3.2
			C335.7-274.3,301.5-274.3,301.5-274.3z"/>
		<path class="st1" d="M502.8-280.3v712.7L133,431.9v-712.1H502.8 M301.5-266.9h34.2c2.3,0,4.2-1.9,4.2-4.2c0-2.3-1.9-4.2-4.2-4.2
			h-34.2c-2.3,0-4.2,1.9-4.2,4.2C297.3-268.8,299.2-266.9,301.5-266.9 M142.5,408.7h2h346.9h2v-2v-669v-2l-2,0l-346.9,0.9l-2,0v2
			v668.2L142.5,408.7 M504.8-282.3H131v716.1l373.8,0.6L504.8-282.3L504.8-282.3z M301.5-268.9c-1.2,0-2.2-1-2.2-2.2s1-2.2,2.2-2.2
			h34.2c1.2,0,2.2,1,2.2,2.2s-1,2.2-2.2,2.2H301.5L301.5-268.9z M144.5,406.7v-668.2l346.9-0.9v669L144.5,406.7L144.5,406.7z"/>
	</g>
</g>

<path id="XMLID_176_" class="st1" d="M505.8-42.2c1,0,1.8-1.2,1.8-2.6v-51.9c0-1.4-0.8-2.6-1.8-2.6c-0.3,0-0.6,0.1-0.9,0.3v-3.7
	c0.2,0.1,0.4,0.2,0.6,0.2c1.1,0,1.9-1.2,1.9-2.6V-157c0-1.4-0.9-2.6-1.9-2.6c-0.2,0-0.4,0.1-0.6,0.2v-122.7H131.8v711.8l0.5,0.1
	c0.4,0.1,10.4,3.3,33,3.5h0.1c5.4,0,294.8-0.2,297.8-0.2c36.1-0.3,41.2-3.2,41.4-3.3l0.3-0.2V306.5c0.2,0.1,0.4,0.2,0.6,0.2
	c1.1,0,1.9-1.3,1.9-2.8v-56.6c0-1.6-0.9-2.8-1.9-2.8c-0.2,0-0.4,0.1-0.6,0.2V40c0.2,0.1,0.4,0.2,0.6,0.2c1.1,0,1.9-1.3,1.9-2.8v-56
	c0-1.5-0.9-2.8-1.9-2.8c-0.2,0-0.4,0.1-0.6,0.2v-21.3C505.2-42.3,505.4-42.2,505.8-42.2z M503.6,428.8c-1.5,0.6-9.3,2.7-40.4,3
	c-2.9,0-292.4,0.2-297.8,0.2v0.7l-0.1-0.7c-19.8-0.2-30-2.7-32.2-3.3v-709.5h370.5V-157v51.9L503.6,428.8L503.6,428.8z"/>
</svg>
