<?xml version="1.0" encoding="utf-8"?>
<!-- Generator: Adobe Illustrator 19.1.0, SVG Export Plug-In . SVG Version: 6.00 Build 0)  -->
<svg version="1.1" id="Calque_1" xmlns="http://www.w3.org/2000/svg" xmlns:xlink="http://www.w3.org/1999/xlink" x="0px" y="0px"
	 viewBox="111 -321 381 802" style="enable-background:new 111 -321 381 802;" xml:space="preserve">
<style type="text/css">
	.st0{fill:#FFFFFF;}
	.st1{fill:#555555;}
</style>
<path class="st0" d="M340-246c0,2.2-1.8,4-4,4h-64c-2.2,0-4-1.8-4-4v-4c0-2.2,1.8-4,4-4h64c2.2,0,4,1.8,4,4V-246z"/>
<circle class="st0" cx="304.8" cy="-280" r="8.1"/>
<circle class="st0" cx="301.7" cy="420.8" r="37.5"/>
<g id="XMLID_472_">
	<path class="st0" d="M166.2,479.9c-19.5,0-49.4-22.1-49.4-49.3V-79.8H112v-18.6h4.8v-49.4H112v-18.6h4.8v-48.4H112v-31h4.8v-17.7
		c0-27.2,22.2-49.3,49.4-49.3h203.9v-7.2h52.7v7.2h18.4c27.4,0,49.7,22.1,49.7,49.3v694.1c0,26.7-30.6,49.3-49.7,49.3L166.2,479.9
		L166.2,479.9z M301.3,382.8c-20.8,0-37.7,16.9-37.7,37.6c0,20.7,16.9,37.6,37.6,37.6c20.8,0,37.7-16.9,37.7-37.6
		C339,399.7,322.1,382.8,301.3,382.8z M143,369.1h322V-208H143V369.1z M273-253.9c-3.3,0-6.1,2.7-6.1,6.1s2.7,6.1,6.1,6.1h61.9
		c3.3,0,6.1-2.7,6.1-6.1c0-3.3-2.7-6.1-6.1-6.1H273z M304.2-287.7c-4.6,0-8.3,3.7-8.3,8.3c0,4.6,3.7,8.3,8.3,8.3
		c4.6,0,8.3-3.7,8.3-8.3S308.7-287.7,304.2-287.7z"/>
	<path class="st1" d="M421.8-319v5.2v2h2h17.4c26.9,0,48.7,21.7,48.7,48.3v202v72.5v86.2v115.8v217.5c0,16.2-11,28.3-17.5,34.1
		c-9.8,8.6-22,14.2-31.3,14.2h-275c-9.3,0-21.6-5.6-31.2-14.2c-6.4-5.8-17.2-17.8-17.2-34.1V213.1V97.2V11.1v-72.5v-17.3v-2h-2H113
		v-16.6h2.8h2v-2v-47.4v-2h-2H113v-16.6h2.8h2v-2v-46.4v-2h-2H113v-29h2.8h2v-2v-16.7c0-26.6,21.7-48.3,48.4-48.3h202.9h2v-2v-5.2
		H421.8 M304.2-270.2c5.1,0,9.3-4.2,9.3-9.3c0-5.1-4.2-9.3-9.3-9.3c-5.1,0-9.3,4.2-9.3,9.3C294.9-274.3,299-270.2,304.2-270.2
		 M273-240.7h61.9c3.9,0,7.1-3.2,7.1-7.1c0-3.9-3.2-7.1-7.1-7.1H273c-3.9,0-7.1,3.2-7.1,7.1C265.9-243.9,269.1-240.7,273-240.7
		 M142,370.1h2h320h2v-2V-207v-2h-2H144h-2v2v575.1V370.1 M301.3,459c21.3,0,38.7-17.3,38.7-38.6c0-21.3-17.3-38.6-38.7-38.6
		c-21.3,0-38.7,17.3-38.7,38.6C262.7,441.7,280,459,301.3,459 M423.8-321h-54.7v7.2H166.2c-27.8,0-50.4,22.5-50.4,50.3v16.7H111v33
		h4.8v46.4H111v20.6h4.8v47.4H111v20.6h4.8v17.3v72.5v86.2v115.8v217.5c0,27.8,30.7,50.3,50.4,50.3h275c19.2,0,50.7-22.5,50.7-50.3
		V213.1V97.2V11.1v-72.5v-202c0-27.8-22.9-50.3-50.7-50.3h-17.4V-321L423.8-321z M304.2-272.2c-4,0-7.3-3.3-7.3-7.3
		c0-4,3.3-7.3,7.3-7.3c4,0,7.3,3.3,7.3,7.3C311.5-275.4,308.2-272.2,304.2-272.2L304.2-272.2z M273-242.7c-2.8,0-5.1-2.3-5.1-5.1
		c0-2.8,2.3-5.1,5.1-5.1h61.9c2.8,0,5.1,2.3,5.1,5.1c0,2.8-2.3,5.1-5.1,5.1H273L273-242.7z M144,368.1V-207h320v575.1H144L144,368.1
		z M301.3,457c-20.2,0-36.7-16.4-36.7-36.6c0-20.2,16.4-36.6,36.6-36.6c20.2,0,36.7,16.4,36.7,36.6C338,440.6,321.6,457,301.3,457
		L301.3,457z"/>
</g>
<g id="XMLID_130_">
	<path class="st1" d="M306.3,408.8c3.7,0,6.7,3,6.7,6.7v9.9c0,3.7-3,6.7-6.7,6.7h-9.9c-3.7,0-6.7-3-6.7-6.7v-9.9
		c0-3.7,3-6.7,6.7-6.7H306.3 M296.4,431.9h9.9c3.6,0,6.6-2.9,6.6-6.5v-9.9c0-3.6-2.9-6.5-6.6-6.5h-9.9c-3.6,0-6.5,2.9-6.5,6.5v9.9
		C289.8,429,292.8,431.9,296.4,431.9 M306.3,406.8h-9.9c-4.8,0-8.7,3.9-8.7,8.7v9.9c0,4.8,3.9,8.7,8.7,8.7h9.9
		c4.8,0,8.7-3.9,8.7-8.7v-9.9C315,410.7,311.1,406.8,306.3,406.8L306.3,406.8z M296.4,429.9c-2.5,0-4.5-2-4.5-4.5v-9.9
		c0-2.5,2-4.5,4.5-4.5h9.9c2.5,0,4.6,2,4.6,4.5v9.9c0,2.5-2,4.5-4.6,4.5H296.4L296.4,429.9z"/>
</g>
</svg>
