<?xml version="1.0" encoding="utf-8"?>
<!-- Generator: Adobe Illustrator 19.1.0, SVG Export Plug-In . SVG Version: 6.00 Build 0)  -->
<svg version="1.1" id="Calque_1" xmlns="http://www.w3.org/2000/svg" xmlns:xlink="http://www.w3.org/1999/xlink" x="0px" y="0px"
	 viewBox="148 -405 455 971" style="enable-background:new 148 -405 455 971;" xml:space="preserve">
<style type="text/css">
	.st0{fill:#FFFFFF;}
	.st1{fill:#555555;}
</style>
<circle class="st0" cx="372.7" cy="492.8" r="44.8"/>
<path class="st0" d="M419-340.5c0,2.5-1.8,4.5-4,4.5h-79c-2.2,0-4-2-4-4.5v-4.5c0-2.5,1.8-4.1,4-4.1h79c2.2,0,4,1.6,4,4.1V-340.5z"
	/>
<circle class="st0" cx="375.8" cy="-373" r="9.6"/>
<circle class="st0" cx="317.8" cy="-342" r="3.6"/>
<g id="XMLID_472_">
	<path class="st0" d="M209,564.8c-11.8,0-26.6-6.7-38.7-17.5c-7.9-7.1-21.2-22-21.2-42.2v-627.2l0-1V-149h0v-57.3h0v-22.9l0-1v-57h0
		v-37.8l0-1v-20.2c0-32.4,26.3-57.8,59.9-57.8h246.1v0h64.1l1,0h21c33.8,0,60.3,25.4,60.3,57.8V505c0,32.4-37,59.8-60.3,59.8H209z
		 M372.2,447.6c-25,0-45.3,20.3-45.3,45.2c0,24.9,20.3,45.2,45.3,45.2c25,0,45.3-20.3,45.3-45.2
		C417.5,467.8,397.2,447.6,372.2,447.6z M181.2,430.6h388.6V-279H181.2V430.6z M338-349.1c-3.9,0-7.1,3.2-7.1,7.1s3.2,7.1,7.1,7.1
		h74.8c3.9,0,7.1-3.2,7.1-7.1c0-3.9-3.2-7.1-7.1-7.1H338z M375.6-382.3c-5.4,0-9.8,4.4-9.8,9.8c0,5.4,4.4,9.8,9.8,9.8
		c5.4,0,9.8-4.4,9.8-9.8C385.5-377.9,381.1-382.3,375.6-382.3z"/>
	<path class="st1" d="M518.2-403L518.2-403l2,0h21c33.3,0,59.3,24.9,59.3,56.8v244v87.6V89.5v139.9V505c0,19.7-13.3,34.4-21.3,41.5
		c-11.9,10.5-26.8,17.3-38,17.3H209c-11.4,0-26.3-6.8-38-17.3c-7.8-7-20.9-21.7-20.9-41.5V229.5V89.5V-14.6v-87.6v-18.9h0v-2V-148
		l0-2v-55.3l0-2v-20.9h0v-2v-56l0-2v-35.8h0v-2v-20.2c0-31.8,25.9-56.8,58.9-56.8h245.1l2,0H518.2 M375.6-361.7
		c6,0,10.8-4.8,10.8-10.8c0-6-4.9-10.8-10.8-10.8c-6,0-10.8,4.8-10.8,10.8C364.8-366.5,369.7-361.7,375.6-361.7 M338-333.9h74.8
		c4.5,0,8.1-3.6,8.1-8.1s-3.6-8.1-8.1-8.1H338c-4.5,0-8.1,3.6-8.1,8.1C329.9-337.5,333.5-333.9,338-333.9 M180.2,431.6h2h386.6h2v-2
		V-278v-2h-2H182.2h-2v2v707.6V431.6 M372.2,539c25.5,0,46.3-20.7,46.3-46.2c0-25.5-20.8-46.2-46.3-46.2
		c-25.5,0-46.3,20.7-46.3,46.2C325.9,518.2,346.7,539,372.2,539 M520.2-405h-66.1v0H209c-33.6,0-60.9,25.2-60.9,58.8v20.2h0v39.8h0
		v56h0v24.9h0v57.3h0v24.9h0v20.9v87.6V89.5v139.9V505c0,33.6,37.1,60.8,60.9,60.8h332.3c23.3,0,61.3-27.2,61.3-60.8V229.5V89.5
		V-14.6v-87.6v-244c0-33.6-27.7-58.8-61.3-58.8L520.2-405L520.2-405L520.2-405z M375.6-363.7c-4.9,0-8.8-3.9-8.8-8.8
		c0-4.9,3.9-8.8,8.8-8.8c4.9,0,8.8,3.9,8.8,8.8C384.5-367.6,380.5-363.7,375.6-363.7L375.6-363.7z M338-335.9
		c-3.4,0-6.1-2.7-6.1-6.1c0-3.4,2.7-6.1,6.1-6.1h74.8c3.4,0,6.1,2.7,6.1,6.1c0,3.4-2.7,6.1-6.1,6.1H338L338-335.9z M182.2,429.6
		V-278h386.6v707.6L182.2,429.6L182.2,429.6z M372.2,537c-24.4,0-44.3-19.8-44.3-44.2c0-24.4,19.8-44.2,44.3-44.2
		c24.5,0,44.3,19.8,44.3,44.2C416.5,517.2,396.7,537,372.2,537L372.2,537z"/>
</g>
<g id="XMLID_130_">
	<path class="st1" d="M377.4,481.7c3.7,0,6.8,3,6.8,6.8v10c0,3.7-3,6.8-6.8,6.8h-10c-3.7,0-6.8-3-6.8-6.8v-10c0-3.7,3-6.8,6.8-6.8
		H377.4 M367.4,505h10c3.6,0,6.6-3,6.6-6.6v-10c0-3.6-3-6.6-6.6-6.6h-10c-3.6,0-6.6,3-6.6,6.6v10C360.8,502.1,363.8,505,367.4,505
		 M377.4,479.7h-10c-4.8,0-8.8,3.9-8.8,8.8v10c0,4.8,3.9,8.8,8.8,8.8h10c4.8,0,8.8-3.9,8.8-8.8v-10
		C386.2,483.6,382.3,479.7,377.4,479.7L377.4,479.7z M367.4,503c-2.5,0-4.6-2.1-4.6-4.6v-10c0-2.5,2.1-4.6,4.6-4.6h10
		c2.5,0,4.6,2.1,4.6,4.6v10c0,2.5-2.1,4.6-4.6,4.6H367.4L367.4,503z"/>
</g>
<g id="XMLID_1_">
	<path class="st1" d="M317.9-344.4c1.4,0,2.5,1.1,2.5,2.5c0,1.4-1.1,2.5-2.5,2.5c-1.4,0-2.5-1.1-2.5-2.5
		C315.4-343.3,316.6-344.4,317.9-344.4 M317.9-346.4c-2.5,0-4.5,2-4.5,4.5c0,2.5,2,4.5,4.5,4.5s4.5-2,4.5-4.5
		C322.5-344.4,320.4-346.4,317.9-346.4L317.9-346.4z"/>
</g>
</svg>
