<?xml version="1.0" encoding="iso-8859-1"?>
<!-- Generator: Adobe Illustrator 19.0.0, SVG Export Plug-In . SVG Version: 6.00 Build 0)  -->
<svg version="1.1" id="Capa_1" xmlns="http://www.w3.org/2000/svg" xmlns:xlink="http://www.w3.org/1999/xlink" x="0px" y="0px"
	 viewBox="0 0 512 512" style="enable-background:new 0 0 512 512;" xml:space="preserve">
<path style="fill:#DCA700;" d="M93.141,107.662c-0.014-12.1,8.804-24.864,26.069-34.832c31.54-18.209,79.25-20.187,106.564-4.417
	c12.242,7.068,18.289,16.502,18.418,26.4h0.005v15.021v0.67v15.021l-0.019,0.001c0.003,0.1-0.007,0.201-0.006,0.301l0.025-0.002
	v14.54v1.151v14.54l-0.019,0.001c0.003,0.1-0.007,0.201-0.006,0.301l0.025-0.002v15.691l-0.019,0.002
	c0.007,0.24-0.013,0.483-0.014,0.724l0.033-0.003v15.691l-0.019,0.001c0.341,12.293-8.478,25.339-26.055,35.486
	c-31.54,18.209-79.25,20.187-106.564,4.417c-12.666-7.313-18.638-17.164-18.345-27.437l0.011-15.317
	c-0.006-0.365-0.021-0.73-0.011-1.096l0.007-15.317c0-0.225-0.013-0.449-0.007-0.674l-0.005-15.316l0.011-14.541
	c0-0.225-0.013-0.449-0.007-0.675l-0.093-15.013h-0.002v-15.316L93.141,107.662z"/>
<g>
	<path style="fill:#CC8200;" d="M111.559,165.429c27.314,15.77,75.024,13.792,106.564-4.417
		c17.434-10.065,26.239-22.981,26.049-35.186l0.025-0.002v15.691l-0.019,0.001c0.341,12.293-8.478,25.339-26.055,35.486
		c-31.54,18.209-79.25,20.187-106.564,4.417c-12.666-7.313-18.638-17.164-18.345-27.437l0.007-15.313
		C93.205,148.697,99.172,158.277,111.559,165.429z"/>
	<path style="fill:#CC8200;" d="M111.559,195.96c27.314,15.77,75.024,13.792,106.564-4.417
		c17.434-10.065,26.239-22.981,26.049-35.185l0.025-0.002v15.691l-0.019,0.002c0.341,12.293-8.478,25.339-26.055,35.487
		c-31.54,18.209-79.25,20.187-106.564,4.417c-12.666-7.313-18.638-17.164-18.345-27.436l0.007-15.313
		C93.205,179.229,99.172,188.809,111.559,195.96z"/>
</g>
<path style="fill:#DCA700;" d="M119.21,72.83c-31.54,18.209-34.965,45.755-7.651,61.525s75.025,13.792,106.564-4.417
	s34.965-45.755,7.651-61.525C198.46,52.643,150.75,54.621,119.21,72.83z"/>
<path style="fill:#CC8200;" d="M244.192,94.813c0.159,12.187-8.665,25.077-26.069,35.125c-31.54,18.209-79.25,20.187-106.564,4.417
	c-12.362-7.138-18.406-16.689-18.418-26.693l-0.022,0.002v15.316c0,0,0.469,16.805,18.44,27.428
	c27.15,16.051,75.024,13.792,106.564-4.417c17.576-10.148,26.395-23.194,26.054-35.487l0.02-0.001v-15.69H244.192z"/>
<path style="fill:#FFD800;" d="M127.994,77.902c-25.938,14.975-28.755,37.629-6.292,50.598s61.7,11.342,87.638-3.633
	s28.755-37.628,6.292-50.598C193.169,61.3,153.932,62.926,127.994,77.902z"/>
<path style="fill:#DCA700;" d="M134.968,94.642c-4.029,11.59,14.611,20.553,22.776,23.55c10.605,3.893,22.318,4.78,32.827-0.009
	l7.116,4.108l6.707-3.872l-7.135-4.12c2.763-2.021,4.799-4.178,6.088-6.474l-11.458-6.615c-1.463,2.616-3.353,4.855-5.669,6.716
	l-28.887-16.678c3.085-1.192,6.502-1.852,9.745-2.408l-7.075-8.236c-5.25,0.88-9.884,2.268-13.92,4.148l-6.6-3.811l-6.707,3.872
	l6.747,3.895C137.235,90.55,135.705,92.525,134.968,94.642C133.906,97.698,135.705,92.525,134.968,94.642z M151.291,95.505
	l27.392,15.815C172.554,112.38,147.044,105.172,151.291,95.505z"/>
<polyline style="fill:#007A6E;" points="512,191.593 512,257.623 170.667,454.233 0,355.817 0,290.127 0,290.127 341.333,93.058 
	512,191.593 "/>
<polygon style="fill:#009F5E;" points="512,191.593 512,257.623 170.667,454.233 170.667,388.778 "/>
<g>
	<polygon style="fill:#00917F;" points="170.66,401.894 512,204.751 512,217.91 170.66,415.115 0.241,316.723 0.241,303.564 	"/>
	<polygon style="fill:#00917F;" points="170.724,428.104 512,231.068 512,244.227 170.724,441.323 0,342.887 0,329.742 	"/>
</g>
<g>
	<polygon style="fill:#00AC65;" points="512,204.751 512,217.91 170.66,415.115 170.66,401.894 	"/>
	<polygon style="fill:#00AC65;" points="512,231.068 512,244.227 170.724,441.323 170.724,428.104 	"/>
</g>
<polygon style="fill:#00C169;" points="62.515,326.263 0,290.127 0,290.127 0,290.127 341.333,93.058 512,191.593 170.667,388.778 
	"/>
<polygon style="fill:#FFE6C6;" points="32.651,290.172 170.85,369.806 479.496,191.593 341.352,111.902 "/>
<polygon style="fill:#00AC65;" points="447.279,191.593 341.465,130.501 65.497,290.172 171.029,350.969 "/>
<polygon style="fill:#E5AC91;" points="227.556,158.748 398.222,257.321 398.222,323.16 284.681,388.525 284.681,322.913 
	113.874,224.382 "/>
<polygon style="fill:#FFD6A0;" points="227.556,158.748 398.222,257.321 284.681,322.913 113.874,224.382 "/>
<polygon style="fill:#E5AC91;" points="284.681,322.913 284.681,388.525 398.222,323.16 398.222,257.321 "/>
<polygon style="fill:#FFE6C6;" points="129.126,215.576 212.446,167.471 383.059,266.036 299.876,314.112 "/>
<polygon style="fill:#FFCBA1;" points="383.059,266.036 383.059,331.894 299.87,379.811 299.876,314.112 "/>
<g>
	<path style="fill:#FFE6C6;" d="M328.419,139.789c9.767,5.639,24.541,6.251,33,1.368c8.458-4.883,7.398-13.414-2.369-19.053
		s-24.541-6.251-33-1.368C317.591,125.62,318.652,134.15,328.419,139.789z"/>
	<path style="fill:#FFE6C6;" d="M338.053,189.003c5.657,3.266,14.214,3.621,19.113,0.792c4.899-2.828,4.285-7.769-1.372-11.035
		s-14.214-3.621-19.113-0.792C331.782,180.796,332.396,185.736,338.053,189.003z"/>
	<path style="fill:#FFE6C6;" d="M148.609,298.151c5.657,3.266,14.214,3.621,19.113,0.792c4.899-2.828,4.285-7.769-1.372-11.035
		s-14.214-3.621-19.113-0.792C142.337,289.944,142.952,294.885,148.609,298.151z"/>
	<path style="fill:#FFE6C6;" d="M51.338,299.982c9.767,5.639,24.541,6.251,33,1.368c8.458-4.883,7.397-13.414-2.369-19.052
		c-9.767-5.639-24.541-6.251-33-1.368S41.571,294.343,51.338,299.982z"/>
	<path style="fill:#FFE6C6;" d="M430.948,199.11c9.767,5.639,24.541,6.251,33,1.368c8.458-4.883,7.398-13.414-2.369-19.052
		c-9.767-5.639-24.541-6.251-33-1.368C420.12,184.941,421.181,193.471,430.948,199.11z"/>
	<path style="fill:#FFE6C6;" d="M153.351,359.352c9.767,5.639,24.542,6.251,33,1.368s7.398-13.413-2.369-19.052
		s-24.541-6.251-33-1.368C142.524,345.183,143.584,353.713,153.351,359.352z"/>
</g>
<g>
	<polygon style="fill:#E6C190;" points="346.924,267.868 208.7,188.124 193.932,196.646 332.156,276.56 	"/>
	<polygon style="fill:#E6C190;" points="300.764,275.757 195.198,214.789 180.515,223.313 286.081,284.176 	"/>
</g>
<g>
</g>
<g>
</g>
<g>
</g>
<g>
</g>
<g>
</g>
<g>
</g>
<g>
</g>
<g>
</g>
<g>
</g>
<g>
</g>
<g>
</g>
<g>
</g>
<g>
</g>
<g>
</g>
<g>
</g>
</svg>
