<?xml version="1.0" encoding="utf-8"?>
<!-- Generator: Adobe Illustrator 16.0.0, SVG Export Plug-In . SVG Version: 6.00 Build 0)  -->
<!DOCTYPE svg PUBLIC "-//W3C//DTD SVG 1.1//EN" "http://www.w3.org/Graphics/SVG/1.1/DTD/svg11.dtd">
<svg version="1.1" id="Calque_1" xmlns="http://www.w3.org/2000/svg" xmlns:xlink="http://www.w3.org/1999/xlink" x="0px" y="0px"
	 width="400px" height="728px" viewBox="0 0 400 728" enable-background="new 0 0 400 728" xml:space="preserve">
<g>
	<g>
		<polygon fill="#777778" points="363.117,630.606 359.215,630.606 40.9,630.606 37,630.606 37,626.178 37,93.023 37,88.591 
			40.9,88.591 359.215,88.591 363.117,88.591 363.117,93.023 363.117,626.178 363.117,630.606 		"/>
	</g>
</g>
<g>
	<g>
		<rect x="40.241" y="93.107" fill="#FBF6C4" width="318.321" height="533.148"/>
	</g>
</g>
<path fill="none" stroke="#777778" stroke-width="4" stroke-miterlimit="10" d="M380.09,11c-90.076,0-270.252,0-360.336,0
	C16.568,11,6,5.445,6,5.445v28.954v628.652v54.142c0,0,10.568,6.808,13.753,6.808c90.084,0,270.26,0,360.336,0
	c3.806,0,13.91-6.808,13.91-6.808v-40.547V43.811V5.445C394,5.445,383.896,11,380.09,11z M175.613,38h47.332
	c2.374,0,4.302,3.126,4.302,5.5c0,2.378-1.928,5.5-4.302,5.5h-47.332c-2.375,0-4.302-3.122-4.302-5.5
	C171.311,41.126,173.238,38,175.613,38z M211,669.804l-22-3.226v-13.983l22-2.511V669.804z"/>
</svg>
