<?xml version="1.0" encoding="utf-8"?>
<!-- Generator: Adobe Illustrator 16.0.0, SVG Export Plug-In . SVG Version: 6.00 Build 0)  -->
<!DOCTYPE svg PUBLIC "-//W3C//DTD SVG 1.1//EN" "http://www.w3.org/Graphics/SVG/1.1/DTD/svg11.dtd">
<svg version="1.1" id="Calque_1" xmlns="http://www.w3.org/2000/svg" xmlns:xlink="http://www.w3.org/1999/xlink" x="0px" y="0px"
	 width="455px" height="971px" viewBox="0 0 455 971" enable-background="new 0 0 455 971" xml:space="preserve">
<g>
	<g>
		<path fill="none" stroke="#777778" stroke-width="4" stroke-miterlimit="10" d="M452.402,911.232
			c0,29.76-21.934,53.879-48.985,53.879H53.196c-27.062,0-48.99-24.119-48.99-53.879V57.32c0-29.76,21.928-53.876,48.99-53.876
			h350.221c27.052,0,48.985,24.116,48.985,53.876V911.232z"/>
	</g>
</g>
<g>
	<g>
		<polygon fill="#777778" points="431.043,819.85 426.162,819.85 28.206,819.85 23.329,819.85 23.329,814.219 23.329,136.302 
			23.329,130.667 28.206,130.667 426.162,130.667 431.043,130.667 431.043,136.302 431.043,814.219 431.043,819.85 		"/>
	</g>
</g>
<g>
	<g>
		<rect x="27.382" y="136.303" fill="#FBF6C4" width="397.967" height="677.911"/>
	</g>
</g>
<g>
	<g>
		<path fill="none" stroke="#777778" stroke-width="4" stroke-miterlimit="10" d="M262.667,88.165c0,1.887-1.017,3.425-2.266,3.425
			h-71.874c-1.256,0-2.272-1.539-2.272-3.425l0,0c0-1.897,1.016-3.435,2.272-3.435h71.874
			C261.65,84.73,262.667,86.268,262.667,88.165L262.667,88.165z"/>
	</g>
</g>
<circle fill="none" stroke="#777778" stroke-width="4" stroke-miterlimit="10" cx="228.308" cy="893.335" r="49.972"/>
<circle fill="none" stroke="#777778" stroke-width="4" stroke-miterlimit="10" cx="228.308" cy="53.192" r="8.532"/>
<circle fill="none" stroke="#777778" stroke-width="4" stroke-miterlimit="10" cx="168.308" cy="88.192" r="4.719"/>
</svg>
