<?xml version="1.0" encoding="utf-8"?>
<!-- Generator: Adobe Illustrator 16.0.0, SVG Export Plug-In . SVG Version: 6.00 Build 0)  -->
<!DOCTYPE svg PUBLIC "-//W3C//DTD SVG 1.1//EN" "http://www.w3.org/Graphics/SVG/1.1/DTD/svg11.dtd">
<svg version="1.1" id="Calque_1" xmlns="http://www.w3.org/2000/svg" xmlns:xlink="http://www.w3.org/1999/xlink" x="0px" y="0px"
	 width="382px" height="807px" viewBox="0 0 382 807" enable-background="new 0 0 382 807" xml:space="preserve">
<g>
	<g>
		<path fill="none" stroke="#777778" stroke-width="4" stroke-miterlimit="10" d="M380.577,757.457
			c0,24.667-18.525,44.658-41.373,44.658H43.408c-22.856,0-41.376-19.991-41.376-44.658v-707.8C2.032,24.99,20.552,5,43.408,5
			h295.796c22.848,0,41.373,19.99,41.373,44.657V757.457z"/>
	</g>
</g>
<g>
	<g>
		<polygon fill="#777778" points="358.511,672.718 354.485,672.718 26.231,672.718 22.208,672.718 22.208,668.177 22.208,121.544 
			22.208,117 26.231,117 354.485,117 358.511,117 358.511,121.544 358.511,668.177 358.511,672.718 		"/>
	</g>
</g>
<g>
	<g>
		<rect x="25.552" y="121.545" fill="#FBF6C4" width="328.262" height="546.627"/>
	</g>
</g>
<g>
	<g>
		<path fill="none" stroke="#777778" stroke-width="4" stroke-miterlimit="10" d="M233.891,78.901c0,1.594-1.22,2.893-2.718,2.893
			h-86.221c-1.507,0-2.726-1.299-2.726-2.893l0,0c0-1.603,1.219-2.901,2.726-2.901h86.221C232.671,76,233.891,77.298,233.891,78.901
			L233.891,78.901z"/>
	</g>
</g>
<circle fill="none" stroke="#777778" stroke-width="4" stroke-miterlimit="10" cx="191.307" cy="740.363" r="42.206"/>
<circle fill="none" stroke="#777778" stroke-width="4" stroke-miterlimit="10" cx="191.307" cy="49.363" r="7.206"/>
</svg>
