<?xml version="1.0" encoding="iso-8859-1" standalone="yes"?><!-- Generator: Adobe Illustrator 19.0.0, SVG Export Plug-In . SVG Version: 6.00 Build 0)  --><svg xmlns="http://www.w3.org/2000/svg" xmlns:xlink="http://www.w3.org/1999/xlink" version="1.1" id="Capa_1" x="0px" y="0px" viewBox="0 0 52 52" style="enable-background:new 0 0 52 52;zoom: 1;" xml:space="preserve"><path d="M38.853,5.324 L38.853,5.324 c-7.098,-7.098 -18.607,-7.098 -25.706,0 h0 C6.751,11.72 6.031,23.763 11.459,31 L26,52 l14.541,-21 C45.969,23.763 45.249,11.72 38.853,5.324 z M26.177,24 c-3.314,0 -6,-2.686 -6,-6 s2.686,-6 6,-6 s6,2.686 6,6 S29.491,24 26.177,24 z" style="fill:#008cff;"></path><circle stroke="none" transform="" id="circle1" stroke-width="3px" cy="18px" fill="#ffffff" r="14px" cx="26px"></circle><g x=""><path d="M0.70,9.58 L0.70,23 L2.78,23 L2.78,7.42 L0.72,7.42 L-4.03,10.71 L-4.03,12.68  Z " id="path1" transform="translate(25.5, 3)" fill="black"></path></g></svg>