<?xml version="1.0" encoding="iso-8859-1" standalone="yes"?><!-- Generator: Adobe Illustrator 19.0.0, SVG Export Plug-In . SVG Version: 6.00 Build 0)  --><svg xmlns="http://www.w3.org/2000/svg" xmlns:xlink="http://www.w3.org/1999/xlink" version="1.1" id="Capa_1" x="0px" y="0px" viewBox="0 0 52 52" style="enable-background:new 0 0 52 52;zoom: 1;" xml:space="preserve"><path d="M38.945694,5.324 L38.945694,5.324 c-7.098,-7.098 -18.607,-7.098 -25.706,0 h0 C6.843691,11.72 6.123692,23.763 11.551691,31 L26.092691,52 l14.541,-21 C46.061691,23.763 45.34169,11.72 38.945694,5.324 z M26.269691,24 c-3.314,0 -6,-2.686 -6,-6 s2.686,-6 6,-6 s6,2.686 6,6 S29.583691,24 26.269691,24 z" style="fill:#a3abb5;"></path><circle stroke="none" transform="" id="circle1" stroke-width="3px" cy="18px" fill="#ffffff" r="14px" cx="26px"></circle><path d="M-5.11,22.78 C-3.43,23.09 -1.92,23.24 -0.58,23.24 C-0.13,23.24 0.40,23.22 1.01,23.19 C1.52,23.14 2.04,23.05 2.57,22.92 C3.10,22.78 3.52,22.60 3.84,22.38 C4.21,22.14 4.51,21.80 4.75,21.37 C4.99,20.94 5.11,20.45 5.11,19.90 L5.11,16.78 C5.11,16.06 4.83,15.56 4.27,15.27 C3.98,15.13 3.72,15.02 3.47,14.95 C3.22,14.88 2.90,14.81 2.52,14.74 L2.52,14.65 C3.14,14.55 3.66,14.34 4.06,14.01 C4.46,13.68 4.66,13.27 4.66,12.78 L4.66,9.78 C4.66,8.83 4.25,8.16 3.44,7.77 C2.64,7.38 1.34,7.18 -0.43,7.18 C-1.97,7.18 -3.42,7.26 -4.80,7.40 L-4.80,9.06 C-3.15,8.80 -1.69,8.67 -0.41,8.67 C1.51,8.67 2.47,9.08 2.47,9.90 L2.47,12.68 C2.47,13.03 2.38,13.32 2.18,13.54 C1.99,13.77 1.72,13.92 1.37,14 C1.03,14.10 0.74,14.16 0.48,14.18 C0.22,14.20 -0.11,14.22 -0.53,14.22 L-3.12,14.22 L-3.12,15.70 L-0.12,15.70 C0.30,15.70 0.64,15.72 0.90,15.74 C1.16,15.76 1.46,15.82 1.80,15.90 C2.50,16.10 2.86,16.54 2.86,17.19 L2.86,19.86 C2.86,21.06 1.79,21.66 -0.34,21.66 C-1.62,21.66 -3.21,21.46 -5.11,21.06  Z " id="path1" transform="translate(26,3)" fill="black"></path></svg>