<?xml version="1.0" encoding="iso-8859-1" standalone="yes"?><!-- Generator: Adobe Illustrator 19.0.0, SVG Export Plug-In . SVG Version: 6.00 Build 0)  --><svg xmlns="http://www.w3.org/2000/svg" xmlns:xlink="http://www.w3.org/1999/xlink" version="1.1" id="Capa_1" x="0px" y="0px" viewBox="0 0 52 52" style="enable-background:new 0 0 52 52;zoom: 1;" xml:space="preserve"><path d="M38.945694,5.324 L38.945694,5.324 c-7.098,-7.098 -18.607,-7.098 -25.706,0 h0 C6.843691,11.72 6.123692,23.763 11.551691,31 L26.092691,52 l14.541,-21 C46.061691,23.763 45.34169,11.72 38.945694,5.324 z M26.269691,24 c-3.314,0 -6,-2.686 -6,-6 s2.686,-6 6,-6 s6,2.686 6,6 S29.583691,24 26.269691,24 z" style="fill:#c40004;"></path><circle stroke="none" transform="" id="circle1" stroke-width="3px" cy="18px" fill="#ffffff" r="14px" cx="26px"></circle><path d="M2.04,19.59 L2.04,23 L4.03,23 L4.03,19.59 L5.71,19.59 L5.71,17.94 L4.03,17.94 L4.03,7.42 L1.34,7.42 L-5.71,17.70 L-5.71,19.59 M2.04,17.94 L-3.79,17.94 L2.04,9.32  Z " id="path1" transform="translate(25,3)" fill="black"></path></svg>