<?xml version="1.0" encoding="iso-8859-1" standalone="yes"?><!-- Generator: Adobe Illustrator 19.0.0, SVG Export Plug-In . SVG Version: 6.00 Build 0)  --><svg xmlns="http://www.w3.org/2000/svg" xmlns:xlink="http://www.w3.org/1999/xlink" version="1.1" id="Capa_1" x="0px" y="0px" viewBox="0 0 52 52" style="enable-background:new 0 0 52 52;zoom: 1;" xml:space="preserve"><path d="M38.853,5.324 L38.853,5.324 c-7.098,-7.098 -18.607,-7.098 -25.706,0 h0 C6.751,11.72 6.031,23.763 11.459,31 L26,52 l14.541,-21 C45.969,23.763 45.249,11.72 38.853,5.324 z M26.177,24 c-3.314,0 -6,-2.686 -6,-6 s2.686,-6 6,-6 s6,2.686 6,6 S29.491,24 26.177,24 z" style="fill:#ffbf00;"></path><circle stroke="none" transform="" id="circle1" stroke-width="3px" cy="18px" fill="#ffffff" r="14px" cx="26px"></circle><path d="M-5.23,20.22 L-5.23,23 L5.23,23 L5.23,21.32 L-3.02,21.32 L-3.02,20.29 C-3.02,19.36 -2.50,18.66 -1.44,18.18 L2.16,16.52 C2.98,16.15 3.60,15.82 4.02,15.52 C4.44,15.23 4.75,14.89 4.94,14.52 C5.14,14.14 5.23,13.66 5.23,13.09 L5.23,10.54 C5.23,9.33 4.85,8.46 4.08,7.94 C3.31,7.42 2.06,7.16 0.34,7.16 C-1.39,7.16 -3.06,7.31 -4.68,7.62 L-4.68,9.30 C-2.74,8.96 -1.22,8.79 -0.12,8.79 C1.00,8.79 1.78,8.92 2.23,9.16 C2.68,9.41 2.90,9.90 2.90,10.64 L2.90,12.78 C2.90,13.72 2.39,14.42 1.37,14.86 L-1.22,16.02 C-1.72,16.22 -2.12,16.41 -2.42,16.57 C-2.78,16.74 -3.15,16.96 -3.54,17.23 C-3.93,17.49 -4.22,17.74 -4.42,17.96 C-4.66,18.23 -4.85,18.56 -5.00,18.96 C-5.16,19.35 -5.23,19.77 -5.23,20.22  Z " id="path1" transform="translate(26,3)" fill="black"></path></svg>