<svg height="512pt" viewBox="-93 0 511 512" width="512pt" xmlns="http://www.w3.org/2000/svg"><path d="m184.933594 232.8125v-31.183594c0-4.140625-3.359375-7.5-7.5-7.5h-139.214844c-4.144531 0-7.5 3.359375-7.5 7.5v31.183594c0 4.140625 3.355469 7.5 7.5 7.5h139.214844c4.140625 0 7.5-3.355469 7.5-7.5zm-15-7.5h-124.214844v-16.183594h124.214844zm0 0"/><path d="m191.433594 434.304688h96.785156c4.140625 0 7.5-3.359376 7.5-7.5v-31.1875c0-4.140626-3.359375-7.5-7.5-7.5h-96.785156c-4.144532 0-7.5 3.359374-7.5 7.5v31.1875c0 4.140624 3.355468 7.5 7.5 7.5zm7.5-31.1875h81.785156v16.1875h-81.785156zm0 0"/><path d="m288.21875 148.695312h-250c-4.144531 0-7.5 3.359376-7.5 7.5 0 4.144532 3.355469 7.5 7.5 7.5h250c4.140625 0 7.5-3.355468 7.5-7.5 0-4.140624-3.359375-7.5-7.5-7.5zm0 0"/><path d="m128.933594 273.195312c0-4.140624-3.359375-7.5-7.5-7.5h-83.214844c-4.144531 0-7.5 3.359376-7.5 7.5 0 4.144532 3.355469 7.5 7.5 7.5h83.214844c4.140625 0 7.5-3.355468 7.5-7.5zm0 0"/><path d="m107.824219 303.53125h-69.605469c-4.144531 0-7.5 3.355469-7.5 7.5 0 4.140625 3.355469 7.5 7.5 7.5h69.605469c4.144531 0 7.5-3.359375 7.5-7.5 0-4.144531-3.355469-7.5-7.5-7.5zm0 0"/><path d="m107.824219 341.363281h-69.605469c-4.144531 0-7.5 3.359375-7.5 7.5 0 4.144531 3.355469 7.5 7.5 7.5h69.605469c4.144531 0 7.5-3.355469 7.5-7.5 0-4.140625-3.355469-7.5-7.5-7.5zm0 0"/><path d="m288.21875 341.363281h-34.804688c-4.144531 0-7.5 3.359375-7.5 7.5 0 4.144531 3.355469 7.5 7.5 7.5h34.804688c4.140625 0 7.5-3.355469 7.5-7.5 0-4.140625-3.359375-7.5-7.5-7.5zm0 0"/><path d="m288.21875 303.53125h-34.804688c-4.144531 0-7.5 3.359375-7.5 7.5s3.355469 7.5 7.5 7.5h34.804688c4.140625 0 7.5-3.359375 7.5-7.5s-3.359375-7.5-7.5-7.5zm0 0"/><path d="m288.21875 265.695312h-34.804688c-4.144531 0-7.5 3.359376-7.5 7.5 0 4.144532 3.355469 7.5 7.5 7.5h34.804688c4.140625 0 7.5-3.355468 7.5-7.5 0-4.140624-3.359375-7.5-7.5-7.5zm0 0"/><path d="m318.433594 176.433594c4.140625 0 7.5-3.359375 7.5-7.5v-161.433594c0-4.140625-3.359375-7.5-7.5-7.5-23.773438 0-25.765625 30-38.8125 30-13.039063 0-15.007813-30-38.808594-30-23.765625 0-25.765625 30-38.800781 30-13.082031 0-14.964844-30-38.808594-30-23.765625 0-25.761719 30-38.800781 30-13.019532 0-15.023438-30-38.800782-30-23.769531 0-25.761718 30-38.800781 30-13.082031 0-14.953125-30-38.800781-30-4.144531 0-7.5 3.359375-7.5 7.5v497c0 4.140625 3.355469 7.5 7.5 7.5 23.769531 0 25.765625-30 38.800781-30 13.078125 0 14.957031 30 38.800781 30 23.765626 0 25.761719-30 38.800782-30 13.082031 0 14.960937 30 38.800781 30 23.769531 0 25.769531-30 38.808594-30 13.082031 0 14.957031 30 38.800781 30 23.773438 0 25.765625-30 38.808594-30 13.042968 0 15.011718 30 38.8125 30 4.140625 0 7.5-3.359375 7.5-7.5v-307.566406c0-4.144532-3.359375-7.5-7.5-7.5-4.144532 0-7.5 3.355468-7.5 7.5v296.28125c-7.488282-8.277344-12.945313-26.214844-31.3125-26.214844-23.769532 0-25.761719 30-38.808594 30-13.019531 0-15.023438-30-38.800781-30-23.769531 0-25.769531 30-38.808594 30-13.078125 0-14.957031-30-38.800781-30-23.769532 0-25.765625 30-38.800782 30-13.085937 0-14.957031-30-38.800781-30-18.355469 0-23.808593 17.925781-31.300781 26.210938v-474.421876c7.476562 8.269532 12.941406 26.210938 31.304688 26.210938 23.765624 0 25.761718-30 38.796874-30 13.085938 0 14.957032 30 38.800782 30 23.769531 0 25.765625-30 38.804687-30 13.082031 0 14.960938 30 38.804688 30 23.769531 0 25.761719-30 38.804687-30 13.042969 0 15.011719 30 38.808594 30 18.363281 0 23.824219-17.9375 31.308594-26.214844v150.148438c0 4.140625 3.355468 7.5 7.5 7.5zm0 0"/><path d="m295.71875 85.195312c0-4.140624-3.359375-7.5-7.5-7.5h-180.394531c-4.144531 0-7.5 3.359376-7.5 7.5 0 4.144532 3.355469 7.5 7.5 7.5h172.894531v16.1875h-235v-16.1875h34.105469c4.144531 0 7.5-3.355468 7.5-7.5 0-4.140624-3.355469-7.5-7.5-7.5h-41.605469c-4.144531 0-7.5 3.359376-7.5 7.5v31.1875c0 4.140626 3.355469 7.5 7.5 7.5h250c4.140625 0 7.5-3.359374 7.5-7.5zm0 0"/></svg>