<?xml version="1.0" encoding="utf-8"?>
<!-- Generator: Adobe Illustrator 16.0.0, SVG Export Plug-In . SVG Version: 6.00 Build 0)  -->
<!DOCTYPE svg PUBLIC "-//W3C//DTD SVG 1.1//EN" "http://www.w3.org/Graphics/SVG/1.1/DTD/svg11.dtd">
<svg version="1.1" id="Calque_1" xmlns="http://www.w3.org/2000/svg" xmlns:xlink="http://www.w3.org/1999/xlink" x="0px" y="0px"
	 width="400px" height="755px" viewBox="0 0 400 755" enable-background="new 0 0 400 755" xml:space="preserve">
<g id="XMLID_1_">
	<path fill="#FFFFFF" d="M348.908,14.868C331.16,4.854,243.92,5.931,199.958,5.931c-43.048,0-123.306,0.159-144.841,8.754
		c-25.433,8.063-45.064,19.45-48.31,48.492l-0.039-0.084c0,0-1.855,216.532-1.855,324.003c0,128.104,1.855,286.973,1.855,286.973
		c0,32.945,20.404,60.756,48.349,69.615c21.536,8.6,99.714,8.596,142.762,8.596c43.96,0,133.281,0.268,151.029-9.75
		c26.219-9.938,45.029-36.834,45.029-68.461c0-1.506,0.617-174.709,0.617-286.973c0-96.29-0.617-314.707-0.617-316.21
		C393.938,39.25,375.127,24.81,348.908,14.868z M217.934,736.506h-36.076c-11.013,0-30.007-5.965-30.007-16.793
		c0-6.936,5.72-9.041,12.773-9.041h70.545c7.055,0,12.771,3.072,12.771,9.041C247.939,729.727,230.699,736.506,217.934,736.506z
		 M385.232,686.266H15.2V54.239h370.03v632.026H385.232z"/>
</g>
<path fill="#FFFFFF" d="M245.221,720.162c-4.705,5.602-17.25,10.25-45.875,10.625c-25.23,0.33-45.875-5.184-45.875-12.5
	c0-3.738-3.463-11.592,5.125-14c8.221-2.307,28.41-1,40.75-1c12.873,0,37.683-1.615,43.375,1.375
	C250.096,708.537,247.846,717.037,245.221,720.162z"/>
<path id="XMLID_344_" fill="#FFFFFF" d="M396.293,83.184c-0.016-4.853-0.02-7.582-0.02-7.748c0-30.995-18.471-46.329-45.832-56.576
	C332.83,9.038,248.576,9.847,207.08,9.847l-7.164,0.002c-42.722,0-124.329,0.161-146.121,8.764
	C27.654,26.8,8.592,38.101,5.041,66.743l-0.025,0.013l-0.011,0.931C4.986,69.774,2.57,284.507,2.57,390.281
	c0,126.084,1.85,283.797,1.868,285.598c0,32.229,20.301,61.094,49.291,70.178c21.848,8.621,101.349,8.621,144.138,8.621h7.16h0.004
	c41.486,0,127.803,0,145.281-9.76c27.49-10.301,45.961-38.049,45.961-69.039c0-0.154,0.004-2.395,0.018-6.406
	c0.389-130.02,0.604-214.6,0.604-279.191C396.895,334.527,396.689,223.175,396.293,83.184z M394.41,669.469
	c-0.012,4.016-0.02,6.256-0.02,6.41c0,30.215-17.979,57.25-44.867,67.336c-17.184,9.584-103.172,9.584-144.496,9.584h-7.246
	c-42.585,0-121.846,0-143.424-8.514c-28.287-8.865-48.041-36.99-48.041-68.416c-0.019-1.811-1.868-159.518-1.868-285.588
	c0-102.132,1.724-306.343,1.86-321.659h0.407l0.093-0.836c3.204-28.271,21.867-39.335,47.613-47.407
	c21.526-8.492,102.899-8.653,145.525-8.653l7.133-0.001c41.336,0,125.262-0.809,142.572,8.837
	c26.762,10.029,44.738,24.66,44.738,54.875c0,0.166,0.008,2.899,0.023,7.753c0.395,139.989,0.602,251.338,0.602,307.091
	C395.018,454.873,394.803,539.445,394.41,669.469z"/>
<path id="XMLID_145_" fill="#7C7C7C" d="M398.859,75.482c-0.014-4.915-0.02-7.678-0.02-7.848c0-31.399-18.713-47.096-46.43-57.476
	c-17.844-9.952-103.223-9.143-145.262-9.143l-7.252,0.002c-43.286,0-125.928,0.161-148.005,8.875
	C25.409,18.188,5.574,29.714,1.971,58.73l-0.074,0.085L1.89,59.756C1.871,61.872,0,279.332,0,386.488
	c0,127.725,1.872,287.793,1.89,289.621c0,32.646,20.564,61.887,49.935,71.09c22.133,8.736,102.669,8.736,146.017,8.736h7.257h0.002
	c42.027,0,129.471,0,147.176-9.891c27.852-10.436,46.563-38.543,46.563-69.938c0-0.158,0.008-2.432,0.018-6.49
	c0.396-131.719,0.615-217.697,0.615-283.131C399.471,330.004,399.26,217.301,398.859,75.482z M394.41,665.682
	c-0.012,4.014-0.02,6.256-0.02,6.41c0,30.213-17.979,57.25-44.867,67.336c-17.184,9.584-103.172,9.584-144.496,9.584h-7.246
	c-42.585,0-121.846,0-143.424-8.516c-28.287-8.865-48.041-36.99-48.041-68.416c-0.019-1.809-1.868-159.518-1.868-285.586
	c0-102.134,1.724-306.344,1.86-321.66l0.111-0.227l0.093-0.836C9.716,35.5,28.675,24.664,54.421,16.592
	C75.947,8.1,157.32,7.939,199.947,7.939l7.133-0.001c41.336,0,125.262-0.809,142.572,8.837
	c26.762,10.029,44.738,24.661,44.738,54.874c0,0.167,0.008,2.9,0.023,7.754c0.395,139.988,0.602,251.337,0.602,307.093
	C395.018,451.086,394.803,535.658,394.41,665.682z"/>
<g id="XMLID_137_">
	<path fill="#FFFFFF" d="M197.915,743.947c-41.536,0-118.742,0-139.68-8.361c-27.584-8.75-46.802-36.439-46.802-67.365
		c-0.018-1.791-1.82-156.863-1.82-281.092c0-101.796,1.719-306.446,1.816-317.503l0.035-0.284
		c3.005-26.89,20.9-38.354,46.702-46.533c21.012-8.384,100.294-8.544,141.771-8.544l6.952-0.001
		c40.268,0,121.977-0.809,138.695,8.624l0.064,0.037l0.072,0.027c26.848,10.182,43.527,24.438,43.527,53.824
		c0,0.164,0.008,2.86,0.02,7.653c0.385,137.937,0.586,247.771,0.586,302.703c0,63.648-0.209,146.65-0.588,274.775
		c-0.012,3.957-0.018,6.164-0.018,6.316c0,29.742-17.492,56.357-43.527,66.227l-0.072,0.027l-0.064,0.037
		c-16.721,9.438-100.51,9.438-140.775,9.438L197.915,743.947z M165.289,703.129c-11.183,0-13.53,5.367-13.53,9.869
		c0,11.635,19.513,17.475,30.437,17.475h35.392c12.709,0,30.438-6.646,30.438-17.475c0-5.996-5.311-9.869-13.531-9.869H165.289z
		 M17.705,681.188h365.004V59.163H17.705V681.188z"/>
	<path fill="#7C7C7C" d="M206.893,15.263c37.043,0,121.711-0.809,138.201,8.494l0.133,0.075l0.141,0.054
		c12.563,4.764,23.215,10.575,30.805,21.405c7.9,11.277,12.078,17.002,12.078,31.483c0,0.164,0.008,2.861,0.021,7.655
		c0.383,137.937,0.586,247.77,0.586,302.701c0,63.646-0.209,146.646-0.588,274.771c-0.012,3.959-0.02,6.166-0.02,6.318
		c0,29.33-17.232,55.568-42.883,65.293l-0.141,0.055l-0.133,0.072c-16.49,9.309-103.242,9.309-140.287,9.309h-3.605h-3.286h-0.117
		c-41.39,0-118.433,0-139.192-8.291l-0.068-0.027l-0.069-0.02c-13.004-4.123-24.711-12.836-32.966-24.533
		c-8.55-12.115-13.069-26.588-13.069-41.875c-0.019-1.781-1.82-156.848-1.82-281.072c0-101.531,1.71-305.425,1.815-317.406
		l0.03-0.27c2.96-26.492,20.59-37.633,46.01-45.69l0.069-0.022l0.068-0.027c20.765-8.289,99.94-8.45,141.388-8.45h3.29
		L206.893,15.263 M16.705,682.188h2h363.004h2v-2V60.163v-2h-2H18.705h-2v2v620.024V682.188 M182.196,731.473h35.392
		c13.127,0,31.438-7.027,31.438-18.475c0-6.502-5.84-10.869-14.531-10.869H165.29c-12.009,0-14.53,5.91-14.53,10.869
		C150.759,725.299,170.913,731.473,182.196,731.473 M206.893,13.264c-2.404,0-4.709,0-6.899,0
		c-42.229,0-121.002,0.159-142.129,8.592C32.913,29.764,13.655,40.74,10.471,69.23l-0.038-0.083c0,0-1.82,212.55-1.82,317.982
		c0,125.672,1.82,281.09,1.82,281.09c0,32.322,20.017,59.604,47.431,68.295c21.106,8.43,97.677,8.434,139.934,8.434
		c0.042,0,0.076,0,0.117,0c2.188,0,4.491,0,6.892,0c44.943,0,124.74-0.236,141.271-9.564c25.719-9.75,44.172-36.137,44.172-67.162
		c0-1.477,0.605-170.961,0.605-281.092c0-94.461-0.605-308.879-0.605-310.354c0-31.036-18.453-45.005-44.172-54.759
		C329.549,12.69,251.836,13.264,206.893,13.264L206.893,13.264z M18.705,680.188V60.163h363.004v620.024H18.705L18.705,680.188z
		 M182.196,729.473c-10.804,0-29.437-5.852-29.437-16.475c0-6.805,5.611-8.869,12.53-8.869h69.205c6.92,0,12.529,3.016,12.529,8.869
		c0,9.824-16.914,16.475-29.438,16.475H182.196L182.196,729.473z"/>
</g>
</svg>
