<?xml version="1.0" encoding="utf-8"?>
<!-- Generator: Adobe Illustrator 16.0.0, SVG Export Plug-In . SVG Version: 6.00 Build 0)  -->
<!DOCTYPE svg PUBLIC "-//W3C//DTD SVG 1.1//EN" "http://www.w3.org/Graphics/SVG/1.1/DTD/svg11.dtd">
<svg version="1.1" id="Calque_1" xmlns="http://www.w3.org/2000/svg" xmlns:xlink="http://www.w3.org/1999/xlink" x="0px" y="0px"
	 width="400px" height="660px" viewBox="0 0 400 660" enable-background="new 0 0 400 660" xml:space="preserve">
<path fill="#FFFFFF" d="M25,8.266v623.472h347V8.266H25z M350,571.945H49v-532h301V571.945z"/>
<g id="XMLID_170_">
	<g id="XMLID_171_">
		<path fill="#FFFFFF" d="M13.023,658.594V3H384.84v656.166L13.023,658.594z M24.471,9.816v623.622h348.923V8.944L24.471,9.816z
			 M182.509,10.006c-1.745,0-3.165,1.419-3.165,3.164c0,1.743,1.42,3.161,3.165,3.161h34.151c1.742,0,3.16-1.418,3.16-3.161
			c0-1.745-1.418-3.164-3.16-3.164H182.509z"/>
		<path fill="#7C7C7C" d="M383.841,4v654.166l-369.817-0.57V4H383.841 M385.841,2H12.023v657.594l373.817,0.574L385.841,2L385.841,2
			z"/>
	</g>
</g>
<rect x="76" y="584.945" fill="#FFFFFF" width="43" height="40"/>
<rect x="182" y="584.945" fill="#FFFFFF" width="43" height="40"/>
<rect x="283" y="584.945" fill="#FFFFFF" width="43" height="40"/>
<g id="XMLID_179_">
	<g id="XMLID_38_">
		<path fill="#FFFFFF" d="M309.602,602.676c-2.431,0-4.407-1.975-4.407-4.4c0-2.43,1.978-4.404,4.407-4.404
			c2.427,0,4.399,1.977,4.399,4.404C314.001,600.701,312.027,602.676,309.602,602.676z"/>
		<path fill="#7C7C7C" d="M309.602,594.871c1.874,0,3.399,1.527,3.399,3.404c0,1.875-1.525,3.4-3.399,3.4
			c-1.879,0-3.407-1.525-3.407-3.4C306.193,596.398,307.723,594.871,309.602,594.871 M309.602,592.871
			c-2.98,0-5.407,2.428-5.407,5.404c0,2.979,2.427,5.4,5.407,5.4c2.978,0,5.399-2.422,5.399-5.4
			C315.001,595.299,312.578,592.871,309.602,592.871L309.602,592.871z"/>
	</g>
	<g id="XMLID_180_">
		<path fill="#FFFFFF" d="M52.303,628c-12.271,0-22.255-10.023-22.255-22.346V38.78c0-12.322,9.983-22.347,22.255-22.347h293.266
			c12.27,0,22.251,10.025,22.251,22.347v566.874c0,12.322-9.981,22.346-22.251,22.346H52.303L52.303,628z M198.498,609.51
			c0.836,0.506,1.99,1.1,3.496,1.215c0.337,0.025,0.663,0.039,0.975,0.039c3.975,0,5.992-1.973,6.076-2.057l0.188-0.188l2.361-8.682
			l-0.242,0.039l0.276-0.16l2.953-10.879l-2.104,1.221c-0.011,0.008-1.56,0.867-4.021,0.867c-0.228,0-0.464-0.008-0.707-0.023
			c-0.959-0.068-1.688-0.438-2.621-1.053l-0.592-0.391l0.002-0.006l-0.633-0.412c-0.815-0.531-1.837-1.143-3.222-1.646
			c-1.162-0.424-2.32-0.639-3.441-0.639c-1.939,0-3.108,0.637-3.235,0.709l-0.323,0.186l-3.266,9.33h0.003l-3.805,10.879
			l1.931-0.641c0.01-0.004,1.27-0.404,3.336-0.404c0.676,0,1.371,0.043,2.065,0.127c1.041,0.123,1.962,0.783,3.028,1.549
			l0.851,0.609l-0.001,0.006l0.064,0.039l0.445,0.316l0.014-0.041L198.498,609.51z M84.904,599.463
			c-0.093,0.713,0.132,1.396,0.624,1.867l8.693,8.354c0.4,0.385,0.937,0.6,1.508,0.6c0.636,0,1.262-0.27,1.718-0.738
			c0.446-0.463,0.692-1.084,0.678-1.705c-0.013-0.59-0.25-1.135-0.668-1.531l-4.283-4.115h9.738c1.417,0,2.57-1.152,2.57-2.568
			c0-1.412-1.153-2.563-2.57-2.563H92.836l4.624-4.445c0.888-0.854,0.883-2.305-0.01-3.23c-0.456-0.473-1.081-0.74-1.717-0.74
			c-0.571,0-1.107,0.211-1.51,0.598l-8.697,8.359C85.036,598.066,84.811,598.752,84.904,599.463z M298.495,605.969
			c-0.897,0.799-0.888,2.287,0.026,3.316c0.521,0.584,1.229,0.916,1.941,0.916c0.509,0,0.99-0.176,1.355-0.498l3.783-3.379
			c1.237,0.619,2.605,0.945,3.998,0.945c4.959,0,8.994-4.035,8.994-8.996s-4.035-8.998-8.994-8.998c-4.963,0-9,4.037-9,8.998
			c0,1.648,0.449,3.24,1.308,4.648L298.495,605.969z M49.984,572.904H350V39.956H49.984V572.904z"/>
		<path fill="#7C7C7C" d="M345.568,17.433c11.718,0,21.251,9.576,21.251,21.347v566.874c0,11.77-9.533,21.346-21.251,21.346H52.303
			c-11.72,0-21.255-9.576-21.255-21.346V38.78c0-11.771,9.535-21.347,21.255-21.347H345.568 M48.984,573.904h2H349h2v-2V40.956v-2
			h-2H50.984h-2v2v530.949V573.904 M188.881,598.352l0.004-0.002l-2.539,7.26l-1.303,3.764l3.807-1.199
			c0.012-0.004,1.155-0.357,3.037-0.357c0.635,0,1.288,0.041,1.948,0.121c0.783,0.092,1.606,0.684,2.562,1.367l0.233,0.168
			l0.031,0.021l-0.021,0.063l0.701,0.424l1.542,1.102l0.06-0.189c0.789,0.383,1.789,0.738,2.973,0.83
			c0.354,0.027,0.708,0.041,1.055,0.041c4.31,0,6.543-2.107,6.782-2.35l0.376-0.375l0.141-0.514l1.883-6.922l0.313-1.213
			l0.023-0.016l0.216-0.791l2.208-8.135l1.213-4.537l-4.128,2.271c-0.015,0.008-1.375,0.742-3.538,0.742
			c-0.207,0-0.421-0.008-0.629-0.021c-0.74-0.053-1.316-0.346-2.113-0.867l0.004-0.01l-1.267-0.824
			c-0.063-0.043-0.131-0.086-0.197-0.129l-0.799-0.525l-0.011,0.033c-0.672-0.387-1.463-0.779-2.42-1.129
			c-1.271-0.463-2.545-0.697-3.782-0.697c-2.152,0-3.485,0.699-3.731,0.842l-0.647,0.371l-0.247,0.703l-2.547,7.279L188.881,598.352
			 M83.897,599.463c-0.092,0.982,0.244,1.926,0.936,2.588l8.691,8.35c0.59,0.568,1.373,0.883,2.205,0.883
			c0.904,0,1.791-0.379,2.442-1.049c0.625-0.648,0.973-1.531,0.954-2.418c-0.019-0.857-0.367-1.65-0.971-2.227l-2.496-2.398h7.255
			c1.969,0,3.57-1.602,3.57-3.566s-1.602-3.563-3.57-3.563H95.32l2.835-2.727c1.284-1.236,1.291-3.32,0.013-4.648
			c-0.642-0.664-1.529-1.043-2.435-1.043c-0.83,0-1.611,0.311-2.205,0.877l-8.691,8.354
			C84.142,597.539,83.806,598.482,83.897,599.463 M300.647,602.709l-2.815,2.512c-1.313,1.166-1.338,3.289-0.055,4.732
			c0.707,0.795,1.688,1.25,2.687,1.25c0.751,0,1.468-0.266,2.027-0.758l3.291-2.938c1.205,0.502,2.502,0.764,3.818,0.764
			c5.512,0,9.994-4.484,9.994-9.996s-4.482-9.998-9.994-9.998c-5.514,0-10,4.486-10,9.998
			C299.602,599.828,299.959,601.334,300.647,602.709 M345.568,15.433H52.303c-12.842,0-23.255,10.449-23.255,23.347v566.874
			c0,12.893,10.413,23.346,23.255,23.346h293.266c12.84,0,23.251-10.453,23.251-23.346V38.78
			C368.819,25.882,358.408,15.433,345.568,15.433L345.568,15.433z M50.984,571.904V40.956H349v530.949H50.984L50.984,571.904z
			 M191.958,595.613l2.547-7.279c0,0,1.009-0.576,2.738-0.576c0.864,0,1.909,0.145,3.099,0.576c1.256,0.459,2.195,1.012,3.018,1.547
			l-2.592,8.359c0.373,0.359,0.772,0.66,1.195,0.898l2.615-8.453c0.959,0.633,1.865,1.127,3.105,1.217
			c0.266,0.018,0.522,0.025,0.771,0.025c2.796,0,4.521-1.004,4.521-1.004l-2.207,8.137c-0.097,0.055-0.188,0.117-0.273,0.186
			c-0.346,0.285-2.184,0.896-4.328,0.896c-1.38,0-2.886-0.252-4.206-1.004l-0.471,1.512c1.341,0.771,2.96,1.006,4.434,1.006
			c2.3,0,4.247-0.57,4.247-0.57l0.049-0.008L208.336,608c0,0-1.763,1.764-5.369,1.764c-0.287,0-0.587-0.012-0.898-0.035
			c-1.182-0.09-2.157-0.531-3.055-1.074l2.479-8.002c-0.413-0.238-0.807-0.516-1.15-0.867c-0.014-0.014-0.031-0.02-0.044-0.033
			l-2.506,8.094c-1.205-0.859-2.338-1.73-3.721-1.895c-0.798-0.098-1.529-0.135-2.185-0.135c-2.283,0-3.652,0.455-3.652,0.455
			l3.178-9.088c0.641-0.146,1.38-0.244,2.178-0.244c2.068,0,4.533,0.656,6.708,2.813l0.472-1.51
			c-0.071-0.059-0.146-0.113-0.215-0.182c-2.127-2.191-4.668-2.67-6.479-2.67C193.1,595.391,192.336,595.527,191.958,595.613
			L191.958,595.613z M95.729,609.281c-0.3,0-0.591-0.104-0.815-0.32l-8.695-8.354c-0.311-0.297-0.392-0.73-0.3-1.145
			c-0.092-0.412-0.01-0.848,0.3-1.145l8.695-8.357c0.225-0.215,0.518-0.318,0.819-0.318c0.354,0,0.718,0.145,0.997,0.434
			c0.512,0.531,0.529,1.344,0.038,1.818l-6.415,6.166h12.56c0.867,0,1.57,0.699,1.57,1.563s-0.703,1.566-1.57,1.566H90.691
			l6.077,5.842c0.492,0.467,0.475,1.283-0.038,1.814C96.451,609.135,96.084,609.281,95.729,609.281L95.729,609.281z
			 M300.464,609.203c-0.408,0-0.854-0.201-1.192-0.58c-0.55-0.619-0.602-1.473-0.109-1.908l4.064-3.627
			c-1.013-1.344-1.625-3.008-1.625-4.813c0-4.414,3.59-7.998,8-7.998c4.406,0,7.994,3.584,7.994,7.998
			c0,4.412-3.588,7.996-7.994,7.996c-1.52,0-2.93-0.428-4.135-1.164l-4.308,3.848C300.968,609.121,300.724,609.203,300.464,609.203
			L300.464,609.203z"/>
	</g>
</g>
<path id="XMLID_176_" fill="#7C7C7C" d="M386.76,210.741c0.986,0,1.785-1.16,1.785-2.591v-51.876c0-1.43-0.799-2.591-1.785-2.591
	c-0.313,0-0.604,0.126-0.862,0.338v-3.742c0.202,0.092,0.42,0.161,0.646,0.161c1.075,0,1.946-1.164,1.946-2.591v-51.88
	c0-1.43-0.871-2.595-1.946-2.595c-0.228,0-0.444,0.063-0.646,0.161V2.146H12.836V655.42l0.451,0.145
	c0.417,0.137,10.405,3.262,33.046,3.477h0.085c5.401,0,294.843-0.215,297.768-0.217c36.077-0.314,41.198-3.199,41.399-3.322
	l0.313-0.189v-95.896c0.202,0.109,0.42,0.18,0.646,0.18c1.075,0,1.946-1.268,1.946-2.834V500.17c0-1.557-0.871-2.826-1.946-2.826
	c-0.228,0-0.444,0.068-0.646,0.178V292.918c0.202,0.105,0.42,0.17,0.646,0.17c1.075,0,1.946-1.252,1.946-2.799v-56
	c0-1.546-0.871-2.796-1.946-2.796c-0.228,0-0.444,0.065-0.646,0.171V210.4C386.155,210.615,386.445,210.741,386.76,210.741z
	 M384.602,654.525c-1.547,0.584-9.329,2.729-40.419,3.004c-2.922,0-292.364,0.217-297.765,0.217v0.65l-0.072-0.65
	c-19.79-0.186-30.024-2.682-32.212-3.285V3.444h370.468v92.525v51.88V654.525L384.602,654.525z"/>
</svg>
