<?xml version="1.0" encoding="utf-8"?>
<!-- Generator: Adobe Illustrator 16.0.0, SVG Export Plug-In . SVG Version: 6.00 Build 0)  -->
<!DOCTYPE svg PUBLIC "-//W3C//DTD SVG 1.1//EN" "http://www.w3.org/Graphics/SVG/1.1/DTD/svg11.dtd">
<svg version="1.1" id="Calque_1" xmlns="http://www.w3.org/2000/svg" xmlns:xlink="http://www.w3.org/1999/xlink" x="0px" y="0px"
	 width="455px" height="900px" viewBox="0 0 455 900" enable-background="new 0 0 455 900" xml:space="preserve">
<circle fill="#FFFFFF" cx="224.667" cy="827.044" r="44.833"/>
<g id="XMLID_472_">
	<path fill="#FFFFFF" d="M60.983,899c-11.798,0-26.616-6.723-38.671-17.543c-7.919-7.107-21.204-22.045-21.204-42.223V212.082
		l0.047-1v-25.898H1.108v-54.266h-0.01v-22.892l0.01-1V49.999h-0.01V78.15l0.01-1V56.986c0-32.391,26.301-54.972,59.875-54.972
		h246.129V2h64.105l1,0.014h21.032c33.813,0,60.299,22.581,60.299,54.972v782.248c0,32.412-37.037,59.766-60.299,59.766H60.983z
		 M224.204,781.777c-24.965,0-45.276,20.277-45.276,45.203c0,24.92,20.311,45.193,45.276,45.193
		c24.97,0,45.284-20.273,45.284-45.193C269.488,802.055,249.174,781.777,224.204,781.777z M33.166,764.775h388.551V58.228H33.166
		V764.775z"/>
	<path fill="#7C7C7C" d="M370.219,3v0.014h2h21.032c33.252,0,59.299,22.141,59.299,53.972V232v87.638v104.099v139.93v275.568
		c0,19.705-13.316,34.439-21.255,41.469C419.43,891.211,404.497,898,393.251,898H60.983c-11.387,0-26.304-6.785-38.003-17.287
		c-7.795-6.996-20.872-21.689-20.872-41.479V563.666v-139.93V319.638V232v-18.918h0.047v-2v-24.898l-0.047-2v-52.266l-0.01-2
		v-20.892h0.01v-2V50.999l-0.01-2V79.15h0.01v-2V56.986c0-31.831,25.861-53.972,58.875-53.972h245.129l2-0.014H370.219
		 M32.166,765.775h2h386.551h2v-2V59.228v-2h-2H34.166h-2v2v704.55V765.775 M224.204,873.174c25.521,0,46.284-20.723,46.284-46.193
		c0-25.477-20.764-46.203-46.284-46.203c-25.517,0-46.276,20.727-46.276,46.203C177.928,852.451,198.687,873.174,224.204,873.174
		 M372.219,1h-66.105v0.014H60.983c-33.62,0-60.875,22.409-60.875,55.972V77.15h-0.01V50.999h0.01v56.028h-0.01v24.892h0.01v54.266
		h0.047v24.898H0.108V232v87.638v104.099v139.93v275.568C0.108,872.793,37.245,900,60.983,900h332.268
		c23.254,0,61.299-27.207,61.299-60.766V563.666v-139.93V319.638V232V56.986c0-33.563-27.679-55.972-61.299-55.972h-21.032V1
		L372.219,1z M34.166,763.775V59.228h386.551v704.55H34.166V763.775z M224.204,871.174c-24.449,0-44.276-19.787-44.276-44.193
		c0-24.412,19.827-44.203,44.276-44.203c24.459,0,44.284,19.791,44.284,44.203C268.488,851.387,248.663,871.174,224.204,871.174
		L224.204,871.174z"/>
</g>
<g id="XMLID_130_">
	<path fill="#7C7C7C" d="M229.418,815.898c3.739,0,6.781,3.029,6.781,6.756v10.014c0,3.723-3.042,6.752-6.781,6.752h-10.023
		c-3.734,0-6.772-3.029-6.772-6.752v-10.014c0-3.727,3.038-6.756,6.772-6.756H229.418 M219.395,839.252h10.023
		c3.641,0,6.602-2.953,6.602-6.584v-10.014c0-3.639-2.961-6.598-6.602-6.598h-10.023c-3.637,0-6.596,2.959-6.596,6.598v10.014
		C212.799,836.299,215.758,839.252,219.395,839.252 M229.418,813.898h-10.023c-4.832,0-8.772,3.93-8.772,8.756v10.014
		c0,4.82,3.94,8.752,8.772,8.752h10.023c4.842,0,8.781-3.932,8.781-8.752v-10.014C238.199,817.826,234.26,813.898,229.418,813.898
		L229.418,813.898z M219.395,837.252c-2.536,0-4.596-2.059-4.596-4.584v-10.014c0-2.529,2.061-4.598,4.596-4.598h10.023
		c2.539,0,4.602,2.066,4.602,4.598v10.014c0,2.525-2.063,4.584-4.602,4.584H219.395L219.395,837.252z"/>
</g>
</svg>
