<?xml version="1.0" encoding="utf-8"?>
<!-- Generator: Adobe Illustrator 16.0.0, SVG Export Plug-In . SVG Version: 6.00 Build 0)  -->
<!DOCTYPE svg PUBLIC "-//W3C//DTD SVG 1.1//EN" "http://www.w3.org/Graphics/SVG/1.1/DTD/svg11.dtd">
<svg version="1.1" id="Calque_1" xmlns="http://www.w3.org/2000/svg" xmlns:xlink="http://www.w3.org/1999/xlink" x="0px" y="0px"
	 width="381px" height="744px" viewBox="0 0 381 744" enable-background="new 0 0 381 744" xml:space="preserve">
<circle fill="#FFFFFF" cx="190.667" cy="684.463" r="37.5"/>
<path fill="#FFFFFF" d="M55.211,743c-19.504,0-49.393-22.087-49.393-49.301V162.631H1v-18.61h4.818V94.606H1V76.001h4.818v30.188H1
	V75.205h4.818V57.514c0-27.184,22.158-49.299,49.393-49.299h203.915V1h52.722v7.215h18.41C357.686,8.215,380,30.331,380,57.514
	v636.185C380,720.438,349.447,743,330.258,743H55.211L55.211,743z M190.322,645.964c-20.76,0-37.65,16.863-37.65,37.591
	c0,20.725,16.891,37.584,37.65,37.584c20.765,0,37.658-16.859,37.658-37.584C227.98,662.827,211.087,645.964,190.322,645.964z
	 M32.012,635.116h321.981V58H32.012V635.116z"/>
<path fill="#7C7C7C" d="M310.848,2v5.215v2h2h17.41C357.135,9.215,379,30.882,379,57.514v202v72.546v86.17v115.831v159.638
	c0,16.177-10.95,28.289-17.479,34.07c-9.763,8.645-22.033,14.229-31.265,14.229H55.211c-9.346,0-21.604-5.582-31.229-14.222
	c-6.41-5.753-17.164-17.831-17.164-34.079V534.063V418.23v-86.17V180.947v-17.316v-2h-2H2v-16.61h2.818h2v-2V95.606v-2h-2H2V77.001
	h2.818h2v-2v8.749v1.5v2.083v19.855V74.205V57.514c0-26.632,21.709-48.299,48.393-48.299h202.915h2v-2V2H310.848 M4.818,76.205
	l0.507-0.507 M5.131,105.501l-0.313-0.313 M31.012,636.116h2h319.981h2v-2V59v-2h-2H33.012h-2v2v575.116V636.116 M190.322,722.575
	c21.316,0,38.658-17.31,38.658-38.584c0-21.279-17.342-38.592-38.658-38.592c-21.313,0-38.65,17.313-38.65,38.592
	C151.672,705.266,169.01,722.575,190.322,722.575 M4.818,107.188V75H0v20.605h4.818v47.415H0v20.61h4.818v17.316v151.112v86.172
	v115.83v159.639C4.818,721.478,35.561,744,55.211,744h275.047c19.25,0,50.742-22.521,50.742-50.301V534.063V418.23v-86.17v-72.546
	v-202c0-27.783-22.911-50.299-50.742-50.299h-17.41V0l0,0h-54.722v7.215H55.211c-27.83,0-50.393,22.516-50.393,50.299v16.691
	V107.188z M33.012,634.116V59h319.981v575.116H33.012L33.012,634.116z M190.322,720.575c-20.238,0-36.65-16.383-36.65-36.584
	c0-20.209,16.412-36.592,36.65-36.592c20.248,0,36.658,16.383,36.658,36.592C226.98,704.192,210.568,720.575,190.322,720.575
	L190.322,720.575z"/>
<g id="XMLID_1_">
	<path fill="#7C7C7C" d="M195.282,672.451c3.687,0,6.687,2.987,6.687,6.662v9.906c0,3.672-3,6.659-6.687,6.659h-9.917
		c-3.684,0-6.68-2.987-6.68-6.659v-9.906c0-3.675,2.996-6.662,6.68-6.662H195.282 M185.366,695.555h9.917
		c3.611,0,6.551-2.932,6.551-6.534v-9.906c0-3.608-2.938-6.545-6.551-6.545h-9.917c-3.61,0-6.548,2.937-6.548,6.545v9.906
		C178.818,692.623,181.756,695.555,185.366,695.555 M195.282,670.451h-9.917c-4.781,0-8.68,3.888-8.68,8.662v9.906
		c0,4.769,3.898,8.659,8.68,8.659h9.917c4.788,0,8.687-3.892,8.687-8.659v-9.906C203.969,674.339,200.07,670.451,195.282,670.451
		L195.282,670.451z M185.366,693.555c-2.509,0-4.548-2.035-4.548-4.534v-9.906c0-2.502,2.039-4.545,4.548-4.545h9.917
		c2.512,0,4.551,2.043,4.551,4.545v9.906c0,2.499-2.039,4.534-4.551,4.534H185.366L185.366,693.555z"/>
</g>
</svg>
